<svg xmlns="http://www.w3.org/2000/svg" width="21" height="21" viewBox="0 0 21 21">
  <g id="Group_823" data-name="Group 823" transform="translate(-166.5 -282.5)">
    <g id="Checkboxes_Radio_Empty_Blue" data-name="Checkboxes – Radio / Empty Blue" transform="translate(167 307.672)">
      <path id="Information_Icon" data-name="Information Icon" d="M10,20A10,10,0,0,1,2.929,2.929,10,10,0,1,1,17.071,17.071,9.935,9.935,0,0,1,10,20ZM10,.833A9.167,9.167,0,0,0,3.518,16.482,9.167,9.167,0,1,0,16.482,3.518,9.107,9.107,0,0,0,10,.833Z" transform="translate(0 -24.672)" fill="#bdbdbd" stroke="rgba(0,0,0,0)" stroke-width="1"/>
    </g>
    <path id="Information_Icon-2" data-name="Information Icon" d="M5.833,11.667h0a5.833,5.833,0,1,1,5.833-5.833,5.833,5.833,0,0,1-5.833,5.833Z" transform="translate(171.167 287.167)" fill="#bdbdbd"/>
  </g>
</svg>
