<svg width="39" height="41" viewBox="0 0 39 41" fill="none" xmlns="http://www.w3.org/2000/svg">
<path d="M26.153 10.4252C26.1529 11.3596 25.9582 12.2837 25.5813 13.1388C25.2044 13.9938 24.6537 14.7609 23.9641 15.3914C23.2745 16.022 22.4612 16.5021 21.5759 16.8011C20.6907 17.1 19.7528 17.2114 18.8222 17.1281C17.1079 16.9214 15.5315 16.0851 14.399 14.7816C13.2666 13.4781 12.6588 11.8004 12.6937 10.074V8.07853C12.6594 6.35255 13.2674 4.67532 14.3998 3.37231C15.5322 2.0693 17.1083 1.23346 18.8222 1.0268C19.7528 0.943501 20.6907 1.05488 21.5759 1.35387C22.4612 1.65285 23.2745 2.13281 23.9641 2.76333C24.6537 3.39385 25.2044 4.16112 25.5813 5.01615C25.9582 5.87117 26.1529 6.79521 26.153 7.7296V10.4252Z" stroke="#1A242D" stroke-width="1.5" stroke-linecap="round" stroke-linejoin="round"/>
<path d="M22.962 23.3586L20.713 26.0472C20.555 26.2359 20.3575 26.3876 20.1344 26.4917C19.9114 26.5958 19.6683 26.6497 19.4222 26.6497C19.1761 26.6497 18.933 26.5958 18.7099 26.4917C18.4869 26.3876 18.2894 26.2359 18.1314 26.0472L15.8823 23.3586C15.4297 22.8061 14.8111 22.414 14.1183 22.2406C13.4254 22.0671 12.6951 22.1216 12.0355 22.3957C9.02353 23.707 6.41476 25.7962 4.47699 28.4488C2.53921 31.1014 1.34226 34.2219 1.00899 37.49C0.98463 37.7258 1.00991 37.9641 1.08323 38.1896C1.15655 38.415 1.27627 38.6226 1.43467 38.799C1.59308 38.9754 1.78666 39.1166 2.00295 39.2136C2.21925 39.3107 2.45347 39.3612 2.69053 39.3623H36.1492C36.3863 39.3612 36.6205 39.3107 36.8368 39.2136C37.0531 39.1166 37.2467 38.9754 37.4051 38.799C37.5635 38.6226 37.6832 38.415 37.7565 38.1896C37.8298 37.9641 37.8551 37.7258 37.8307 37.49C37.4975 34.2219 36.3005 31.1014 34.3627 28.4488C32.425 25.7962 29.8162 23.707 26.8042 22.3957C26.1452 22.1227 25.4159 22.0689 24.724 22.2423C24.0321 22.4157 23.4143 22.8071 22.962 23.3586V23.3586Z" stroke="#1A242D" stroke-width="1.5" stroke-linecap="round" stroke-linejoin="round"/>
</svg>
