<svg width="57" height="112" viewBox="0 0 57 112" fill="none" xmlns="http://www.w3.org/2000/svg">
<g clip-path="url(#clip0_1841_13529)">
<path d="M49.645 18.87H7.36499V80.36H49.645V18.87Z" fill="#7AA0D3"/>
<path d="M49.6349 99.23H7.3649C3.3149 99.23 0.0249023 95.94 0.0249023 91.89V7.34C0.0249023 3.29 3.3149 0 7.3649 0H49.6349C53.6849 0 56.9749 3.29 56.9749 7.34V91.89C56.9749 95.94 53.6849 99.23 49.6349 99.23ZM7.3649 3.14C5.0549 3.14 3.1749 5.02 3.1749 7.33V91.89C3.1749 94.2 5.0549 96.08 7.3649 96.08H49.6349C51.9449 96.08 53.8249 94.2 53.8249 91.89V7.34C53.8249 5.03 51.9449 3.15 49.6349 3.15H7.3649V3.14Z" fill="#1A242C"/>
<path d="M30.415 9.61H26.575V12.75H30.415V9.61Z" fill="#1A242C"/>
<path d="M36.1849 86.47H20.8149V89.61H36.1849V86.47Z" fill="#1A242C"/>
<path d="M28.3549 55.77C25.8149 55.77 23.7449 53.7 23.7449 51.16C23.7449 48.62 25.8149 46.55 28.3549 46.55C30.8949 46.55 32.9649 48.62 32.9649 51.16C32.9649 53.7 30.8949 55.77 28.3549 55.77ZM28.3549 49.57C27.4749 49.57 26.7649 50.28 26.7649 51.16C26.7649 52.04 27.4749 52.75 28.3549 52.75C29.2349 52.75 29.9449 52.04 29.9449 51.16C29.9449 50.28 29.2349 49.57 28.3549 49.57Z" fill="#1A242C"/>
<path d="M40.6847 55.77C38.1447 55.77 36.0747 53.7 36.0747 51.16C36.0747 48.62 38.1447 46.55 40.6847 46.55C43.2247 46.55 45.2847 48.62 45.2847 51.16C45.2847 53.7 43.2147 55.77 40.6847 55.77ZM40.6847 49.57C39.8047 49.57 39.0947 50.28 39.0947 51.16C39.0947 52.04 39.8047 52.75 40.6847 52.75C41.5647 52.75 42.2747 52.04 42.2747 51.16C42.2747 50.28 41.5647 49.57 40.6847 49.57Z" fill="#1A242C"/>
<path d="M28.3549 44.72C25.8149 44.72 23.7449 42.65 23.7449 40.11C23.7449 37.57 25.8149 35.5 28.3549 35.5C30.8949 35.5 32.9649 37.57 32.9649 40.11C32.9649 42.65 30.8949 44.72 28.3549 44.72ZM28.3549 38.52C27.4749 38.52 26.7649 39.23 26.7649 40.11C26.7649 40.99 27.4749 41.7 28.3549 41.7C29.2349 41.7 29.9449 40.99 29.9449 40.11C29.9449 39.23 29.2349 38.52 28.3549 38.52Z" fill="#1A242C"/>
<path d="M16.0348 44.72C13.4948 44.72 11.4248 42.65 11.4248 40.11C11.4248 37.57 13.4948 35.5 16.0348 35.5C18.5748 35.5 20.6448 37.57 20.6448 40.11C20.6448 42.65 18.5748 44.72 16.0348 44.72ZM16.0348 38.52C15.1548 38.52 14.4448 39.23 14.4448 40.11C14.4448 40.99 15.1548 41.7 16.0348 41.7C16.9148 41.7 17.6248 40.99 17.6248 40.11C17.6248 39.23 16.9148 38.52 16.0348 38.52Z" fill="#1A242C"/>
<path d="M40.6847 44.72C38.1447 44.72 36.0747 42.65 36.0747 40.11C36.0747 37.57 38.1447 35.5 40.6847 35.5C43.2247 35.5 45.2847 37.57 45.2847 40.11C45.2847 42.65 43.2147 44.72 40.6847 44.72ZM40.6847 38.52C39.8047 38.52 39.0947 39.23 39.0947 40.11C39.0947 40.99 39.8047 41.7 40.6847 41.7C41.5647 41.7 42.2747 40.99 42.2747 40.11C42.2747 39.23 41.5647 38.52 40.6847 38.52Z" fill="#1A242C"/>
<path d="M16.0348 33.67C13.4948 33.67 11.4248 31.6 11.4248 29.06C11.4248 26.52 13.4948 24.45 16.0348 24.45C18.5748 24.45 20.6448 26.52 20.6448 29.06C20.6448 31.6 18.5748 33.67 16.0348 33.67ZM16.0348 27.47C15.1548 27.47 14.4448 28.18 14.4448 29.06C14.4448 29.94 15.1548 30.65 16.0348 30.65C16.9148 30.65 17.6248 29.94 17.6248 29.06C17.6248 28.18 16.9148 27.47 16.0348 27.47Z" fill="#1A242C"/>
<path d="M28.3549 33.67C25.8149 33.67 23.7449 31.6 23.7449 29.06C23.7449 26.52 25.8149 24.45 28.3549 24.45C30.8949 24.45 32.9649 26.52 32.9649 29.06C32.9649 31.6 30.8949 33.67 28.3549 33.67ZM28.3549 27.47C27.4749 27.47 26.7649 28.18 26.7649 29.06C26.7649 29.94 27.4749 30.65 28.3549 30.65C29.2349 30.65 29.9449 29.94 29.9449 29.06C29.9449 28.18 29.2349 27.47 28.3549 27.47Z" fill="#1A242C"/>
<path d="M40.6847 33.67C38.1447 33.67 36.0747 31.6 36.0747 29.06C36.0747 26.52 38.1447 24.45 40.6847 24.45C43.2247 24.45 45.2847 26.52 45.2847 29.06C45.2847 31.6 43.2147 33.67 40.6847 33.67ZM40.6847 27.47C39.8047 27.47 39.0947 28.18 39.0947 29.06C39.0947 29.94 39.8047 30.65 40.6847 30.65C41.5647 30.65 42.2747 29.94 42.2747 29.06C42.2747 28.18 41.5647 27.47 40.6847 27.47Z" fill="#1A242C"/>
<path d="M36.4351 64.78C35.8251 64.17 35.0151 63.86 34.2151 63.86C33.4151 63.86 32.6051 64.17 31.9951 64.78C31.3851 65.39 31.0751 66.2 31.0751 67V65.43C31.0751 64.63 30.7651 63.82 30.1551 63.21C29.5451 62.6 28.7351 62.29 27.9351 62.29C27.1351 62.29 26.3251 62.6 25.7151 63.21C25.1051 63.82 24.7951 64.63 24.7951 65.43V63.86C24.7951 63.06 24.4851 62.25 23.8751 61.64C23.2651 61.03 22.4551 60.72 21.6551 60.72C20.8551 60.72 20.0451 61.03 19.4351 61.64C18.8251 62.25 18.5151 63.06 18.5151 63.86V52.86C18.5151 52.06 18.2051 51.25 17.5951 50.64C16.9851 50.03 16.1751 49.72 15.3751 49.72C14.5751 49.72 13.7651 50.03 13.1551 50.64C12.5451 51.25 12.2351 52.06 12.2351 52.86V71.72C12.2351 70.92 11.9251 70.11 11.3151 69.5C10.7051 68.89 9.89508 68.58 9.09508 68.58C8.29508 68.58 7.48508 68.89 6.87508 69.5C6.26508 70.11 5.95508 70.92 5.95508 71.72V79.61C5.95508 85.86 13.8151 93.72 13.8151 93.72V96.86H32.6751V93.72L37.3951 82.72V67C37.3951 66.2 37.0851 65.39 36.4751 64.78H36.4351Z" fill="#F8E0C0"/>
<path d="M13.775 78H10.635V52.85C10.635 51.59 11.125 50.41 12.015 49.52C12.905 48.63 14.095 48.14 15.355 48.14C16.615 48.14 17.795 48.63 18.685 49.52C19.575 50.41 20.065 51.6 20.065 52.86V70.15H16.925V52.86C16.925 52.44 16.765 52.05 16.465 51.75C15.875 51.16 14.835 51.16 14.245 51.75C13.945 52.05 13.785 52.44 13.785 52.86V78.01L13.775 78Z" fill="#1A242C"/>
<path d="M26.3551 70.14H23.2151V63.85C23.2151 63.43 23.0551 63.04 22.7551 62.74C22.1651 62.15 21.1251 62.15 20.5351 62.74C20.2351 63.04 20.0751 63.43 20.0751 63.85V70.14H16.9351V63.85C16.9351 62.59 17.4251 61.41 18.3151 60.52C19.2051 59.63 20.3951 59.14 21.6451 59.14C22.8951 59.14 24.0851 59.63 24.9751 60.52C25.8651 61.41 26.3551 62.6 26.3551 63.86V70.15V70.14Z" fill="#1A242C"/>
<path d="M32.6351 70.14H29.4951V65.42C29.4951 65 29.3351 64.61 29.0351 64.31C28.4451 63.72 27.4051 63.72 26.8151 64.31C26.5151 64.61 26.3551 65 26.3551 65.42V70.14H23.2151V65.42C23.2151 64.16 23.7051 62.98 24.5951 62.09C25.4851 61.2 26.6651 60.71 27.9251 60.71C29.1851 60.71 30.3651 61.2 31.2651 62.09C32.1551 62.98 32.6451 64.16 32.6451 65.42V70.14H32.6351Z" fill="#1A242C"/>
<path d="M34.2149 96.86H31.0749V93.39L35.7949 82.39V66.99C35.7949 66.57 35.6349 66.18 35.3349 65.88C34.7449 65.29 33.7049 65.28 33.1149 65.88C32.8149 66.18 32.6549 66.57 32.6549 66.99V70.13H29.5149V66.99C29.5149 65.73 30.0049 64.55 30.8949 63.66C31.7849 62.77 32.9749 62.28 34.2349 62.28C35.4949 62.28 36.6749 62.77 37.5649 63.66C38.4549 64.55 38.9449 65.74 38.9449 67V83.04L34.2249 94.04V96.86H34.2149Z" fill="#1A242C"/>
<path d="M15.345 96.86H12.205V94.35C10.445 92.48 4.34497 85.57 4.34497 79.6V71.71C4.34497 70.45 4.83497 69.27 5.72497 68.37C6.61497 67.48 7.80497 66.99 9.05497 66.99C10.305 66.99 11.495 67.48 12.385 68.37C13.275 69.26 13.765 70.45 13.765 71.71H10.625C10.625 71.29 10.465 70.89 10.165 70.6C9.57497 70.01 8.53497 70 7.94497 70.6C7.64497 70.9 7.48497 71.29 7.48497 71.71V79.6C7.48497 84.19 12.825 90.54 14.885 92.6L15.345 93.06V96.85V96.86Z" fill="#1A242C"/>
<path d="M35.785 111.01V96.86H10.635V111.01" fill="#E3152E"/>
<path d="M37.3549 111.01H34.2149V98.44H12.2049V111.01H9.06494V98.44C9.06494 97.6 9.39494 96.81 9.98494 96.22C10.5849 95.63 11.3649 95.3 12.2049 95.3H34.2149C35.0549 95.3 35.8449 95.63 36.4349 96.22C37.0249 96.82 37.3549 97.6 37.3549 98.44V111.01Z" fill="#1A242C"/>
<path d="M18.485 101.58H15.345V104.72H18.485V101.58Z" fill="#1A242C"/>
</g>
<defs>
<clipPath id="clip0_1841_13529">
<rect width="56.95" height="111.01" fill="white" transform="translate(0.0249023)"/>
</clipPath>
</defs>
</svg>
