<svg width="10" height="10" viewBox="0 0 10 10" fill="none" xmlns="http://www.w3.org/2000/svg">
<path d="M5.76929 4.23071V0.769286C5.76929 0.565258 5.68824 0.369588 5.54397 0.225319C5.3997 0.0810495 5.20403 0 5 0C4.79597 0 4.6003 0.0810495 4.45603 0.225319C4.31176 0.369588 4.23071 0.565258 4.23071 0.769286V4.23071H0.769285C0.565258 4.23071 0.369588 4.31176 0.225318 4.45603C0.0810494 4.6003 0 4.79597 0 5C0 5.20403 0.0810494 5.3997 0.225318 5.54397C0.369588 5.68824 0.565258 5.76929 0.769285 5.76929H4.23071V9.23071C4.23071 9.43474 4.31176 9.63041 4.45603 9.77468C4.6003 9.91895 4.79597 10 5 10C5.20403 10 5.3997 9.91895 5.54397 9.77468C5.68824 9.63041 5.76929 9.43474 5.76929 9.23071V5.76929H9.23071C9.43474 5.76929 9.63041 5.68824 9.77468 5.54397C9.91895 5.3997 10 5.20403 10 5C10 4.79597 9.91895 4.6003 9.77468 4.45603C9.63041 4.31176 9.43474 4.23071 9.23071 4.23071H5.76929Z" fill="black"/>
</svg>
