<svg xmlns="http://www.w3.org/2000/svg" width="38.208" height="38.208" viewBox="0 0 38.208 38.208">
  <g id="Group_1030" data-name="Group 1030" transform="translate(1206.63 456.911)">
    <circle id="Ellipse_27" data-name="Ellipse 27" cx="19.104" cy="19.104" r="19.104" transform="translate(-1206.63 -456.911)" fill="#288f80"/>
    <path id="Path_2271" data-name="Path 2271" d="M-1080.5-286.828a2.254,2.254,0,0,1-1.594-.66l-5.541-5.541a2.254,2.254,0,0,1,0-3.188,2.254,2.254,0,0,1,3.188,0l3.947,3.947,8.778-8.778a2.255,2.255,0,0,1,3.188,0,2.254,2.254,0,0,1,0,3.188l-10.372,10.372A2.254,2.254,0,0,1-1080.5-286.828Z" transform="translate(-109.444 -143.538)" fill="#fff"/>
  </g>
</svg>
