<?xml version="1.0" encoding="UTF-8"?>
<svg id="Layer_1" data-name="Layer 1" xmlns="http://www.w3.org/2000/svg" viewBox="0 0 25 30">
  <defs>
    <style>
      .cls-1 {
        stroke-dasharray: 0 0 3.33 3.33;
      }

      .cls-1, .cls-2 {
        fill: none;
        stroke: #e3152e;
        stroke-linecap: round;
        stroke-miterlimit: 10;
      }
    </style>
  </defs>
  <g>
    <line class="cls-2" x1="8.5" y1="8.5" x2="8.51" y2="10"/>
    <line class="cls-1" x1="8.52" y1="13.33" x2="8.54" y2="18.33"/>
    <line class="cls-2" x1="8.55" y1="20" x2="8.56" y2="21.5"/>
  </g>
  <path class="cls-2" d="M1.5,18.5c1.66,0,3-1.34,3-3s-1.34-3-3-3"/>
  <path class="cls-2" d="M23.5,18.5c-1.66,0-3-1.34-3-3s1.34-3,3-3"/>
  <path class="cls-2" d="M1.5,12.5V7.5c0-.55,.45-1,1-1H22.5c.55,0,1,.45,1,1v5"/>
  <path class="cls-2" d="M23.5,18.5v4c0,.55-.45,1-1,1H2.5c-.55,0-1-.45-1-1v-4"/>
</svg>