<svg width="16" height="8" viewBox="0 0 16 8" fill="none" xmlns="http://www.w3.org/2000/svg">
<g clip-path="url(#clip0_2054_5473)">
<path d="M11.7584 1.44531H3.39244C1.77854 1.44531 0.470215 2.75295 0.470215 4.366C0.470215 5.97904 1.77854 7.28668 3.39244 7.28668H11.7584C13.3723 7.28668 14.6806 5.97904 14.6806 4.366C14.6806 2.75295 13.3723 1.44531 11.7584 1.44531Z" fill="clear" stroke="#E21331" stroke-width="0.616503" stroke-miterlimit="10"/>
<path d="M11.8754 7.47467C13.5931 7.47467 14.9857 6.08216 14.9857 4.36441C14.9857 2.64666 13.5931 1.25415 11.8754 1.25415C10.1576 1.25415 8.76514 2.64666 8.76514 4.36441C8.76514 6.08216 10.1576 7.47467 11.8754 7.47467Z" fill="clear" stroke="#E21331" stroke-width="0.616503" stroke-miterlimit="10"/>
<path d="M3.04395 4.27816L3.87622 5.46801L6.5426 3.54761" stroke="#E21331" stroke-width="0.647328" stroke-linecap="round" stroke-linejoin="round"/>
</g>
<defs>
<clipPath id="clip0_2054_5473">
<rect width="15.1351" height="6.8401" fill="clear" transform="translate(0.162109 0.945923)"/>
</clipPath>
</defs>
</svg>
