<svg width="45" height="45" viewBox="0 0 45 45" fill="none" xmlns="http://www.w3.org/2000/svg">
<circle cx="22.5" cy="22.5" r="22" fill="#F4F4F4"/>
<path d="M30.4342 20.9766H14.9844V32.7482H30.4342V20.9766Z" fill="#CD3337"/>
<path d="M31.5371 17.2984H13.8809V20.9766H31.5371V17.2984Z" fill="#CD3337"/>
<path d="M23.5195 20.9766H21.9004V32.7482H23.5195V20.9766Z" fill="white"/>
<path d="M30.4342 23.3305H14.9844V24.9496H30.4342V23.3305Z" fill="white"/>
<path d="M23.8861 17.2984H21.5322V20.9766H23.8861V17.2984Z" fill="white"/>
<path d="M30.8176 33.1292H14.6035V20.5934H30.8176V33.1292ZM15.3678 32.3649H30.0533V21.3577H15.3678V32.3649Z" fill="#1C242B"/>
<path d="M31.9206 21.3577H13.5V16.9152H31.9206V21.3577ZM14.2643 20.5934H31.1563V17.6795H14.2643V20.5934Z" fill="#1C242B"/>
<path d="M23.0925 17.6795H20.5028C19.0753 17.6795 17.9131 16.5173 17.9131 15.0898C17.9131 13.6623 19.0753 12.5001 20.5028 12.5001C21.9303 12.5001 23.0925 13.6623 23.0925 15.0898V17.6795ZM20.5028 13.2643C19.4964 13.2643 18.6774 14.0834 18.6774 15.0898C18.6774 16.0962 19.4964 16.9152 20.5028 16.9152H22.3282V15.0898C22.3282 14.0834 21.5092 13.2643 20.5028 13.2643Z" fill="#1C242B"/>
<path d="M24.2546 17.6795H22.3281V15.753C22.3281 14.6897 23.1935 13.8244 24.2546 13.8244C25.3158 13.8244 26.1832 14.6897 26.1832 15.753C26.1832 16.8162 25.3179 17.6795 24.2546 17.6795ZM23.0924 16.9152H24.2546C24.8968 16.9152 25.4189 16.393 25.4189 15.753C25.4189 15.1129 24.8968 14.5887 24.2546 14.5887C23.6124 14.5887 23.0924 15.1108 23.0924 15.753V16.9152Z" fill="#1C242B"/>
</svg>
