<svg xmlns="http://www.w3.org/2000/svg" xmlns:xlink="http://www.w3.org/1999/xlink" width="23.475" height="14.205" viewBox="0 0 23.475 14.205">
  <defs>
    <clipPath id="clip-path">
      <rect id="Rectangle_64651" data-name="Rectangle 64651" width="23.475" height="14.205" fill="none"/>
    </clipPath>
  </defs>
  <g id="Group_2271" data-name="Group 2271" transform="translate(0 0)">
    <path id="Path_4522" data-name="Path 4522" d="M100.953,31.773H98.962v3.045h4.671Z" transform="translate(-81.825 -26.271)" fill="#5b94cf"/>
    <path id="Path_4523" data-name="Path 4523" d="M14.2,50.58H11.823V46.3h.8v3.488H14.2Z" transform="translate(-9.776 -38.279)" fill="#131b22"/>
    <path id="Path_4524" data-name="Path 4524" d="M6.178,0V.8h14.4V11.5H13.346v.8h8.027V0Z" transform="translate(-5.108 0)" fill="#131b22"/>
    <rect id="Rectangle_64636" data-name="Rectangle 64636" width="0.796" height="2.117" transform="translate(2.047 0.398)" fill="#131b22"/>
    <rect id="Rectangle_64637" data-name="Rectangle 64637" width="0.985" height="0.796" transform="translate(2.445 9.535)" fill="#131b22"/>
    <rect id="Rectangle_64638" data-name="Rectangle 64638" width="0.764" height="0.796" transform="translate(13.516 9.535)" fill="#131b22"/>
    <rect id="Rectangle_64639" data-name="Rectangle 64639" width="0.764" height="0.796" transform="translate(11.988 9.535)" fill="#131b22"/>
    <rect id="Rectangle_64640" data-name="Rectangle 64640" width="0.764" height="0.796" transform="translate(10.459 9.535)" fill="#131b22"/>
    <rect id="Rectangle_64641" data-name="Rectangle 64641" width="0.985" height="0.796" transform="translate(22.093 9.535)" fill="#131b22"/>
    <rect id="Rectangle_64642" data-name="Rectangle 64642" width="10.248" height="6.562" transform="translate(4.033 1.985)" fill="#d70024"/>
    <path id="Path_4525" data-name="Path 4525" d="M89.333,22.146v8.466h2.1v-.8h-1.3V22.942h3.257l3.157,3.587v3.287h-1.3v.8h2.1V26.229l-3.593-4.083Z" transform="translate(-73.864 -18.311)" fill="#131b22"/>
    <g id="Group_2270" data-name="Group 2270" transform="translate(0 0)">
      <g id="Group_2269" data-name="Group 2269" clip-path="url(#clip-path)">
        <path id="Path_4526" data-name="Path 4526" d="M29.388,59.641a1.9,1.9,0,1,1-1.9-1.9,1.9,1.9,0,0,1,1.9,1.9" transform="translate(-21.15 -47.739)" fill="#5b94cf"/>
        <path id="Path_4527" data-name="Path 4527" d="M25.581,60.044a2.3,2.3,0,1,1,2.3-2.3,2.305,2.305,0,0,1-2.3,2.3m0-3.809a1.507,1.507,0,1,0,1.507,1.507,1.508,1.508,0,0,0-1.507-1.507" transform="translate(-19.247 -45.839)" fill="#131b22"/>
        <rect id="Rectangle_64643" data-name="Rectangle 64643" width="0.764" height="0.796" transform="translate(5.951 11.505)" fill="#fff"/>
        <path id="Path_4528" data-name="Path 4528" d="M105.261,59.641a1.9,1.9,0,1,1-1.9-1.9,1.9,1.9,0,0,1,1.9,1.9" transform="translate(-83.885 -47.739)" fill="#5b94cf"/>
        <path id="Path_4529" data-name="Path 4529" d="M101.456,60.044a2.3,2.3,0,1,1,2.3-2.3,2.3,2.3,0,0,1-2.3,2.3m0-3.809a1.507,1.507,0,1,0,1.507,1.507,1.508,1.508,0,0,0-1.507-1.507" transform="translate(-81.984 -45.839)" fill="#131b22"/>
        <rect id="Rectangle_64644" data-name="Rectangle 64644" width="0.764" height="0.796" transform="translate(19.09 11.505)" fill="#fff"/>
        <rect id="Rectangle_64645" data-name="Rectangle 64645" width="6.275" height="0.796" transform="translate(0 3.34)" fill="#131b22"/>
        <rect id="Rectangle_64646" data-name="Rectangle 64646" width="3.142" height="0.796" transform="translate(2.827 6.396)" fill="#131b22"/>
        <rect id="Rectangle_64647" data-name="Rectangle 64647" width="6.24" height="0.796" transform="translate(1.375 4.868)" fill="#131b22"/>
        <rect id="Rectangle_64648" data-name="Rectangle 64648" width="0.764" height="0.796" transform="translate(0.631 9.535)" fill="#131b22"/>
        <rect id="Rectangle_64649" data-name="Rectangle 64649" width="0.764" height="0.796" transform="translate(7.922 3.34)" fill="#131b22"/>
        <rect id="Rectangle_64650" data-name="Rectangle 64650" width="1.757" height="0.796" transform="translate(0.306 6.396)" fill="#131b22"/>
      </g>
    </g>
  </g>
</svg>
