<?xml version="1.0" encoding="utf-8"?>
<!-- Generator: Adobe Illustrator 27.0.1, SVG Export Plug-In . SVG Version: 6.00 Build 0)  -->
<svg version="1.1" id="Layer_1" xmlns="http://www.w3.org/2000/svg" xmlns:xlink="http://www.w3.org/1999/xlink" x="0px" y="0px"
	 viewBox="0 0 200 200" style="enable-background:new 0 0 200 200;" xml:space="preserve">
<style type="text/css">
	.st0{fill:#EFE8E2;}
	.st1{fill:#7AA2D3;}
	.st2{fill:#FFFFFF;stroke:#1A242D;stroke-width:4.2349;stroke-miterlimit:10;}
	.st3{fill:none;stroke:#1A242D;stroke-width:5.0348;stroke-miterlimit:10;}
	.st4{fill:#E3152E;}
	.st5{fill:#1A242D;}
	.st6{fill:#1A232C;}
	.st7{fill:#E11E2F;}
	.st8{fill:#FFFFFF;}
	.st9{fill:none;stroke:#1A242D;stroke-width:4.2716;stroke-miterlimit:10;}
	.st10{fill:#FFFFFF;stroke:#1A242D;stroke-width:4.2716;stroke-miterlimit:10;}
	.st11{fill:#FFFFFF;stroke:#1A242D;stroke-miterlimit:10;}
	.st12{fill:none;stroke:#1A242D;stroke-width:1.1889;stroke-miterlimit:10;}
	.st13{fill:none;stroke:#1A242D;stroke-width:1.0087;stroke-miterlimit:10;}
	.st14{fill:#FFFFFF;stroke:#1A242D;stroke-width:1.0087;stroke-miterlimit:10;}
</style>
<g>
	<circle class="st0" cx="100" cy="100" r="73.77"/>
	<g>
		<g>
			<rect x="97.67" y="53.88" class="st5" width="4.65" height="4.16"/>
			<rect x="92.09" y="141.95" class="st5" width="15.81" height="4.16"/>
			<path class="st5" d="M128.44,154.15H71.56c-6.51,0-11.8-5.29-11.8-11.79v-84.7c0-6.51,5.3-11.8,11.8-11.8h56.88
				c6.51,0,11.8,5.29,11.8,11.8v84.7C140.24,148.86,134.95,154.15,128.44,154.15z M71.56,50.02c-4.21,0-7.64,3.42-7.64,7.64v84.7
				c0,4.2,3.43,7.62,7.64,7.62h56.88c4.21,0,7.63-3.42,7.63-7.62v-84.7c0-4.21-3.42-7.64-7.63-7.64H71.56z"/>
			<rect x="70.24" y="61.67" class="st4" width="59.53" height="76.65"/>
		</g>
		<g>
			<path class="st10" d="M82.45,108.53l14.37-24.89c1.41-2.45,4.94-2.45,6.35,0l14.37,24.89c1.41,2.45-0.35,5.5-3.18,5.5H85.63
				C82.8,114.03,81.04,110.97,82.45,108.53z"/>
			<g>
				<rect x="98.09" y="90.35" class="st5" width="3.82" height="12.4"/>
				<rect x="98.09" y="106.1" class="st5" width="3.82" height="3.35"/>
			</g>
		</g>
	</g>
</g>
</svg>
