<svg width="197" height="271" viewBox="0 0 197 271" fill="none" xmlns="http://www.w3.org/2000/svg">
<g clip-path="url(#clip0_1868_4776)">
<path d="M40.1307 128.7C40.6307 130.7 44.6307 130.3 44.4307 128.2L36.0307 31.7C35.4307 22.3 40.9307 16.4 49.3307 16.4C57.8307 16.4 61.0307 22 62.6307 31.7L71.6307 118.5C71.7307 120.6 76.8307 120.6 77.0307 118.5L78.5307 16.3C78.5307 7.8 83.4307 1 91.8307 1C100.331 1 105.131 7.9 105.131 16.3L107.331 121.4C107.231 123.5 111.331 123.8 111.631 121.7L123.931 27C126.131 17 128.831 11.7 137.231 11.7C145.731 11.7 150.231 16 149.231 31.2L135.031 133.1C135.031 133.1 169.331 82.3 192.831 105.8C197.331 110.4 196.331 119.8 191.731 124.3C183.831 131.9 168.431 150.2 159.931 165.8C133.331 216 120.831 228.8 84.4307 228.8C51.8307 228.8 26.9307 222.1 18.9307 157.7L18.1307 149.8C18.1307 141.9 16.1307 134.3 15.0307 126.5L1.93071 72.8C-0.76929 62.8 2.33071 53.2 12.4307 53.2C17.7307 53.4 22.2307 57.3 24.6307 66.6L40.1307 128.7Z" stroke="#19232D" stroke-width="2" stroke-linecap="round" stroke-linejoin="round"/>
<path d="M50.1 257.1H53.6C55.8 257.1 56.8 258.4 56.8 260.2C56.8 261.6 56.1 262.6 54.9 263L57.2 266.4H55L52.9 263.2H51.8V266.4H50L50.1 257.1ZM53.2 261.5C54.3 261.5 54.9 260.9 54.9 260.1C54.9 259.2 54.3 258.7 53.3 258.7H51.9V261.5H53.2Z" fill="#1A242C"/>
<path d="M58.3008 258C58.3008 257.4 58.8008 257 59.4008 257C60.0008 257 60.5008 257.5 60.5008 258C60.5008 258.6 60.0008 259.1 59.4008 259.1C58.8008 259.1 58.3008 258.6 58.3008 258ZM58.5008 260H60.2008V266.4H58.5008V260Z" fill="#1A242C"/>
<path d="M62.3008 268.4L62.7008 267C63.3008 267.4 63.9008 267.6 64.8008 267.6C66.0008 267.6 66.6008 266.9 66.6008 266.2V265.6C66.1008 266.1 65.5008 266.3 64.8008 266.3C63.1008 266.3 61.8008 265 61.8008 263.2C61.8008 261.3 63.0008 260 64.7008 260C65.4008 260 66.1008 260.2 66.6008 260.8V260.1H68.3008V265.7C68.3008 267.7 67.4008 269.1 65.0008 269.1C63.9008 269 63.0008 268.8 62.3008 268.4ZM66.6008 263C66.6008 262 65.9008 261.4 65.0008 261.4C64.1008 261.4 63.4008 262.1 63.4008 263C63.4008 264 64.1008 264.6 65.0008 264.6C65.9008 264.7 66.6008 264 66.6008 263Z" fill="#1A242C"/>
<path d="M69.8008 256.7H71.5008V260.7C72.0008 260.1 72.7008 259.8 73.6008 259.8C75.0008 259.8 75.9008 260.5 75.9008 262.4V266.2H74.3008V262.8C74.3008 261.6 73.9008 261.3 73.1008 261.3C72.2008 261.3 71.6008 261.9 71.6008 263V266.2H69.9008V256.7H69.8008Z" fill="#1A242C"/>
<path d="M77.7004 264.3V261.4H76.9004V260H77.7004V257.9L79.4004 257.7V259.9H81.1004V261.3H79.4004V264C79.4004 264.6 79.5004 264.8 79.9004 264.8C80.1004 264.8 80.4004 264.7 80.7004 264.6L81.1004 266C80.7004 266.2 80.3004 266.4 79.4004 266.4C78.4004 266.4 77.7004 265.7 77.7004 264.3Z" fill="#1A242C"/>
<path d="M85.8008 257.1H87.6008V261.1H91.4008V257.1H93.2008V266.3H91.4008V262.7H87.6008V266.3H85.8008V257.1Z" fill="#1A242C"/>
<path d="M94.8008 263.2C94.8008 261.3 96.1008 259.9 97.8008 259.9C98.5008 259.9 99.2008 260.2 99.7008 260.7V260H101.401V266.4H99.8008V265.6C99.4008 266.2 98.7008 266.5 97.9008 266.5C96.1008 266.4 94.8008 265.1 94.8008 263.2ZM99.7008 263.2C99.7008 262.2 99.0008 261.4 98.1008 261.4C97.2008 261.4 96.5008 262.1 96.5008 263.2C96.5008 264.2 97.2008 264.9 98.1008 264.9C99.0008 264.9 99.7008 264.2 99.7008 263.2Z" fill="#1A242C"/>
<path d="M103 260H104.7V260.8C105.2 260.2 105.9 259.9 106.7 259.9C108.1 259.9 109 260.6 109 262.6V266.4H107.3V263.1C107.3 261.9 106.9 261.5 106.1 261.5C105.2 261.5 104.7 262.1 104.7 263.2V266.4H103V260Z" fill="#1A242C"/>
<path d="M110.301 263.2C110.301 261.3 111.601 259.9 113.301 259.9C114.101 259.9 114.801 260.2 115.201 260.7V256.7H116.901V266.3H115.301V265.5C114.901 266.1 114.201 266.4 113.301 266.4C111.601 266.4 110.301 265.1 110.301 263.2ZM115.301 263.2C115.301 262.2 114.601 261.4 113.601 261.4C112.701 261.4 112.001 262.1 112.001 263.2C112.001 264.2 112.701 264.9 113.601 264.9C114.601 264.9 115.301 264.2 115.301 263.2Z" fill="#1A242C"/>
<path d="M117.03 4.2002H155.43V42.5002H117.03V4.2002Z" stroke="#E21432" stroke-width="3" stroke-linecap="round" stroke-linejoin="round"/>
</g>
<defs>
<clipPath id="clip0_1868_4776">
<rect width="196.74" height="270.6" fill="white"/>
</clipPath>
</defs>
</svg>
