<svg width="197" height="282" viewBox="0 0 197 282" fill="none" xmlns="http://www.w3.org/2000/svg">
<g clip-path="url(#clip0_1868_4789)">
<path d="M40.1307 140.1C40.6307 142.1 44.6307 141.7 44.4307 139.6L36.0307 43.0999C35.4307 33.6999 40.9307 27.7999 49.3307 27.7999C57.8307 27.7999 61.0307 33.3999 62.6307 43.0999L71.6307 129.9C71.7307 132 76.8307 132 77.0307 129.9L78.5307 27.6999C78.5307 19.1999 83.4307 12.3999 91.8307 12.3999C100.331 12.3999 105.131 19.2999 105.131 27.6999L107.331 132.8C107.231 134.9 111.331 135.2 111.631 133.1L123.931 38.3999C126.131 28.3999 128.831 23.0999 137.231 23.0999C145.731 23.0999 150.231 27.3999 149.231 42.5999L135.031 144.5C135.031 144.5 169.331 93.6999 192.831 117.2C197.331 121.8 196.331 131.2 191.731 135.7C183.831 143.3 168.431 161.6 159.931 177.2C133.331 227.4 120.831 240.2 84.4307 240.2C51.8307 240.2 26.9307 233.5 18.9307 169.1L18.1307 161.2C18.1307 153.3 16.1307 145.7 15.0307 137.9L1.93071 84.1999C-0.76929 74.1999 2.33071 64.5999 12.4307 64.5999C17.7307 64.7999 22.2307 68.6999 24.6307 77.9999L40.1307 140.1Z" stroke="#19232D" stroke-width="2" stroke-linecap="round" stroke-linejoin="round"/>
<path d="M47.1 268.4H50.6C52.8 268.4 53.8 269.7 53.8 271.5C53.8 272.9 53.1 273.9 51.9 274.3L54.2 277.7H52L49.9 274.5H48.8V277.7H47V268.4H47.1ZM50.2 272.8C51.3 272.8 51.9 272.2 51.9 271.4C51.9 270.5 51.3 270 50.3 270H48.9V272.8H50.2Z" fill="#1A242C"/>
<path d="M55.3008 269.3C55.3008 268.7 55.8008 268.3 56.4008 268.3C57.0008 268.3 57.5008 268.8 57.5008 269.3C57.5008 269.9 57.0008 270.4 56.4008 270.4C55.8008 270.4 55.3008 269.9 55.3008 269.3ZM55.5008 271.3H57.2008V277.7H55.5008V271.3Z" fill="#1A242C"/>
<path d="M59.3008 279.7L59.7008 278.3C60.3008 278.7 60.9008 278.9 61.8008 278.9C63.0008 278.9 63.6008 278.2 63.6008 277.5V276.9C63.1008 277.4 62.5008 277.6 61.8008 277.6C60.1008 277.6 58.8008 276.3 58.8008 274.5C58.8008 272.6 60.0008 271.3 61.7008 271.3C62.4008 271.3 63.1008 271.5 63.6008 272.1V271.4H65.3008V277C65.3008 279 64.4008 280.4 62.0008 280.4C60.9008 280.3 60.0008 280.1 59.3008 279.7ZM63.6008 274.3C63.6008 273.3 62.9008 272.7 62.0008 272.7C61.1008 272.7 60.4008 273.4 60.4008 274.3C60.4008 275.3 61.1008 275.9 62.0008 275.9C62.9008 276 63.6008 275.3 63.6008 274.3Z" fill="#1A242C"/>
<path d="M66.8008 268H68.5008V272C69.0008 271.4 69.7008 271.1 70.6008 271.1C72.0008 271.1 72.9008 271.8 72.9008 273.7V277.5H71.3008V274.1C71.3008 272.9 70.9008 272.6 70.1008 272.6C69.2008 272.6 68.6008 273.2 68.6008 274.3V277.5H66.9008V268H66.8008Z" fill="#1A242C"/>
<path d="M74.7004 275.6V272.7H73.9004V271.3H74.7004V269.2L76.4004 269V271.2H78.1004V272.6H76.4004V275.3C76.4004 275.9 76.5004 276.1 76.9004 276.1C77.1004 276.1 77.4004 276 77.7004 275.9L78.1004 277.3C77.7004 277.5 77.3004 277.7 76.4004 277.7C75.4004 277.7 74.7004 277 74.7004 275.6Z" fill="#1A242C"/>
<path d="M82.8008 268.4H84.6008V272.4H88.4008V268.4H90.2008V277.6H88.4008V274H84.6008V277.6H82.8008V268.4Z" fill="#1A242C"/>
<path d="M91.8008 274.5C91.8008 272.6 93.1008 271.2 94.8008 271.2C95.5008 271.2 96.2008 271.5 96.7008 272V271.3H98.4008V277.7H96.8008V276.9C96.4008 277.5 95.7008 277.8 94.9008 277.8C93.1008 277.7 91.8008 276.4 91.8008 274.5ZM96.7008 274.5C96.7008 273.5 96.0008 272.7 95.1008 272.7C94.2008 272.7 93.5008 273.4 93.5008 274.5C93.5008 275.5 94.2008 276.2 95.1008 276.2C96.0008 276.2 96.7008 275.5 96.7008 274.5Z" fill="#1A242C"/>
<path d="M100 271.3H101.7V272.1C102.2 271.5 102.9 271.2 103.7 271.2C105.1 271.2 106 271.9 106 273.9V277.7H104.3V274.4C104.3 273.2 103.9 272.8 103.1 272.8C102.2 272.8 101.7 273.4 101.7 274.5V277.7H100V271.3Z" fill="#1A242C"/>
<path d="M107.301 274.5C107.301 272.6 108.601 271.2 110.301 271.2C111.101 271.2 111.801 271.5 112.201 272V268H113.901V277.6H112.301V276.8C111.901 277.4 111.201 277.7 110.301 277.7C108.601 277.7 107.301 276.4 107.301 274.5ZM112.301 274.5C112.301 273.5 111.601 272.7 110.601 272.7C109.701 272.7 109.001 273.4 109.001 274.5C109.001 275.5 109.701 276.2 110.601 276.2C111.601 276.2 112.301 275.5 112.301 274.5Z" fill="#1A242C"/>
<path d="M73.0297 1.5H111.43V39.8H73.0297V1.5Z" stroke="#E21432" stroke-width="3" stroke-linecap="round" stroke-linejoin="round"/>
</g>
<defs>
<clipPath id="clip0_1868_4789">
<rect width="196.74" height="282" fill="white"/>
</clipPath>
</defs>
</svg>
