<svg width="25" height="32" viewBox="0 0 25 32" fill="none" xmlns="http://www.w3.org/2000/svg">
<path d="M7.32312 11.2195V6.10968C7.32312 4.7545 7.86145 3.45485 8.81971 2.49659C9.77797 1.53833 11.0776 1 12.4328 1V1C13.7873 1.00218 15.0858 1.54121 16.0436 2.499C17.0014 3.45679 17.5404 4.75517 17.5426 6.10968V11.2195" stroke="#1A242D" stroke-width="1.5" stroke-miterlimit="10" stroke-linecap="round"/>
<path d="M22.7431 8.58877L23.8804 29.059C23.8903 29.2328 23.8646 29.4069 23.8049 29.5705C23.7451 29.734 23.6527 29.8836 23.5331 30.0101C23.4135 30.1366 23.2692 30.2374 23.1093 30.3063C22.9494 30.3752 22.7772 30.4107 22.6031 30.4106H2.27953C2.10541 30.4107 1.9331 30.3752 1.77319 30.3063C1.61327 30.2374 1.46914 30.1366 1.34954 30.0101C1.22995 29.8836 1.13745 29.734 1.07771 29.5705C1.01797 29.4069 0.992182 29.2328 1.00205 29.059L2.13938 8.58877C2.15751 8.26225 2.29999 7.95513 2.53758 7.73042C2.77516 7.50571 3.08984 7.38053 3.41686 7.38062H21.4657C21.7928 7.38053 22.1073 7.50571 22.3449 7.73042C22.5825 7.95513 22.725 8.26225 22.7431 8.58877V8.58877Z" stroke="#1A242D" stroke-width="1.5" stroke-linejoin="round"/>
</svg>