<?xml version="1.0" encoding="UTF-8"?><svg id="Layer_1" xmlns="http://www.w3.org/2000/svg" viewBox="0 0 1080 1080"><defs><style>.cls-1{fill:#e3152e;}</style></defs><path class="cls-1" d="m905.68,1038.68H167.04V407.36c0-48.87,9.77-96.28,29.03-140.92,18.6-43.11,45.23-81.83,79.14-115.07,33.91-33.24,73.41-59.34,117.39-77.58,45.54-18.88,93.91-28.46,143.76-28.46s98.22,9.57,143.76,28.46c43.98,18.23,83.48,44.34,117.39,77.58,33.91,33.24,60.54,71.96,79.14,115.07,19.26,44.64,29.03,92.06,29.03,140.92v631.32Zm-700.73-37.16h662.82V407.36c0-86.77-34.47-168.35-97.07-229.71-62.59-61.36-145.82-95.15-234.34-95.15s-171.75,33.79-234.34,95.15c-62.59,61.36-97.07,142.94-97.07,229.71v594.15Z"/><circle class="cls-1" cx="458.65" cy="585.38" r="23.25"/><circle class="cls-1" cx="601.1" cy="585.38" r="23.25"/><rect class="cls-1" x="521.09" y="69.41" width="33.82" height="948.67"/></svg>