<svg width="16" height="16" viewBox="0 0 16 16" fill="none" xmlns="http://www.w3.org/2000/svg">
<g id="Icons/Outline/Mobile">
<mask id="mask0_615_11284" style="mask-type:alpha" maskUnits="userSpaceOnUse" x="0" y="0" width="16" height="16">
<rect id="Bounding box" width="16" height="16" fill="#D9D9D9"/>
</mask>
<g mask="url(#mask0_615_11284)">
<path id="call" d="M12.9553 13.6282C11.6587 13.6282 10.3748 13.3205 9.10339 12.7051C7.83203 12.0897 6.697 11.2827 5.69829 10.284C4.69957 9.28526 3.89145 8.1513 3.27394 6.88207C2.65642 5.61285 2.34766 4.32995 2.34766 3.03337C2.34766 2.83337 2.41432 2.66671 2.54766 2.53337C2.68099 2.40004 2.84766 2.33337 3.04766 2.33337H5.22197C5.39463 2.33337 5.54527 2.38658 5.67391 2.49299C5.80253 2.5994 5.88223 2.7368 5.91301 2.90517L6.29506 4.86669C6.32155 5.03079 6.31877 5.17994 6.28672 5.31412C6.25467 5.44831 6.18437 5.56541 6.07582 5.66541L4.54249 7.16413C5.06899 8.05815 5.69677 8.86584 6.42584 9.58721C7.1549 10.3086 7.98011 10.9376 8.90149 11.4744L10.3912 9.95901C10.4998 9.85046 10.6282 9.77333 10.7765 9.72761C10.9248 9.68188 11.0767 9.67226 11.2322 9.69876L13.0835 10.0757C13.2519 10.1133 13.3893 10.1947 13.4957 10.3199C13.6021 10.4451 13.6553 10.5941 13.6553 10.7667V12.9282C13.6553 13.1282 13.5886 13.2949 13.4553 13.4282C13.322 13.5615 13.1553 13.6282 12.9553 13.6282ZM4.06302 6.21799L5.25277 5.07952C5.27414 5.06243 5.28803 5.03892 5.29444 5.00901C5.30085 4.97909 5.29978 4.95131 5.29122 4.92567L5.00149 3.43592C4.99293 3.40174 4.97797 3.3761 4.95661 3.35901C4.93524 3.34191 4.90746 3.33336 4.87327 3.33336H3.44764C3.422 3.33336 3.40062 3.34191 3.38352 3.35901C3.36643 3.3761 3.35789 3.39746 3.35789 3.42311C3.39207 3.87866 3.46664 4.34149 3.58161 4.81157C3.69656 5.28166 3.85703 5.75047 4.06302 6.21799ZM9.83736 11.941C10.2792 12.147 10.7401 12.3045 11.2201 12.4135C11.7 12.5225 12.1485 12.5872 12.5656 12.6077C12.5912 12.6077 12.6126 12.5992 12.6297 12.5821C12.6468 12.565 12.6553 12.5436 12.6553 12.518V11.1154C12.6553 11.0812 12.6468 11.0534 12.6297 11.0321C12.6126 11.0107 12.5869 10.9957 12.5527 10.9872L11.1528 10.7026C11.1271 10.694 11.1047 10.693 11.0854 10.6994C11.0662 10.7058 11.0459 10.7197 11.0245 10.741L9.83736 11.941Z" fill="#A6A6A6"/>
</g>
</g>
</svg>
