<?xml version="1.0" encoding="utf-8"?>
<!-- Generator: Adobe Illustrator 26.3.1, SVG Export Plug-In . SVG Version: 6.00 Build 0)  -->
<svg version="1.1" id="_x3C_Layer_x3E_" xmlns="http://www.w3.org/2000/svg" xmlns:xlink="http://www.w3.org/1999/xlink" x="0px"
	 y="0px" viewBox="0 0 2200 2200" style="enable-background:new 0 0 2200 2200;" xml:space="preserve">
<style type="text/css">
	.st0{fill:none;}
	.st1{enable-background:new    ;}
	.st2{fill:#E21331;}
</style>
<g>
	<g>
		<path d="M1730.5,1684.9H469.5c-82.5,0-149.6-67.1-149.6-149.6V778.6c0-82.5,67.1-149.6,149.6-149.6h1082.8
			c40,0,77.5,15.6,105.8,43.8l178.3,178.3c28.3,28.3,43.8,65.8,43.8,105.8v578.3C1880.3,1617.8,1813.1,1684.9,1730.5,1684.9z
			 M469.5,676C413,676,367,722,367,778.5v756.7c0,56.5,46,102.5,102.5,102.5h1261.2c56.5,0,102.5-46,102.5-102.5V956.9
			c0-27.4-10.6-53.1-30-72.5l-178.3-178.3c-19.4-19.4-45.1-30-72.5-30H469.5V676z"/>
	</g>
	<rect x="290.5" y="945" class="st0" width="1618.9" height="423.9"/>
	<g class="st1">
		<path class="st2" d="M839.7,1217H699.1c6.6,24.2,25.8,38.6,52.9,38.6c22.6,0,38.1-9.4,48.7-22.6l34.8,32.4
			c-16.8,21.7-42.6,38.1-87.3,38.1c-61.4,0-104.9-41.4-104.9-104c0-61.1,42.2-102.8,101.6-102.8c56.5,0,95.9,42.6,95.9,101.2
			C840.9,1204.3,840.1,1213.7,839.7,1217z M699.5,1178.5h88.1c-5.4-21.4-19.7-35.3-43-35.3C722.9,1143.2,705.6,1155.6,699.5,1178.5z
			"/>
		<path class="st2" d="M869.1,1257.1l34.8-42.6c21.7,24.5,49.6,36.5,72.5,36.5c27.8,0,41.4-12.7,41.4-30.8
			c0-21.4-15.1-29.1-50.4-41.4c-44.2-15.1-88.1-35.3-88.1-90.6c0-46.8,41.4-82.8,93.4-83.2c36,0,69.2,13.1,98.4,36.9l-33.6,43.5
			c-24.2-19.7-45.5-28.7-63.5-28.7c-20,0-34.8,10.6-35.3,29.1c0,18.1,15.6,25.4,49.2,38.6c50.4,19.7,90.6,32.7,90.6,88.9
			c0,64-56.2,90.1-103.3,90.1C938,1303.4,899.9,1288.8,869.1,1257.1z"/>
		<path class="st2" d="M1117.1,1039.2c0-18.1,14.3-32.7,34.1-32.7c19.3,0,34.1,14.8,34.1,32.7c0,18.4-14.8,33.2-34.1,33.2
			C1131.4,1072.3,1117.1,1057.6,1117.1,1039.2z M1123.7,1099.4h53.7v200.4h-53.7V1099.4z"/>
		<path class="st2" d="M1233.1,1099.4h53.7v26.2h0.4c16-19.3,37.7-29.1,59.8-29.1c26.2,0,47.1,9.9,59,31.5h0.8
			c16.4-20.9,41.4-31.5,70.1-31.5c43,0,70.5,25.8,70.5,87.3v116h-53.7v-103.3c0-32-9.9-52-34.8-52c-22.6,0-41,19.3-41,55.3v100
			h-53.7v-103.3c0-32-10.6-52-35.3-52c-24.2,0-42.2,19.3-42.2,55.3v100h-53.7v-200.3H1233.1z"/>
	</g>
</g>
</svg>
