<svg id="Group_2284" data-name="Group 2284" xmlns="http://www.w3.org/2000/svg" xmlns:xlink="http://www.w3.org/1999/xlink" width="22.089" height="21.635" viewBox="0 0 22.089 21.635">
  <defs>
    <clipPath id="clip-path">
      <path id="Path_4562" data-name="Path 4562" d="M25.1,18.829a6.308,6.308,0,1,0,6.312-6.3h0a6.309,6.309,0,0,0-6.308,6.3" transform="translate(-25.1 -12.525)" fill="none"/>
    </clipPath>
    <clipPath id="clip-path-2">
      <rect id="Rectangle_64681" data-name="Rectangle 64681" width="22.089" height="21.635" fill="none"/>
    </clipPath>
  </defs>
  <g id="Group_2281" data-name="Group 2281" transform="translate(4.515 2.253)">
    <g id="Group_2280" data-name="Group 2280" clip-path="url(#clip-path)">
      <path id="Path_4557" data-name="Path 4557" d="M61.523,22.753h.451l.45.451.343.18.107-.18h.9l-.45-.451V22.3l-.451.45h-.451V22.3h-.451l-.9.45-.45-.451.451-.9,1.351.451.451-.45v-.451l-.451.45h-.451v-.451l.9-.9h.451l.45.9.9-.45h.451l.9-.45h.9l.9.451h.451l.451-.45,1.8.452h.451v.9l.45.451-.451.45-.45-.9v-.451h-.451l-.451.45.45.451v.9h.451l-.451.45-.45-.451v.9l-.451.45h-.451l.45.451v.451h-.451v.451H68.28l-.45-1.352h-.451v.451l-.451.9h-.451l-.45-1.352-.45-.451h-.451l.45.451-.9.45-.9-.9v.9l.45.451h.451v.451l-.451.9v.9l-.9,1.351h-.451l-.9-1.352v-.9l-.45-.9h-.9L60.17,25v-.9l.451-.9h.451Z" transform="translate(-53.862 -18.697)" fill="#5b94cf"/>
      <path id="Path_4558" data-name="Path 4558" d="M29.17,20.026l-.451.45h-.451l-.9-.451-1.8.449-.451.45v.451l.9-.45v.451l-.451.9v.9l.45.451v.451l.45.451h.451l.45.451.9.451-.451.45.45.9.45.451v1.352l.45,1.352.451-.45v-.451l.451-.45.451-.9.451-.45.451-.9-.45-.451-.9-.451-.45-.451-.45-.451-.9.45-.45-.451V24.08h-.9l.9-.9.45.451h.451V23.18l.451-.9h.451l.451-.45.451-.9h-.9l-.451.45v.451l-.45-.451v-.451l.9-.45Z" transform="translate(-25.111 -18.676)" fill="#5b94cf"/>
      <path id="Path_4559" data-name="Path 4559" d="M42.654,17.523v.451H43.1l.451-.45Z" transform="translate(-39.496 -16.624)" fill="#5b94cf"/>
      <path id="Path_4560" data-name="Path 4560" d="M57.681,17.533v.451l.45.451-.451.45.45.451.451-.45.9-.45.451-.45-.45-.451h-1.8Z" transform="translate(-51.82 -16.632)" fill="#5b94cf"/>
      <path id="Path_4561" data-name="Path 4561" d="M50.17,15.474l.45.451h.451v-.451l-.45-.451h-.451Z" transform="translate(-45.661 -14.574)" fill="#5b94cf"/>
    </g>
  </g>
  <g id="Group_2283" data-name="Group 2283">
    <g id="Group_2282" data-name="Group 2282" clip-path="url(#clip-path-2)">
      <path id="Path_4563" data-name="Path 4563" d="M39.272,107.453h-.9v-.9a.451.451,0,0,0-.45-.451l-9.011-.006a.451.451,0,0,0-.451.45v.9h-.9v-.9a1.352,1.352,0,0,1,1.352-1.351l9.012.006a1.352,1.352,0,0,1,1.351,1.353Z" transform="translate(-22.6 -86.272)" fill="#101b2f"/>
      <path id="Line_284" data-name="Line 284" d="M13.065-1.6,0-1.6v-.9L13.065-2.5Z" transform="translate(0.002 23.224)" fill="#101b2f"/>
      <path id="Line_285" data-name="Line 285" d="M7.658-1.6,0-1.6v-.9l7.66.005Z" transform="translate(13.969 23.233)" fill="#101b2f"/>
      <path id="Path_4564" data-name="Path 4564" d="M21.136,17.122H21.13a8.561,8.561,0,0,1-8.555-8.567h.9A7.66,7.66,0,1,0,21.141.9V0a8.561,8.561,0,0,1,6.043,14.618A8.505,8.505,0,0,1,21.136,17.122Z" transform="translate(-10.313 0)" fill="#101b2f"/>
      <path id="Path_4565" data-name="Path 4565" d="M29.353,23.537h0a6.759,6.759,0,1,1,6.763-6.754A6.766,6.766,0,0,1,29.349,23.537Zm0-12.616a5.857,5.857,0,0,0-.008,11.715l0,.451v-.451a5.857,5.857,0,0,0,0-11.715Z" transform="translate(-18.531 -8.218)" fill="#101b2f"/>
      <path id="Line_286" data-name="Line 286" d="M-1.133.138-1.77-.5-.494-1.773l.637.638Z" transform="translate(16.737 4.284)" fill="#101b2f"/>
      <path id="Line_287" data-name="Line 287" d="M-1.133.138-1.77-.5-.494-1.773l.637.638Z" transform="translate(6.536 14.472)" fill="#101b2f"/>
      <path id="Path_4566" data-name="Path 4566" d="M52.941,93.475l-.8-2.4h-.252l-.8,2.395-.855-.286,1.006-3.011h1.551l1,3.012Z" transform="translate(-41.202 -73.958)" fill="#101b2f"/>
    </g>
  </g>
</svg>
