<svg id="Group_2266" data-name="Group 2266" xmlns="http://www.w3.org/2000/svg" xmlns:xlink="http://www.w3.org/1999/xlink" width="18.256" height="26.015" viewBox="0 0 18.256 26.015">
  <defs>
    <clipPath id="clip-path">
      <rect id="Rectangle_64630" data-name="Rectangle 64630" width="18.256" height="26.015" fill="none"/>
    </clipPath>
  </defs>
  <g id="Group_2265" data-name="Group 2265" clip-path="url(#clip-path)">
    <path id="Path_4517" data-name="Path 4517" d="M40.581,26.015h-.913V1.759a.846.846,0,0,0-1.693,0V26.015h-.913V1.759a1.759,1.759,0,0,1,3.519,0Z" transform="translate(-29.693)" fill="#131b22"/>
    <path id="Path_4518" data-name="Path 4518" d="M18.256,21.753a9.128,9.128,0,1,1-9.128-9.128,9.129,9.129,0,0,1,9.128,9.128" transform="translate(0 -10.115)" fill="#d70024"/>
    <path id="Path_4519" data-name="Path 4519" d="M20.163,39.177a6.39,6.39,0,1,1,6.39-6.39,6.4,6.4,0,0,1-6.39,6.39m0-11.867a5.477,5.477,0,1,0,5.477,5.477,5.483,5.483,0,0,0-5.477-5.477" transform="translate(-11.035 -21.149)" fill="#fff"/>
    <rect id="Rectangle_64629" data-name="Rectangle 64629" width="0.913" height="11.866" transform="matrix(0.707, -0.707, 0.707, 0.707, 4.61, 7.765)" fill="#fff"/>
  </g>
</svg>
