<svg width="7" height="16" viewBox="0 0 7 16" fill="none" xmlns="http://www.w3.org/2000/svg">
    <path d="M3.89681 3.39453C3.89681 3.14086 3.69117 2.93522 3.4375 2.93522C3.18383 2.93522 2.97819 3.14086 2.97819 3.39453H3.89681ZM3.11272 12.3801C3.29209 12.5595 3.58291 12.5595 3.76228 12.3801L6.68529 9.45708C6.86466 9.27771 6.86466 8.98689 6.68529 8.80752C6.50592 8.62815 6.21511 8.62815 6.03574 8.80752L3.4375 11.4058L0.839265 8.80752C0.659894 8.62815 0.369077 8.62815 0.189706 8.80752C0.0103354 8.98689 0.0103354 9.27771 0.189706 9.45708L3.11272 12.3801ZM2.97819 3.39453L2.97819 12.0553H3.89681L3.89681 3.39453H2.97819Z" fill="#000000"/>
</svg>