<svg width="76" height="76" viewBox="0 0 76 76" fill="none" xmlns="http://www.w3.org/2000/svg">
<path d="M57.7978 30.3989C57.7978 45.5323 45.5322 57.7979 30.3989 57.7979C15.2656 57.7979 3 45.5323 3 30.3989C3 15.2656 15.2656 3.00003 30.3989 3.00003C45.5322 3.00003 57.7978 15.2656 57.7978 30.3989Z" stroke="#DB1239" stroke-width="5" stroke-linecap="round" stroke-linejoin="round"/>
<path d="M71.6955 71.6562C69.9115 73.4401 67.0194 73.4401 65.2354 71.6562L54.4737 60.8945C52.6897 59.1105 52.6897 56.2184 54.4737 54.4344C56.2577 52.6535 59.1468 52.6535 60.9307 54.4344L71.6955 65.1992C73.4794 66.9831 73.4794 69.8722 71.6955 71.6562Z" stroke="#DB1239" stroke-width="5" stroke-linecap="round" stroke-linejoin="round"/>
<path d="M54.7527 54.7532L48.6641 48.6645" stroke="#DB1239" stroke-width="5" stroke-miterlimit="10"/>
</svg>
