<svg width="52" height="52" viewBox="0 0 52 52" fill="none" xmlns="http://www.w3.org/2000/svg">
<path d="M16.1126 36.4126H18.5708V22.5168H16.1126V36.4126ZM24.7708 36.4126H27.2291V15.5876H24.7708V36.4126ZM33.4292 36.4126H35.8874V29.2918H33.4292V36.4126ZM10.7084 44.4167C9.85875 44.4167 9.1255 44.1083 8.50865 43.4914C7.8918 42.8746 7.58337 42.1413 7.58337 41.2917V10.7085C7.58337 9.85888 7.8918 9.12562 8.50865 8.50877C9.1255 7.89192 9.85875 7.5835 10.7084 7.5835H41.2916C42.1412 7.5835 42.8745 7.89192 43.4913 8.50877C44.1082 9.12562 44.4166 9.85888 44.4166 10.7085V41.2917C44.4166 42.1413 44.1082 42.8746 43.4913 43.4914C42.8745 44.1083 42.1412 44.4167 41.2916 44.4167H10.7084ZM10.7084 41.9584H41.2916C41.4583 41.9584 41.6111 41.889 41.75 41.7501C41.8889 41.6112 41.9583 41.4584 41.9583 41.2917V10.7085C41.9583 10.5418 41.8889 10.389 41.75 10.2501C41.6111 10.1112 41.4583 10.0418 41.2916 10.0418H10.7084C10.5417 10.0418 10.3889 10.1112 10.25 10.2501C10.1111 10.389 10.0417 10.5418 10.0417 10.7085V41.2917C10.0417 41.4584 10.1111 41.6112 10.25 41.7501C10.3889 41.889 10.5417 41.9584 10.7084 41.9584Z" fill="#E21331"/>
</svg>
