<?xml version="1.0" encoding="UTF-8"?>
<svg xmlns="http://www.w3.org/2000/svg" viewBox="0 0 39.24 38.76">
    <g id="Layer_2" data-name="Layer 2">
        <g id="Layer_1-2" data-name="Layer 1">
            <g id="Group_137" data-name="Group 137">
                <path id="Path_36" data-name="Path 36" d="M18.76,17.71a5.3,5.3,0,0,1-.6-2.44V5.8a2.44,2.44,0,0,0-2.44-2.44H5.35A2.47,2.47,0,0,0,2.87,5.83V17.71ZM2.87,33.46A2.44,2.44,0,0,0,5.31,35.9H18.16V20.58H2.87Zm30.06,2.43a2.43,2.43,0,0,0,2.43-2.43V23a2.43,2.43,0,0,0-2.43-2.44H23.46A5.17,5.17,0,0,1,21,20V35.89ZM5.31,38.76A5.32,5.32,0,0,1,0,33.46V5.85A5.36,5.36,0,0,1,5.35.49H15.72A5.31,5.31,0,0,1,21,5.8v9.47a2.44,2.44,0,0,0,2.44,2.44h9.46A5.31,5.31,0,0,1,38.23,23V33.46a5.3,5.3,0,0,1-5.3,5.3Z" fill="#E21331"></path>
                <path id="Path_37" data-name="Path 37" d="M31.91,14.66a2.1,2.1,0,0,1-2.1-2.1h0V2.1a2.1,2.1,0,1,1,4.2,0h0V12.56a2.1,2.1,0,0,1-2.1,2.1Z" fill="#E21331"></path>
                <path id="Path_38" data-name="Path 38" d="M37.14,9.43H26.68a2.1,2.1,0,0,1,0-4.2H37.14a2.1,2.1,0,1,1,0,4.2Z" fill="#E21331"></path>
            </g>
        </g>
    </g>
</svg>