<svg width="52" height="52" viewBox="0 0 52 52" fill="none" xmlns="http://www.w3.org/2000/svg">
<path d="M17.8417 38.0623H34.1583V35.604H17.8417V38.0623ZM17.8417 28.9998H34.1583V26.5415H17.8417V28.9998ZM12.8751 46.5831C12.0254 46.5831 11.2922 46.2746 10.6753 45.6578C10.0585 45.0409 9.75006 44.3077 9.75006 43.458V8.54154C9.75006 7.69188 10.0585 6.95863 10.6753 6.34178C11.2922 5.72493 12.0254 5.4165 12.8751 5.4165H31.7L42.25 15.9664V43.458C42.25 44.3077 41.9415 45.0409 41.3247 45.6578C40.7078 46.2746 39.9746 46.5831 39.1249 46.5831H12.8751ZM30.4709 17.0747V7.8748H12.8751C12.7084 7.8748 12.5556 7.94425 12.4167 8.08313C12.2778 8.22205 12.2084 8.37485 12.2084 8.54154V43.458C12.2084 43.6247 12.2778 43.7775 12.4167 43.9164C12.5556 44.0553 12.7084 44.1248 12.8751 44.1248H39.1249C39.2916 44.1248 39.4444 44.0553 39.5833 43.9164C39.7222 43.7775 39.7917 43.6247 39.7917 43.458V17.0747H30.4709Z" fill="#E21331"/>
</svg>
