<svg xmlns="http://www.w3.org/2000/svg" width="106.423" height="106.423" viewBox="0 0 106.423 106.423">
  <g id="Group_917" data-name="Group 917" transform="translate(1206.63 456.911)">
    <circle id="Ellipse_27" data-name="Ellipse 27" cx="53.211" cy="53.211" r="53.211" transform="translate(-1206.63 -456.911)" fill="#288f80"/>
    <path id="Path_2271" data-name="Path 2271" d="M-1066.579-260.26a6.279,6.279,0,0,1-4.44-1.839l-15.433-15.433a6.279,6.279,0,0,1,0-8.881,6.279,6.279,0,0,1,8.88,0l10.993,10.993,24.45-24.45a6.279,6.279,0,0,1,8.881,0,6.28,6.28,0,0,1,0,8.881l-28.89,28.89A6.279,6.279,0,0,1-1066.579-260.26Z" transform="translate(-93.567 -122.715)" fill="#fff"/>
  </g>
</svg>
