<svg width="48" height="45" viewBox="0 0 48 45" fill="none" xmlns="http://www.w3.org/2000/svg">
<path d="M36.7084 17C35.2453 17 33.7841 16.4453 32.6705 15.3318C30.4432 13.1048 30.4432 9.48386 32.6705 7.25685L38.6289 1.29717C39.0251 0.900944 39.6673 0.900944 40.0636 1.29717C40.4619 1.69543 40.4619 2.33752 40.0636 2.73375L34.1072 8.69343C32.6725 10.128 32.6725 12.4606 34.1072 13.8952C35.542 15.3277 37.8729 15.3277 39.3076 13.8952L45.2681 7.93755C45.6623 7.54132 46.3065 7.54132 46.7028 7.93755C47.0991 8.33378 47.0991 8.9779 46.7028 9.37413L40.7444 15.3318C39.6307 16.4453 38.1696 17 36.7084 17Z" fill="#CC092F"/>
<path d="M34.9991 25C31.524 25 28.2581 23.6991 25.8046 21.3384C23.349 18.9796 22 15.838 22 12.5011C22 9.16021 23.349 6.02054 25.8046 3.65981C29.4434 0.157566 34.9224 -0.944107 39.7569 0.846859C40.2895 1.04608 40.5568 1.62182 40.3496 2.1338C40.1444 2.64779 39.5414 2.90079 39.0109 2.70755C34.9411 1.19947 30.3304 2.12982 27.2697 5.06828C23.0092 9.16619 23.0092 15.832 27.2697 19.9299C29.3357 21.9141 32.0793 23.0078 34.9991 23.0078C37.9209 23.0078 40.6646 21.9141 42.7285 19.9299C45.7912 16.9875 46.7548 12.5569 45.1862 8.64424C44.9789 8.13025 45.2442 7.55452 45.7788 7.35729C46.3155 7.16405 46.9144 7.41307 47.1195 7.92904C48.9825 12.5748 47.8345 17.8381 44.1936 21.3384C41.74 23.6991 38.4742 25 34.9991 25Z" fill="#CC092F"/>
<path d="M8.71572 45C7.18665 45 5.75314 44.4063 4.67547 43.3265C3.59374 42.2468 3 40.8133 3 39.2862C3 37.7592 3.59374 36.3256 4.67547 35.2459L23.6221 16.2989C24.0186 15.9004 24.6632 15.9004 25.0597 16.2989C25.4562 16.6954 25.4562 17.338 25.0597 17.7365L6.11101 36.6835C5.41561 37.3789 5.03334 38.3041 5.03334 39.2862C5.03334 40.2704 5.41561 41.1935 6.11101 41.8889C7.54858 43.3225 9.88082 43.3245 11.3164 41.8889L30.2651 22.9399C30.6616 22.5434 31.3041 22.5434 31.7026 22.9399C32.0991 23.3385 32.0991 23.981 31.7026 24.3775L12.7539 43.3265C11.6742 44.4063 10.2407 45 8.71572 45Z" fill="#CC092F"/>
<path d="M9 40C9 40.552 8.552 41 8 41C7.448 41 7 40.552 7 40C7 39.448 7.448 39 8 39C8.552 39 9 39.448 9 40Z" fill="#CC092F"/>
<path d="M38 40C38 40.552 37.552 41 37 41C36.448 41 36 40.552 36 40C36 39.448 36.448 39 37 39C37.552 39 38 39.448 38 40Z" fill="#CC092F"/>
<path d="M4.81456 11.658L8.60955 12.9236L10.9241 10.6092L9.66038 6.81434L4.32108 4.14385L2.14588 6.31895L4.81456 11.658ZM8.87081 15C8.76631 15 8.66374 14.9826 8.56311 14.9497L3.82179 13.3687C3.57989 13.2874 3.38056 13.1113 3.26444 12.883L0.102274 6.56084C-0.0835078 6.18929 -0.0119043 5.7384 0.282251 5.44426L3.44442 2.28224C3.73857 1.9881 4.18948 1.9165 4.56298 2.10227L10.8854 5.26236C11.1137 5.37847 11.2899 5.57779 11.3692 5.82162L12.9503 10.5647C13.0664 10.911 12.9754 11.2961 12.7161 11.5535L9.55395 14.7155C9.3701 14.9013 9.12239 15 8.87081 15Z" fill="#CC092F"/>
<path d="M37.3126 45C35.7936 45 34.3657 44.4068 33.2922 43.3317L22.2962 32.34C21.9013 31.9452 21.9013 31.3034 22.2962 30.9086C22.6912 30.5138 23.3332 30.5138 23.7262 30.9086L34.7221 41.9003C36.1075 43.2872 38.5178 43.2872 39.9031 41.9003C41.3331 40.4729 41.3331 38.1466 39.9031 36.7192L28.9112 25.7275C28.5142 25.3327 28.5142 24.6929 28.9112 24.2961C29.3042 23.9013 29.9442 23.9013 30.3412 24.2961L41.3351 35.2878C43.555 37.5068 43.555 41.1127 41.3351 43.3317C40.2616 44.4068 38.8317 45 37.3126 45Z" fill="#CC092F"/>
<path d="M17.7278 24C17.47 24 17.2163 23.9021 17.0204 23.7083L8.29224 14.9777C7.90259 14.5881 7.90259 13.9566 8.29224 13.5649L11.5653 10.2937C11.7531 10.1059 12.0069 10 12.2727 10H12.2747C12.5364 10 12.7902 10.1059 12.9801 10.2937L21.7063 19.0422C22.0979 19.4339 22.0979 20.0654 21.7063 20.455C21.3166 20.8447 20.6832 20.8447 20.2915 20.455L12.2727 12.4119L10.4123 14.2723L18.4352 22.2935C18.8248 22.6851 18.8248 23.3166 18.4352 23.7083C18.2374 23.9021 17.9836 24 17.7278 24Z" fill="#CC092F"/>
</svg>
