<svg xmlns="http://www.w3.org/2000/svg" width="58.169" height="56.375" viewBox="0 0 58.169 56.375">
  <g id="Group_1023" data-name="Group 1023" transform="translate(-171.259 45.544)">
    <g id="Group_1020" data-name="Group 1020" transform="translate(184.915 -44.264)">
      <rect id="Rectangle_64034" data-name="Rectangle 64034" width="30.75" height="53.812" rx="2" transform="translate(0)" fill="#fff"/>
      <path id="Path_2355" data-name="Path 2355" d="M188.588-28.044" transform="translate(-157.838 71.607)" fill="#fff" stroke="#1a242d" stroke-linecap="round" stroke-linejoin="round" stroke-width="1"/>
      <path id="Path_2356" data-name="Path 2356" d="M176.588-28.044" transform="translate(-176.588 71.607)" fill="#fff" stroke="#1a242d" stroke-linecap="round" stroke-linejoin="round" stroke-width="1"/>
      <g id="Group_1019" data-name="Group 1019" transform="translate(11.531 47.407)">
        <line id="Line_68" data-name="Line 68" x2="5.125" transform="translate(1.282 1.28)" fill="#fff"/>
        <path id="Path_2357" data-name="Path 2357" d="M187.494-23.982h-5.125a1.282,1.282,0,0,1-1.281-1.281,1.282,1.282,0,0,1,1.281-1.281h5.125a1.282,1.282,0,0,1,1.281,1.281A1.282,1.282,0,0,1,187.494-23.982Z" transform="translate(-181.088 26.544)" fill="#1a242d"/>
      </g>
    </g>
    <path id="Path_2358" data-name="Path 2358" d="M229.428-17.359a13.662,13.662,0,0,0-12.482-13.584v-8.195a6.415,6.415,0,0,0-6.406-6.406h-20.5a6.414,6.414,0,0,0-6.406,6.406v8.205a13.662,13.662,0,0,0-12.374,13.574A13.66,13.66,0,0,0,183.633-3.783V4.425a6.414,6.414,0,0,0,6.406,6.406h20.5a6.415,6.415,0,0,0,6.406-6.406V-3.77A13.665,13.665,0,0,0,229.428-17.359ZM190.039-42.981h20.5a3.848,3.848,0,0,1,3.844,3.844v8.069H186.2v-8.069A3.848,3.848,0,0,1,190.039-42.981Zm20.5,51.25h-20.5A3.848,3.848,0,0,1,186.2,4.425V-3.647h28.187V4.425A3.848,3.848,0,0,1,210.539,8.268Z" fill="#1a242d"/>
    <path id="Path_2359" data-name="Path 2359" d="M194.442-19.949a1.935,1.935,0,0,1-.548-.082l-2.568-.774.146-.492a1.267,1.267,0,0,0-.095-.966,1.259,1.259,0,0,0-.753-.615,1.266,1.266,0,0,0-1.581.848l-.149.492-2.575-.779a1.9,1.9,0,0,1-1.125-.92,1.893,1.893,0,0,1-.144-1.445l3.68-12.192A1.891,1.891,0,0,1,189.648-38a1.875,1.875,0,0,1,1.448-.144l2.573.776-.146.489a1.271,1.271,0,0,0,.848,1.584,1.263,1.263,0,0,0,1.581-.851l.149-.489,2.57.776a1.9,1.9,0,0,1,1.125.92,1.893,1.893,0,0,1,.143,1.445L196.259-21.3A1.9,1.9,0,0,1,194.442-19.949Zm-1.894-1.558,1.642.495a.875.875,0,0,0,1.089-.584l3.677-12.192a.856.856,0,0,0-.067-.664.863.863,0,0,0-.515-.423l-1.645-.5a2.3,2.3,0,0,1-2.657,1.061,2.3,2.3,0,0,1-1.625-2.352l-1.65-.5a.855.855,0,0,0-.664.067.863.863,0,0,0-.423.515l-3.68,12.195a.856.856,0,0,0,.067.664.863.863,0,0,0,.515.423l1.65.5a2.294,2.294,0,0,1,2.657-1.058,2.274,2.274,0,0,1,1.358,1.112A2.286,2.286,0,0,1,192.549-21.507Z" transform="translate(21.422 11.433)" fill="#fff"/>
    <path id="Path_2360" data-name="Path 2360" d="M188.96-35.226a.5.5,0,0,1-.149-.023l-2.288-.692a.511.511,0,0,1-.343-.638.511.511,0,0,1,.638-.343l2.291.692a.509.509,0,0,1,.341.638A.509.509,0,0,1,188.96-35.226Z" transform="translate(23.279 13.436)" fill="#fff"/>
    <path id="Path_2361" data-name="Path 2361" d="M190.51-34.761a.5.5,0,0,1-.149-.023l-2.288-.689a.512.512,0,0,1-.343-.638.512.512,0,0,1,.638-.343l2.288.692a.51.51,0,0,1,.343.638A.512.512,0,0,1,190.51-34.761Z" transform="translate(25.7 14.168)" fill="#fff"/>
    <path id="Path_2362" data-name="Path 2362" d="M186.667-29.591a.5.5,0,0,1-.149-.023.509.509,0,0,1-.341-.638l1.535-5.087a.507.507,0,0,1,.638-.343.515.515,0,0,1,.343.638l-1.538,5.087A.509.509,0,0,1,186.667-29.591Z" transform="translate(23.275 15.371)" fill="#fff"/>
    <path id="Path_2363" data-name="Path 2363" d="M187.779-29.258a.479.479,0,0,1-.146-.021.513.513,0,0,1-.343-.638l1.535-5.089a.508.508,0,0,1,.638-.341.51.51,0,0,1,.343.638l-1.535,5.087A.515.515,0,0,1,187.779-29.258Z" transform="translate(25.013 15.897)" fill="#fff"/>
    <path id="Path_2364" data-name="Path 2364" d="M188.88-28.925a.482.482,0,0,1-.146-.023.511.511,0,0,1-.343-.638l1.535-5.087a.513.513,0,0,1,.638-.343.512.512,0,0,1,.343.638l-1.535,5.087A.514.514,0,0,1,188.88-28.925Z" transform="translate(26.733 16.417)" fill="#fff"/>
    <path id="Path_2365" data-name="Path 2365" d="M192.058-34.292a.483.483,0,0,1-.146-.023l-2.293-.692a.512.512,0,0,1-.341-.638.516.516,0,0,1,.638-.343l2.291.692a.513.513,0,0,1,.343.638A.517.517,0,0,1,192.058-34.292Z" transform="translate(28.119 14.898)" fill="#fff"/>
    <g id="Group_1022" data-name="Group 1022" transform="translate(178.685 -25.795)">
      <g id="Group_1021" data-name="Group 1021">
        <path id="Path_2366" data-name="Path 2366" d="M182.556-29.784a.79.79,0,0,1,.338.5.788.788,0,0,1-.12.594.778.778,0,0,1-.5.341.782.782,0,0,1-.592-.12l-3.429-2.283a.669.669,0,0,1-.264-.495V-35.8a.788.788,0,0,1,.236-.559.788.788,0,0,1,.559-.236.794.794,0,0,1,.561.236.785.785,0,0,1,.233.559v3.708a.66.66,0,0,0,.264.492Z" transform="translate(-168.176 39.785)" fill="#fff"/>
        <path id="Path_2367" data-name="Path 2367" d="M176.4-30.536a8.25,8.25,0,0,1,2.4-4.828,8.429,8.429,0,0,1,5.963-2.473,8.427,8.427,0,0,1,5.966,2.473A8.431,8.431,0,0,1,193.2-29.4a8.446,8.446,0,0,1-2.473,5.968,8.443,8.443,0,0,1-5.966,2.468,8.387,8.387,0,0,1-3.288-.666.779.779,0,0,1-.425-.431.8.8,0,0,1,0-.607.788.788,0,0,1,.436-.425.786.786,0,0,1,.6,0,6.785,6.785,0,0,0,2.67.541,6.841,6.841,0,0,0,4.846-2.006,6.861,6.861,0,0,0,2.006-4.843,6.872,6.872,0,0,0-2.006-4.846,6.863,6.863,0,0,0-4.846-2.006,6.87,6.87,0,0,0-4.843,2.006A6.672,6.672,0,0,0,178-30.506c-.02.174.064.213.187.09l.656-.653a.777.777,0,0,1,.559-.236.783.783,0,0,1,.561.236.785.785,0,0,1,.233.559.791.791,0,0,1-.233.561l-2.334,2.337a.633.633,0,0,1-.9,0L174.39-29.95a.781.781,0,0,1-.233-.561.775.775,0,0,1,.233-.559.787.787,0,0,1,.561-.236.787.787,0,0,1,.561.236l.628.625C176.263-30.319,176.379-30.362,176.4-30.536Z" transform="translate(-174.157 37.837)" fill="#fff"/>
      </g>
    </g>
  </g>
</svg>
