<svg xmlns="http://www.w3.org/2000/svg" width="24" height="24" viewBox="0 0 24 24">
  <g id="Change_numbers_2.0" data-name="Change numbers 2.0" transform="translate(24 24) rotate(180)">
    <rect id="Rectangle_63841" data-name="Rectangle 63841" width="24" height="24" fill="none"/>
    <g id="Group_622" data-name="Group 622" transform="translate(-1833 -389.905)">
      <g id="Layer_2" data-name="Layer 2" transform="translate(1834 393)">
        <path id="Path_2234" data-name="Path 2234" d="M29.714,3.856a.654.654,0,0,1-.484-.209l-2.287-2.5a.654.654,0,0,1,.928-.889l2.34,2.5a.637.637,0,0,1-.5,1.1Z" transform="translate(-9.298 -0.132)" fill="#fff"/>
        <path id="Path_2235" data-name="Path 2235" d="M27.4,7.685a.657.657,0,0,1-.49-1.091l2.281-2.542a.658.658,0,1,1,.987.869L27.886,7.463A.654.654,0,0,1,27.4,7.685Z" transform="translate(-9.267 -1.413)" fill="#fff"/>
        <path id="Path_2236" data-name="Path 2236" d="M29.679,20.1a.654.654,0,0,1-.484-.209l-2.287-2.477a.654.654,0,1,1,.961-.889l2.307,2.477a.654.654,0,0,1-.477,1.1Z" transform="translate(-9.263 -5.741)" fill="#fff"/>
        <path id="Path_2237" data-name="Path 2237" d="M27.4,23.956a.657.657,0,0,1-.49-1.091l2.281-2.542a.66.66,0,1,1,.987.876L27.9,23.74A.654.654,0,0,1,27.4,23.956Z" transform="translate(-9.267 -7.051)" fill="#fff"/>
        <path id="Path_2238" data-name="Path 2238" d="M19.507,16.243h0L15.031,16.2a1.608,1.608,0,0,1-1.17-.516L5.607,6a.268.268,0,0,0-.2-.078H.654a.654.654,0,1,1,0-1.307H5.411a1.588,1.588,0,0,1,1.176.523l8.274,9.679a.268.268,0,0,0,.2.078l4.457.046a.654.654,0,1,1,0,1.307Z" transform="translate(0 -1.684)" fill="#fff"/>
        <path id="Path_2239" data-name="Path 2239" d="M5.882,20.018H.654a.654.654,0,0,1,0-1.307H5.882a.288.288,0,0,0,.216-.1l2.568-2.934a.654.654,0,0,1,.987.856L7.078,19.475A1.582,1.582,0,0,1,5.882,20.018Z" transform="translate(0 -5.446)" fill="#fff"/>
        <path id="Path_2240" data-name="Path 2240" d="M16.825,8.9a.657.657,0,0,1-.49-1.085l2.993-3.438a1.588,1.588,0,0,1,1.2-.549h4.745a.654.654,0,1,1,0,1.307H20.544a.294.294,0,0,0-.216.1L17.322,8.679A.654.654,0,0,1,16.825,8.9Z" transform="translate(-5.605 -1.413)" fill="#fff"/>
      </g>
    </g>
  </g>
</svg>
