<svg width="208" height="267" viewBox="0 0 208 267" fill="none" xmlns="http://www.w3.org/2000/svg">
<g clip-path="url(#clip0_1868_4687)">
<path d="M166.603 128.7C166.103 130.7 162.103 130.3 162.303 128.2L170.703 31.7C171.303 22.3 165.803 16.4 157.403 16.4C148.903 16.4 145.703 22 144.103 31.7L135.103 118.5C134.903 120.6 129.903 120.6 129.803 118.5L128.203 16.3C128.203 7.8 123.303 1 114.903 1C106.403 1 101.603 7.9 101.603 16.3L99.4028 121.4C99.5028 123.5 95.4028 123.8 95.1028 121.7L82.9028 26.9C80.7028 16.9 78.1028 11.6 69.6028 11.6C61.1028 11.6 56.6028 15.9 57.6028 31.1L71.8028 132.9C71.8028 132.9 37.5028 82.1 14.0028 105.6C9.50279 110.2 10.5028 119.6 15.1028 124.1C23.0028 131.7 38.4028 150 46.9028 165.6C73.6028 215.8 86.0028 228.7 122.403 228.7C155.003 228.7 179.903 222 187.903 157.6L188.703 149.8C188.703 141.9 190.703 134.3 191.803 126.5L204.703 72.7C207.403 62.7 204.303 53.1 194.203 53.1C188.903 53.3 184.403 57.2 182.003 66.5L166.603 128.7Z" stroke="#19232D" stroke-width="2" stroke-linecap="round" stroke-linejoin="round"/>
<path d="M1.00273 92.3999H39.3027V130.8H1.00273V92.3999Z" stroke="#E21432" stroke-width="3" stroke-linecap="round" stroke-linejoin="round"/>
<path d="M94 257.1H95.9V264.7H100V266.3H94.1V257.1H94Z" fill="#1A242C"/>
<path d="M107.101 263.7H102.601C102.801 264.5 103.401 264.9 104.301 264.9C105.001 264.9 105.501 264.6 105.801 264.2L106.901 265.2C106.401 265.9 105.501 266.4 104.101 266.4C102.101 266.4 100.801 265.1 100.801 263.1C100.801 261.2 102.101 259.8 104.001 259.8C105.801 259.8 107.001 261.2 107.001 263C107.101 263.3 107.101 263.6 107.101 263.7ZM102.601 262.5H105.401C105.201 261.8 104.801 261.4 104.001 261.4C103.401 261.3 102.801 261.7 102.601 262.5Z" fill="#1A242C"/>
<path d="M108.7 261.4H108V260H108.7V258.9C108.7 257.4 109.4 256.7 110.7 256.7C111.5 256.7 112.1 257 112.3 257.2L111.9 258.5C111.5 258.3 111.2 258.2 111 258.2C110.6 258.2 110.4 258.4 110.4 259.1V260.1H111.8V261.5H110.4V266.4H108.7V261.4Z" fill="#1A242C"/>
<path d="M113.101 264.3V261.4H112.301V260H113.101V257.9L114.801 257.7V259.9H116.501V261.3H114.801V264C114.801 264.6 114.901 264.8 115.301 264.8C115.501 264.8 115.801 264.7 116.101 264.6L116.501 266C116.101 266.2 115.701 266.4 114.801 266.4C113.801 266.4 113.101 265.7 113.101 264.3Z" fill="#1A242C"/>
<path d="M121.199 257.1H122.999V261.1H126.799V257.1H128.599V266.3H126.799V262.7H122.999V266.3H121.199V257.1Z" fill="#1A242C"/>
<path d="M130.199 263.2C130.199 261.3 131.499 259.9 133.199 259.9C133.899 259.9 134.599 260.2 135.099 260.7V260H136.799V266.4H135.199V265.6C134.799 266.2 134.099 266.5 133.299 266.5C131.399 266.4 130.199 265.1 130.199 263.2ZM135.099 263.2C135.099 262.2 134.399 261.4 133.499 261.4C132.599 261.4 131.899 262.1 131.899 263.2C131.899 264.2 132.599 264.9 133.499 264.9C134.399 264.9 135.099 264.2 135.099 263.2Z" fill="#1A242C"/>
<path d="M138.4 260H140.1V260.8C140.6 260.2 141.3 259.9 142.1 259.9C143.5 259.9 144.4 260.6 144.4 262.6V266.4H142.7V263.1C142.7 261.9 142.3 261.5 141.5 261.5C140.6 261.5 140.1 262.1 140.1 263.2V266.4H138.4V260Z" fill="#1A242C"/>
<path d="M145.699 263.2C145.699 261.3 146.999 259.9 148.699 259.9C149.499 259.9 150.199 260.2 150.599 260.7V256.7H152.299V266.3H150.699V265.5C150.299 266.1 149.599 266.4 148.699 266.4C146.899 266.4 145.699 265.1 145.699 263.2ZM150.699 263.2C150.699 262.2 149.999 261.4 148.999 261.4C148.099 261.4 147.399 262.1 147.399 263.2C147.399 264.2 148.099 264.9 148.999 264.9C149.899 264.9 150.699 264.2 150.699 263.2Z" fill="#1A242C"/>
</g>
<defs>
<clipPath id="clip0_1868_4687">
<rect width="207.13" height="266.5" fill="white"/>
</clipPath>
</defs>
</svg>
