<?xml version="1.0" encoding="UTF-8" standalone="no" ?>
<!DOCTYPE svg PUBLIC "-//W3C//DTD SVG 1.1//EN" "http://www.w3.org/Graphics/SVG/1.1/DTD/svg11.dtd">
<svg xmlns="http://www.w3.org/2000/svg" xmlns:xlink="http://www.w3.org/1999/xlink" version="1.1" width="12" height="20" viewBox="0 0 12 20" xml:space="preserve">
<desc>Created with Fabric.js 4.6.0</desc>
<defs>
</defs>
<g transform="matrix(1 0 0 1 5.65 6.35)" id="6g5ntf20Jl-a31aievqzx"  >
<g style="" vector-effect="non-scaling-stroke"   >
		<g transform="matrix(1 0 0 1 -2.02 -0.02)" id="WQnsWRs2UD28DR8aftaxP"  >
<path style="stroke: rgb(226,19,49); stroke-width: 2; stroke-dasharray: none; stroke-linecap: round; stroke-dashoffset: 0; stroke-linejoin: round; stroke-miterlimit: 4; fill: none; fill-rule: nonzero; opacity: 1;" vector-effect="non-scaling-stroke"  transform=" translate(-2.98, -2.98)" d="M 0.999939 4.95215 L 4.95194 1.00015" stroke-linecap="round" />
</g>
		<g transform="matrix(1 0 0 1 1.93 -0.02)" id="SnZh3VpWwI8BhpgVZIVTH"  >
<path style="stroke: rgb(226,19,49); stroke-width: 2; stroke-dasharray: none; stroke-linecap: round; stroke-dashoffset: 0; stroke-linejoin: round; stroke-miterlimit: 4; fill: none; fill-rule: nonzero; opacity: 1;" vector-effect="non-scaling-stroke"  transform=" translate(-6.93, -2.98)" d="M 8.90293 4.95215 L 4.95093 1.00015" stroke-linecap="round" />
</g>
</g>
</g>
<g transform="matrix(1 0 0 1 5.65 18.08)" id="0NxLN7JKWFo6AzYj5bpEf"  >
<g style="" vector-effect="non-scaling-stroke"   >
		<g transform="matrix(1 0 0 1 2.02 -2.98)" id="wTvhJXL1nPTiLXwjP8ZdY"  >
<path style="stroke: rgb(226,19,49); stroke-width: 2; stroke-dasharray: none; stroke-linecap: round; stroke-dashoffset: 0; stroke-linejoin: round; stroke-miterlimit: 4; fill: none; fill-rule: nonzero; opacity: 1;" vector-effect="non-scaling-stroke"  transform=" translate(-7.02, -3.02)" d="M 9.00006 1.04785 L 5.04806 4.99985" stroke-linecap="round" />
</g>
		<g transform="matrix(1 0 0 1 -1.93 -2.98)" id="FODFNQS9ymphAoNumq_Am"  >
<path style="stroke: rgb(226,19,49); stroke-width: 2; stroke-dasharray: none; stroke-linecap: round; stroke-dashoffset: 0; stroke-linejoin: round; stroke-miterlimit: 4; fill: none; fill-rule: nonzero; opacity: 1;" vector-effect="non-scaling-stroke"  transform=" translate(-3.07, -3.02)" d="M 1.09707 1.04785 L 5.04907 4.99985" stroke-linecap="round" />
</g>
</g>
</g>
</svg>