<svg width="44" height="44" viewBox="0 0 44 44" fill="none" xmlns="http://www.w3.org/2000/svg">
    <circle cx="22" cy="22" r="22" fill="#F4F4F4"/>
    <g clip-path="url(#clip0_3377_32152)">
        <path d="M21.9989 35C14.8304 35 9 29.1674 9 21.9989C9 14.8304 14.8304 9 21.9989 9C29.1674 9 34.9977 14.8304 34.9977 21.9989C34.9977 29.1674 29.1651 34.9977 21.9989 34.9977V35ZM21.9989 10.0415C15.4055 10.0393 10.0393 15.4055 10.0393 21.9989C10.0393 28.5923 15.4055 33.9585 21.9989 33.9585C28.5923 33.9585 33.9585 28.5923 33.9585 21.9989C33.9585 15.4055 28.5945 10.0393 21.9989 10.0393V10.0415Z" fill="#19232D"/>
        <path d="M31.3595 21.9958C31.3595 27.165 27.1684 31.3561 21.9992 31.3561C16.83 31.3561 12.6389 27.165 12.6389 21.9958C12.6389 16.8266 16.8323 12.6378 21.9992 12.6378C27.1661 12.6378 31.3595 16.8289 31.3595 21.9981V21.9958Z" fill="#E21432"/>
        <path d="M22.6195 26.2261H21.3809C20.747 26.2261 20.1492 25.9793 19.7009 25.5309C19.2526 25.0804 19.0035 24.4849 19.0035 23.8486H20.0428C20.0428 24.2064 20.1832 24.5415 20.4345 24.7951C20.6858 25.0464 21.0232 25.1868 21.3787 25.1868H22.6172C22.9727 25.1868 23.3101 25.0487 23.5636 24.7951C23.815 24.5437 23.9531 24.2064 23.9531 23.8509C23.9531 23.4954 23.815 23.158 23.5614 22.9067C23.3078 22.6531 22.9727 22.515 22.6149 22.515H21.3764C20.7402 22.515 20.1447 22.2682 19.6964 21.8176C19.2481 21.3693 19.0013 20.7738 19.0013 20.1376C19.0013 19.5013 19.2481 18.9058 19.6986 18.4575C20.1469 18.0092 20.7447 17.7624 21.3787 17.7624H22.6172C23.2512 17.7624 23.8467 18.0092 24.2973 18.4575C24.7456 18.9081 24.9924 19.5036 24.9924 20.1398H23.9531C23.9531 19.7821 23.815 19.447 23.5614 19.1934C23.3078 18.9421 22.9727 18.8017 22.6149 18.8017H21.3764C21.0187 18.8017 20.6836 18.9421 20.43 19.1934C20.1764 19.4447 20.0383 19.7821 20.0383 20.1398C20.0383 20.4976 20.1764 20.8327 20.43 21.084C20.6836 21.3376 21.0187 21.4757 21.3764 21.4757H22.6149C23.2489 21.4757 23.8467 21.7225 24.295 22.1731C24.7433 22.6237 24.9901 23.2192 24.9901 23.8532C24.9901 24.4871 24.7433 25.0849 24.295 25.5332C23.8444 25.9838 23.2467 26.2306 22.6127 26.2306L22.6195 26.2261Z" fill="white"/>
        <path d="M22.5196 16.7976H21.4803V18.2829H22.5196V16.7976Z" fill="white"/>
        <path d="M22.5196 25.712H21.4803V27.1973H22.5196V25.712Z" fill="white"/>
    </g>
    <defs>
        <clipPath id="clip0_3377_32152">
            <rect width="26" height="26" fill="white" transform="translate(9 9)"/>
        </clipPath>
    </defs>
</svg>