<svg width="77" height="79" viewBox="0 0 77 79" fill="none" xmlns="http://www.w3.org/2000/svg">
<path d="M47.503 61.7689C47.503 61.7689 61.527 55.9795 66.4828 55.1411C70.6083 54.4419 73.2523 56.2745 74.8467 57.6133C76.7899 59.2437 76.1721 62.3786 73.7838 63.2369L34.5951 77.3176C31.7185 78.3515 28.5497 78.2057 25.7794 76.9133L2.91327 66.2327C1.74737 65.6859 1 64.5161 1 63.2303V45.3188C1 43.3471 2.70068 41.8326 4.66709 42.0149C8.46041 42.3662 13.6521 43.6718 20.9298 48.5134H21.4846H35.4487C43.2812 48.5134 47.503 54.4485 47.503 61.7689H20.9298H47.503Z" fill="#1A242D"/>
<path d="M47.503 61.7689C47.503 61.7689 61.527 55.9795 66.4828 55.1411C70.6083 54.4419 73.2524 56.2745 74.8467 57.6133C76.7899 59.2437 76.1721 62.3786 73.7838 63.2369L34.5951 77.3176C31.7185 78.3515 28.5497 78.2057 25.7794 76.9133L2.91327 66.2327C1.74737 65.6859 1 64.5161 1 63.2303V45.3188C1 43.3471 2.70068 41.8326 4.66709 42.0149C8.46041 42.3662 13.6521 43.6718 20.9299 48.5134H21.4846H35.4487C43.2812 48.5134 47.503 54.4485 47.503 61.7689ZM47.503 61.7689H20.9299" stroke="white" stroke-linecap="round" stroke-linejoin="round"/>
<path d="M22 44.506V18H68V51" fill="white"/>
<path d="M22 44.506V18H68V51" stroke="#1A242D" stroke-linecap="round" stroke-linejoin="round"/>
<path d="M40.1663 3.21321C43.7073 6.69725 44 16 44 16C44 16 34.8786 16.0519 31.3376 12.5679C27.7934 9.08381 28.7287 5.96992 31.169 3.3853C33.606 0.800672 36.6221 -0.270844 40.1663 3.21321Z" fill="#E21331" stroke="#E21331" stroke-linecap="round" stroke-linejoin="round"/>
<path d="M49.0893 3.21321C45.3122 6.69725 45 16 45 16C45 16 54.7261 16.0519 58.5066 12.5679C62.2871 9.08381 61.2893 5.96992 58.6864 3.3853C56.0869 0.800672 52.8698 -0.270844 49.0893 3.21321Z" fill="#E21331" stroke="#E21331" stroke-linecap="round" stroke-linejoin="round"/>
<path d="M45 18V48" stroke="#E21331" stroke-linecap="round" stroke-linejoin="round"/>
</svg>