<svg width="79" height="84" viewBox="0 0 79 84" fill="none" xmlns="http://www.w3.org/2000/svg">
<g clip-path="url(#clip0_2747_24933)">
<path d="M78.8435 84H0.15625V35.5633L39.4999 7.14062L78.8435 35.5633V84ZM3.73436 80.4296H75.2732V37.399L39.4999 11.551L3.73436 37.3912V80.4219V80.4296Z" fill="#19232D"/>
<path d="M10.533 41.7083V0H68.4672V41.7083L39.5001 59.3499L10.533 41.7083Z" fill="#78A4D7"/>
<path d="M76.1197 34.9623L38.5596 57.8262L40.4201 60.8825L77.9802 38.0187L76.1197 34.9623Z" fill="#19232D"/>
<path d="M2.87495 34.9479L1.01392 38.0039L38.5701 60.8743L40.4311 57.8183L2.87495 34.9479Z" fill="#19232D"/>
<path d="M2.87102 83.7358L1.01196 80.6867L39.5 57.2578L77.9802 80.6867L76.1211 83.7358L39.5 61.4426L2.87102 83.7358Z" fill="#19232D"/>
<path d="M39.4995 42.7832C30.632 42.7832 23.4136 35.5647 23.4136 26.6973C23.4136 17.8298 30.632 10.6113 39.4995 10.6113C48.367 10.6113 55.5854 17.8298 55.5854 26.6973C55.5854 27.6851 54.7843 28.4863 53.7964 28.4863C52.8085 28.4863 52.0073 27.6851 52.0073 26.6973C52.0073 19.7977 46.399 14.1817 39.4995 14.1817C32.6 14.1817 26.9917 19.7977 26.9917 26.6973C26.9917 33.5968 32.6 39.2129 39.4995 39.2129C41.7086 39.2129 43.871 38.6373 45.7534 37.5405C46.6091 37.0427 47.698 37.3382 48.1959 38.1939C48.6937 39.0495 48.3981 40.1385 47.5425 40.6363C45.1156 42.0442 42.3309 42.791 39.4917 42.791L39.4995 42.7832Z" fill="white"/>
<path d="M39.4995 35.6426C34.5757 35.6426 30.562 31.6366 30.562 26.7051C30.562 21.7735 34.5679 17.7676 39.4995 17.7676C44.4311 17.7676 48.437 21.7735 48.437 26.7051C48.437 31.6366 44.4233 35.6426 39.4995 35.6426ZM39.4995 21.3457C36.5437 21.3457 34.1401 23.7492 34.1401 26.7051C34.1401 29.6609 36.5437 32.0645 39.4995 32.0645C42.4553 32.0645 44.8667 29.6609 44.8667 26.7051C44.8667 23.7492 42.4631 21.3457 39.4995 21.3457Z" fill="white"/>
<path d="M50.2263 35.6426C48.7951 35.6426 47.4572 35.0903 46.446 34.0791C45.4348 33.0834 44.8669 31.73 44.8669 30.2832V26.7051C44.8669 25.7172 45.6681 24.916 46.656 24.916C47.6439 24.916 48.4451 25.7172 48.4451 26.7051V30.2832C48.4451 30.7654 48.6317 31.2088 48.9662 31.5433C49.6585 32.2356 50.8253 32.22 51.5098 31.5433C51.8287 31.2166 52.0154 30.7654 52.0154 30.2832V26.7051C52.0154 25.7172 52.8166 24.916 53.8044 24.916C54.7923 24.916 55.5935 25.7172 55.5935 26.7051V30.2832C55.5935 31.7144 55.0412 33.0601 54.0378 34.0713C53.0033 35.0903 51.6576 35.6426 50.2341 35.6426H50.2263Z" fill="white"/>
<path d="M34.6773 73.7168H31.457V77.2949H34.6773V73.7168Z" fill="#19232D"/>
<path d="M41.1102 73.7168H37.8899V77.2949H41.1102V73.7168Z" fill="#19232D"/>
<path d="M47.5431 73.7168H44.3228V77.2949H47.5431V73.7168Z" fill="#19232D"/>
</g>
<defs>
<clipPath id="clip0_2747_24933">
<rect width="78.6873" height="84" fill="white" transform="translate(0.15625)"/>
</clipPath>
</defs>
</svg>
