<svg width="206" height="271" viewBox="0 0 206 271" fill="none" xmlns="http://www.w3.org/2000/svg">
<g clip-path="url(#clip0_1868_4815)">
<path d="M48.703 128.6C49.203 130.6 53.203 130.2 53.003 128.1L44.603 31.6C44.003 22.2 49.503 16.3 57.903 16.3C66.403 16.3 69.603 21.9 71.203 31.6L80.203 118.4C80.303 120.5 85.403 120.5 85.603 118.4L87.103 16.3C87.103 7.8 92.003 1 100.403 1C108.903 1 113.703 7.9 113.703 16.3L115.903 121.4C115.803 123.5 119.903 123.8 120.203 121.7L132.503 26.9C134.703 16.9 137.303 11.6 145.803 11.6C154.303 11.6 158.803 15.9 157.803 31.1L143.603 133C143.603 133 177.903 82.2 201.403 105.7C205.903 110.3 204.903 119.7 200.303 124.2C192.403 131.8 177.003 150.1 168.503 165.7C141.903 215.9 129.403 228.7 93.003 228.7C60.403 228.7 35.503 222 27.503 157.6L26.703 149.7C26.703 141.8 24.703 134.2 23.603 126.4L10.503 72.7C7.80296 62.7 10.903 53.1 21.003 53.1C26.303 53.3 30.803 57.2 33.203 66.5L48.703 128.6Z" stroke="#19232D" stroke-width="2" stroke-linecap="round" stroke-linejoin="round"/>
<path d="M55.1 257H58.6C60.8 257 61.8 258.3 61.8 260.1C61.8 261.5 61.1 262.5 59.9 262.9L62.2 266.3H60L57.9 263.1H56.8V266.3H55V257H55.1ZM58.3 261.4C59.4 261.4 60 260.8 60 260C60 259.1 59.4 258.6 58.4 258.6H57V261.4H58.3Z" fill="#1A242C"/>
<path d="M63.4004 257.9C63.4004 257.3 63.9004 256.9 64.5004 256.9C65.1004 256.9 65.6004 257.4 65.6004 257.9C65.6004 258.5 65.1004 259 64.5004 259C63.8004 259 63.4004 258.5 63.4004 257.9ZM63.6004 259.9H65.3004V266.3H63.6004V259.9Z" fill="#1A242C"/>
<path d="M67.3008 268.3L67.7008 266.9C68.3008 267.3 68.9008 267.5 69.8008 267.5C71.0008 267.5 71.6008 266.8 71.6008 266.1V265.5C71.1008 266 70.5008 266.2 69.8008 266.2C68.1008 266.2 66.8008 264.9 66.8008 263.1C66.8008 261.2 68.0008 259.9 69.7008 259.9C70.4008 259.9 71.1008 260.1 71.6008 260.7V260H73.3008V265.6C73.3008 267.6 72.4008 269 70.0008 269C68.9008 268.9 68.1008 268.7 67.3008 268.3ZM71.6008 262.9C71.6008 261.9 70.9008 261.3 70.0008 261.3C69.1008 261.3 68.4008 262 68.4008 262.9C68.4008 263.9 69.1008 264.5 70.0008 264.5C70.9008 264.6 71.6008 263.9 71.6008 262.9Z" fill="#1A242C"/>
<path d="M74.9004 256.6H76.6004V260.6C77.1004 260 77.8004 259.7 78.7004 259.7C80.1004 259.7 81.0004 260.4 81.0004 262.3V266.1H79.3004V262.7C79.3004 261.5 78.9004 261.2 78.1004 261.2C77.2004 261.2 76.6004 261.8 76.6004 262.9V266.1H74.9004V256.6Z" fill="#1A242C"/>
<path d="M82.7004 264.2V261.3H81.9004V259.9H82.7004V257.8L84.4004 257.6V259.8H86.1004V261.2H84.4004V263.9C84.4004 264.5 84.5004 264.7 84.9004 264.7C85.1004 264.7 85.4004 264.6 85.7004 264.5L86.1004 265.9C85.7004 266.1 85.3004 266.3 84.4004 266.3C83.4004 266.3 82.7004 265.6 82.7004 264.2Z" fill="#1A242C"/>
<path d="M90.9004 257H92.7004V261H96.5004V257H98.3004V266.2H96.5004V262.6H92.7004V266.2H90.9004V257Z" fill="#1A242C"/>
<path d="M99.8008 263.1C99.8008 261.2 101.101 259.8 102.801 259.8C103.501 259.8 104.201 260.1 104.701 260.6V259.9H106.401V266.3H104.801V265.5C104.401 266.1 103.701 266.4 102.901 266.4C101.101 266.3 99.8008 265 99.8008 263.1ZM104.801 263.1C104.801 262.1 104.101 261.3 103.201 261.3C102.301 261.3 101.601 262 101.601 263.1C101.601 264.1 102.301 264.8 103.201 264.8C104.001 264.8 104.801 264.1 104.801 263.1Z" fill="#1A242C"/>
<path d="M108 259.9H109.7V260.7C110.2 260.1 110.9 259.8 111.7 259.8C113.1 259.8 114 260.5 114 262.5V266.3H112.4V263C112.4 261.8 112 261.4 111.2 261.4C110.3 261.4 109.8 262 109.8 263.1V266.3H108.1V259.9H108Z" fill="#1A242C"/>
<path d="M115.301 263.1C115.301 261.2 116.601 259.8 118.301 259.8C119.101 259.8 119.801 260.1 120.201 260.6V256.6H121.901V266.2H120.301V265.4C119.901 266 119.201 266.3 118.301 266.3C116.601 266.3 115.301 265 115.301 263.1ZM120.301 263.1C120.301 262.1 119.601 261.3 118.601 261.3C117.701 261.3 117.001 262 117.001 263.1C117.001 264.1 117.701 264.8 118.601 264.8C119.601 264.8 120.301 264.1 120.301 263.1Z" fill="#1A242C"/>
<path d="M1.00233 47.5H39.4023V85.9H1.00233V47.5Z" stroke="#E21432" stroke-width="3" stroke-linecap="round" stroke-linejoin="round"/>
</g>
<defs>
<clipPath id="clip0_1868_4815">
<rect width="205.81" height="270.5" fill="white"/>
</clipPath>
</defs>
</svg>
