<svg width="205" height="271" viewBox="0 0 205 271" fill="none" xmlns="http://www.w3.org/2000/svg">
<g clip-path="url(#clip0_1868_4759)">
<path d="M40.6288 128.6C41.1288 130.6 45.1287 130.2 44.9287 128.1L36.5287 31.6C35.9287 22.2 41.4288 16.3 49.8288 16.3C58.3288 16.3 61.5288 21.9 63.1288 31.6L72.1288 118.4C72.2288 120.5 77.3288 120.5 77.5288 118.4L79.0288 16.3C79.0288 7.8 83.9288 1 92.3288 1C100.829 1 105.629 7.9 105.629 16.3L107.829 121.4C107.729 123.5 111.829 123.8 112.129 121.7L124.429 26.9C126.629 16.9 129.229 11.6 137.729 11.6C146.229 11.6 150.729 15.9 149.729 31.1L135.529 133C135.529 133 169.829 82.2 193.329 105.7C197.829 110.3 196.829 119.7 192.229 124.2C184.329 131.8 168.929 150.1 160.429 165.7C133.829 215.9 121.329 228.7 84.9287 228.7C52.3288 228.7 27.4287 222 19.4287 157.6L18.6288 149.7C18.6288 141.8 16.6287 134.2 15.5287 126.4L2.42874 72.7C-0.271259 62.7 2.82874 53.1 12.9287 53.1C18.2287 53.3 22.7288 57.2 25.1288 66.5L40.6288 128.6Z" stroke="#19232D" stroke-width="2" stroke-linecap="round" stroke-linejoin="round"/>
<path d="M47.1 257H50.6C52.8 257 53.8 258.3 53.8 260.1C53.8 261.5 53.1 262.5 51.9 262.9L54.2 266.3H52L49.9 263.1H48.8V266.3H47V257H47.1ZM50.3 261.4C51.4 261.4 52 260.8 52 260C52 259.1 51.4 258.6 50.4 258.6H49V261.4H50.3Z" fill="#1A242C"/>
<path d="M55.4004 257.9C55.4004 257.3 55.9004 256.9 56.5004 256.9C57.1004 256.9 57.6004 257.4 57.6004 257.9C57.6004 258.5 57.1004 259 56.5004 259C55.8004 259 55.4004 258.5 55.4004 257.9ZM55.6004 259.9H57.3004V266.3H55.6004V259.9Z" fill="#1A242C"/>
<path d="M59.3008 268.3L59.7008 266.9C60.3008 267.3 60.9008 267.5 61.8008 267.5C63.0008 267.5 63.6008 266.8 63.6008 266.1V265.5C63.1008 266 62.5008 266.2 61.8008 266.2C60.1008 266.2 58.8008 264.9 58.8008 263.1C58.8008 261.2 60.0008 259.9 61.7008 259.9C62.4008 259.9 63.1008 260.1 63.6008 260.7V260H65.3008V265.6C65.3008 267.6 64.4008 269 62.0008 269C60.9008 268.9 60.1008 268.7 59.3008 268.3ZM63.6008 262.9C63.6008 261.9 62.9008 261.3 62.0008 261.3C61.1008 261.3 60.4008 262 60.4008 262.9C60.4008 263.9 61.1008 264.5 62.0008 264.5C62.9008 264.6 63.6008 263.9 63.6008 262.9Z" fill="#1A242C"/>
<path d="M66.9004 256.6H68.6004V260.6C69.1004 260 69.8004 259.7 70.7004 259.7C72.1004 259.7 73.0004 260.4 73.0004 262.3V266.1H71.3004V262.7C71.3004 261.5 70.9004 261.2 70.1004 261.2C69.2004 261.2 68.6004 261.8 68.6004 262.9V266.1H66.9004V256.6Z" fill="#1A242C"/>
<path d="M74.7004 264.2V261.3H73.9004V259.9H74.7004V257.8L76.4004 257.6V259.8H78.1004V261.2H76.4004V263.9C76.4004 264.5 76.5004 264.7 76.9004 264.7C77.1004 264.7 77.4004 264.6 77.7004 264.5L78.1004 265.9C77.7004 266.1 77.3004 266.3 76.4004 266.3C75.4004 266.3 74.7004 265.6 74.7004 264.2Z" fill="#1A242C"/>
<path d="M82.9004 257H84.7004V261H88.5004V257H90.3004V266.2H88.5004V262.6H84.7004V266.2H82.9004V257Z" fill="#1A242C"/>
<path d="M91.8008 263.1C91.8008 261.2 93.1008 259.8 94.8008 259.8C95.5008 259.8 96.2008 260.1 96.7008 260.6V259.9H98.4008V266.3H96.8008V265.5C96.4008 266.1 95.7008 266.4 94.9008 266.4C93.1008 266.3 91.8008 265 91.8008 263.1ZM96.8008 263.1C96.8008 262.1 96.1008 261.3 95.2008 261.3C94.3008 261.3 93.6008 262 93.6008 263.1C93.6008 264.1 94.3008 264.8 95.2008 264.8C96.0008 264.8 96.8008 264.1 96.8008 263.1Z" fill="#1A242C"/>
<path d="M100 259.9H101.7V260.7C102.2 260.1 102.9 259.8 103.7 259.8C105.1 259.8 106 260.5 106 262.5V266.3H104.4V263C104.4 261.8 104 261.4 103.2 261.4C102.3 261.4 101.8 262 101.8 263.1V266.3H100.1V259.9H100Z" fill="#1A242C"/>
<path d="M107.301 263.1C107.301 261.2 108.601 259.8 110.301 259.8C111.101 259.8 111.801 260.1 112.201 260.6V256.6H113.901V266.2H112.301V265.4C111.901 266 111.201 266.3 110.301 266.3C108.601 266.3 107.301 265 107.301 263.1ZM112.301 263.1C112.301 262.1 111.601 261.3 110.601 261.3C109.701 261.3 109.001 262 109.001 263.1C109.001 264.1 109.701 264.8 110.601 264.8C111.601 264.8 112.301 264.1 112.301 263.1Z" fill="#1A242C"/>
<path d="M165.03 92.2998H203.43V130.7H165.03V92.2998Z" stroke="#E21432" stroke-width="3" stroke-linecap="round" stroke-linejoin="round"/>
</g>
<defs>
<clipPath id="clip0_1868_4759">
<rect width="204.43" height="270.5" fill="white"/>
</clipPath>
</defs>
</svg>
