<svg xmlns="http://www.w3.org/2000/svg" xmlns:xlink="http://www.w3.org/1999/xlink" width="257" height="257" viewBox="0 0 257 257">
  <defs>
    <clipPath id="clip-path">
      <rect id="Rectangle_64504" data-name="Rectangle 64504" width="257" height="257" fill="none"/>
    </clipPath>
  </defs>
  <g id="Group_2225" data-name="Group 2225" transform="translate(-0.5 -0.5)">
    <g id="Group_2224" data-name="Group 2224" transform="translate(0.5 0.5)" clip-path="url(#clip-path)">
      <path id="Path_4394" data-name="Path 4394" d="M62.445,7.176c-17.8,5.954-40.084,13.41-52.891,34.205-17.065,27.709-7,62.391-2.309,78.581,7.923,27.315,17.171,28.259,18.618,47.839,2.47,33.44-24.982,46.476-17.564,63.21,12.894,29.083,79.573,30.264,123.571,20.45,26.831-5.985,87.37-19.488,113.535-76.224,20.118-43.624,14.7-101.508-21.327-138.194-26.192-26.67-61.647-31.136-88.444-34.8C120.106.124,93.5-3.212,62.445,7.176" transform="translate(-0.609 -0.609)" fill="#f0e9e3"/>
      <path id="Path_4395" data-name="Path 4395" d="M352.227,327.332H170.144l20.364,88.429a14.1,14.1,0,0,0,13.74,10.936H318.122a14.1,14.1,0,0,0,13.74-10.936Z" transform="translate(-118.07 -226.586)" fill="#fff"/>
      <path id="Path_4396" data-name="Path 4396" d="M317.087,426.126H203.213a14.5,14.5,0,0,1-14.193-11.3L168.656,326.4a.464.464,0,0,1,.453-.568H351.191a.464.464,0,0,1,.453.568L331.28,414.83a14.5,14.5,0,0,1-14.193,11.3M169.692,326.762l20.233,87.86A13.572,13.572,0,0,0,203.213,425.2H317.087a13.572,13.572,0,0,0,13.288-10.575l20.233-87.86Z" transform="translate(-117.034 -225.552)" fill="#1a242d"/>
      <path id="Path_4397" data-name="Path 4397" d="M336.4,307.833H152.406a6.573,6.573,0,0,1-6.573-6.573v-.633a6.573,6.573,0,0,1,6.573-6.573H336.4a6.573,6.573,0,0,1,6.573,6.573v.633a6.573,6.573,0,0,1-6.573,6.573" transform="translate(-101.286 -203.613)" fill="#fff"/>
      <path id="Path_4398" data-name="Path 4398" d="M335.363,307.262H151.369a7.045,7.045,0,0,1-7.037-7.037v-.633a7.046,7.046,0,0,1,7.037-7.037H335.363a7.045,7.045,0,0,1,7.037,7.037v.633a7.045,7.045,0,0,1-7.037,7.037M151.369,293.483a6.116,6.116,0,0,0-6.109,6.109v.633a6.116,6.116,0,0,0,6.109,6.109H335.363a6.115,6.115,0,0,0,6.108-6.109v-.633a6.115,6.115,0,0,0-6.108-6.109Z" transform="translate(-100.25 -202.577)" fill="#1a242d"/>
      <path id="Path_4399" data-name="Path 4399" d="M274.04,374.474H253.287a6.057,6.057,0,0,0-5.909,7.387l14.855,66.015a6.057,6.057,0,0,0,5.909,4.728h5.9a6.057,6.057,0,0,0,6.057-6.057V380.531a6.057,6.057,0,0,0-6.057-6.057" transform="translate(-171.285 -259.131)" fill="#f7c6cc"/>
      <path id="Path_4400" data-name="Path 4400" d="M607.675,381.861a6.057,6.057,0,0,0-5.91-7.387H581.013a6.057,6.057,0,0,0-6.057,6.057v66.015a6.057,6.057,0,0,0,6.057,6.057h5.9a6.058,6.058,0,0,0,5.91-4.728Z" transform="translate(-397.536 -259.131)" fill="#f7c6cc"/>
      <path id="Path_4401" data-name="Path 4401" d="M436.975,374.474H414.708a6.057,6.057,0,0,0-6.057,6.057v66.015a6.057,6.057,0,0,0,6.057,6.057h22.267a6.057,6.057,0,0,0,6.057-6.057V380.531a6.057,6.057,0,0,0-6.057-6.057" transform="translate(-282.726 -259.131)" fill="#f7c6cc"/>
      <path id="Path_4402" data-name="Path 4402" d="M209.8,289.836a10.018,10.018,0,1,1-10.018-10.018A10.018,10.018,0,0,1,209.8,289.836" transform="translate(-131.614 -193.785)" fill="#1a242d"/>
      <path id="Path_4403" data-name="Path 4403" d="M213.182,145.981a4.007,4.007,0,0,1-2.917-6.754L278.349,66.9a4.007,4.007,0,1,1,5.836,5.493L216.1,144.72a4,4,0,0,1-2.919,1.261" transform="translate(-145.016 -45.922)" fill="#fff"/>
      <path id="Path_4404" data-name="Path 4404" d="M212.146,145.41a4.472,4.472,0,0,1-3.255-7.537l68.084-72.33a4.471,4.471,0,1,1,6.511,6.13L215.4,144a4.489,4.489,0,0,1-3.257,1.407m68.087-80.344-.11,0a3.519,3.519,0,0,0-2.472,1.113l-68.084,72.33a3.543,3.543,0,1,0,5.159,4.856l68.084-72.33a3.543,3.543,0,0,0-2.577-5.971" transform="translate(-143.98 -44.886)" fill="#1a242d"/>
      <path id="Path_4405" data-name="Path 4405" d="M673.867,289.836a10.018,10.018,0,1,0,10.018-10.018,10.018,10.018,0,0,0-10.018,10.018" transform="translate(-465.821 -193.785)" fill="#1a242d"/>
      <path id="Path_4406" data-name="Path 4406" d="M545.49,145.981a4.007,4.007,0,0,0,2.917-6.754L480.323,66.9a4.007,4.007,0,0,0-5.836,5.493l68.084,72.33a4,4,0,0,0,2.919,1.261" transform="translate(-327.425 -45.922)" fill="#fff"/>
      <path id="Path_4407" data-name="Path 4407" d="M544.455,145.415a4.49,4.49,0,0,1-3.257-1.407l-68.083-72.33a4.472,4.472,0,1,1,6.512-6.13l68.084,72.33a4.471,4.471,0,0,1-3.255,7.537M476.369,65.072a3.541,3.541,0,0,0-2.579,5.969l68.084,72.33a3.543,3.543,0,0,0,5.008.152,3.547,3.547,0,0,0,.151-5.008L478.95,66.185a3.534,3.534,0,0,0-2.581-1.113" transform="translate(-326.389 -44.892)" fill="#1a242d"/>
      <path id="Path_4408" data-name="Path 4408" d="M605.9,68.139a.464.464,0,0,1-.395-.709L626.229,33.9a.465.465,0,0,1,.79.488L606.3,67.919a.465.465,0,0,1-.4.22" transform="translate(-418.578 -23.863)" fill="#e21432"/>
      <path id="Path_4409" data-name="Path 4409" d="M591.888,91.956a.465.465,0,0,1-.441-.611l5.8-17.49a.465.465,0,0,1,.882.293l-5.8,17.49a.465.465,0,0,1-.441.318" transform="translate(-408.905 -51.376)" fill="#e21432"/>
      <path id="Path_4410" data-name="Path 4410" d="M698.8,178.084a.465.465,0,0,1-.26-.85L729.6,156.366a.465.465,0,0,1,.518.771L699.059,178a.464.464,0,0,1-.259.079" transform="translate(-482.712 -108.504)" fill="#e21432"/>
      <path id="Path_4411" data-name="Path 4411" d="M681.921,181.574a.465.465,0,0,1-.352-.767l11.075-12.879a.465.465,0,0,1,.7.606l-11.075,12.879a.464.464,0,0,1-.353.162" transform="translate(-471.06 -116.428)" fill="#e21432"/>
      <path id="Path_4412" data-name="Path 4412" d="M711.252,233.789a.464.464,0,0,1-.264-.082l-5.318-3.667a.464.464,0,0,1,.014-.774L711,225.885a.464.464,0,0,1,.714.392v7.048a.464.464,0,0,1-.464.464m-4.477-4.116,4.013,2.767v-5.318Z" transform="translate(-487.638 -156.501)" fill="#1a242d"/>
      <path id="Path_4413" data-name="Path 4413" d="M64.228,538.063a2.977,2.977,0,1,1,2.977-2.977,2.98,2.98,0,0,1-2.977,2.977m0-5.024a2.048,2.048,0,1,0,2.048,2.048,2.05,2.05,0,0,0-2.048-2.048" transform="translate(-42.894 -367.957)" fill="#1a242d"/>
      <path id="Path_4414" data-name="Path 4414" d="M83.49,596.648a.465.465,0,0,1-.4-.229A78.568,78.568,0,0,1,72.474,563.28a.464.464,0,1,1,.925-.082,77.643,77.643,0,0,0,10.491,32.75.464.464,0,0,1-.4.7" transform="translate(-50.641 -389.127)" fill="#e21432"/>
      <path id="Path_4415" data-name="Path 4415" d="M96.078,520.423a.464.464,0,0,1-.406-.239C82.245,496.09,85.117,461.7,85.148,461.354a.464.464,0,0,1,.925.082c-.03.342-2.875,34.455,10.41,58.3a.465.465,0,0,1-.405.69" transform="translate(-59.2 -318.818)" fill="#e21432"/>
      <path id="Path_4416" data-name="Path 4416" d="M215.1,92.012a3.5,3.5,0,0,1-2.518-.854,2.753,2.753,0,0,1-.782-1.714,2.452,2.452,0,0,0-.435-1.2c-.564-.735-1.448-.76-2.472-.789a4.361,4.361,0,0,1-3.054-.887c-1.083-1-.946-2.4-.824-3.631.112-1.141.218-2.22-.492-3.047-.809-.943-2.146-.923-3.564-.9-1.575.024-3.2.049-4.287-1.246a4.665,4.665,0,0,1-.743-3.552c.069-1.029.128-1.917-.467-2.5-.842-.819-2.709-.746-5.4.212a.464.464,0,1,1-.311-.875c3.132-1.115,5.212-1.116,6.357,0,.9.878.823,2.07.746,3.223a3.849,3.849,0,0,0,.528,2.895c.8.956,2.142.935,3.561.913,1.568-.023,3.19-.048,4.283,1.226.968,1.129.831,2.518.711,3.743-.114,1.164-.213,2.169.531,2.859a3.557,3.557,0,0,0,2.449.64,3.729,3.729,0,0,1,3.182,1.152,3.318,3.318,0,0,1,.614,1.612,1.889,1.889,0,0,0,.509,1.2,3.443,3.443,0,0,0,3,.493.464.464,0,0,1,.154.916,7.821,7.821,0,0,1-1.284.115" transform="translate(-131.392 -49.066)" fill="#e21432"/>
      <path id="Path_4417" data-name="Path 4417" d="M267.593,85.98a.464.464,0,0,1-.42-.265L257.9,66.169a.465.465,0,1,1,.839-.4l9.271,19.546a.465.465,0,0,1-.42.664" transform="translate(-178.624 -45.831)" fill="#e21432"/>
      <path id="Path_4418" data-name="Path 4418" d="M169.522,52.71a2.675,2.675,0,1,1,2.676-2.675,2.678,2.678,0,0,1-2.676,2.675m0-4.422a1.747,1.747,0,1,0,1.747,1.747,1.749,1.749,0,0,0-1.747-1.747" transform="translate(-115.793 -33.304)" fill="#1a242d"/>
      <path id="Path_4419" data-name="Path 4419" d="M158.379,703.254l-8.415,7.577,4.073,3.74,7.39-7.3Z" transform="translate(-104.139 -486.108)" fill="#fff"/>
      <path id="Path_4420" data-name="Path 4420" d="M153,714a.464.464,0,0,1-.314-.122l-4.073-3.74a.464.464,0,0,1,0-.687l8.414-7.578a.46.46,0,0,1,.355-.117.467.467,0,0,1,.326.182l3.048,4.019a.465.465,0,0,1-.044.611l-7.39,7.3A.464.464,0,0,1,153,714m-3.382-4.2,3.371,3.1,6.785-6.7-2.5-3.292Z" transform="translate(-103.104 -485.072)" fill="#1a242d"/>
      <path id="Path_4421" data-name="Path 4421" d="M140.7,717.157l2.93,4.908,2.648-.928s2.589,17.13,2.619,18.453-2.65,2.83-4.649,1.48-7.168-11.886-7.979-13.161-3.814-6-.893-8.342a9.834,9.834,0,0,1,5.325-2.41" transform="translate(-93.207 -495.707)" fill="#c1afa3"/>
      <path id="Path_4422" data-name="Path 4422" d="M144.925,741.029a3.527,3.527,0,0,1-2-.609c-1.481-1-4.2-5.98-6.859-10.995-.594-1.12-1.063-2.005-1.252-2.3-2.678-4.212-2.945-7.224-.791-8.954a10.233,10.233,0,0,1,5.6-2.512.458.458,0,0,1,.411.226l2.735,4.582,2.29-.8a.464.464,0,0,1,.613.369c.106.7,2.594,17.175,2.624,18.512a2.416,2.416,0,0,1-1.444,1.989,4.1,4.1,0,0,1-1.93.5m-5.533-24.416a10.179,10.179,0,0,0-4.786,2.281c-1.723,1.383-1.389,3.984.994,7.73.208.328.662,1.183,1.289,2.366,1.67,3.151,5.146,9.707,6.558,10.66a2.861,2.861,0,0,0,2.964.068c.583-.318.969-.782.961-1.153-.022-.992-1.618-11.793-2.53-17.84l-2.119.742a.464.464,0,0,1-.552-.2Z" transform="translate(-92.142 -494.671)" fill="#1a242d"/>
      <path id="Path_4423" data-name="Path 4423" d="M150.25,746.738a.459.459,0,0,1-.128-.018,7.667,7.667,0,0,1-4.907-4.267l-6.983-15.708a.464.464,0,0,1,.849-.377l6.983,15.708a6.742,6.742,0,0,0,4.314,3.752.464.464,0,0,1-.128.911" transform="translate(-96.011 -501.875)" fill="#1a242d"/>
      <path id="Path_4424" data-name="Path 4424" d="M198.454,424.473c.368.7,6.313,34.835-1.753,60.477s-22.276,32.433-22.276,32.433l-6.015-6.046s9.731-8.507,12.853-39.184c3.547-34.843-3.845-47.337-3.845-47.337Z" transform="translate(-116.873 -293.649)" fill="#1a242d"/>
      <path id="Path_4425" data-name="Path 4425" d="M166.536,695.73l-1.432,2.229a1.751,1.751,0,0,0,.305,2.251L170.76,705a1.751,1.751,0,0,0,2.016.228l1.257-.7a1.086,1.086,0,0,0,.308-1.646l-6.058-7.265a1.086,1.086,0,0,0-1.748.109" transform="translate(-114.398 -480.57)" fill="#e21432"/>
      <path id="Path_4426" data-name="Path 4426" d="M262.611,739.061l6.856,11.68,4.077-2.417-4.576-12.533Z" transform="translate(-181.906 -508.57)" fill="#fff"/>
      <path id="Path_4427" data-name="Path 4427" d="M268.432,750.169a.465.465,0,0,1-.4-.229l-6.856-11.68a.465.465,0,0,1,.188-.648l6.358-3.27a.464.464,0,0,1,.649.254l4.576,12.533a.465.465,0,0,1-.2.559l-4.078,2.417a.466.466,0,0,1-.237.065m-6.207-11.956,6.371,10.854,3.344-1.983-4.263-11.676Z" transform="translate(-180.87 -507.534)" fill="#1a242d"/>
      <path id="Path_4428" data-name="Path 4428" d="M283.677,771.845a3.5,3.5,0,0,1-4.837-1.365,31.1,31.1,0,0,1-2.49-7.043c0-.872,4.909-2.876,4.909-2.876l.468-4.794s3.812.042,8.414.433c3.992.34,8.82.857,7.955,3.075-1.165,2.987-9.1,9.483-14.418,12.571" transform="translate(-191.39 -522.361)" fill="#c1afa3"/>
      <path id="Path_4429" data-name="Path 4429" d="M280.892,771.748a3.986,3.986,0,0,1-1.083-.151,3.935,3.935,0,0,1-2.413-1.933,30.952,30.952,0,0,1-2.546-7.265c0-.765,1.661-1.841,4.938-3.2l.44-4.516a.472.472,0,0,1,.468-.42c.038,0,3.882.047,8.449.436,3.818.324,7.321.739,8.245,2.224a1.605,1.605,0,0,1,.1,1.482c-1.264,3.241-9.609,9.9-14.618,12.8a3.94,3.94,0,0,1-1.982.538m-5.11-9.311a32.215,32.215,0,0,0,2.431,6.786,3.035,3.035,0,0,0,4.195,1.184l.233.4-.233-.4c5.359-3.109,13.128-9.542,14.219-12.338a.665.665,0,0,0-.025-.654c-.755-1.213-5.166-1.588-7.536-1.789-3.653-.311-6.837-.4-7.955-.425l-.426,4.368a.464.464,0,0,1-.287.385c-2.035.831-4.343,2.012-4.616,2.482" transform="translate(-190.355 -521.324)" fill="#1a242d"/>
      <path id="Path_4430" data-name="Path 4430" d="M292.2,778.095a.464.464,0,0,1-.39-.21c-.137-.21-.684-1.37,2.035-3.575,2.512-2.038,12.3-9.062,12.4-9.132a.464.464,0,1,1,.542.755c-.1.071-9.862,7.078-12.354,9.1-1.929,1.565-1.833,2.319-1.819,2.384a.464.464,0,0,1-.158.6.459.459,0,0,1-.253.076m.389-.717h0m0,0h0m0,0h0" transform="translate(-201.969 -528.797)" fill="#1a242d"/>
      <path id="Path_4431" data-name="Path 4431" d="M165.345,418.993s-4.764,14.152-2.947,24.91,31.971,79.875,31.971,79.875l7-4.207-19.7-93.267-4.844-8.22Z" transform="translate(-112.437 -289.238)" fill="#1a242d"/>
      <path id="Path_4432" data-name="Path 4432" d="M258.507,739.156l1.418,2.2a2,2,0,0,0,2.738.62l5.36-3.316a2,2,0,0,0,.891-2.186l-.6-2.406a1.4,1.4,0,0,0-2.03-.889l-7.276,3.992a1.4,1.4,0,0,0-.5,1.984" transform="translate(-178.918 -506.649)" fill="#e21432"/>
      <path id="Path_4433" data-name="Path 4433" d="M234.084,526.742a.465.465,0,0,1-.446-.334l-9.536-32.64a.465.465,0,1,1,.892-.26l9.536,32.64a.465.465,0,0,1-.446.595" transform="translate(-155.307 -341.077)" fill="#fff"/>
      <path id="Path_4434" data-name="Path 4434" d="M214.082,202.055s-.8-5-3.475-7.312-5.624-.036-5.654,3.744,2.658,4.482,9.129,3.568" transform="translate(-142.1 -134.409)" fill="#1a242d"/>
      <path id="Path_4435" data-name="Path 4435" d="M87.113,265.506c-2,.692-9.869,3.421-13.02.082-1.729-1.832-.766-4.144-2.865-5.707-2.245-1.672-4.315.252-6.656-.891-4.357-2.127-1.146-10.724-5.622-14.333-4.014-3.235-9.466,1.365-12.725-1.671-3.692-3.438-1.775-14.066,3.259-16.395,4.119-1.906,7.522,3.043,12.169,1.133,5.16-2.122,4.052-9.493,8.654-10.768,2.773-.768,5.74,1.2,11.327,4.9,5.121,3.394,6.06,5.338,9.031,5.346a9.215,9.215,0,0,0,7.287-3.938c1.537-2.325.534-3.723,2.148-5.221,2.064-1.916,5.554-1.344,7.627-1a7.556,7.556,0,0,1,4.341,1.737c1.012.945,2.314,2.834,1.761,4.28-.579,1.516-2.748,1.374-4.671,2.293-2.659,1.272-4.127,4.23-5.847,11.962-2.9,13.05-.837,14.155-3.412,18.667-3.625,6.351-10.28,8.658-12.786,9.526" transform="translate(-31.193 -150.202)" fill="#1a242d"/>
      <path id="Path_4436" data-name="Path 4436" d="M516.93,778.141c.828,2.045.109,4.265-1.606,4.959s-3.775-.4-4.6-2.445-.109-4.265,1.606-4.958,3.775.4,4.6,2.445" transform="translate(-352.954 -535.975)" fill="#e21432"/>
      <path id="Path_4437" data-name="Path 4437" d="M520.581,786.089a.691.691,0,1,1-.935-.5.755.755,0,0,1,.935.5" transform="translate(-359.079 -542.922)" fill="#fff"/>
      <path id="Path_4438" data-name="Path 4438" d="M413.761,778.141c.828,2.045.109,4.265-1.606,4.959s-3.775-.4-4.6-2.445-.109-4.265,1.606-4.958,3.775.4,4.6,2.445" transform="translate(-281.731 -535.975)" fill="#e21432"/>
      <path id="Path_4439" data-name="Path 4439" d="M417.413,786.089a.691.691,0,1,1-.935-.5.754.754,0,0,1,.935.5" transform="translate(-287.856 -542.922)" fill="#fff"/>
      <path id="Path_4440" data-name="Path 4440" d="M348.323,570.617H301.945a.464.464,0,0,1-.421-.268l-42.072-90.1a.465.465,0,0,1,.842-.393l41.946,89.834h46.083a.464.464,0,1,1,0,.929" transform="translate(-179.695 -331.696)" fill="#1a242d"/>
      <path id="Path_4441" data-name="Path 4441" d="M409.334,569.054a.464.464,0,0,1-.421-.268l-42.537-90.8a.464.464,0,0,1,.841-.394l42.537,90.8a.465.465,0,0,1-.42.662" transform="translate(-253.511 -330.133)" fill="#1a242d"/>
      <path id="Path_4442" data-name="Path 4442" d="M257.29,476.838a1.623,1.623,0,0,1-.049-3.245l32.919-1.01a1.623,1.623,0,1,1,.1,3.244l-32.919,1.01h-.051" transform="translate(-177.112 -326.861)" fill="#e21432"/>
      <path id="Path_4443" data-name="Path 4443" d="M296.86,558.08h84.363a3.061,3.061,0,0,1,2.7,4.512l-15.693,29.144H313.075Z" transform="translate(-205.55 -385.886)" fill="#e21432"/>
      <path id="Path_4444" data-name="Path 4444" d="M366.854,591.167h-55.72l-16.662-34.586h85.1a3.525,3.525,0,0,1,3.1,5.2Zm-55.136-.929H366.3l15.562-28.9a2.6,2.6,0,0,0-2.286-3.828H295.951Z" transform="translate(-203.901 -384.851)" fill="#1a242d"/>
      <path id="Path_4445" data-name="Path 4445" d="M490.856,592.982a.465.465,0,0,1-.444-.6l9.6-30.968a.464.464,0,1,1,.887.275l-9.6,30.968a.465.465,0,0,1-.444.327" transform="translate(-339.156 -387.96)" fill="#1a242d"/>
      <path id="Path_4446" data-name="Path 4446" d="M268.892,321s11.384,35.073,21.759,43.257c0,0,5.378-.717,7.737,2.19,1.371,1.691.081,3.52-1.239,4.755a1.335,1.335,0,0,1-2.2-.626c-.322-1.234-1.012-2.548-2.485-2.5h-4.243s-19.866-11.5-22.79-30.93c-.081-.541,3.461-16.143,3.461-16.143" transform="translate(-183.851 -222.213)" fill="#fff"/>
      <path id="Path_4447" data-name="Path 4447" d="M295.219,370.989a1.844,1.844,0,0,1-.511-.073,1.77,1.77,0,0,1-1.234-1.26c-.381-1.461-1.071-2.189-2.022-2.156H287.2a.464.464,0,0,1-.233-.062,57.63,57.63,0,0,1-10.394-8.25c-4.914-4.888-11.094-12.849-12.623-23.014-.082-.546,2.137-10.456,3.467-16.315a.465.465,0,0,1,.895-.041c.113.347,11.349,34.694,21.457,42.917,1.04-.1,5.7-.4,7.958,2.381,1.245,1.535.79,3.448-1.282,5.387a1.781,1.781,0,0,1-1.222.485m-3.693-4.419c.973,0,2.237.511,2.848,2.851a.848.848,0,0,0,.593.6.867.867,0,0,0,.84-.2c1.713-1.6,2.115-2.99,1.2-4.124-2.165-2.669-7.264-2.029-7.315-2.023a.462.462,0,0,1-.349-.1c-9.223-7.275-19.01-34.879-21.386-41.9-1.336,5.921-3.038,13.645-3.082,14.377,2.764,18.251,20.9,29.566,22.454,30.5h4.2m-26.661-30.534v0" transform="translate(-182.826 -221.178)" fill="#1a242d"/>
      <path id="Path_4448" data-name="Path 4448" d="M154.674,297.131a13.139,13.139,0,0,1,9.175-10.284,27.88,27.88,0,0,1,13.744-.417c13.23,2.807,15.285,17.4,15.285,17.4l-3.716,2.095.7,25.251s-3.806,5.8-27.171,0c0,0-7.034-2.69-9.358,7.763,0,0-4.53-.6-4.476-5.841.04-3.884,3.846-25.185,5.815-35.963" transform="translate(-103.375 -197.894)" fill="#e21432"/>
      <path id="Path_4449" data-name="Path 4449" d="M192.641,338.521h-2.192a.464.464,0,0,1,0-.929h1.844l1.881-6.474a.464.464,0,1,1,.892.259l-1.978,6.809a.464.464,0,0,1-.446.335" transform="translate(-131.767 -228.969)" fill="#1a242d"/>
      <path id="Path_4450" data-name="Path 4450" d="M163.873,354.273h8.549s4.55,30.92,20.29,34.11c0,0,7.167-2.157,8.948,3.754,1.215,4.032-1.781,4.207-1.781,4.207a6.294,6.294,0,0,0-5.259-4.45s-2.049-.394-2.421,1.139c0,0-26.336-4.9-28.326-38.761" transform="translate(-113.741 -245.185)" fill="#fff"/>
      <path id="Path_4451" data-name="Path 4451" d="M198.844,395.773a.464.464,0,0,1-.45-.349,5.779,5.779,0,0,0-4.865-4.1l-.032,0c-.065-.012-1.619-.289-1.882.793a.465.465,0,0,1-.536.347,33.922,33.922,0,0,1-13.622-6.777c-6.308-5.038-14.045-14.752-15.083-32.413a.464.464,0,0,1,.464-.492h8.549a.464.464,0,0,1,.459.4c.045.305,4.662,30.493,19.817,33.7.977-.255,7.645-1.75,9.407,4.1a4.193,4.193,0,0,1-.2,3.678,2.806,2.806,0,0,1-2,1.127h-.027m-5.187-5.373a6.74,6.74,0,0,1,5.5,4.375,1.775,1.775,0,0,0,.959-.67,3.375,3.375,0,0,0,.069-2.869c-1.629-5.4-8.1-3.526-8.37-3.443a.466.466,0,0,1-.226.01c-6.6-1.338-12.267-7.749-16.389-18.541a86.54,86.54,0,0,1-4.2-15.56h-7.659c1.131,17.008,8.6,26.377,14.7,31.25a34.406,34.406,0,0,0,12.831,6.505,2.568,2.568,0,0,1,2.789-1.058" transform="translate(-112.705 -244.15)" fill="#1a242d"/>
      <path id="Path_4452" data-name="Path 4452" d="M157.924,309.352s-9.432.2-9.086,0,1.843-16.694,14.169-19.228Z" transform="translate(-103.355 -200.899)" fill="#e21432"/>
      <path id="Path_4453" data-name="Path 4453" d="M212.038,245.2l-2.775,7.125-7.05,1.23a17.772,17.772,0,0,0,16.915,2.458l-4.206-3.252,1.037-3.872a6.983,6.983,0,0,0,2.435.6c1.223.033,1.928-4.131,1.928-4.131l.686-.108a.236.236,0,0,0,.185-.315,9.636,9.636,0,0,1-.535-2.358c-.169-1.916.359-3.476-.283-3.9-1.124-.734-7.358-2.587-7.533,3.134,0,0-1.446-.577-1.818.762s1.015,2.626,1.015,2.626" transform="translate(-140.208 -164.778)" fill="#fff"/>
      <path id="Path_4454" data-name="Path 4454" d="M211.831,256.524a17.981,17.981,0,0,1-10.958-3.648.464.464,0,0,1,.224-.808l6.793-1.185,2.573-6.6a3.26,3.26,0,0,1-.923-2.858,1.591,1.591,0,0,1,.818-1.058,1.838,1.838,0,0,1,1.02-.155,4,4,0,0,1,2.06-3.391c2.139-1.116,5.269-.135,6.154.443.615.4.566,1.221.5,2.259a13.142,13.142,0,0,0-.012,1.985,9.14,9.14,0,0,0,.509,2.239.7.7,0,0,1-.549.932l-.359.057c-.28,1.492-.99,4.219-2.34,4.188a7,7,0,0,1-2.11-.434l-.821,3.067,3.962,3.064a.464.464,0,0,1-.133.807,19.671,19.671,0,0,1-6.412,1.1m-9.5-3.729a17.62,17.62,0,0,0,14.773,2.015L213.6,252.1a.464.464,0,0,1-.164-.488l1.037-3.872a.465.465,0,0,1,.647-.3,6.561,6.561,0,0,0,2.25.553h0c.414,0,1.133-1.849,1.454-3.744a.464.464,0,0,1,.385-.381l.417-.066a9.981,9.981,0,0,1-.471-2.215,14.092,14.092,0,0,1,.01-2.122c.035-.588.079-1.319-.085-1.426-.64-.418-3.426-1.331-5.217-.4a3.358,3.358,0,0,0-1.6,3.156.465.465,0,0,1-.636.417,1.245,1.245,0,0,0-.865-.017.693.693,0,0,0-.333.473c-.288,1.038.872,2.151.883,2.162a.464.464,0,0,1,.117.509l-2.775,7.125a.465.465,0,0,1-.353.289Z" transform="translate(-139.173 -163.746)" fill="#1a242d"/>
    </g>
  </g>
</svg>
