<svg xmlns="http://www.w3.org/2000/svg" width="31.073" height="47.329" viewBox="0 0 31.073 47.329">
  <g id="Group_1248" data-name="Group 1248" transform="translate(3050.407 -2104.356)">
    <g id="Group_1250" data-name="Group 1250" transform="translate(-3046.089 2104.356)">
      <g id="Group_1248-2" data-name="Group 1248" transform="translate(0)">
        <path id="Path_4276" data-name="Path 4276" d="M-3016.44,2134.333h-22.437v-29.977h17.325l5.112,5.112Zm-20.716-1.721h18.994v-22.431l-4.1-4.1h-14.891Z" transform="translate(3038.877 -2104.356)" fill="#131b22"/>
        <path id="Path_4277" data-name="Path 4277" d="M-2990.4,2112.122h-5.468v-5.467h1.721v3.746h3.747Z" transform="translate(3011.976 -2105.794)" fill="#131b22"/>
      </g>
      <g id="Group_1249" data-name="Group 1249" transform="translate(3.738 4.607)">
        <rect id="Rectangle_64138" data-name="Rectangle 64138" width="14.961" height="1.721" transform="translate(0 3.021)" fill="#131b22"/>
        <rect id="Rectangle_64139" data-name="Rectangle 64139" width="14.961" height="1.721" transform="translate(0 6.041)" fill="#131b22"/>
        <rect id="Rectangle_64140" data-name="Rectangle 64140" width="7.48" height="1.721" fill="#131b22"/>
      </g>
    </g>
    <path id="Path_4278" data-name="Path 4278" d="M-3050.407,2143.153v32.8h31.073v-32.8Zm8.056,8.064a1.727,1.727,0,0,1-1.727-1.726,1.726,1.726,0,0,1,1.727-1.727,1.726,1.726,0,0,1,1.727,1.727A1.727,1.727,0,0,1-3042.351,2151.217Zm14.961,0a1.727,1.727,0,0,1-1.726-1.726,1.727,1.727,0,0,1,1.726-1.727,1.726,1.726,0,0,1,1.726,1.727A1.727,1.727,0,0,1-3027.39,2151.217Z" transform="translate(0 -24.267)" fill="#d70024"/>
    <g id="Group_1251" data-name="Group 1251" transform="translate(-3044.938 2122.637)">
      <path id="Path_4279" data-name="Path 4279" d="M-3022.854,2178.491a8.35,8.35,0,0,1-8.341-8.341v-5.467h1.721v5.467a6.627,6.627,0,0,0,6.62,6.619,6.627,6.627,0,0,0,6.62-6.619v-5.467h1.721v5.467A8.35,8.35,0,0,1-3022.854,2178.491Z" transform="translate(3032.921 -2160.371)" fill="#fff"/>
      <path id="Path_4280" data-name="Path 4280" d="M-3033.217,2158.341a2.59,2.59,0,0,1-2.587-2.586,2.59,2.59,0,0,1,2.587-2.587,2.59,2.59,0,0,1,2.587,2.587A2.59,2.59,0,0,1-3033.217,2158.341Zm0-3.453a.867.867,0,0,0-.866.866.866.866,0,0,0,.866.865.867.867,0,0,0,.866-.865A.867.867,0,0,0-3033.217,2154.888Z" transform="translate(3035.804 -2153.167)" fill="#131b22"/>
      <path id="Path_4281" data-name="Path 4281" d="M-2993.271,2158.341a2.59,2.59,0,0,1-2.587-2.586,2.59,2.59,0,0,1,2.587-2.587,2.59,2.59,0,0,1,2.587,2.587A2.59,2.59,0,0,1-2993.271,2158.341Zm0-3.453a.867.867,0,0,0-.866.866.866.866,0,0,0,.866.865.866.866,0,0,0,.866-.865A.867.867,0,0,0-2993.271,2154.888Z" transform="translate(3010.819 -2153.167)" fill="#131b22"/>
    </g>
  </g>
</svg>
