<svg xmlns="http://www.w3.org/2000/svg" width="45.741" height="56.375" viewBox="0 0 45.741 56.375">
  <g id="Group_1018" data-name="Group 1018" transform="translate(-140.741 45.544)">
    <g id="Group_1017" data-name="Group 1017" transform="translate(142.022 -44.264)">
      <rect id="Rectangle_64033" data-name="Rectangle 64033" width="30.75" height="53.812" rx="2" fill="#fff"/>
      <path id="Path_2344" data-name="Path 2344" d="M153.241-28.044" transform="translate(-122.491 71.607)" fill="#fff" stroke="#1a242d" stroke-linecap="round" stroke-linejoin="round" stroke-width="1"/>
      <path id="Path_2345" data-name="Path 2345" d="M141.241-28.044" transform="translate(-141.241 71.607)" fill="#fff" stroke="#1a242d" stroke-linecap="round" stroke-linejoin="round" stroke-width="1"/>
      <g id="Group_1016" data-name="Group 1016" transform="translate(11.531 47.407)">
        <line id="Line_67" data-name="Line 67" x2="5.125" transform="translate(1.281 1.28)" fill="#fff"/>
        <path id="Path_2346" data-name="Path 2346" d="M152.147-23.982h-5.125a1.282,1.282,0,0,1-1.281-1.281,1.282,1.282,0,0,1,1.281-1.281h5.125a1.28,1.28,0,0,1,1.281,1.281A1.28,1.28,0,0,1,152.147-23.982Z" transform="translate(-145.741 26.544)" fill="#1a242d"/>
      </g>
    </g>
    <path id="Path_2347" data-name="Path 2347" d="M186.481-17.359a13.66,13.66,0,0,0-12.428-13.579v-8.2a6.413,6.413,0,0,0-6.406-6.406h-20.5a6.415,6.415,0,0,0-6.406,6.406V4.425a6.415,6.415,0,0,0,6.406,6.406h20.5a6.414,6.414,0,0,0,6.406-6.406v-8.2A13.662,13.662,0,0,0,186.481-17.359ZM167.647,8.268h-20.5A3.848,3.848,0,0,1,143.3,4.425V-39.138a3.848,3.848,0,0,1,3.844-3.844h20.5a3.848,3.848,0,0,1,3.844,3.844v8.2a13.66,13.66,0,0,0-12.428,13.579A13.659,13.659,0,0,0,171.491-3.778v8.2A3.848,3.848,0,0,1,167.647,8.268Z" transform="translate(0 0)" fill="#1a242d"/>
    <path id="Path_2348" data-name="Path 2348" d="M159.747-20.032a1.828,1.828,0,0,1-.533-.079l-2.521-.761.133-.441a1.321,1.321,0,0,0-.881-1.645,1.319,1.319,0,0,0-1.645.881l-.136.443-2.527-.764a1.815,1.815,0,0,1-1.092-.894A1.832,1.832,0,0,1,150.4-24.7l3.68-12.192a1.82,1.82,0,0,1,.894-1.094,1.819,1.819,0,0,1,1.407-.141l2.527.761-.133.441a1.323,1.323,0,0,0,.882,1.648,1.323,1.323,0,0,0,1.645-.884l.136-.441,2.519.761a1.82,1.82,0,0,1,1.094.894,1.832,1.832,0,0,1,.141,1.407l-3.68,12.192A1.85,1.85,0,0,1,159.747-20.032ZM157.8-21.5,159.48-21a.926.926,0,0,0,1.153-.618l3.677-12.192a.917.917,0,0,0-.069-.7.929.929,0,0,0-.546-.448h0l-1.684-.507a2.255,2.255,0,0,1-2.616,1.071,2.248,2.248,0,0,1-1.586-2.34l-1.689-.51a.922.922,0,0,0-.7.069.924.924,0,0,0-.446.548l-3.68,12.192a.917.917,0,0,0,.069.7.921.921,0,0,0,.546.448l1.691.51a2.245,2.245,0,0,1,2.616-1.071,2.228,2.228,0,0,1,1.33,1.087A2.258,2.258,0,0,1,157.8-21.5Z" transform="translate(14.973 11.465)" fill="#fff"/>
    <path id="Path_2349" data-name="Path 2349" d="M154.264-35.308a.481.481,0,0,1-.133-.021l-2.291-.692a.462.462,0,0,1-.307-.577.461.461,0,0,1,.577-.307l2.288.692a.463.463,0,0,1,.307.577A.457.457,0,0,1,154.264-35.308Z" transform="translate(16.83 13.467)" fill="#fff"/>
    <path id="Path_2350" data-name="Path 2350" d="M155.814-34.842a.427.427,0,0,1-.136-.021l-2.288-.689a.462.462,0,0,1-.307-.577.457.457,0,0,1,.574-.308l2.291.692a.459.459,0,0,1,.307.574A.46.46,0,0,1,155.814-34.842Z" transform="translate(19.252 14.198)" fill="#fff"/>
    <path id="Path_2351" data-name="Path 2351" d="M151.953-29.726a.412.412,0,0,1-.123-.021.427.427,0,0,1-.29-.533l1.535-5.089a.439.439,0,0,1,.536-.287.43.43,0,0,1,.29.536l-1.535,5.087A.432.432,0,0,1,151.953-29.726Z" transform="translate(16.845 15.424)" fill="#fff"/>
    <path id="Path_2352" data-name="Path 2352" d="M153.063-29.391a.409.409,0,0,1-.123-.018.428.428,0,0,1-.287-.536l1.535-5.087a.434.434,0,0,1,.536-.29.428.428,0,0,1,.287.536L153.476-29.7A.43.43,0,0,1,153.063-29.391Z" transform="translate(18.584 15.947)" fill="#fff"/>
    <path id="Path_2353" data-name="Path 2353" d="M154.164-29.057a.413.413,0,0,1-.123-.021.427.427,0,0,1-.287-.536l1.535-5.087a.429.429,0,0,1,.536-.287.428.428,0,0,1,.287.536l-1.535,5.087A.43.43,0,0,1,154.164-29.057Z" transform="translate(20.304 16.467)" fill="#fff"/>
    <path id="Path_2354" data-name="Path 2354" d="M157.362-34.377a.477.477,0,0,1-.133-.018l-2.291-.692a.46.46,0,0,1-.308-.574.464.464,0,0,1,.574-.31l2.291.692a.46.46,0,0,1,.308.577A.458.458,0,0,1,157.362-34.377Z" transform="translate(21.67 14.929)" fill="#fff"/>
  </g>
</svg>
