<svg width="35" height="28" viewBox="0 0 35 28" fill="none" xmlns="http://www.w3.org/2000/svg">
<path d="M11.0435 3.86963H34" stroke="#1A242D" stroke-width="1.5" stroke-linecap="round" stroke-linejoin="round"/>
<path d="M6.73913 3.86945C6.73913 5.45345 5.45357 6.73901 3.86957 6.73901C2.28557 6.73901 1 5.45345 1 3.86945C1 2.28545 2.28557 0.999883 3.86957 0.999883C5.45357 0.999883 6.73913 2.28545 6.73913 3.86945Z" stroke="#1A242D" stroke-width="1.5" stroke-linecap="round" stroke-linejoin="round"/>
<path d="M11.0435 13.9131H34" stroke="#1A242D" stroke-width="1.5" stroke-linecap="round" stroke-linejoin="round"/>
<path d="M6.73913 13.9131C6.73913 15.4971 5.45357 16.7827 3.86957 16.7827C2.28557 16.7827 1 15.4971 1 13.9131C1 12.3291 2.28557 11.0436 3.86957 11.0436C5.45357 11.0436 6.73913 12.3291 6.73913 13.9131Z" stroke="#1A242D" stroke-width="1.5" stroke-linecap="round" stroke-linejoin="round"/>
<path d="M11.0435 23.9565H34" stroke="#1A242D" stroke-width="1.5" stroke-linecap="round" stroke-linejoin="round"/>
<path d="M6.73913 23.9566C6.73913 25.5406 5.45357 26.8262 3.86957 26.8262C2.28557 26.8262 1 25.5406 1 23.9566C1 22.3726 2.28557 21.087 3.86957 21.087C5.45357 21.087 6.73913 22.3726 6.73913 23.9566Z" stroke="#1A242D" stroke-width="1.5" stroke-linecap="round" stroke-linejoin="round"/>
</svg>
