<svg id="Group_2262" data-name="Group 2262" xmlns="http://www.w3.org/2000/svg" xmlns:xlink="http://www.w3.org/1999/xlink" width="16.401" height="20.186" viewBox="0 0 16.401 20.186">
  <defs>
    <clipPath id="clip-path">
      <rect id="Rectangle_64625" data-name="Rectangle 64625" width="16.401" height="20.186" transform="translate(0 0)" fill="none"/>
    </clipPath>
  </defs>
  <g id="Group_2261" data-name="Group 2261" transform="translate(0 0)" clip-path="url(#clip-path)">
    <path id="Path_4513" data-name="Path 4513" d="M53.485,53.571l-3.364,0A2.525,2.525,0,0,1,47.6,51.045l.006-8.407a2.525,2.525,0,0,1,2.522-2.521l3.365,0a2.528,2.528,0,0,1,2.521,2.524l-.006,8.407A2.526,2.526,0,0,1,53.485,53.571ZM50.129,40.958a1.684,1.684,0,0,0-1.682,1.68l-.006,8.407a1.684,1.684,0,0,0,1.68,1.683l3.363,0v0a1.684,1.684,0,0,0,1.682-1.68l.006-8.407a1.688,1.688,0,0,0-1.68-1.683Z" transform="translate(-39.612 -33.385)" fill="#101b2f"/>
    <path id="Line_284" data-name="Line 284" d="M-1.664.84H-2.5V0h.841Z" transform="translate(14.282 8.416)" fill="#101b2f"/>
    <path id="Line_285" data-name="Line 285" d="M5.043-1.661,0-1.664V-2.5l5.044,0Z" transform="translate(9.676 12.599)" fill="#101b2f"/>
    <path id="Path_4514" data-name="Path 4514" d="M13.495,2.511l-3.363,0a1.681,1.681,0,1,1-3.363,0l-3.363,0a.843.843,0,0,0-.841.84l0,3.783,11.77.008,0-3.783a.843.843,0,0,0-.84-.841" transform="translate(-2.132 -2.084)" fill="#5b94cf"/>
    <path id="Path_4515" data-name="Path 4515" d="M12.667,5.051h-.841l0-3.783a.421.421,0,0,0-.42-.421l-2.984,0A2.087,2.087,0,0,1,7.85,1.91a2.1,2.1,0,0,1-2.972,0A2.087,2.087,0,0,1,4.3.842L1.32.84A.421.421,0,0,0,.9,1.26l0,3.783H.056l0-3.783A1.262,1.262,0,0,1,1.32,0L5.1,0v.42a1.253,1.253,0,0,0,.369.892,1.261,1.261,0,0,0,1.783,0,1.252,1.252,0,0,0,.37-.891V0l3.783,0a1.263,1.263,0,0,1,1.26,1.262Z" transform="translate(-0.047 0.001)" fill="#101b2f"/>
    <path id="Path_4516" data-name="Path 4516" d="M5.044,49.361l-3.783,0A1.264,1.264,0,0,1,0,48.1L.009,35.065H.85L.841,48.1a.423.423,0,0,0,.42.421l2.985,0a2.105,2.105,0,0,1,2.061-1.68h.841v.841H6.306a1.261,1.261,0,0,0-1.262,1.26Z" transform="translate(0 -29.181)" fill="#101b2f"/>
    <path id="Line_286" data-name="Line 286" d="M.839-1.664H0V-2.5H.84Z" transform="translate(0.851 7.549)" fill="#101b2f"/>
    <path id="Line_287" data-name="Line 287" d="M.839-1.664H0V-2.5H.84Z" transform="translate(2.533 7.55)" fill="#101b2f"/>
    <path id="Line_288" data-name="Line 288" d="M.839-1.664H0V-2.5H.84Z" transform="translate(4.214 7.551)" fill="#101b2f"/>
    <path id="Line_289" data-name="Line 289" d="M.839-1.664H0V-2.5H.84Z" transform="translate(5.896 7.552)" fill="#101b2f"/>
    <path id="Line_290" data-name="Line 290" d="M.839-1.664H0V-2.5H.84Z" transform="translate(7.577 7.554)" fill="#101b2f"/>
    <path id="Line_291" data-name="Line 291" d="M.839-1.664H0V-2.5H.84Z" transform="translate(9.258 7.555)" fill="#101b2f"/>
    <path id="Line_292" data-name="Line 292" d="M.839-1.664H0V-2.5H.84Z" transform="translate(10.94 7.556)" fill="#101b2f"/>
    <path id="Line_293" data-name="Line 293" d="M-1.664,5.043H-2.5L-2.5,0h.841Z" transform="translate(8.395 6.731)" fill="#101b2f"/>
    <path id="Line_294" data-name="Line 294" d="M-1.664,10.088H-2.5L-2.5,0h.841Z" transform="translate(5.029 6.728)" fill="#101b2f"/>
    <path id="Line_295" data-name="Line 295" d="M-1.664,10.088H-2.5L-2.5,0h.841Z" transform="translate(6.71 6.729)" fill="#101b2f"/>
  </g>
</svg>
