<svg width="52" height="52" viewBox="0 0 52 52" fill="none" xmlns="http://www.w3.org/2000/svg">
<path d="M12.8751 42.2499C12.0254 42.2499 11.2922 41.9415 10.6753 41.3246C10.0585 40.7078 9.75006 39.9745 9.75006 39.1249V32.3791H12.2084V39.1249C12.2084 39.2915 12.2778 39.4443 12.4167 39.5833C12.5556 39.7221 12.7084 39.7916 12.8751 39.7916H39.1249C39.2916 39.7916 39.4444 39.7221 39.5833 39.5833C39.7222 39.4443 39.7917 39.2915 39.7917 39.1249V32.3791H42.25V39.1249C42.25 39.9745 41.9415 40.7078 41.3247 41.3246C40.7078 41.9415 39.9746 42.2499 39.1249 42.2499H12.8751ZM24.7709 34.1082V14.1374L18.7917 20.0957L17.0251 18.3499L26 9.375L34.9749 18.3499L33.2083 20.0957L27.2292 14.1374V34.1082H24.7709Z" fill="#E21331"/>
</svg>
