<svg width="17" height="16" viewBox="0 0 17 16" fill="none" xmlns="http://www.w3.org/2000/svg">
<g clip-path="url(#clip0_216_13310)">
<path d="M15.099 8.72933V14.4625C15.0991 14.6211 15.066 14.778 15.0016 14.9245C14.9372 15.071 14.8427 15.2041 14.7236 15.3162C14.6045 15.4283 14.4631 15.5171 14.3075 15.5778C14.1519 15.6384 13.9851 15.6696 13.8166 15.6695H1.63355C1.46513 15.6696 1.29833 15.6384 1.14271 15.5778C0.987082 15.5171 0.845681 15.4283 0.726585 15.3162C0.607489 15.2041 0.513034 15.071 0.448623 14.9245C0.384211 14.778 0.351104 14.6211 0.351196 14.4625V2.99611C0.351104 2.83759 0.384211 2.68061 0.448623 2.53414C0.513034 2.38767 0.607489 2.25458 0.726585 2.14249C0.845681 2.0304 0.987082 1.9415 1.14271 1.88088C1.29833 1.82026 1.46513 1.7891 1.63355 1.78918H7.7251" stroke="#1A242D" stroke-linecap="round" stroke-linejoin="round"/>
<path d="M12.2898 0.467285H16.5035" stroke="#1A242D" stroke-linecap="round" stroke-linejoin="round"/>
<path d="M16.5035 4.43308V0.467285" stroke="#1A242D" stroke-linecap="round" stroke-linejoin="round"/>
<path d="M8.77844 7.73791L16.5035 0.467285" stroke="#1A242D" stroke-linecap="round" stroke-linejoin="round"/>
</g>
<defs>
<clipPath id="clip0_216_13310">
<rect width="17" height="16" fill="white"/>
</clipPath>
</defs>
</svg>
