<svg xmlns="http://www.w3.org/2000/svg" width="90.588" height="19.629" viewBox="0 0 90.588 19.629">
  <g id="PANTONE_Wordmark" data-name="PANTONE Wordmark" transform="translate(1661.143 -16.306)">
    <g id="Group_1112" data-name="Group 1112" transform="translate(-1661.143 16.306)">
      <g id="Group_1111" data-name="Group 1111" transform="translate(0)">
        <path id="Path_2407" data-name="Path 2407" d="M-885.557,65.059c-4.4,0-7.248,2.937-7.248,7.414,0,4.453,2.85,7.388,7.248,7.388,4.427,0,7.277-2.935,7.277-7.388,0-4.477-2.85-7.414-7.277-7.414m0,11.9c-2.605,0-3.394-2.253-3.394-4.483,0-2.254.788-4.505,3.394-4.505,2.634,0,3.425,2.251,3.425,4.505,0,2.23-.791,4.483-3.425,4.483" transform="translate(968.868 -60.233)" fill="#fff"/>
        <path id="Path_2408" data-name="Path 2408" d="M-1036.512,76.957c-2.417,0-3.2-2.42-3.2-4.426,0-2.062.814-4.562,3.284-4.562a2.627,2.627,0,0,1,2.852,2.415h3.773c-.245-3.581-3.284-5.324-6.6-5.324-4.562,0-7.169,3.237-7.169,7.6a6.814,6.814,0,0,0,7.088,7.2c3.693,0,6.272-2.04,6.759-5.754h-3.719a2.968,2.968,0,0,1-3.068,2.85" transform="translate(1104.71 -60.233)" fill="#fff"/>
        <path id="Path_2409" data-name="Path 2409" d="M-1251.379,65.1c-4.263,0-7.169,3.2-7.169,7.414,0,4.346,2.743,7.383,7.169,7.383a6.314,6.314,0,0,0,6.568-4.724h-3.391a3.173,3.173,0,0,1-3.042,1.816c-2.147,0-3.339-1.106-3.448-3.559h10.129c.27-4.312-2.035-8.331-6.816-8.331M-1254.692,71a3.039,3.039,0,0,1,3.2-2.99c1.874,0,2.717,1.036,3.068,2.99Z" transform="translate(1298.404 -60.273)" fill="#fff"/>
        <path id="Path_2410" data-name="Path 2410" d="M-1484.183,65.1c-3.149,0-6.381,1.088-6.6,4.694h3.856c.133-1.515,1.085-2.113,2.551-2.113,1.358,0,2.5.24,2.5,1.9,0,.164.1,1.183-.1,1.183-1.8,0-9.243-.729-9.243,4.926,0,2.881,2.118,4.206,4.781,4.206a6.906,6.906,0,0,0,4.844-1.793,2.691,2.691,0,0,0,.521.752,2.753,2.753,0,0,0,1.94.805h1.111V69.089c0-3.365-3.365-3.992-6.163-3.992m2.308,8.988A2.863,2.863,0,0,1-1485,77.312c-1.25,0-2.363-.522-2.363-1.791,0-3.125,4.263-2.875,5.486-2.875Z" transform="translate(1508.039 -60.267)" fill="#fff"/>
        <path id="Path_2411" data-name="Path 2411" d="M-1095.851,16.316h-3.854V35.7h1.111a2.725,2.725,0,0,0,1.94-.8,2.722,2.722,0,0,0,.8-1.938Z" transform="translate(1155.286 -16.315)" fill="#fff"/>
        <path id="Path_2412" data-name="Path 2412" d="M-1649.143,25.162a4.151,4.151,0,0,0,2.667-4.047c0-3.308-2.869-4.809-5.945-4.809h-8.722v16.64a2.747,2.747,0,0,0,.8,1.945,2.739,2.739,0,0,0,1.94.806h6.241c3.5,0,6.607-1.988,6.607-5.624a4.946,4.946,0,0,0-3.591-4.911m-8.146-5.54h3.99c1.52,0,2.933.377,2.933,2.227,0,1.629-1.114,2.306-2.61,2.306h-4.312Zm4.557,12.764h-4.557V27.062h4.64c1.817,0,3.068.788,3.068,2.771,0,2.009-1.467,2.553-3.151,2.553" transform="translate(1661.143 -16.306)" fill="#fff"/>
        <path id="Path_2413" data-name="Path 2413" d="M-1325.353,36.732h-3.154v-3.7h-3.852v17.73h1.109a2.724,2.724,0,0,0,1.94-.8,2.711,2.711,0,0,0,.8-1.938v-8.71h3.154Z" transform="translate(1364.907 -31.381)" fill="#fff"/>
      </g>
    </g>
  </g>
</svg>
