<svg width="52" height="52" viewBox="0 0 52 52" fill="none" xmlns="http://www.w3.org/2000/svg">
<path d="M10.7084 44.4167C9.85633 44.4167 9.12247 44.1089 8.50681 43.4933C7.89118 42.8776 7.58337 42.1438 7.58337 41.2917V10.7085C7.58337 9.85646 7.89118 9.12259 8.50681 8.50693C9.12247 7.89131 9.85633 7.5835 10.7084 7.5835H41.2916C42.1436 7.5835 42.8775 7.89131 43.4932 8.50693C44.1088 9.12259 44.4166 9.85646 44.4166 10.7085V41.2917C44.4166 42.1438 44.1088 42.8776 43.4932 43.4933C42.8775 44.1089 42.1436 44.4167 41.2916 44.4167H10.7084ZM36.8999 41.9584H41.2916C41.486 41.9584 41.6458 41.8959 41.7708 41.7709C41.8958 41.6459 41.9583 41.4861 41.9583 41.2917V36.9001L36.8999 41.9584ZM11.5708 41.9584H16.8834L23.3834 35.4584H26.4791L19.9791 41.9584H25.3542L31.8542 35.4584H34.9499L28.4499 41.9584H33.8042L40.3042 35.4584H41.9583V10.7085C41.9583 10.5141 41.8958 10.3543 41.7708 10.2293C41.6458 10.1043 41.486 10.0418 41.2916 10.0418H10.7084C10.514 10.0418 10.3542 10.1043 10.2292 10.2293C10.1042 10.3543 10.0417 10.5141 10.0417 10.7085V40.3918L14.9751 35.4584H18.0708L11.5708 41.9584ZM15.5959 29.8042L13.8834 28.0918L22.9417 19.0335L27.6708 23.7626L36.425 15.0085L38.1166 16.721L27.6708 27.2417L22.9417 22.5126L15.5959 29.8042ZM10.0417 41.2917V10.0418V41.9584V41.2917Z" fill="#E21331"/>
</svg>
