<?xml version="1.0" encoding="utf-8"?>
<!-- Generator: Adobe Illustrator 26.4.1, SVG Export Plug-In . SVG Version: 6.00 Build 0)  -->
<svg version="1.1" id="Layer_1" xmlns="http://www.w3.org/2000/svg" xmlns:xlink="http://www.w3.org/1999/xlink" x="0px" y="0px"
	 viewBox="0 0 1190.6 841.9" style="enable-background:new 0 0 1190.6 841.9;" xml:space="preserve">
<style type="text/css">
	.st0{fill:#E21331;}
	.st1{fill:#73A5D8;}
	.st2{fill:none;stroke:#1A232D;stroke-width:17.6185;stroke-miterlimit:10;}
</style>
<g>
	<g>
		<path class="st0" d="M777.1,656.8c-2,34.3-28.5,62.7-63.6,62.7H498.6c-35.1,0-61.6-28.4-63.6-62.7l-23.3-409.1
			c-0.2-3.4,2.5-6.3,5.9-6.3h376.8c3.4,0,6.1,2.8,5.9,6.3L777.1,656.8L777.1,656.8z M744,655l21.7-380.3H446.5L468.2,655
			c0.9,16.5,13.2,31.3,30.4,31.3h214.9C730.8,686.3,743,671.5,744,655L744,655z"/>
		<path class="st1" d="M513.1,355.1c-0.3-7.5,6.9-13.8,16-14c9.1-0.2,16.8,5.7,17.1,13.2l7.9,202c0.3,7.5-6.9,13.8-16,14
			c-9.1,0.2-16.8-5.7-17.1-13.2L513.1,355.1L513.1,355.1z"/>
		<path class="st1" d="M589.5,354.6c0-7.6,7.4-13.7,16.6-13.7c9.2,0,16.6,6.1,16.6,13.7v202.1c0,7.6-7.4,13.7-16.6,13.7
			c-9.2,0-16.6-6.1-16.6-13.7V354.6L589.5,354.6z"/>
		<path class="st1" d="M665.9,354.2c0.3-7.5,7.9-13.4,17.1-13.2c9.1,0.2,16.3,6.5,16,14l-7.9,202c-0.3,7.5-7.9,13.4-17.1,13.2
			s-16.3-6.5-16-14L665.9,354.2L665.9,354.2z"/>
		<path class="st0" d="M396.4,213.8c-9.2,0-16.6-7.4-16.6-16.6c0-9.2,7.4-16.6,16.6-16.6H495v-18.4c0-11,4.5-20.9,11.7-28.1
			c7.2-7.2,17.2-11.7,28.1-11.7h142.5c11,0,20.9,4.5,28.1,11.7c7.2,7.2,11.7,17.2,11.7,28.1v18.4h98.6c9.2,0,16.6,7.4,16.6,16.6
			c0,9.2-7.4,16.6-16.6,16.6H396.4L396.4,213.8z M528.3,180.6h155.6v-18.4c0-1.8-0.7-3.4-1.9-4.6c-1.2-1.2-2.8-1.9-4.6-1.9H534.8
			c-1.8,0-3.4,0.7-4.6,1.9c-1.2,1.2-1.9,2.8-1.9,4.6V180.6L528.3,180.6z"/>
	</g>
	<g>
		<line class="st2" x1="562" y1="630.3" x2="579.7" y2="630.3"/>
		<line class="st2" x1="597.3" y1="630.3" x2="614.9" y2="630.3"/>
		<line class="st2" x1="632.5" y1="630.3" x2="650.1" y2="630.3"/>
	</g>
</g>
</svg>
