<svg width="25" height="25" viewBox="0 0 25 25" fill="none" xmlns="http://www.w3.org/2000/svg">
<path d="M6 6H24L20.239 16.342C20.096 16.737 19.72 17 19.3 17H7.883C7.378 17 6.953 16.624 6.891 16.124L5 1H1" stroke="white" stroke-linecap="round" stroke-linejoin="round"/>
<path d="M21 22C21 23.104 20.104 24 19 24C17.896 24 17 23.104 17 22C17 20.896 17.896 20 19 20C20.104 20 21 20.896 21 22Z" stroke="white" stroke-linecap="round" stroke-linejoin="round"/>
<path d="M10 22C10 23.104 9.104 24 8 24C6.896 24 6 23.104 6 22C6 20.896 6.896 20 8 20C9.104 20 10 20.896 10 22Z" stroke="white" stroke-linecap="round" stroke-linejoin="round"/>
</svg>