<svg xmlns="http://www.w3.org/2000/svg" width="54.257" height="47.253" viewBox="0 0 54.257 47.253">
  <g id="Group_1006" data-name="Group 1006" transform="translate(-209.063 -27.849)">
    <g id="Group_1002" data-name="Group 1002" transform="translate(209.063 27.849)">
      <g id="Group_1001" data-name="Group 1001">
        <rect id="Rectangle_64030" data-name="Rectangle 64030" width="52.118" height="45.115" rx="11" transform="translate(1.071 1.069)" fill="#fff"/>
        <path id="Path_2329" data-name="Path 2329" d="M248.787,75.1H223.6a14.551,14.551,0,0,1-14.536-14.534V42.383A14.551,14.551,0,0,1,223.6,27.849h25.188A14.55,14.55,0,0,1,263.32,42.383V60.568A14.55,14.55,0,0,1,248.787,75.1ZM223.6,29.987a12.411,12.411,0,0,0-12.4,12.4V60.568a12.412,12.412,0,0,0,12.4,12.4h25.188a12.411,12.411,0,0,0,12.4-12.4V42.383a12.409,12.409,0,0,0-12.4-12.4Z" transform="translate(-209.063 -27.849)" fill="#1a242d"/>
      </g>
    </g>
    <g id="Group_1005" data-name="Group 1005" transform="translate(224.581 44.251)">
      <g id="Group_1003" data-name="Group 1003" transform="translate(11.785 4.223)">
        <path id="Path_2330" data-name="Path 2330" d="M232.4,39.366h-4.306c-.293,0-.428.1-.428.408l.038,1.582c0,.293.1.385.406.385h1.43l-.676,3.171a6.812,6.812,0,0,1-1.76.233c-1.5,0-2.3-.659-2.3-1.8a12.508,12.508,0,0,1,.366-2.281s.635-3.209.7-3.571h-2.957c-.028.115-.678,3.205-.678,3.205a16.04,16.04,0,0,0-.406,3.019,3.612,3.612,0,0,0,2.143,3.556,6.833,6.833,0,0,0,2.668.445,12.171,12.171,0,0,0,4.056-.579.958.958,0,0,0,.712-.851l1.315-6.5A.315.315,0,0,0,232.4,39.366Z" transform="translate(-221.832 -37.495)" fill="#1a242d"/>
      </g>
      <g id="Group_1004" data-name="Group 1004" transform="translate(0 4.02)">
        <path id="Path_2331" data-name="Path 2331" d="M223.04,38.469a9.142,9.142,0,0,0-2.164.214l.254-1.283h-2.579l-.708,3.659c-.06.267.152.406.445.327a14.17,14.17,0,0,1,3.13-.481c1.467,0,2.125.425,2.125,1.644a2.006,2.006,0,0,1-.1.547,2.562,2.562,0,0,1-2.837,2.241,11.569,11.569,0,0,1-3.806-.616c-.368-.135-.543.1-.464.346l.426,1.736c.115.366.25.5.543.579a11.479,11.479,0,0,0,3.088.445,6.629,6.629,0,0,0,4.27-1.255,5.377,5.377,0,0,0,1.7-3.246,6.208,6.208,0,0,0,.152-1.437A3.231,3.231,0,0,0,223.04,38.469Z" transform="translate(-216.32 -37.4)" fill="#1a242d"/>
      </g>
      <path id="Path_2332" data-name="Path 2332" d="M226.452,35.529,220.5,35.52a3.07,3.07,0,0,0-3.008,2.435l-.034.158,5.961,0a3.073,3.073,0,0,0,3.019-2.519Z" transform="translate(-215.024 -35.52)" fill="#1a242d"/>
      <path id="Path_2333" data-name="Path 2333" d="M231.494,35.529l-5.946-.009a3.074,3.074,0,0,0-3.011,2.435l-.032.158,5.959,0a3.071,3.071,0,0,0,3.019-2.519Z" transform="translate(-209.281 -35.52)" fill="#1a242d"/>
    </g>
  </g>
</svg>
