<svg width="44" height="44" viewBox="0 0 44 44" fill="none" xmlns="http://www.w3.org/2000/svg">
    <circle cx="22" cy="22" r="22" fill="#F4F4F4"/>
    <g clip-path="url(#clip0_3427_30233)">
        <path d="M30.0103 32.8753H13V10H26.1626L30.0103 13.8476V32.8753ZM13.8966 31.9806H29.1156V14.218L25.7942 10.8947H13.8947V31.9806H13.8966Z" fill="#19232D"/>
        <path d="M29.5619 14.4801H25.5291V10.4492H26.4257V13.5854H29.5619V14.4801Z" fill="#19232D"/>
        <path d="M21.5042 13.5854H15.7756V14.4801H21.5042V13.5854Z" fill="#19232D"/>
        <path d="M27.3244 22.1328H15.686V23.0274H27.3244V22.1328Z" fill="#19232D"/>
        <path d="M27.3244 23.9213H15.686V24.816H27.3244V23.9213Z" fill="#19232D"/>
        <path d="M27.3244 25.7132H15.686V26.6079H27.3244V25.7132Z" fill="#19232D"/>
        <path d="M27.3244 27.5034H15.686V28.3981H27.3244V27.5034Z" fill="#19232D"/>
        <path d="M27.3244 29.2936H15.686V30.1883H27.3244V29.2936Z" fill="#19232D"/>
    </g>
    <defs>
        <clipPath id="clip0_3427_30233">
            <rect width="17.1525" height="23" fill="white" transform="translate(13 10)"/>
        </clipPath>
    </defs>
</svg>