<svg xmlns="http://www.w3.org/2000/svg" xmlns:xlink="http://www.w3.org/1999/xlink" viewBox="95 75 84 110" width="500"
     height="500" preserveAspectRatio="xMidYMid meet"
     style="width: 100%; height: 100%; transform: translate3d(0px, 0px, 0px);">
    <g id="C4xs1QepFL" style="display: block;" transform="matrix(1,0,0,1,84,92.75)" opacity="1">
        <g id="UdYTsHi5V3" opacity="1" transform="matrix(1,0,0,1,52.25,36.25)">
            <path id="CLmDPa_nFf" fill="rgb(255,255,255)" fill-opacity="1"
                  d=" M-48,-36 C-48,-36 48,-36 48,-36 C50.20899963378906,-36 52,-34.20899963378906 52,-32 C52,-32 52,32 52,32 C52,34.20899963378906 50.20899963378906,36 48,36 C48,36 -48,36 -48,36 C-50.20899963378906,36 -52,34.20899963378906 -52,32 C-52,32 -52,-32 -52,-32 C-52,-34.20899963378906 -50.20899963378906,-36 -48,-36z"></path>
        </g>
        <g id="xptOSgI4m4" opacity="1" transform="matrix(1,0,0,1,9.25,56.25)">
            <path id="4bNqrzGv9R" fill="rgb(255,236,237)" fill-opacity="1"
                  d=" M0,-8 C0,-8 0,-8 0,-8 C0.5519999861717224,-8 1,-7.552999973297119 1,-7 C1,-7 1,7 1,7 C1,7.552999973297119 0.5519999861717224,8 0,8 C-0.5519999861717224,8 -1,7.552999973297119 -1,7 C-1,7 -1,-7 -1,-7 C-1,-7.552999973297119 -0.5519999861717224,-8 0,-8z"></path>
        </g>
        <g id="pkzB2cYMog" opacity="1" transform="matrix(1,0,0,1,13.25,56.25)">
            <path id="hGXIEA3Ah2" fill="rgb(255,236,237)" fill-opacity="1"
                  d=" M0,-8 C0,-8 0,-8 0,-8 C0.5519999861717224,-8 1,-7.552999973297119 1,-7 C1,-7 1,7 1,7 C1,7.552999973297119 0.5519999861717224,8 0,8 C-0.5519999861717224,8 -1,7.552999973297119 -1,7 C-1,7 -1,-7 -1,-7 C-1,-7.552999973297119 -0.5519999861717224,-8 0,-8z"></path>
        </g>
        <g id="VWVMxzgj8j" opacity="1" transform="matrix(1,0,0,1,17.25,56.25)">
            <path id="7M4gdSQtr2" fill="rgb(255,236,237)" fill-opacity="1"
                  d=" M0,-8 C0,-8 0,-8 0,-8 C0.5519999861717224,-8 1,-7.552999973297119 1,-7 C1,-7 1,7 1,7 C1,7.552999973297119 0.5519999861717224,8 0,8 C-0.5519999861717224,8 -1,7.552999973297119 -1,7 C-1,7 -1,-7 -1,-7 C-1,-7.552999973297119 -0.5519999861717224,-8 0,-8z"></path>
        </g>
        <g id="k7SGtkonfF" opacity="1" transform="matrix(1,0,0,1,21.25,56.25)">
            <path id="6YKzbyWIxO" fill="rgb(255,236,237)" fill-opacity="1"
                  d=" M0,-8 C0,-8 0,-8 0,-8 C0.5519999861717224,-8 1,-7.552999973297119 1,-7 C1,-7 1,7 1,7 C1,7.552999973297119 0.5519999861717224,8 0,8 C-0.5519999861717224,8 -1,7.552999973297119 -1,7 C-1,7 -1,-7 -1,-7 C-1,-7.552999973297119 -0.5519999861717224,-8 0,-8z"></path>
        </g>
        <g id="edLtgt7JQO" opacity="1" transform="matrix(1,0,0,1,25.25,56.25)">
            <path id="PEf8glaZyY" fill="rgb(255,236,237)" fill-opacity="1"
                  d=" M0,-8 C0,-8 0,-8 0,-8 C0.5519999861717224,-8 1,-7.552999973297119 1,-7 C1,-7 1,7 1,7 C1,7.552999973297119 0.5519999861717224,8 0,8 C-0.5519999861717224,8 -1,7.552999973297119 -1,7 C-1,7 -1,-7 -1,-7 C-1,-7.552999973297119 -0.5519999861717224,-8 0,-8z"></path>
        </g>
        <g id="f_4wLVvRMM" opacity="1" transform="matrix(1,0,0,1,29.25,56.25)">
            <path id="SzBUTajJrK" fill="rgb(255,236,237)" fill-opacity="1"
                  d=" M0,-8 C0,-8 0,-8 0,-8 C0.5519999861717224,-8 1,-7.552999973297119 1,-7 C1,-7 1,7 1,7 C1,7.552999973297119 0.5519999861717224,8 0,8 C-0.5519999861717224,8 -1,7.552999973297119 -1,7 C-1,7 -1,-7 -1,-7 C-1,-7.552999973297119 -0.5519999861717224,-8 0,-8z"></path>
        </g>
        <g id="GBw4tw1BHq" opacity="1" transform="matrix(1,0,0,1,33.25,56.25)">
            <path id="GlkEO0OKxs" fill="rgb(255,236,237)" fill-opacity="1"
                  d=" M0,-8 C0,-8 0,-8 0,-8 C0.5519999861717224,-8 1,-7.552999973297119 1,-7 C1,-7 1,7 1,7 C1,7.552999973297119 0.5519999861717224,8 0,8 C-0.5519999861717224,8 -1,7.552999973297119 -1,7 C-1,7 -1,-7 -1,-7 C-1,-7.552999973297119 -0.5519999861717224,-8 0,-8z"></path>
        </g>
        <g id="3e-frFpFwQ" opacity="1" transform="matrix(1,0,0,1,52.25,17.25)">
            <path id="-qCwqrCPdb" fill="rgb(199,24,60)" fill-opacity="1"
                  d=" M-52,-6 C-52,-6 52,-6 52,-6 C52,-6 52,6 52,6 C52,6 -52,6 -52,6 C-52,6 -52,-6 -52,-6z"></path>
        </g>
    </g>
</svg>