<svg width="19" height="20" viewBox="0 0 19 20" fill="none" xmlns="http://www.w3.org/2000/svg">
<g id="Instant Activation">
<path id="Vector" d="M5.79454 18.3863C5.67661 18.2814 5.53247 18.1897 5.44075 18.0587C5.32282 17.8883 5.40144 17.6918 5.46696 17.5083C6.43661 14.9008 6.46282 14.3373 7.44558 11.7428C7.47178 11.6904 7.48489 11.6249 7.51109 11.5463H5.07385C4.61523 11.5463 4.36627 11.2449 4.4842 10.7994C5.20489 7.87731 5.93868 4.94213 6.67247 2.02006C6.75109 1.69248 6.94765 1.54834 7.28834 1.54834H12.2414C12.7787 1.54834 13.0276 1.99386 12.7525 2.45248C11.8614 3.94627 10.8263 5.74144 9.93523 7.23524C9.90903 7.28765 13.1063 7.13041 13.7876 7.13041C14.0366 7.13041 14.2332 7.20903 14.3511 7.43179C14.469 7.65455 14.4166 7.8642 14.2725 8.07386C11.3504 12.0966 9.38489 14.0752 6.44971 18.1111C6.35799 18.229 6.21385 18.3208 6.09592 18.4125C5.99109 18.3863 5.88627 18.3863 5.79454 18.3863Z" fill="#1A242D"/>
</g>
</svg>
