<svg width="77" height="108" viewBox="0 0 77 108" fill="none" xmlns="http://www.w3.org/2000/svg">
<g clip-path="url(#clip0_919_16306)">
<path d="M36.0508 11.2593L40.5493 11.2683" stroke="#1A243E" stroke-width="4.4985" stroke-miterlimit="10"/>
<path d="M31.4883 96.7313L44.9838 96.7403" stroke="#1A243E" stroke-width="4.4985" stroke-miterlimit="10"/>
<path d="M2.30078 20.2384L74.2768 20.2833" stroke="#1A243E" stroke-width="4.4985" stroke-miterlimit="10"/>
<path d="M2.25391 87.7163L74.23 87.7612" stroke="#1A243E" stroke-width="4.4985" stroke-miterlimit="10"/>
<path d="M65.2603 2.27155H11.2783C6.30935 2.27155 2.28125 6.29964 2.28125 11.2686V96.7401C2.28125 101.709 6.30935 105.737 11.2783 105.737H65.2603C70.2292 105.737 74.2573 101.709 74.2573 96.7401V11.2686C74.2573 6.29964 70.2292 2.27155 65.2603 2.27155Z" stroke="#1A243E" stroke-width="4.4985" stroke-miterlimit="10"/>
<path d="M67.504 27.009H9.02344V80.9911H67.504V27.009Z" fill="#78A4D7"/>
<g clip-path="url(#clip1_919_16306)">
<path d="M21.5686 63.3575C20.2662 66.5343 20.2631 69.0645 21.5624 70.3669C23.2129 72.0112 26.8342 71.3429 31.2418 68.9557C33.7969 67.5725 36.6162 65.8038 39.4759 63.37" stroke="#1A243E" stroke-width="2.06518" stroke-linejoin="round"/>
<path d="M47.247 37.6758C50.4393 36.361 52.9882 36.3703 54.2937 37.6821C55.9349 39.3326 55.2635 42.9538 52.8701 47.3584C51.0921 50.6191 48.3722 54.2714 44.9375 57.9206" stroke="#1A243E" stroke-width="2.06518" stroke-linejoin="round"/>
<path d="M37.9274 70.3792C46.9589 70.3792 54.2805 63.0577 54.2805 54.0261C54.2805 44.9945 46.9589 37.673 37.9274 37.673C28.8958 37.673 21.5742 44.9945 21.5742 54.0261C21.5742 63.0577 28.8958 70.3792 37.9274 70.3792Z" stroke="#1A243E" stroke-width="2.06518" stroke-linejoin="round"/>
<path d="M31.6606 61.026L30.1406 58.6916L42.6083 46.2426L45.7198 49.3571L35.5896 59.4749L31.6606 61.026Z" fill="white"/>
<path d="M41.0381 62.5927L42.5954 61.0323L42.6016 52.4719L37.9297 52.4688L41.0381 62.5927Z" fill="white"/>
<path d="M29.3672 50.9053L31.6674 49.348L39.4911 49.3542L39.488 54.0261L29.3672 50.9053Z" fill="white"/>
<path d="M31.6602 61.026L26.9883 59.4687L28.5114 57.9114L32.4746 57.9145L31.6602 61.026Z" fill="white"/>
<path d="M45.7209 49.3572C47.0575 48.0206 47.2813 46.2426 47.2813 44.6853C45.724 44.6853 43.946 44.9029 42.6094 46.2395L45.7209 49.3572Z" fill="white"/>
</g>
</g>
<defs>
<clipPath id="clip0_919_16306">
<rect width="76.5374" height="108" fill="white"/>
</clipPath>
<clipPath id="clip1_919_16306">
<rect width="37.712" height="37.712" fill="white" transform="translate(18.8555 35.0183)"/>
</clipPath>
</defs>
</svg>
