<svg width="206" height="267" viewBox="0 0 206 267" fill="none" xmlns="http://www.w3.org/2000/svg">
<g clip-path="url(#clip0_1868_4735)">
<path d="M157.007 128.7C156.507 130.7 152.507 130.3 152.707 128.2L161.107 31.7C161.707 22.3 156.207 16.4 147.807 16.4C139.307 16.4 136.107 22 134.507 31.7L125.507 118.5C125.307 120.6 120.307 120.6 120.207 118.5L118.607 16.3C118.607 7.8 113.707 1 105.307 1C96.8071 1 92.0071 7.9 92.0071 16.3L89.8071 121.4C89.9071 123.5 85.8071 123.8 85.5071 121.7L73.3071 26.9C71.1071 16.9 68.5071 11.6 60.0071 11.6C51.5071 11.6 47.0071 15.9 48.0071 31.1L62.2071 132.9C62.2071 132.9 27.9071 82.1 4.40709 105.6C-0.0929108 110.2 0.907095 119.6 5.5071 124.1C13.4071 131.7 28.8071 150 37.3071 165.6C64.0071 215.8 76.4071 228.7 112.807 228.7C145.407 228.7 170.307 222 178.307 157.6L179.107 149.8C179.107 141.9 181.107 134.3 182.207 126.5L195.107 72.7C197.807 62.7 194.707 53.1 184.607 53.1C179.307 53.3 174.807 57.2 172.407 66.5L157.007 128.7Z" stroke="#19232D" stroke-width="2" stroke-linecap="round" stroke-linejoin="round"/>
<path d="M166.208 47.6001H204.508V86.0001H166.208V47.6001Z" stroke="#E21432" stroke-width="3" stroke-linecap="round" stroke-linejoin="round"/>
<path d="M84 257.1H85.9V264.7H90V266.3H84.1V257.1H84Z" fill="#1A242C"/>
<path d="M97.1008 263.7H92.6008C92.8008 264.5 93.4008 264.9 94.3008 264.9C95.0008 264.9 95.5008 264.6 95.8008 264.2L96.9008 265.2C96.4008 265.9 95.5008 266.4 94.1008 266.4C92.1008 266.4 90.8008 265.1 90.8008 263.1C90.8008 261.2 92.1008 259.8 94.0008 259.8C95.8008 259.8 97.0008 261.2 97.0008 263C97.1008 263.3 97.1008 263.6 97.1008 263.7ZM92.6008 262.5H95.4008C95.2008 261.8 94.8008 261.4 94.0008 261.4C93.4008 261.3 92.8008 261.7 92.6008 262.5Z" fill="#1A242C"/>
<path d="M98.7 261.4H98V260H98.7V258.9C98.7 257.4 99.4 256.7 100.7 256.7C101.5 256.7 102.1 257 102.3 257.2L101.9 258.5C101.5 258.3 101.2 258.2 101 258.2C100.6 258.2 100.4 258.4 100.4 259.1V260.1H101.8V261.5H100.4V266.4H98.7V261.4Z" fill="#1A242C"/>
<path d="M103.101 264.3V261.4H102.301V260H103.101V257.9L104.801 257.7V259.9H106.501V261.3H104.801V264C104.801 264.6 104.901 264.8 105.301 264.8C105.501 264.8 105.801 264.7 106.101 264.6L106.501 266C106.101 266.2 105.701 266.4 104.801 266.4C103.801 266.4 103.101 265.7 103.101 264.3Z" fill="#1A242C"/>
<path d="M111.199 257.1H112.999V261.1H116.799V257.1H118.599V266.3H116.799V262.7H112.999V266.3H111.199V257.1Z" fill="#1A242C"/>
<path d="M120.199 263.2C120.199 261.3 121.499 259.9 123.199 259.9C123.899 259.9 124.599 260.2 125.099 260.7V260H126.799V266.4H125.199V265.6C124.799 266.2 124.099 266.5 123.299 266.5C121.399 266.4 120.199 265.1 120.199 263.2ZM125.099 263.2C125.099 262.2 124.399 261.4 123.499 261.4C122.599 261.4 121.899 262.1 121.899 263.2C121.899 264.2 122.599 264.9 123.499 264.9C124.399 264.9 125.099 264.2 125.099 263.2Z" fill="#1A242C"/>
<path d="M128.4 260H130.1V260.8C130.6 260.2 131.3 259.9 132.1 259.9C133.5 259.9 134.4 260.6 134.4 262.6V266.4H132.7V263.1C132.7 261.9 132.3 261.5 131.5 261.5C130.6 261.5 130.1 262.1 130.1 263.2V266.4H128.4V260Z" fill="#1A242C"/>
<path d="M135.699 263.2C135.699 261.3 136.999 259.9 138.699 259.9C139.499 259.9 140.199 260.2 140.599 260.7V256.7H142.299V266.3H140.699V265.5C140.299 266.1 139.599 266.4 138.699 266.4C136.899 266.4 135.699 265.1 135.699 263.2ZM140.699 263.2C140.699 262.2 139.999 261.4 138.999 261.4C138.099 261.4 137.399 262.1 137.399 263.2C137.399 264.2 138.099 264.9 138.999 264.9C139.899 264.9 140.699 264.2 140.699 263.2Z" fill="#1A242C"/>
</g>
<defs>
<clipPath id="clip0_1868_4735">
<rect width="205.51" height="266.5" fill="white"/>
</clipPath>
</defs>
</svg>
