<svg width="52" height="52" viewBox="0 0 52 52" fill="none" xmlns="http://www.w3.org/2000/svg">
<path d="M38.2625 44.4165H15.3167V18.725L29.6042 4.125L31.0061 5.2033C31.2103 5.38165 31.3666 5.61595 31.475 5.90622C31.5833 6.19651 31.6375 6.52776 31.6375 6.89996V7.29581L29.2833 18.725H45.4375C46.2569 18.725 46.9826 19.0409 47.6145 19.6729C48.2465 20.3048 48.5624 21.0305 48.5624 21.85V25.4303C48.5624 25.66 48.5756 25.8999 48.602 26.1499C48.6284 26.3999 48.5944 26.6374 48.4999 26.8624L42.0708 41.8207C41.7592 42.5487 41.2375 43.1633 40.5057 43.6646C39.774 44.1658 39.0263 44.4165 38.2625 44.4165ZM17.775 41.9582H38.7791C38.918 41.9582 39.0708 41.9165 39.2375 41.8332C39.4042 41.7498 39.5292 41.6109 39.6125 41.4165L46.1042 26.0332V21.85C46.1042 21.6694 46.0382 21.5131 45.9062 21.3811C45.7743 21.2492 45.618 21.1832 45.4375 21.1832H26.2959L28.9583 8.17493L17.775 19.7666V41.9582ZM15.3167 18.725V21.1832H7.84172V41.9582H15.3167V44.4165H5.38342V18.725H15.3167Z" fill="#E21331"/>
</svg>
