<?xml version="1.0" encoding="UTF-8"?>
<svg xmlns="http://www.w3.org/2000/svg" xmlns:xlink="http://www.w3.org/1999/xlink" viewBox="0 0 179.74 179.74">
  <defs>
    <style>
      .cls-1 {
        fill: none;
      }

      .cls-2 {
        clip-path: url(#clippath);
      }

      .cls-3 {
        mix-blend-mode: overlay;
        opacity: .65;
      }

      .cls-4 {
        fill: #ce3337;
      }

      .cls-5 {
        fill: url(#New_Pattern_Swatch_1);
      }

      .cls-6 {
        isolation: isolate;
      }

      .cls-7 {
        fill: #afafaf;
      }

      .cls-7, .cls-8, .cls-9, .cls-10, .cls-11, .cls-12, .cls-13, .cls-14, .cls-15, .cls-16, .cls-17, .cls-18, .cls-19, .cls-20, .cls-21, .cls-22, .cls-23 {
        opacity: .3;
      }

      .cls-8 {
        fill: #bebebe;
      }

      .cls-9 {
        fill: #ababab;
      }

      .cls-10 {
        fill: #bdbdbd;
      }

      .cls-11 {
        fill: #bcbcbc;
      }

      .cls-12 {
        fill: #b0b0b0;
      }

      .cls-13 {
        fill: #7d7d7d;
      }

      .cls-14 {
        fill: #b4b4b4;
      }

      .cls-15 {
        fill: #9d9d9d;
      }

      .cls-16 {
        fill: #989898;
      }

      .cls-17 {
        fill: #7c7c7c;
      }

      .cls-18 {
        fill: #ececec;
      }

      .cls-19 {
        fill: #484848;
      }

      .cls-20 {
        fill: #474747;
      }

      .cls-21 {
        fill: #727272;
      }

      .cls-22 {
        fill: #707070;
      }

      .cls-23 {
        fill: #525252;
      }
    </style>
    <clipPath id="clippath">
      <rect class="cls-1" x="13.54" y="-835.73" width="1076.72" height="587.55"/>
    </clipPath>
    <pattern id="New_Pattern_Swatch_1" data-name="New Pattern Swatch 1" x="0" y="0" width="200.04" height="133.36" patternTransform="translate(9800.4 8363.98) scale(2.2)" patternUnits="userSpaceOnUse" viewBox="0 0 200.04 133.36">
      <g>
        <rect class="cls-1" width="200.04" height="133.36"/>
        <g>
          <path class="cls-14" d="M22.2,22.23H0V0C0,12.27,9.93,22.21,22.2,22.23Z"/>
          <path class="cls-15" d="M0,0C12.28,0,22.23,9.95,22.23,22.23h-.03C9.93,22.21,0,12.27,0,0Z"/>
          <path class="cls-19" d="M0,0H22.23V22.23C22.23,9.95,12.28,0,0,0Z"/>
        </g>
        <g>
          <path class="cls-12" d="M22.26,22.23h22.2V0c0,12.27-9.93,22.21-22.2,22.23Z"/>
          <path class="cls-11" d="M44.45,0c-12.28,0-22.23,9.95-22.23,22.23h.03c12.26-.02,22.2-9.96,22.2-22.23Z"/>
          <path class="cls-12" d="M44.45,0H22.23V22.23C22.23,9.95,32.18,0,44.45,0Z"/>
        </g>
        <g>
          <path class="cls-20" d="M66.65,22.23h-22.2V0c0,12.27,9.93,22.21,22.2,22.23Z"/>
          <path class="cls-23" d="M44.45,0c12.27,0,22.23,9.95,22.23,22.23h-.03c-12.26-.02-22.2-9.96-22.2-22.23Z"/>
          <path class="cls-19" d="M44.45,0h22.23V22.23C66.68,9.95,56.73,0,44.45,0Z"/>
        </g>
        <g>
          <path class="cls-12" d="M66.71,22.23h22.2V0c0,12.27-9.93,22.21-22.2,22.23Z"/>
          <path class="cls-10" d="M88.91,0c-12.28,0-22.23,9.95-22.23,22.23h.03c12.26-.02,22.2-9.96,22.2-22.23Z"/>
          <path class="cls-10" d="M88.91,0h-22.23V22.23c0-12.28,9.95-22.23,22.23-22.23Z"/>
        </g>
        <g>
          <path class="cls-19" d="M111.1,22.23h-22.2V0c0,12.27,9.93,22.21,22.2,22.23Z"/>
          <path class="cls-11" d="M88.91,0c12.28,0,22.23,9.95,22.23,22.23h-.03c-12.26-.02-22.2-9.96-22.2-22.23Z"/>
          <path class="cls-7" d="M88.91,0h22.23V22.23c0-12.28-9.95-22.23-22.23-22.23Z"/>
        </g>
        <g>
          <path class="cls-13" d="M111.16,22.23h22.2V0c0,12.27-9.93,22.21-22.2,22.23Z"/>
          <path class="cls-22" d="M133.36,0c-12.28,0-22.23,9.95-22.23,22.23h.03c12.26-.02,22.2-9.96,22.2-22.23Z"/>
          <path class="cls-13" d="M133.36,0h-22.23V22.23c0-12.28,9.95-22.23,22.23-22.23Z"/>
        </g>
        <g>
          <path class="cls-13" d="M155.56,22.23h-22.2V0c0,12.27,9.93,22.21,22.2,22.23Z"/>
          <path class="cls-21" d="M133.36,0c12.27,0,22.23,9.95,22.23,22.23h-.03c-12.26-.02-22.2-9.96-22.2-22.23Z"/>
          <path class="cls-19" d="M133.36,0h22.23V22.23c0-12.28-9.95-22.23-22.23-22.23Z"/>
        </g>
        <g>
          <path class="cls-20" d="M155.62,22.23h22.2V0c0,12.27-9.93,22.21-22.2,22.23Z"/>
          <path class="cls-9" d="M177.81,0c-12.28,0-22.23,9.95-22.23,22.23h.03c12.26-.02,22.2-9.96,22.2-22.23Z"/>
          <path class="cls-14" d="M177.81,0h-22.23V22.23c0-12.28,9.95-22.23,22.23-22.23Z"/>
        </g>
        <g>
          <path class="cls-14" d="M200.01,22.23h-22.2V0c0,12.27,9.93,22.21,22.2,22.23Z"/>
          <path class="cls-16" d="M177.81,0c12.28,0,22.23,9.95,22.23,22.23h-.03c-12.26-.02-22.2-9.96-22.2-22.23Z"/>
          <path class="cls-13" d="M177.81,0h22.23V22.23c0-12.28-9.95-22.23-22.23-22.23Z"/>
        </g>
        <g>
          <path class="cls-14" d="M22.2,66.68H0v-22.23c0,12.27,9.93,22.21,22.2,22.23Z"/>
          <path class="cls-15" d="M0,44.45c12.28,0,22.23,9.95,22.23,22.23h-.03c-12.26-.02-22.2-9.96-22.2-22.23Z"/>
          <path class="cls-19" d="M0,44.45H22.23v22.23c0-12.28-9.95-22.23-22.23-22.23Z"/>
        </g>
        <g>
          <path class="cls-12" d="M22.26,66.68h22.2v-22.23c0,12.27-9.93,22.21-22.2,22.23Z"/>
          <path class="cls-11" d="M44.45,44.45c-12.28,0-22.23,9.95-22.23,22.23h.03c12.26-.02,22.2-9.96,22.2-22.23Z"/>
          <path class="cls-12" d="M44.45,44.45H22.23v22.23c0-12.28,9.95-22.23,22.23-22.23Z"/>
        </g>
        <g>
          <path class="cls-20" d="M66.65,66.68h-22.2v-22.23c0,12.27,9.93,22.21,22.2,22.23Z"/>
          <path class="cls-23" d="M44.45,44.45c12.27,0,22.23,9.95,22.23,22.23h-.03c-12.26-.02-22.2-9.96-22.2-22.23Z"/>
          <path class="cls-19" d="M44.45,44.45h22.23v22.23c0-12.28-9.95-22.23-22.23-22.23Z"/>
        </g>
        <g>
          <path class="cls-12" d="M66.71,66.68h22.2v-22.23c0,12.27-9.93,22.21-22.2,22.23Z"/>
          <path class="cls-10" d="M88.91,44.45c-12.28,0-22.23,9.95-22.23,22.23h.03c12.26-.02,22.2-9.96,22.2-22.23Z"/>
          <path class="cls-10" d="M88.91,44.45h-22.23v22.23c0-12.28,9.95-22.23,22.23-22.23Z"/>
        </g>
        <g>
          <path class="cls-19" d="M111.1,66.68h-22.2v-22.23c0,12.27,9.93,22.21,22.2,22.23Z"/>
          <path class="cls-11" d="M88.91,44.45c12.28,0,22.23,9.95,22.23,22.23h-.03c-12.26-.02-22.2-9.96-22.2-22.23Z"/>
          <path class="cls-7" d="M88.91,44.45h22.23v22.23c0-12.28-9.95-22.23-22.23-22.23Z"/>
        </g>
        <g>
          <path class="cls-13" d="M111.16,66.68h22.2v-22.23c0,12.27-9.93,22.21-22.2,22.23Z"/>
          <path class="cls-22" d="M133.36,44.45c-12.28,0-22.23,9.95-22.23,22.23h.03c12.26-.02,22.2-9.96,22.2-22.23Z"/>
          <path class="cls-13" d="M133.36,44.45h-22.23v22.23c0-12.28,9.95-22.23,22.23-22.23Z"/>
        </g>
        <g>
          <path class="cls-13" d="M155.56,66.68h-22.2v-22.23c0,12.27,9.93,22.21,22.2,22.23Z"/>
          <path class="cls-21" d="M133.36,44.45c12.27,0,22.23,9.95,22.23,22.23h-.03c-12.26-.02-22.2-9.96-22.2-22.23Z"/>
          <path class="cls-19" d="M133.36,44.45h22.23v22.23c0-12.28-9.95-22.23-22.23-22.23Z"/>
        </g>
        <g>
          <path class="cls-20" d="M155.62,66.68h22.2v-22.23c0,12.27-9.93,22.21-22.2,22.23Z"/>
          <path class="cls-9" d="M177.81,44.45c-12.28,0-22.23,9.95-22.23,22.23h.03c12.26-.02,22.2-9.96,22.2-22.23Z"/>
          <path class="cls-14" d="M177.81,44.45h-22.23v22.23c0-12.28,9.95-22.23,22.23-22.23Z"/>
        </g>
        <g>
          <path class="cls-14" d="M200.01,66.68h-22.2v-22.23c0,12.27,9.93,22.21,22.2,22.23Z"/>
          <path class="cls-16" d="M177.81,44.45c12.28,0,22.23,9.95,22.23,22.23h-.03c-12.26-.02-22.2-9.96-22.2-22.23Z"/>
          <path class="cls-13" d="M177.81,44.45h22.23v22.23c0-12.28-9.95-22.23-22.23-22.23Z"/>
        </g>
        <g>
          <path class="cls-13" d="M22.2,88.91H0v-22.23c0,12.27,9.93,22.21,22.2,22.23Z"/>
          <path class="cls-16" d="M0,66.68c12.28,0,22.23,9.95,22.23,22.23h-.03c-12.26-.02-22.2-9.96-22.2-22.23Z"/>
          <path class="cls-14" d="M0,66.68H22.23v22.23c0-12.28-9.95-22.23-22.23-22.23Z"/>
        </g>
        <g>
          <path class="cls-14" d="M22.26,88.91h22.2v-22.23c0,12.27-9.93,22.21-22.2,22.23Z"/>
          <path class="cls-9" d="M44.45,66.68c-12.28,0-22.23,9.95-22.23,22.23h.03c12.26-.02,22.2-9.96,22.2-22.23Z"/>
          <path class="cls-20" d="M44.45,66.68H22.23v22.23c0-12.28,9.95-22.23,22.23-22.23Z"/>
        </g>
        <g>
          <path class="cls-19" d="M66.65,88.91h-22.2v-22.23c0,12.27,9.93,22.21,22.2,22.23Z"/>
          <path class="cls-21" d="M44.45,66.68c12.27,0,22.23,9.95,22.23,22.23h-.03c-12.26-.02-22.2-9.96-22.2-22.23Z"/>
          <path class="cls-13" d="M44.45,66.68h22.23v22.23c0-12.28-9.95-22.23-22.23-22.23Z"/>
        </g>
        <g>
          <path class="cls-13" d="M66.71,88.91h22.2v-22.23c0,12.27-9.93,22.21-22.2,22.23Z"/>
          <path class="cls-22" d="M88.91,66.68c-12.28,0-22.23,9.95-22.23,22.23h.03c12.26-.02,22.2-9.96,22.2-22.23Z"/>
          <path class="cls-13" d="M88.91,66.68h-22.23v22.23c0-12.28,9.95-22.23,22.23-22.23Z"/>
        </g>
        <g>
          <path class="cls-7" d="M111.1,88.91h-22.2v-22.23c0,12.27,9.93,22.21,22.2,22.23Z"/>
          <path class="cls-11" d="M88.91,66.68c12.28,0,22.23,9.95,22.23,22.23h-.03c-12.26-.02-22.2-9.96-22.2-22.23Z"/>
          <path class="cls-19" d="M88.91,66.68h22.23v22.23c0-12.28-9.95-22.23-22.23-22.23Z"/>
        </g>
        <g>
          <path class="cls-13" d="M111.16,88.91h22.2v-22.23c0,12.27-9.93,22.21-22.2,22.23Z"/>
          <path class="cls-10" d="M133.36,66.68c-12.28,0-22.23,9.95-22.23,22.23h.03c12.26-.02,22.2-9.96,22.2-22.23Z"/>
          <path class="cls-12" d="M133.36,66.68h-22.23v22.23c0-12.28,9.95-22.23,22.23-22.23Z"/>
        </g>
        <g>
          <path class="cls-19" d="M155.56,88.91h-22.2v-22.23c0,12.27,9.93,22.21,22.2,22.23Z"/>
          <path class="cls-23" d="M133.36,66.68c12.27,0,22.23,9.95,22.23,22.23h-.03c-12.26-.02-22.2-9.96-22.2-22.23Z"/>
          <path class="cls-20" d="M133.36,66.68h22.23v22.23c0-12.28-9.95-22.23-22.23-22.23Z"/>
        </g>
        <g>
          <path class="cls-12" d="M155.62,88.91h22.2v-22.23c0,12.27-9.93,22.21-22.2,22.23Z"/>
          <path class="cls-11" d="M177.81,66.68c-12.28,0-22.23,9.95-22.23,22.23h.03c12.26-.02,22.2-9.96,22.2-22.23Z"/>
          <path class="cls-12" d="M177.81,66.68h-22.23v22.23c0-12.28,9.95-22.23,22.23-22.23Z"/>
        </g>
        <g>
          <path class="cls-19" d="M200.01,88.91h-22.2v-22.23c0,12.27,9.93,22.21,22.2,22.23Z"/>
          <path class="cls-15" d="M177.81,66.68c12.28,0,22.23,9.95,22.23,22.23h-.03c-12.26-.02-22.2-9.96-22.2-22.23Z"/>
          <path class="cls-14" d="M177.81,66.68h22.23v22.23c0-12.28-9.95-22.23-22.23-22.23Z"/>
        </g>
        <g>
          <path class="cls-14" d="M22.2,22.23H0v22.23c0-12.27,9.93-22.21,22.2-22.23Z"/>
          <path class="cls-15" d="M0,44.45c12.28,0,22.23-9.95,22.23-22.23h-.03c-12.26,.02-22.2,9.96-22.2,22.23Z"/>
          <path class="cls-19" d="M0,44.45H22.23V22.23c0,12.28-9.95,22.23-22.23,22.23Z"/>
        </g>
        <g>
          <path class="cls-14" d="M22.26,22.23h22.2v22.23c0-12.27-9.93-22.21-22.2-22.23Z"/>
          <path class="cls-15" d="M44.45,44.45c-12.28,0-22.23-9.95-22.23-22.23h.03c12.26,.02,22.2,9.96,22.2,22.23Z"/>
          <path class="cls-20" d="M44.45,44.45H22.23V22.23c0,12.28,9.95,22.23,22.23,22.23Z"/>
        </g>
        <g>
          <path class="cls-13" d="M66.65,22.23h-22.2v22.23c0-12.27,9.93-22.21,22.2-22.23Z"/>
          <path class="cls-21" d="M44.45,44.45c12.27,0,22.23-9.95,22.23-22.23h-.03c-12.26,.02-22.2,9.96-22.2,22.23Z"/>
          <path class="cls-19" d="M44.45,44.45h22.23V22.23c0,12.28-9.95,22.23-22.23,22.23Z"/>
        </g>
        <g>
          <path class="cls-12" d="M66.71,22.23h22.2v22.23c0-12.27-9.93-22.21-22.2-22.23Z"/>
          <path class="cls-8" d="M88.91,44.45c-12.28,0-22.23-9.95-22.23-22.23h.03c12.26,.02,22.2,9.96,22.2,22.23Z"/>
          <path class="cls-17" d="M88.91,44.45h-22.23V22.23c0,12.28,9.95,22.23,22.23,22.23Z"/>
        </g>
        <g>
          <path class="cls-19" d="M111.1,22.23h-22.2v22.23c0-12.27,9.93-22.21,22.2-22.23Z"/>
          <path class="cls-11" d="M88.91,44.45c12.28,0,22.23-9.95,22.23-22.23h-.03c-12.26,.02-22.2,9.96-22.2,22.23Z"/>
          <path class="cls-12" d="M88.91,44.45h22.23V22.23c0,12.28-9.95,22.23-22.23,22.23Z"/>
        </g>
        <g>
          <path class="cls-17" d="M111.16,22.23h22.2v22.23c0-12.27-9.93-22.21-22.2-22.23Z"/>
          <path class="cls-18" d="M133.36,44.45c-12.28,0-22.23-9.95-22.23-22.23h.03c12.26,.02,22.2,9.96,22.2,22.23Z"/>
          <path class="cls-12" d="M133.36,44.45h-22.23V22.23c0,12.28,9.95,22.23,22.23,22.23Z"/>
        </g>
        <g>
          <path class="cls-14" d="M155.56,22.23h-22.2v22.23c0-12.27,9.93-22.21,22.2-22.23Z"/>
          <path class="cls-15" d="M133.36,44.45c12.27,0,22.23-9.95,22.23-22.23h-.03c-12.26,.02-22.2,9.96-22.2,22.23Z"/>
          <path class="cls-19" d="M133.36,44.45h22.23V22.23c0,12.28-9.95,22.23-22.23,22.23Z"/>
        </g>
        <g>
          <path class="cls-14" d="M155.62,22.23h22.2v22.23c0-12.27-9.93-22.21-22.2-22.23Z"/>
          <path class="cls-15" d="M177.81,44.45c-12.28,0-22.23-9.95-22.23-22.23h.03c12.26,.02,22.2,9.96,22.2,22.23Z"/>
          <path class="cls-19" d="M177.81,44.45h-22.23V22.23c0,12.28,9.95,22.23,22.23,22.23Z"/>
        </g>
        <g>
          <path class="cls-20" d="M200.01,22.23h-22.2v22.23c0-12.27,9.93-22.21,22.2-22.23Z"/>
          <path class="cls-21" d="M177.81,44.45c12.28,0,22.23-9.95,22.23-22.23h-.03c-12.26,.02-22.2,9.96-22.2,22.23Z"/>
          <path class="cls-13" d="M177.81,44.45h22.23V22.23c0,12.28-9.95,22.23-22.23,22.23Z"/>
        </g>
        <g>
          <path class="cls-13" d="M22.2,133.36H0v-22.23c0,12.27,9.93,22.21,22.2,22.23Z"/>
          <path class="cls-16" d="M0,111.13c12.28,0,22.23,9.95,22.23,22.23h-.03c-12.26-.02-22.2-9.96-22.2-22.23Z"/>
          <path class="cls-14" d="M0,111.13H22.23v22.23c0-12.28-9.95-22.23-22.23-22.23Z"/>
        </g>
        <g>
          <path class="cls-14" d="M22.26,133.36h22.2v-22.23c0,12.27-9.93,22.21-22.2,22.23Z"/>
          <path class="cls-9" d="M44.45,111.13c-12.28,0-22.23,9.95-22.23,22.23h.03c12.26-.02,22.2-9.96,22.2-22.23Z"/>
          <path class="cls-20" d="M44.45,111.13H22.23v22.23c0-12.28,9.95-22.23,22.23-22.23Z"/>
        </g>
        <g>
          <path class="cls-19" d="M66.65,133.36h-22.2v-22.23c0,12.27,9.93,22.21,22.2,22.23Z"/>
          <path class="cls-21" d="M44.45,111.13c12.27,0,22.23,9.95,22.23,22.23h-.03c-12.26-.02-22.2-9.96-22.2-22.23Z"/>
          <path class="cls-13" d="M44.45,111.13h22.23v22.23c0-12.28-9.95-22.23-22.23-22.23Z"/>
        </g>
        <g>
          <path class="cls-13" d="M66.71,133.36h22.2v-22.23c0,12.27-9.93,22.21-22.2,22.23Z"/>
          <path class="cls-22" d="M88.91,111.13c-12.28,0-22.23,9.95-22.23,22.23h.03c12.26-.02,22.2-9.96,22.2-22.23Z"/>
          <path class="cls-13" d="M88.91,111.13h-22.23v22.23c0-12.28,9.95-22.23,22.23-22.23Z"/>
        </g>
        <g>
          <path class="cls-7" d="M111.1,133.36h-22.2v-22.23c0,12.27,9.93,22.21,22.2,22.23Z"/>
          <path class="cls-11" d="M88.91,111.13c12.28,0,22.23,9.95,22.23,22.23h-.03c-12.26-.02-22.2-9.96-22.2-22.23Z"/>
          <path class="cls-19" d="M88.91,111.13h22.23v22.23c0-12.28-9.95-22.23-22.23-22.23Z"/>
        </g>
        <g>
          <path class="cls-13" d="M111.16,133.36h22.2v-22.23c0,12.27-9.93,22.21-22.2,22.23Z"/>
          <path class="cls-10" d="M133.36,111.13c-12.28,0-22.23,9.95-22.23,22.23h.03c12.26-.02,22.2-9.96,22.2-22.23Z"/>
          <path class="cls-12" d="M133.36,111.13h-22.23v22.23c0-12.28,9.95-22.23,22.23-22.23Z"/>
        </g>
        <g>
          <path class="cls-19" d="M155.56,133.36h-22.2v-22.23c0,12.27,9.93,22.21,22.2,22.23Z"/>
          <path class="cls-23" d="M133.36,111.13c12.27,0,22.23,9.95,22.23,22.23h-.03c-12.26-.02-22.2-9.96-22.2-22.23Z"/>
          <path class="cls-20" d="M133.36,111.13h22.23v22.23c0-12.28-9.95-22.23-22.23-22.23Z"/>
        </g>
        <g>
          <path class="cls-12" d="M155.62,133.36h22.2v-22.23c0,12.27-9.93,22.21-22.2,22.23Z"/>
          <path class="cls-11" d="M177.81,111.13c-12.28,0-22.23,9.95-22.23,22.23h.03c12.26-.02,22.2-9.96,22.2-22.23Z"/>
          <path class="cls-12" d="M177.81,111.13h-22.23v22.23c0-12.28,9.95-22.23,22.23-22.23Z"/>
        </g>
        <g>
          <path class="cls-19" d="M200.01,133.36h-22.2v-22.23c0,12.27,9.93,22.21,22.2,22.23Z"/>
          <path class="cls-15" d="M177.81,111.13c12.28,0,22.23,9.95,22.23,22.23h-.03c-12.26-.02-22.2-9.96-22.2-22.23Z"/>
          <path class="cls-14" d="M177.81,111.13h22.23v22.23c0-12.28-9.95-22.23-22.23-22.23Z"/>
        </g>
        <g>
          <path class="cls-13" d="M22.2,88.91H0v22.23c0-12.27,9.93-22.21,22.2-22.23Z"/>
          <path class="cls-21" d="M0,111.13c12.28,0,22.23-9.95,22.23-22.23h-.03c-12.26,.02-22.2,9.96-22.2,22.23Z"/>
          <path class="cls-20" d="M0,111.13H22.23v-22.23c0,12.28-9.95,22.23-22.23,22.23Z"/>
        </g>
        <g>
          <path class="cls-19" d="M22.26,88.91h22.2v22.23c0-12.27-9.93-22.21-22.2-22.23Z"/>
          <path class="cls-15" d="M44.45,111.13c-12.28,0-22.23-9.95-22.23-22.23h.03c12.26,.02,22.2,9.96,22.2,22.23Z"/>
          <path class="cls-14" d="M44.45,111.13H22.23v-22.23c0,12.28,9.95,22.23,22.23,22.23Z"/>
        </g>
        <g>
          <path class="cls-19" d="M66.65,88.91h-22.2v22.23c0-12.27,9.93-22.21,22.2-22.23Z"/>
          <path class="cls-15" d="M44.45,111.13c12.27,0,22.23-9.95,22.23-22.23h-.03c-12.26,.02-22.2,9.96-22.2,22.23Z"/>
          <path class="cls-14" d="M44.45,111.13h22.23v-22.23c0,12.28-9.95,22.23-22.23,22.23Z"/>
        </g>
        <g>
          <path class="cls-12" d="M66.71,88.91h22.2v22.23c0-12.27-9.93-22.21-22.2-22.23Z"/>
          <path class="cls-18" d="M88.91,111.13c-12.28,0-22.23-9.95-22.23-22.23h.03c12.26,.02,22.2,9.96,22.2,22.23Z"/>
          <path class="cls-17" d="M88.91,111.13h-22.23v-22.23c0,12.28,9.95,22.23,22.23,22.23Z"/>
        </g>
        <g>
          <path class="cls-12" d="M111.1,88.91h-22.2v22.23c0-12.27,9.93-22.21,22.2-22.23Z"/>
          <path class="cls-11" d="M88.91,111.13c12.28,0,22.23-9.95,22.23-22.23h-.03c-12.26,.02-22.2,9.96-22.2,22.23Z"/>
          <path class="cls-19" d="M88.91,111.13h22.23v-22.23c0,12.28-9.95,22.23-22.23,22.23Z"/>
        </g>
        <g>
          <path class="cls-17" d="M111.16,88.91h22.2v22.23c0-12.27-9.93-22.21-22.2-22.23Z"/>
          <path class="cls-8" d="M133.36,111.13c-12.28,0-22.23-9.95-22.23-22.23h.03c12.26,.02,22.2,9.96,22.2,22.23Z"/>
          <path class="cls-12" d="M133.36,111.13h-22.23v-22.23c0,12.28,9.95,22.23,22.23,22.23Z"/>
        </g>
        <g>
          <path class="cls-19" d="M155.56,88.91h-22.2v22.23c0-12.27,9.93-22.21,22.2-22.23Z"/>
          <path class="cls-21" d="M133.36,111.13c12.27,0,22.23-9.95,22.23-22.23h-.03c-12.26,.02-22.2,9.96-22.2,22.23Z"/>
          <path class="cls-13" d="M133.36,111.13h22.23v-22.23c0,12.28-9.95,22.23-22.23,22.23Z"/>
        </g>
        <g>
          <path class="cls-20" d="M155.62,88.91h22.2v22.23c0-12.27-9.93-22.21-22.2-22.23Z"/>
          <path class="cls-15" d="M177.81,111.13c-12.28,0-22.23-9.95-22.23-22.23h.03c12.26,.02,22.2,9.96,22.2,22.23Z"/>
          <path class="cls-14" d="M177.81,111.13h-22.23v-22.23c0,12.28,9.95,22.23,22.23,22.23Z"/>
        </g>
        <g>
          <path class="cls-19" d="M200.01,88.91h-22.2v22.23c0-12.27,9.93-22.21,22.2-22.23Z"/>
          <path class="cls-15" d="M177.81,111.13c12.28,0,22.23-9.95,22.23-22.23h-.03c-12.26,.02-22.2,9.96-22.2,22.23Z"/>
          <path class="cls-14" d="M177.81,111.13h22.23v-22.23c0,12.28-9.95,22.23-22.23,22.23Z"/>
        </g>
      </g>
    </pattern>
  </defs>
  <g class="cls-6">
    <g id="Layer_1" data-name="Layer 1">
      <g class="cls-3">
        <g class="cls-2">
          <rect class="cls-5" x="-467.24" y="-1055.68" width="5575.85" height="1153.83"/>
        </g>
      </g>
      <path class="cls-4" d="M89.82,41.07c9.87,21.5,27.25,38.88,48.75,48.75-21.5,9.87-38.88,27.24-48.75,48.75-9.87-21.5-27.24-38.88-48.75-48.75,21.5-9.87,38.88-27.24,48.75-48.75M89.87,0s-.07,0-.1,0c0,49.58-40.19,89.76-89.77,89.77,0,.03,0,.07,0,.1,49.58,0,89.77,40.19,89.77,89.77h-.3s0,.06,0,.09c.13,0,.26,0,.4,0,.02,0,.05,0,.07,0,0-.03,.01-.07,.02-.1h-.09c0-49.58,40.19-89.77,89.77-89.77v.33s.06,0,.09,0c0-.11,0-.21,0-.32,0-.08,0-.16,0-.24-.03,0-.06-.01-.1-.02v.16C130.06,89.77,89.87,49.58,89.87,0h0Z"/>
    </g>
  </g>
</svg>