<svg width="45" height="45" viewBox="0 0 45 45" fill="none" xmlns="http://www.w3.org/2000/svg">
<circle cx="22.5" cy="22.5" r="22" fill="#F4F4F4"/>
<path d="M17.5555 29.5248H8.5L10.9044 25.3623H15.1532L17.5576 29.5248H17.5555ZM10.1738 28.5584H15.8796L14.5932 26.3287H11.4624L10.1738 28.5584Z" fill="#1C242B"/>
<path d="M26.9188 29.5248H17.8633L20.2677 25.3624H24.5165L26.9188 29.5248ZM19.5371 28.5584H25.2429L23.9564 26.3288H20.8236L19.5371 28.5584Z" fill="#1C242B"/>
<path d="M36.2832 29.5248H27.2256L29.63 25.3624H33.8788L36.2832 29.5248ZM28.9015 28.5584H34.6073L33.3187 26.3288H30.188L28.8994 28.5584H28.9015Z" fill="#1C242B"/>
<path d="M22.2382 24.3454H13.1826L15.587 20.1808H19.8359L22.2382 24.3454ZM14.8564 23.379H20.5622L19.2758 21.1493H16.1429L14.8564 23.379Z" fill="#1C242B"/>
<path d="M31.6034 24.3454H22.5479L24.9501 20.1808H29.199L31.6034 24.3454ZM24.2217 23.379H29.9275L28.641 21.1493H25.5081L24.2217 23.379Z" fill="#1C242B"/>
<path d="M26.9208 19.166H17.8652L20.2675 15.0035H24.5164L26.9187 19.166H26.9208ZM19.5412 18.1996H25.2469L23.9605 15.972H20.8276L19.5412 18.1996Z" fill="#1C242B"/>
<path d="M32.7459 16.5342C31.2405 16.5342 30.0215 17.7554 30.0215 19.2608C30.0215 17.7575 28.8003 16.5342 27.2949 16.5342C28.7982 16.5342 30.0215 15.313 30.0215 13.8098C30.0215 15.3109 31.2405 16.5342 32.7459 16.5342Z" fill="#82A2CF"/>
<path d="M27.2366 13.0476C26.3818 13.0476 25.6891 13.7424 25.6891 14.5951C25.6891 13.7403 24.9943 13.0476 24.1416 13.0476C24.9964 13.0476 25.6891 12.3528 25.6891 11.5001C25.6891 12.3528 26.3818 13.0476 27.2366 13.0476Z" fill="#82A2CF"/>
<path d="M17.7304 16.3721C17.0966 16.3721 16.5829 16.8858 16.5829 17.5175C16.5829 16.8858 16.0691 16.3721 15.4375 16.3721C16.0691 16.3721 16.5829 15.8584 16.5829 15.2267C16.5829 15.8584 17.0966 16.3721 17.7304 16.3721Z" fill="#82A2CF"/>
</svg>
