<svg id="Group_2286" data-name="Group 2286" xmlns="http://www.w3.org/2000/svg" xmlns:xlink="http://www.w3.org/1999/xlink" width="147.861" height="164.639" viewBox="0 0 147.861 164.639">
  <defs>
    <clipPath id="clip-path">
      <rect id="Rectangle_64696" data-name="Rectangle 64696" width="147.861" height="164.639" fill="none"/>
    </clipPath>
  </defs>
  <g id="Group_2285" data-name="Group 2285" clip-path="url(#clip-path)">
    <path id="Path_4563" data-name="Path 4563" d="M92.367,27.113l36.8,36.846a10.425,10.425,0,0,1-.013,14.721L70.206,137.542a10.424,10.424,0,0,1-14.715-.008L18.7,100.692a10.426,10.426,0,0,1,.012-14.721L77.653,27.109a10.425,10.425,0,0,1,14.714,0M59.169,133.85a5.215,5.215,0,0,0,7.36.006L125.467,75a5.212,5.212,0,0,0,.007-7.36L88.686,30.8l1.839-1.839L88.682,30.8a5.212,5.212,0,0,0-7.357,0L22.382,89.656a5.213,5.213,0,0,0-.006,7.36Z" fill="#101b2f"/>
    <rect id="Rectangle_64684" data-name="Rectangle 64684" width="15.62" height="5.206" transform="matrix(0.707, -0.707, 0.707, 0.707, 29.75, 93.343)" fill="#101b2f"/>
    <rect id="Rectangle_64685" data-name="Rectangle 64685" width="15.62" height="5.206" transform="matrix(0.707, -0.707, 0.707, 0.707, 44.484, 78.628)" fill="#101b2f"/>
    <rect id="Rectangle_64686" data-name="Rectangle 64686" width="15.62" height="5.206" transform="matrix(0.707, -0.707, 0.707, 0.707, 59.219, 63.913)" fill="#101b2f"/>
    <rect id="Rectangle_64687" data-name="Rectangle 64687" width="15.62" height="5.206" transform="matrix(0.707, -0.707, 0.707, 0.707, 73.954, 49.198)" fill="#101b2f"/>
    <rect id="Rectangle_64688" data-name="Rectangle 64688" width="36.441" height="13.015" transform="translate(66.579 71.287) rotate(-45)" fill="#5b94cf"/>
    <rect id="Rectangle_64689" data-name="Rectangle 64689" width="104.119" height="20.824" transform="translate(40.791 122.824) rotate(-45)" fill="#d70024"/>
    <path id="Path_4564" data-name="Path 4564" d="M5.174,65.9,0,65.81C.545,34.695,26.3,8.936,57.422,8.389l.09,5.173C29.149,14.061,5.67,37.54,5.174,65.9" fill="#1a232d"/>
    <path id="Path_4565" data-name="Path 4565" d="M50.149,21.952l-3.658-3.659,7.317-7.317L46.491,3.658,50.149,0,61.126,10.976Z" fill="#1a232d"/>
    <rect id="Rectangle_64690" data-name="Rectangle 64690" width="5.174" height="5.174" transform="translate(19.051 45.733) rotate(-45)" fill="#1a232d"/>
    <rect id="Rectangle_64691" data-name="Rectangle 64691" width="5.174" height="5.174" transform="translate(26.368 38.416) rotate(-45)" fill="#1a232d"/>
    <rect id="Rectangle_64692" data-name="Rectangle 64692" width="5.174" height="5.174" transform="translate(33.686 31.098) rotate(-45)" fill="#1a232d"/>
    <path id="Path_4566" data-name="Path 4566" d="M90.44,156.25l-.091-5.174c28.363-.5,51.842-23.976,52.339-52.338l5.173.09c-.545,31.116-26.3,56.875-57.421,57.422" fill="#1a232d"/>
    <path id="Path_4567" data-name="Path 4567" d="M97.712,164.639,86.735,153.663l10.977-10.975,3.659,3.658-7.318,7.317,7.318,7.318Z" fill="#1a232d"/>
    <rect id="Rectangle_64693" data-name="Rectangle 64693" width="5.175" height="5.173" transform="translate(121.493 118.907) rotate(-45)" fill="#1a232d"/>
    <rect id="Rectangle_64694" data-name="Rectangle 64694" width="5.175" height="5.173" transform="translate(114.176 126.224) rotate(-45)" fill="#1a232d"/>
    <rect id="Rectangle_64695" data-name="Rectangle 64695" width="5.175" height="5.173" transform="matrix(0.707, -0.707, 0.707, 0.707, 106.859, 133.542)" fill="#1a232d"/>
  </g>
</svg>
