<svg width="188" height="44" viewBox="0 0 188 44" fill="none" xmlns="http://www.w3.org/2000/svg">
<path d="M9.84 43.76C17.568 43.76 20.688 38.912 20.688 31.232V9.248H12.528V31.376C12.528 35.12 11.04 36.272 9.168 36.272C7.296 36.272 5.712 35.072 4.656 33.68L0 39.2C2.352 42.176 5.76 43.76 9.84 43.76Z" fill="#1A242D"/>
<path d="M35.9017 43.76C38.7337 43.76 40.8458 42.8 42.3818 40.832L42.4778 40.88V43.328H49.6297V19.856H42.0938V22.304L41.9977 22.352C40.3658 20.432 38.0137 19.424 35.5177 19.424C29.4697 19.424 24.8137 24.416 24.8137 31.616C24.8137 38.864 29.4697 43.76 35.9017 43.76ZM37.4858 37.136C34.5098 37.136 32.4458 34.928 32.4458 31.616C32.4458 28.256 34.6058 26.048 37.4858 26.048C40.2698 26.048 42.4298 28.4 42.4298 31.616C42.4298 34.976 40.1738 37.136 37.4858 37.136Z" fill="#1A242D"/>
<path d="M60.5115 43.328H66.6555L70.3995 29.696H70.4475L74.2875 43.328H80.3355L88.3035 19.856H80.8635L76.9755 32.576H76.8795L73.3275 19.856H67.5195L63.9675 32.576H63.9195L60.0795 19.856H52.5915L60.5115 43.328Z" fill="#1A242D"/>
<path d="M99.6986 43.76C102.531 43.76 104.643 42.8 106.179 40.832L106.275 40.88V43.328H113.427V19.856H105.891V22.304L105.795 22.352C104.163 20.432 101.811 19.424 99.3146 19.424C93.2666 19.424 88.6106 24.416 88.6106 31.616C88.6106 38.864 93.2666 43.76 99.6986 43.76ZM101.283 37.136C98.3066 37.136 96.2426 34.928 96.2426 31.616C96.2426 28.256 98.4026 26.048 101.283 26.048C104.067 26.048 106.227 28.4 106.227 31.616C106.227 34.976 103.971 37.136 101.283 37.136Z" fill="#1A242D"/>
<path d="M118.452 43.328H125.94V31.472C125.94 27.824 127.668 26.096 130.308 26.096C132.948 26.096 134.244 27.248 134.244 31.04V43.328H141.732V29.168C141.732 21.776 138.132 19.424 133.284 19.424C130.404 19.424 127.86 20.48 126.036 22.544L125.94 22.496V8H118.452V43.328Z" fill="#1A242D"/>
<path d="M169.04 31.328C169.04 24.368 164.192 19.424 157.568 19.424C150.464 19.424 145.472 24.464 145.472 31.568C145.472 38.864 150.656 43.76 157.76 43.76C163.088 43.76 166.352 41.984 168.32 39.536L164 35.12C162.416 36.896 160.448 37.616 158.528 37.664C155.648 37.664 153.392 36.272 152.912 33.584H168.896C168.944 33.104 169.04 32 169.04 31.328ZM157.472 25.376C159.728 25.376 161.264 26.816 161.744 29.12H152.96C153.44 26.768 155.168 25.376 157.472 25.376Z" fill="#1A242D"/>
<path d="M173.015 43.328H180.503V32.768C180.503 29.696 182.327 27.44 185.879 27.44C186.263 27.44 186.935 27.488 187.655 27.536V19.424H187.367C184.775 19.424 182.327 20.72 180.599 23.12H180.503V19.856H173.015V43.328Z" fill="#1A242D"/>
<path d="M91 0C91.1952 5.43992 95.5601 9.80475 101 10C95.5601 10.1952 91.1952 14.5601 91 20C90.8048 14.5601 86.4399 10.1952 81 10C86.4399 9.80475 90.8048 5.43992 91 0Z" fill="#1A242D"/>
</svg>
