<svg width="19" height="16" viewBox="0 0 19 16" fill="none" xmlns="http://www.w3.org/2000/svg">
<g id="Frame 3126">
<g id="Group">
<path id="Vector" d="M5.30672 0.399902C3.41982 0.399902 1.88672 1.93301 1.88672 3.8199V6.91232H3.39362V3.8199C3.39362 2.77163 4.24534 1.9068 5.30672 1.9068H5.87017V0.399902H5.30672ZM13.6929 0.399902H13.1426V1.9068H13.6929C14.7543 1.9068 15.606 2.75852 15.606 3.8199V6.91232H17.0998V3.8199C17.1129 1.93301 15.5798 0.399902 13.6929 0.399902ZM15.606 10.8827V12.2061C15.606 13.2675 14.7543 14.1192 13.6929 14.1192H13.1426V15.613H13.6929C15.5798 15.613 17.1129 14.0799 17.1129 12.193V10.8565H15.606V10.8827ZM3.39362 12.2061V10.8696H1.88672V12.2061C1.88672 14.093 3.41982 15.6261 5.30672 15.6261H5.87017V14.1323H5.30672C4.24534 14.1192 3.39362 13.2675 3.39362 12.2061Z" fill="#1A242D"/>
<path id="Vector_2" d="M19 8.40631H0C0 7.987 0.170345 7.6201 0.445517 7.34493C0.72069 7.06976 1.08759 6.89941 1.5069 6.89941H17.5062C18.3317 6.91252 19 7.58079 19 8.40631Z" fill="#1A242D"/>
</g>
<path id="Vector_3" d="M13.1429 6.91211H5.85742V8.4059H13.1429V6.91211Z" fill="#1A242D"/>
<path id="Vector_4" d="M11.6232 11.7211H7.37767C6.52595 11.7211 5.81836 11.0266 5.81836 10.1618V5.83763C5.81836 4.98591 6.51284 4.27832 7.37767 4.27832H11.6232C12.4749 4.27832 13.1825 4.9728 13.1825 5.83763V10.1618C13.1694 11.0266 12.4749 11.7211 11.6232 11.7211Z" fill="#1A242D"/>
</g>
</svg>
