<svg id="Group_2236" data-name="Group 2236" xmlns="http://www.w3.org/2000/svg" xmlns:xlink="http://www.w3.org/1999/xlink" width="42.027" height="47.063" viewBox="0 0 42.027 47.063">
  <defs>
    <clipPath id="clip-path">
      <rect id="Rectangle_64561" data-name="Rectangle 64561" width="42.028" height="47.062" fill="none"/>
    </clipPath>
  </defs>
  <rect id="Rectangle_64556" data-name="Rectangle 64556" width="35.249" height="26.856" transform="translate(3.389 19.335)" fill="#d70024"/>
  <rect id="Rectangle_64557" data-name="Rectangle 64557" width="40.284" height="8.393" transform="translate(0.872 10.942)" fill="#d70024"/>
  <rect id="Rectangle_64558" data-name="Rectangle 64558" width="3.692" height="26.856" transform="translate(19.168 19.335)" fill="#fad9b4"/>
  <rect id="Rectangle_64559" data-name="Rectangle 64559" width="35.249" height="3.692" transform="translate(3.389 24.706)" fill="#fad9b4"/>
  <rect id="Rectangle_64560" data-name="Rectangle 64560" width="5.371" height="8.393" transform="translate(18.328 10.942)" fill="#fad9b4"/>
  <path id="Path_4420" data-name="Path 4420" d="M8.38,50.42H41.886V75.533H8.38ZM6.637,77.276H43.629v-28.6H6.637Z" transform="translate(-4.12 -30.213)" fill="#131b22"/>
  <path id="Path_4421" data-name="Path 4421" d="M1.743,28.294H40.284v6.65H1.743ZM0,36.686H42.028V26.551H0Z" transform="translate(0 -16.48)" fill="#131b22"/>
  <g id="Group_2235" data-name="Group 2235" transform="translate(0 0)">
    <g id="Group_2234" data-name="Group 2234" transform="translate(0 0)" clip-path="url(#clip-path)">
      <path id="Path_4422" data-name="Path 4422" d="M38.363,11.814H32.455a5.907,5.907,0,1,1,5.908-5.907ZM32.455,1.743a4.164,4.164,0,1,0,0,8.328H36.62V5.907a4.169,4.169,0,0,0-4.165-4.164" transform="translate(-16.478 0)" fill="#131b22"/>
      <path id="Path_4423" data-name="Path 4423" d="M57.5,16.758H53.1v-4.4a4.4,4.4,0,1,1,4.4,4.4m-2.653-1.743H57.5a2.654,2.654,0,1,0-2.653-2.652Z" transform="translate(-32.96 -4.943)" fill="#131b22"/>
    </g>
  </g>
</svg>
