<svg width="197" height="283" viewBox="0 0 197 283" fill="none" xmlns="http://www.w3.org/2000/svg">
<g clip-path="url(#clip0_1868_4711)">
<path d="M156.509 145.1C156.009 147.1 152.009 146.7 152.209 144.6L160.609 48.0999C161.209 38.6999 155.709 32.7999 147.309 32.7999C138.809 32.7999 135.609 38.3999 134.009 48.0999L125.009 134.9C124.809 137 119.809 137 119.709 134.9L118.109 32.6999C118.109 24.1999 113.209 17.3999 104.809 17.3999C96.309 17.3999 91.5091 24.2999 91.5091 32.6999L89.309 137.8C89.409 139.9 85.3091 140.2 85.0091 138.1L72.809 43.2999C70.609 33.2999 68.009 27.9999 59.509 27.9999C51.009 27.9999 46.509 32.2999 47.509 47.4999L61.709 149.3C61.709 149.3 27.409 98.4999 3.90904 122C-0.590958 126.6 0.409049 136 5.00905 140.5C12.909 148.1 28.309 166.4 36.809 182C63.509 232.2 75.909 245.1 112.309 245.1C144.909 245.1 169.809 238.4 177.809 174L178.609 166.2C178.609 158.3 180.609 150.7 181.709 142.9L194.609 89.0999C197.309 79.0999 194.209 69.4999 184.109 69.4999C178.809 69.6999 174.309 73.5999 171.909 82.8999L156.509 145.1Z" stroke="#19232D" stroke-width="2" stroke-linecap="round" stroke-linejoin="round"/>
<path d="M85.7098 1.5H124.01V39.8H85.7098V1.5Z" stroke="#E21432" stroke-width="3" stroke-linecap="round" stroke-linejoin="round"/>
<path d="M84 273.4H85.9V281H90V282.6H84.1V273.4H84Z" fill="#1A242C"/>
<path d="M97.1008 280H92.6008C92.8008 280.8 93.4008 281.2 94.3008 281.2C95.0008 281.2 95.5008 280.9 95.8008 280.5L96.9008 281.5C96.4008 282.2 95.5008 282.7 94.1008 282.7C92.1008 282.7 90.8008 281.4 90.8008 279.4C90.8008 277.5 92.1008 276.1 94.0008 276.1C95.8008 276.1 97.0008 277.5 97.0008 279.3C97.1008 279.6 97.1008 279.9 97.1008 280ZM92.6008 278.8H95.4008C95.2008 278.1 94.8008 277.7 94.0008 277.7C93.4008 277.6 92.8008 278 92.6008 278.8Z" fill="#1A242C"/>
<path d="M98.7 277.7H98V276.3H98.7V275.2C98.7 273.7 99.4 273 100.7 273C101.5 273 102.1 273.3 102.3 273.5L101.9 274.8C101.5 274.6 101.2 274.5 101 274.5C100.6 274.5 100.4 274.7 100.4 275.4V276.4H101.8V277.8H100.4V282.7H98.7V277.7Z" fill="#1A242C"/>
<path d="M103.101 280.6V277.7H102.301V276.3H103.101V274.2L104.801 274V276.2H106.501V277.6H104.801V280.3C104.801 280.9 104.901 281.1 105.301 281.1C105.501 281.1 105.801 281 106.101 280.9L106.501 282.3C106.101 282.5 105.701 282.7 104.801 282.7C103.801 282.7 103.101 282 103.101 280.6Z" fill="#1A242C"/>
<path d="M111.199 273.4H112.999V277.4H116.799V273.4H118.599V282.6H116.799V279H112.999V282.6H111.199V273.4Z" fill="#1A242C"/>
<path d="M120.199 279.5C120.199 277.6 121.499 276.2 123.199 276.2C123.899 276.2 124.599 276.5 125.099 277V276.3H126.799V282.7H125.199V281.9C124.799 282.5 124.099 282.8 123.299 282.8C121.399 282.7 120.199 281.4 120.199 279.5ZM125.099 279.5C125.099 278.5 124.399 277.7 123.499 277.7C122.599 277.7 121.899 278.4 121.899 279.5C121.899 280.5 122.599 281.2 123.499 281.2C124.399 281.2 125.099 280.5 125.099 279.5Z" fill="#1A242C"/>
<path d="M128.4 276.3H130.1V277.1C130.6 276.5 131.3 276.2 132.1 276.2C133.5 276.2 134.4 276.9 134.4 278.9V282.7H132.7V279.4C132.7 278.2 132.3 277.8 131.5 277.8C130.6 277.8 130.1 278.4 130.1 279.5V282.7H128.4V276.3Z" fill="#1A242C"/>
<path d="M135.699 279.5C135.699 277.6 136.999 276.2 138.699 276.2C139.499 276.2 140.199 276.5 140.599 277V273H142.299V282.6H140.699V281.8C140.299 282.4 139.599 282.7 138.699 282.7C136.899 282.7 135.699 281.4 135.699 279.5ZM140.699 279.5C140.699 278.5 139.999 277.7 138.999 277.7C138.099 277.7 137.399 278.4 137.399 279.5C137.399 280.5 138.099 281.2 138.999 281.2C139.899 281.2 140.699 280.5 140.699 279.5Z" fill="#1A242C"/>
</g>
<defs>
<clipPath id="clip0_1868_4711">
<rect width="196.54" height="282.9" fill="white"/>
</clipPath>
</defs>
</svg>
