<svg id="Group_2279" data-name="Group 2279" xmlns="http://www.w3.org/2000/svg" xmlns:xlink="http://www.w3.org/1999/xlink" width="19.683" height="17.301" viewBox="0 0 19.683 17.301">
  <defs>
    <clipPath id="clip-path">
      <rect id="Rectangle_64680" data-name="Rectangle 64680" width="19.683" height="17.301" fill="none"/>
    </clipPath>
  </defs>
  <rect id="Rectangle_64672" data-name="Rectangle 64672" width="17.321" height="3.977" transform="translate(1.181 3.543)" fill="#d70024"/>
  <g id="Group_2278" data-name="Group 2278" transform="translate(0 0)">
    <g id="Group_2277" data-name="Group 2277" transform="translate(0 0)" clip-path="url(#clip-path)">
      <path id="Path_4542" data-name="Path 4542" d="M9.78,36.906a1.443,1.443,0,1,1-1.443-1.444A1.443,1.443,0,0,1,9.78,36.906" transform="translate(-5.712 -29.386)" fill="#d70024"/>
      <path id="Path_4543" data-name="Path 4543" d="M26.628,36.906a1.444,1.444,0,1,1-1.444-1.444,1.444,1.444,0,0,1,1.444,1.444" transform="translate(-19.674 -29.386)" fill="#d70024"/>
      <path id="Path_4544" data-name="Path 4544" d="M26.628,36.906a1.444,1.444,0,1,1-1.444-1.444,1.444,1.444,0,0,1,1.444,1.444" transform="translate(-19.674 -29.386)" fill="#d70024"/>
      <path id="Path_4545" data-name="Path 4545" d="M43.48,36.906a1.443,1.443,0,1,1-1.444-1.444,1.443,1.443,0,0,1,1.444,1.444" transform="translate(-33.638 -29.386)" fill="#d70024"/>
      <path id="Path_4546" data-name="Path 4546" d="M43.48,36.906a1.443,1.443,0,1,1-1.444-1.444,1.443,1.443,0,0,1,1.444,1.444" transform="translate(-33.638 -29.386)" fill="#d70024"/>
      <path id="Path_4547" data-name="Path 4547" d="M60.329,36.906a1.444,1.444,0,1,1-1.444-1.444,1.444,1.444,0,0,1,1.444,1.444" transform="translate(-47.601 -29.386)" fill="#d70024"/>
      <path id="Path_4548" data-name="Path 4548" d="M60.329,36.906a1.444,1.444,0,1,1-1.444-1.444,1.444,1.444,0,0,1,1.444,1.444" transform="translate(-47.601 -29.386)" fill="#d70024"/>
      <path id="Path_4549" data-name="Path 4549" d="M77.179,36.906a1.443,1.443,0,1,1-1.443-1.444,1.443,1.443,0,0,1,1.443,1.444" transform="translate(-61.565 -29.386)" fill="#d70024"/>
      <path id="Path_4550" data-name="Path 4550" d="M77.179,36.906a1.443,1.443,0,1,1-1.443-1.444,1.443,1.443,0,0,1,1.443,1.444" transform="translate(-61.565 -29.386)" fill="#d70024"/>
      <path id="Path_4551" data-name="Path 4551" d="M94.027,36.906a1.444,1.444,0,1,1-1.443-1.444,1.443,1.443,0,0,1,1.443,1.444" transform="translate(-75.525 -29.386)" fill="#d70024"/>
      <rect id="Rectangle_64673" data-name="Rectangle 64673" width="19.683" height="0.787" transform="translate(0 16.514)" fill="#131b22"/>
      <rect id="Rectangle_64674" data-name="Rectangle 64674" width="0.787" height="6.692" transform="translate(17.715 10.215)" fill="#131b22"/>
      <rect id="Rectangle_64675" data-name="Rectangle 64675" width="0.787" height="6.692" transform="translate(1.181 10.215)" fill="#131b22"/>
      <path id="Path_4552" data-name="Path 4552" d="M39.317,3.936H29.869V0h9.448Zm-8.66-.787H38.53V.786H30.656Z" transform="translate(-24.752 0.001)" fill="#131b22"/>
      <rect id="Rectangle_64676" data-name="Rectangle 64676" width="3.149" height="6.299" transform="translate(3.936 10.609)" fill="#5b94cf"/>
      <path id="Path_4553" data-name="Path 4553" d="M24.616,66.71H20.679V59.624h3.937Zm-3.149-.787h2.362V60.411H21.466Z" transform="translate(-17.136 -49.409)" fill="#131b22"/>
      <rect id="Rectangle_64677" data-name="Rectangle 64677" width="3.149" height="0.787" transform="translate(3.936 13.364)" fill="#131b22"/>
      <rect id="Rectangle_64678" data-name="Rectangle 64678" width="6.299" height="3.149" transform="translate(9.448 10.609)" fill="#5b94cf"/>
      <path id="Path_4554" data-name="Path 4554" d="M59.933,63.56H52.847V59.623h7.086Zm-6.3-.787h5.511V60.41H53.634Z" transform="translate(-43.793 -49.408)" fill="#131b22"/>
      <rect id="Rectangle_64679" data-name="Rectangle 64679" width="0.787" height="3.149" transform="translate(12.203 10.609)" fill="#131b22"/>
      <path id="Path_4555" data-name="Path 4555" d="M5.511,11.552H1.181a1.181,1.181,0,1,1,0-2.362h4.33v.787H1.181a.394.394,0,1,0,0,.787h4.33Z" transform="translate(0 -7.615)" fill="#131b22"/>
      <path id="Path_4556" data-name="Path 4556" d="M87.047,11.552h-4.33v-.787h4.33a.394.394,0,1,0,0-.787h-4.33V9.19h4.33a1.181,1.181,0,0,1,0,2.362" transform="translate(-68.545 -7.615)" fill="#131b22"/>
    </g>
  </g>
</svg>
