<?xml version="1.0" encoding="UTF-8"?>
<svg xmlns="http://www.w3.org/2000/svg" viewBox="0 0 37.39 31.16">
    <defs>
        <style>.cls-1{fill:none;stroke:#E21331;stroke-linecap:round;stroke-linejoin:round;stroke-width:2.5px;}</style>
    </defs>
    <g id="Layer_2" data-name="Layer 2">
        <g id="Layer_1-2" data-name="Layer 1">
            <path d="M37.39,17.73V5.21A5.21,5.21,0,0,0,32.2,0h-27A5.21,5.21,0,0,0,0,5.21V17.73a5.21,5.21,0,0,0,5.19,5.21h27A5.21,5.21,0,0,0,37.39,17.73ZM5.2,20.85a3.12,3.12,0,0,1-3.12-3.12V5.21A3.13,3.13,0,0,1,5.2,2.08h27a3.12,3.12,0,0,1,3.11,3.13V17.73a3.12,3.12,0,0,1-3.11,3.12Z" fill="#E21331"></path>
            <path d="M16,8.31l5.32,3.22L16,14.63V8.31m0-2.5a2.54,2.54,0,0,0-1.23.32,2.5,2.5,0,0,0-1.27,2.18v6.32a2.5,2.5,0,0,0,1.25,2.17,2.54,2.54,0,0,0,1.25.33,2.49,2.49,0,0,0,1.26-.34l5.32-3.11a2.49,2.49,0,0,0,0-4.29L17.33,6.17A2.52,2.52,0,0,0,16,5.81Z" fill="#E21331"></path>
            <line class="cls-1" x1="18.7" y1="22.59" x2="18.7" y2="29.91"></line>
            <line class="cls-1" x1="9.5" y1="29.91" x2="27.9" y2="29.91"></line>
        </g>
    </g>
</svg>