<svg width="49" height="46" viewBox="0 0 49 46" fill="none" xmlns="http://www.w3.org/2000/svg">
<path d="M31.6087 45H2.91304C1.85704 45 1 44.143 1 43.087V10.5652L10.5652 1H31.6087C32.6647 1 33.5217 1.85704 33.5217 2.91304V43.087C33.5217 44.143 32.6647 45 31.6087 45Z" stroke="#1A242D" stroke-linecap="round" stroke-linejoin="round"/>
<path d="M9.91309 45H38.6087C39.6647 45 40.5218 44.143 40.5218 43.087V2.91306C40.5218 1.85706 39.6647 1.00001 38.6087 1.00001H17.5653" stroke="#1A242D" stroke-linecap="round" stroke-linejoin="round"/>
<path d="M17 45H45.6956C46.7516 45 47.6087 44.143 47.6087 43.087V2.91306C47.6087 1.85706 46.7516 1.00001 45.6956 1.00001H24.6522" stroke="#1A242D" stroke-linecap="round" stroke-linejoin="round"/>
<path d="M10.5652 1.00021V8.65239C10.5652 9.70839 9.70817 10.5654 8.65217 10.5654H1L10.5652 1.00021Z" stroke="#1A242D" stroke-linecap="round" stroke-linejoin="round"/>
<path d="M9.56519 23.957H24.8695" stroke="#1A242D" stroke-linecap="round" stroke-linejoin="round"/>
<path d="M9.56519 33.5225H24.8695" stroke="#1A242D" stroke-linecap="round" stroke-linejoin="round"/>
</svg>
