<?xml version="1.0" encoding="UTF-8"?>
<svg xmlns="http://www.w3.org/2000/svg" viewBox="0 0 34.79 44.92">
    <defs>
        <style>
            .cls-1{fill:none;stroke:#E21331;stroke-linecap:round;stroke-linejoin:round;stroke-width:1.84px;}.cls-2{fill:#fff;}
        </style>
    </defs>
    <g id="Layer_2" data-name="Layer 2">
        <g id="Layer_1-2" data-name="Layer 1">
            <path d="M20.55,2.21a3.71,3.71,0,0,1,2.61,1.08l8.34,8.35a3.69,3.69,0,0,1,1.08,2.6V39a3.69,3.69,0,0,1-3.69,3.69H5.9A3.69,3.69,0,0,1,2.21,39V5.9A3.69,3.69,0,0,1,5.9,2.21H20.55m0-2.21H5.9A5.91,5.91,0,0,0,0,5.9V39a5.91,5.91,0,0,0,5.9,5.9h23a5.9,5.9,0,0,0,5.9-5.9V14.24a5.86,5.86,0,0,0-1.73-4.17L24.72,1.73A5.86,5.86,0,0,0,20.55,0Z" fill="#E21331"></path>
            <line class="cls-1" x1="21.48" y1="21.34" x2="9.95" y2="26.49"></line>
            <line class="cls-1" x1="21.79" y1="31.1" x2="10" y2="26.59"></line>
            <path class="cls-2" d="M9.76,29.5a3.09,3.09,0,1,1,3.09-3.09A3.08,3.08,0,0,1,9.76,29.5Z"></path>
            <path d="M9.76,24.25A2.17,2.17,0,1,1,7.6,26.41a2.17,2.17,0,0,1,2.16-2.16m0-1.85a4,4,0,1,0,4,4,4,4,0,0,0-4-4Z" fill="#E21331"></path>
            <path class="cls-2" d="M22.17,34.33a3.09,3.09,0,1,1,3.09-3.09A3.1,3.1,0,0,1,22.17,34.33Z"></path>
            <path d="M22.17,29.07A2.17,2.17,0,1,1,20,31.24a2.17,2.17,0,0,1,2.16-2.17m0-1.84a4,4,0,1,0,4,4,4,4,0,0,0-4-4Z" fill="#E21331"></path>
            <path class="cls-2" d="M22,24.17A3.09,3.09,0,1,1,25,21.08,3.09,3.09,0,0,1,22,24.17Z"></path>
            <path d="M22,18.91a2.17,2.17,0,1,1-2.17,2.17A2.17,2.17,0,0,1,22,18.91m0-1.84a4,4,0,1,0,4,4,4,4,0,0,0-4-4Z" fill="#E21331"></path>
        </g>
    </g>
</svg>