<svg width="52" height="52" viewBox="0 0 52 52" fill="none" xmlns="http://www.w3.org/2000/svg">
<path d="M22.5459 33.8435C23.2792 34.5838 24.3271 34.9199 25.6896 34.8518C27.0521 34.7837 28.0389 34.2803 28.65 33.3414L40.1 16.1873L23.0584 27.7165C22.1278 28.3415 21.6265 29.3338 21.5542 30.6935C21.482 32.0532 21.8126 33.1032 22.5459 33.8435ZM25.9125 9.7832C27.9292 9.7832 29.9389 10.0825 31.9417 10.6811C33.9444 11.2797 35.8986 12.2804 37.8041 13.6831L35.6959 15.229C34.1542 14.2151 32.509 13.4637 30.7605 12.9748C29.0119 12.4859 27.3974 12.2414 25.9171 12.2414C20.9101 12.2414 16.6513 14.0186 13.1408 17.573C9.6303 21.1273 7.87505 25.4324 7.87505 30.4882C7.87505 32.0848 8.09379 33.6894 8.53128 35.3019C8.9688 36.9143 9.59775 38.4109 10.4181 39.7914H41.3792C42.1875 38.4775 42.816 36.9852 43.2646 35.3143C43.7132 33.6435 43.9375 31.9914 43.9375 30.3581C43.9375 28.897 43.7223 27.3081 43.2917 25.5915C42.8611 23.8748 42.1167 22.304 41.0584 20.879L42.6708 18.7707C43.9597 20.7512 44.8882 22.6679 45.4562 24.5207C46.0243 26.3734 46.3375 28.2456 46.3958 30.1373C46.4402 32.1651 46.2305 34.0664 45.7666 35.8414C45.3027 37.6164 44.6041 39.3095 43.6708 40.9206C43.3486 41.515 43.0028 41.8851 42.6333 42.0309C42.2639 42.1768 41.7945 42.2497 41.225 42.2497H10.5667C10.1037 42.2497 9.64771 42.1275 9.19866 41.883C8.74962 41.6386 8.40843 41.29 8.17508 40.8372C7.3473 39.3261 6.68064 37.7289 6.17508 36.0456C5.66953 34.3623 5.41675 32.5095 5.41675 30.4873C5.41675 27.6567 5.9537 24.9848 7.02761 22.4714C8.10152 19.958 9.56194 17.7649 11.4089 15.8922C13.2558 14.0195 15.429 12.5332 17.9285 11.4332C20.4281 10.3332 23.0894 9.7832 25.9125 9.7832Z" fill="#E21331"/>
</svg>
