<svg xmlns="http://www.w3.org/2000/svg" width="27.36" height="27.36" viewBox="0 0 27.36 27.36">
  <g id="Group_2151" data-name="Group 2151" transform="translate(175.646 -70.107)">
    <path id="Union_12" data-name="Union 12" d="M-147.874,91.227l4.627,4.627-.92.92-3.708-3.708-3.708,3.708-.92-.92Z" transform="translate(-14.092 -12.859)" fill="#1a242d"/>
    <rect id="Rectangle_63960" data-name="Rectangle 63960" width="1.404" height="10.105" transform="translate(-162.668 79.102)" fill="#1a242d"/>
    <path id="Path_2269" data-name="Path 2269" d="M-161.966,97.467a13.7,13.7,0,0,1-13.68-13.68,13.7,13.7,0,0,1,13.68-13.68,13.7,13.7,0,0,1,13.68,13.68A13.7,13.7,0,0,1-161.966,97.467Zm0-26.187a12.521,12.521,0,0,0-12.507,12.507,12.521,12.521,0,0,0,12.507,12.507A12.521,12.521,0,0,0-149.46,83.787,12.521,12.521,0,0,0-161.966,71.28Z" fill="#e21331"/>
  </g>
</svg>
