<svg width="16" height="16" viewBox="0 0 16 16" fill="none" xmlns="http://www.w3.org/2000/svg">
<g id="Icons/Outline/Clock">
<mask id="mask0_615_11279" style="mask-type:alpha" maskUnits="userSpaceOnUse" x="0" y="0" width="16" height="16">
<rect id="Bounding box" width="16" height="16" fill="#D9D9D9"/>
</mask>
<g mask="url(#mask0_615_11279)">
<path id="schedule" d="M10.3167 11.0179L11.0192 10.3154L8.50127 7.79729V4.66667H7.5013V8.20257L10.3167 11.0179ZM8.0024 14.3333C7.12645 14.3333 6.30309 14.1671 5.53234 13.8347C4.76157 13.5022 4.09111 13.051 3.52097 12.4812C2.95081 11.9113 2.49944 11.2411 2.16685 10.4707C1.83426 9.70026 1.66797 8.87708 1.66797 8.00112C1.66797 7.12516 1.83419 6.30181 2.16664 5.53105C2.49908 4.76029 2.95025 4.08983 3.52014 3.51969C4.09004 2.94953 4.7602 2.49816 5.53062 2.16557C6.30103 1.83298 7.12421 1.66669 8.00017 1.66669C8.87612 1.66669 9.69948 1.83291 10.4702 2.16535C11.241 2.4978 11.9115 2.94896 12.4816 3.51885C13.0518 4.08875 13.5031 4.75892 13.8357 5.52934C14.1683 6.29975 14.3346 7.12293 14.3346 7.99889C14.3346 8.87484 14.1684 9.6982 13.8359 10.469C13.5035 11.2397 13.0523 11.9102 12.4824 12.4803C11.9125 13.0505 11.2424 13.5018 10.472 13.8344C9.70154 14.167 8.87836 14.3333 8.0024 14.3333ZM8.00129 13.3333C9.47906 13.3333 10.7374 12.8139 11.7763 11.775C12.8152 10.7361 13.3346 9.47778 13.3346 8C13.3346 6.52223 12.8152 5.26389 11.7763 4.225C10.7374 3.18612 9.47906 2.66667 8.00129 2.66667C6.52351 2.66667 5.26517 3.18612 4.22629 4.225C3.1874 5.26389 2.66795 6.52223 2.66795 8C2.66795 9.47778 3.1874 10.7361 4.22629 11.775C5.26517 12.8139 6.52351 13.3333 8.00129 13.3333Z" fill="#A6A6A6"/>
</g>
</g>
</svg>
