<svg width="32" height="32" viewBox="0 0 32 32" fill="none" xmlns="http://www.w3.org/2000/svg">
<rect width="32" height="32" rx="16" fill="#A6A6A6" fill-opacity="0.2"/>
<path d="M15.724 21.626C14.016 21.626 12.742 20.716 12.28 19.498L13.918 18.812C14.184 19.498 14.716 19.904 15.584 19.904C16.368 19.904 17.012 19.414 17.012 18.63C17.012 17.93 16.48 17.328 15.416 17.328H14.744V15.788H15.584C16.438 15.788 16.816 15.27 16.816 14.654C16.816 13.968 16.256 13.492 15.556 13.492C14.842 13.492 14.436 13.814 14.156 14.304L12.63 13.478C13.078 12.484 14.184 11.77 15.598 11.77C17.306 11.77 18.692 12.708 18.692 14.346C18.692 15.27 18.23 16.04 17.446 16.502V16.544C18.37 16.964 18.972 17.762 18.972 18.882C18.972 20.548 17.586 21.626 15.724 21.626Z" fill="#1A242D"/>
</svg>
