<?xml version="1.0" encoding="UTF-8"?>
<!DOCTYPE svg PUBLIC "-//W3C//DTD SVG 1.1//EN" "http://www.w3.org/Graphics/SVG/1.1/DTD/svg11.dtd">
<svg version="1.1" xmlns="http://www.w3.org/2000/svg" xmlns:xlink="http://www.w3.org/1999/xlink" x="0" y="0" width="70" height="100" viewBox="0, 0, 70, 100">
  <defs>
    <clipPath id="Clip_1">
      <path d="M-0,-0 L70,-0 L70,100 L-0,100 z"/>
    </clipPath>
  </defs>
  <g id="Layer_1">
    <g clip-path="url(#Clip_1)">
      <path d="M7.924,67.627 C7.924,67.945 8.002,68.194 8.166,68.361 C8.33,68.529 8.573,68.609 8.885,68.609 C9.181,68.609 9.416,68.529 9.571,68.36 C9.727,68.192 9.801,67.945 9.801,67.627 C9.801,67.323 9.726,67.087 9.57,66.926 C9.414,66.765 9.181,66.689 8.885,66.689 C8.574,66.688 8.331,66.765 8.167,66.925 C8.003,67.085 7.924,67.323 7.924,67.627 M10.48,67.627 C10.48,67.945 10.558,68.194 10.722,68.361 C10.886,68.529 11.13,68.609 11.441,68.609 C11.737,68.609 11.972,68.529 12.127,68.36 C12.283,68.192 12.357,67.945 12.357,67.627 C12.357,67.323 12.282,67.087 12.126,66.926 C11.97,66.765 11.738,66.689 11.441,66.689 C11.13,66.688 10.888,66.765 10.723,66.925 C10.559,67.085 10.48,67.323 10.48,67.627 M33.301,65.928 C33.301,66.247 33.379,66.495 33.543,66.663 C33.707,66.831 33.95,66.911 34.261,66.911 C34.558,66.911 34.793,66.83 34.948,66.662 C35.103,66.494 35.177,66.247 35.177,65.928 C35.177,65.625 35.103,65.388 34.947,65.227 C34.79,65.067 34.558,64.99 34.261,64.99 C33.95,64.99 33.708,65.067 33.544,65.226 C33.379,65.386 33.301,65.624 33.301,65.928 M51.788,66.069 C51.788,66.388 51.865,66.636 52.029,66.804 C52.194,66.972 52.437,67.052 52.748,67.052 C53.044,67.052 53.279,66.972 53.434,66.803 C53.59,66.635 53.664,66.388 53.664,66.069 C53.664,65.766 53.59,65.529 53.433,65.369 C53.277,65.208 53.045,65.132 52.748,65.131 C52.437,65.131 52.195,65.208 52.03,65.368 C51.866,65.528 51.788,65.766 51.788,66.069 M67.209,81.704 C67.209,82.023 67.287,82.271 67.451,82.438 C67.615,82.607 67.858,82.686 68.169,82.686 C68.466,82.686 68.701,82.606 68.856,82.438 C69.012,82.269 69.086,82.022 69.086,81.704 C69.086,81.401 69.011,81.164 68.855,81.003 C68.698,80.842 68.466,80.766 68.169,80.766 C67.858,80.766 67.616,80.842 67.452,81.002 C67.287,81.162 67.209,81.4 67.209,81.704 M58.788,85.907 C58.788,86.226 58.865,86.474 59.029,86.641 C59.194,86.81 59.437,86.89 59.748,86.89 C60.044,86.89 60.279,86.809 60.435,86.641 C60.59,86.472 60.665,86.225 60.665,85.907 C60.665,85.604 60.59,85.367 60.434,85.206 C60.277,85.045 60.045,84.969 59.748,84.969 C59.437,84.969 59.195,85.045 59.031,85.205 C58.866,85.365 58.788,85.603 58.788,85.907 M69.836,70.314 L69.836,74.613 C69.836,75.866 69.469,76.853 68.731,77.56 C68.055,78.207 67.151,78.53 66.031,78.53 L55.734,78.53 C54.417,78.53 53.411,78.088 52.736,77.205 C52.032,78.088 51.018,78.53 49.714,78.53 L35.781,78.53 C35.136,78.53 34.797,78.41 34.403,78.226 C33.995,78.386 33.63,78.53 33.024,78.53 L21.22,78.53 L21.198,78.53 C19.881,78.53 18.876,78.088 18.2,77.205 C17.495,78.088 16.475,78.53 15.155,78.53 L3.749,78.53 C2.642,78.53 1.752,78.18 1.091,77.481 C0.428,76.781 0.099,75.837 0.099,74.657 L0.099,70.918 L1.686,70.918 L1.686,74.479 C1.694,76.213 2.472,77.047 4.083,77.053 L15,77.053 C16.61,77.047 17.389,76.213 17.396,74.479 L17.396,70.314 L18.983,70.314 L18.983,74.568 C18.991,76.241 19.768,77.046 21.38,77.053 L31.967,77.053 C30.848,75.983 30.285,74.713 30.286,73.257 C30.285,71.811 30.689,70.654 31.5,69.799 C32.235,69.033 33.207,68.65 34.403,68.65 C35.763,68.649 36.827,69.147 37.576,70.137 C38.206,70.962 38.52,72.004 38.52,73.257 C38.52,74.727 37.965,75.996 36.86,77.053 L49.536,77.053 C51.147,77.046 51.925,76.241 51.933,74.568 L51.933,70.32 L53.52,70.314 L53.52,74.568 C53.527,76.241 54.304,77.046 55.916,77.053 L65.852,77.053 C67.463,77.046 68.241,76.241 68.248,74.568 L68.248,70.32 z M31.806,73.212 C31.806,74.018 32.04,74.759 32.509,75.441 C32.978,76.122 33.584,76.593 34.325,76.855 L34.397,76.873 L34.483,76.853 C35.226,76.589 35.833,76.12 36.308,75.44 C36.784,74.759 37.021,74.025 37.021,73.234 C37.021,72.264 36.783,71.502 36.311,70.943 C35.837,70.383 35.206,70.103 34.403,70.104 C33.598,70.105 32.971,70.383 32.506,70.942 C32.041,71.503 31.806,72.257 31.806,73.212 M68.629,98.23 L69.901,98.23 L69.901,99.778 L68.433,99.778 C66.194,99.778 64.782,98.365 64.782,96.104 L64.782,90.709 L62.473,90.709 L62.473,89.32 L64.782,89.32 L64.782,86.223 L66.437,86.223 L66.437,89.32 L69.839,89.32 L69.839,90.709 L66.437,90.709 L66.437,96.015 C66.437,97.429 67.234,98.23 68.629,98.23 M58.826,89.249 L60.48,89.249 L60.48,99.76 L58.826,99.76 z M56.816,89.32 L56.816,90.708 L53.595,90.708 L53.595,99.76 L51.94,99.76 L51.94,90.708 L49.87,90.708 L49.87,89.32 L51.94,89.32 L51.94,88.467 C51.94,86.223 52.961,85.116 55.312,85.116 L56.799,85.116 L56.799,86.451 L55.613,86.451 C54.125,86.451 53.542,87.016 53.542,88.503 L53.542,89.32 z M39.784,95.145 C40.044,97.092 41.492,98.371 43.483,98.371 C44.937,98.371 46.107,97.691 46.756,96.556 L48.5,96.556 C47.611,98.724 45.763,99.99 43.483,99.99 C40.434,99.99 38.123,97.635 38.123,94.503 C38.123,91.374 40.434,89.019 43.483,89.019 C46.673,89.019 48.779,91.477 48.779,94.548 C48.779,94.746 48.762,94.946 48.744,95.145 z M47.121,93.615 C46.766,91.745 45.343,90.584 43.483,90.584 L43.483,90.584 C41.574,90.584 40.164,91.785 39.821,93.615 L47.121,93.615 M34.022,93.854 C34.022,91.722 33.021,90.531 31.193,90.531 C29.396,90.531 28.013,92.053 28.013,94.025 L28.013,99.76 L26.358,99.76 L26.358,89.249 L27.533,89.249 L27.856,90.896 C28.648,89.727 29.992,89.019 31.62,89.019 C34.117,89.019 35.677,90.895 35.677,93.463 L35.677,99.76 L34.022,99.76 z M14.791,95.145 C15.051,97.092 16.5,98.371 18.491,98.371 C19.944,98.371 21.114,97.691 21.763,96.556 L23.508,96.556 C22.618,98.724 20.77,99.99 18.491,99.99 C15.441,99.99 13.13,97.635 13.13,94.503 C13.13,91.374 15.441,89.019 18.491,89.019 C21.68,89.019 23.787,91.477 23.787,94.548 C23.787,94.746 23.769,94.946 23.752,95.145 z M22.129,93.615 C21.773,91.745 20.351,90.584 18.491,90.584 L18.49,90.584 C16.581,90.584 15.171,91.785 14.829,93.615 L22.129,93.615 M5.777,99.99 C2.598,99.99 0.211,97.662 0.204,94.52 L0.204,94.52 L0.204,85.116 L1.858,85.116 L1.858,90.516 C2.849,89.576 4.217,89.019 5.777,89.019 C8.962,89.019 11.349,91.355 11.349,94.504 C11.349,97.654 8.962,99.99 5.777,99.99 M5.777,90.62 C3.527,90.62 1.894,92.253 1.894,94.504 C1.894,96.754 3.528,98.389 5.777,98.389 L5.777,98.389 C8.027,98.389 9.659,96.754 9.659,94.504 C9.659,92.255 8.027,90.62 5.777,90.62 M42.802,31.357 C38.961,25.216 36.061,17.468 32.355,10.723 C30.501,7.348 28.441,4.224 25.938,1.675 C25.337,1.063 24.71,0.487 24.055,-0.053 L22.351,-0.053 C22.711,0.207 23.064,0.478 23.406,0.762 C26.878,3.623 29.569,7.678 31.961,12.182 C35.556,18.935 38.466,26.669 42.485,32.795 C44.497,35.858 46.792,38.523 49.609,40.443 C51.406,41.669 53.418,42.586 55.684,43.103 C55.79,42.773 55.885,42.438 55.968,42.101 C54.608,41.793 53.352,41.337 52.178,40.75 C48.323,38.821 45.361,35.453 42.802,31.357 M41.348,42.41 C38.79,39.573 37.072,35.869 35.635,31.793 C33.477,25.683 31.965,18.759 29.038,12.765 C27.574,9.77 25.748,7.001 23.297,4.703 C21.224,2.757 18.702,1.152 15.6,0.033 L15.6,1.243 C17.938,2.134 19.905,3.312 21.589,4.711 C25.36,7.841 27.733,12.113 29.563,16.82 C30.935,20.347 31.999,24.108 33.131,27.779 C34.83,33.284 36.671,38.595 40.016,42.607 C41.688,44.611 43.741,46.283 46.32,47.455 C48.056,48.246 50.026,48.812 52.272,49.111 C52.569,48.778 52.852,48.429 53.121,48.071 C50.623,47.806 48.503,47.217 46.676,46.37 C44.545,45.378 42.811,44.033 41.348,42.41 M40.242,34.073 C36.793,27.858 34.601,19.98 31.285,13.052 C29.624,9.588 27.677,6.357 25.123,3.695 C23.746,2.259 22.188,0.991 20.413,-0.053 L18.056,-0.053 C19.708,0.701 21.176,1.641 22.499,2.736 C26.12,5.732 28.65,9.898 30.762,14.503 C33.934,21.408 36.136,29.269 39.804,35.501 C41.64,38.617 43.853,41.331 46.759,43.283 C48.89,44.714 51.387,45.725 54.346,46.189 C54.534,45.856 54.709,45.513 54.873,45.166 C52.827,44.882 51.029,44.331 49.428,43.559 C45.371,41.604 42.54,38.218 40.242,34.073 M50.907,19.452 C51.018,19.145 51.117,18.831 51.209,18.513 C46.353,13.091 41.316,6.791 36.647,1.437 C36.213,0.936 35.779,0.444 35.351,-0.038 C35.01,-0.047 34.659,-0.053 34.299,-0.053 L34.195,-0.053 C35.035,0.881 35.891,1.857 36.757,2.863 C41.305,8.131 46.186,14.211 50.907,19.452 M51.742,15.063 C51.742,15.001 51.743,14.939 51.743,14.876 C51.743,14.538 51.731,14.207 51.709,13.876 C47.404,9.428 42.936,4.574 38.824,0.271 C38.417,0.205 37.993,0.15 37.551,0.105 C37.686,0.243 37.82,0.383 37.955,0.525 C42.33,5.095 47.137,10.332 51.742,15.063 M54.929,37.942 C51.275,36.036 48.183,32.693 45.363,28.647 C41.13,22.58 37.524,14.961 33.428,8.396 C31.462,5.243 29.377,2.331 27.041,-0.053 L25.625,-0.053 C28.396,2.577 30.844,6.046 33.161,9.857 C37.178,16.457 40.799,24.066 45.167,30.088 C47.353,33.096 49.729,35.715 52.458,37.604 C53.689,38.457 54.994,39.158 56.384,39.677 C56.418,39.334 56.438,38.985 56.45,38.637 C55.93,38.432 55.425,38.199 54.929,37.942 M38.521,45.181 C36.035,42.324 34.557,38.586 33.416,34.451 C31.7,28.252 30.759,21.197 28.094,15.03 C26.76,11.945 24.987,9.08 22.457,6.681 C20.608,4.927 18.357,3.428 15.6,2.272 L15.6,3.561 C17.567,4.432 19.24,5.486 20.68,6.685 C24.602,9.951 26.813,14.328 28.364,19.134 C29.525,22.734 30.31,26.565 31.166,30.3 C31.81,33.1 32.494,35.847 33.422,38.408 C34.813,42.245 36.761,45.68 39.954,48.17 C42.295,49.997 45.288,51.29 49.151,51.885 C49.619,51.568 50.063,51.23 50.485,50.87 C47.914,50.583 45.755,50 43.925,49.178 C41.691,48.174 39.942,46.819 38.521,45.181 M49.098,22.98 C49.274,22.732 49.447,22.471 49.613,22.193 C44.886,16.477 40.164,9.603 35.575,3.752 C34.53,2.424 33.494,1.147 32.465,-0.053 L31.276,-0.053 C32.685,1.556 34.116,3.329 35.559,5.198 C39.967,10.893 44.514,17.466 49.098,22.98 M49.28,6.797 C47.672,5.268 46.066,3.729 44.488,2.221 C43.818,1.821 43.087,1.467 42.284,1.164 C44.951,3.71 47.74,6.384 50.494,8.998 C50.151,8.225 49.744,7.491 49.28,6.797 M15.6,49.331 C17.273,50.947 18.948,52.556 20.589,54.11 C20.886,54.391 21.182,54.67 21.476,54.947 L22.58,54.947 C20.31,52.815 17.951,50.549 15.6,48.28 z M15.6,39.548 L15.6,40.886 C19.444,45.552 23.408,50.419 27.224,54.505 C27.363,54.653 27.501,54.801 27.639,54.947 L28.816,54.947 C28.25,54.358 27.677,53.746 27.103,53.118 C23.325,48.997 19.403,44.153 15.6,39.548 M15.6,52.962 C16.366,53.628 17.131,54.292 17.889,54.947 L18.973,54.947 C17.86,53.984 16.733,53.005 15.6,52.019 z M30.537,47.268 C26.41,41.274 22.935,33.743 18.944,27.245 C17.875,25.506 16.769,23.841 15.6,22.298 L15.6,23.977 C16.657,25.457 17.671,27.041 18.658,28.692 C22.567,35.219 26.057,42.739 30.321,48.693 C32.037,51.085 33.881,53.228 35.94,54.947 L37.051,54.947 C37.216,54.947 37.381,54.945 37.543,54.944 C34.946,53.02 32.657,50.352 30.537,47.268 M15.6,45.343 C18.647,48.634 21.743,51.955 24.701,54.947 L25.834,54.947 C22.531,51.635 19.031,47.865 15.6,44.158 z M47.847,27.374 C50.208,30.336 52.668,32.909 55.307,34.764 C55.612,34.978 55.917,35.183 56.226,35.376 C56.153,34.931 56.059,34.491 55.949,34.057 C53.144,32.107 50.485,29.26 47.925,25.94 C43.298,19.953 38.986,12.46 34.5,6.073 C32.95,3.864 31.378,1.787 29.762,-0.053 L28.491,-0.053 C30.489,2.134 32.435,4.733 34.36,7.53 C38.801,13.972 43.129,21.455 47.847,27.374 M32.827,43.384 C29.432,37.204 27.306,29.371 24.041,22.478 C22.408,19.031 20.483,15.814 17.946,13.163 C17.216,12.402 16.437,11.687 15.6,11.028 L15.6,12.437 C19.058,15.403 21.487,19.454 23.509,23.918 C26.628,30.787 28.765,38.605 32.382,44.803 C34.192,47.901 36.382,50.602 39.274,52.542 C40.38,53.288 41.587,53.916 42.912,54.414 C43.606,54.273 44.265,54.104 44.888,53.91 C43.83,53.622 42.847,53.253 41.93,52.811 C37.892,50.87 35.091,47.505 32.827,43.384 M31.681,45.324 C27.922,39.238 25.121,31.554 21.493,24.86 C19.784,21.707 17.887,18.772 15.6,16.324 L15.6,17.885 C17.684,20.314 19.458,23.204 21.083,26.305 C24.597,33.005 27.41,40.674 31.352,46.749 C33.324,49.786 35.584,52.429 38.377,54.333 C38.658,54.524 38.941,54.706 39.233,54.883 C39.88,54.843 40.499,54.784 41.094,54.71 C41.04,54.684 40.986,54.657 40.931,54.63 C37.103,52.716 34.188,49.384 31.681,45.324 M29.39,49.216 C24.898,43.317 20.748,35.935 16.396,29.633 C16.13,29.252 15.865,28.873 15.6,28.498 L15.6,30.148 C15.81,30.453 16.023,30.762 16.233,31.072 C20.54,37.427 24.702,44.799 29.29,50.632 C30.522,52.198 31.783,53.653 33.09,54.947 L34.457,54.947 C32.71,53.317 31.027,51.366 29.39,49.216 M37.618,47.048 C35.072,44.219 33.369,40.528 31.95,36.464 C29.817,30.37 28.333,23.463 25.426,17.483 C23.971,14.495 22.156,11.732 19.712,9.438 C18.503,8.303 17.141,7.286 15.6,6.412 L15.6,7.729 C16.462,8.254 17.262,8.83 18.006,9.448 C21.767,12.572 24.125,16.835 25.936,21.527 C27.295,25.046 28.347,28.797 29.462,32.459 C31.14,37.947 32.958,43.245 36.285,47.247 C37.949,49.244 39.997,50.911 42.572,52.082 C43.739,52.614 45.016,53.042 46.411,53.359 C47.013,53.109 47.578,52.83 48.114,52.53 C46.152,52.219 44.437,51.696 42.928,50.995 C40.799,50.008 39.072,48.666 37.618,47.048 M28.246,51.165 C29.375,52.516 30.508,53.785 31.638,54.947 L30.393,54.947 C29.68,54.191 28.968,53.397 28.257,52.571 C23.969,47.577 19.736,41.436 15.6,35.844 L15.6,34.335 C19.755,39.899 23.988,46.083 28.246,51.165" fill="#E90030"/>
    </g>
  </g>
</svg>
