<svg width="1679" height="589" viewBox="0 0 1679 589" fill="none" xmlns="http://www.w3.org/2000/svg">
<rect width="1679" height="589" rx="80" fill="#EFE8E2"/>
<path d="M501.124 505.016H1049.66" stroke="#1A242D" stroke-width="0.716915" stroke-miterlimit="10"/>
<path d="M508.928 436.788H495.979V431.974H527.19V436.788H514.075V475.135H508.762V436.788H508.928Z" fill="#1A242D"/>
<path d="M526.359 460.527C526.359 451.729 532.336 445.254 540.803 445.254C545.12 445.254 548.938 447.246 551.096 450.899H551.262V445.752H556.243V475.301H551.428V469.989C549.27 473.475 545.618 475.633 540.803 475.633C532.502 475.467 526.359 469.491 526.359 460.527ZM551.262 460.527C551.262 454.385 547.278 449.737 541.301 449.737C535.657 449.737 531.174 454.053 531.174 460.527C531.174 466.503 535.158 470.985 541.301 470.985C546.946 470.985 551.262 466.669 551.262 460.527Z" fill="#1A242D"/>
<path d="M564.877 430.314H569.858V461.523L584.301 445.254H590.278L579.155 457.373L590.278 474.803H584.633L575.668 460.859L569.526 467.333V474.637H564.545V430.314H564.877Z" fill="#1A242D"/>
<path d="M620.992 461.689H597.915C598.579 467.167 602.398 470.819 608.042 470.819C612.027 470.819 614.849 469.159 616.675 466.835L620.162 469.823C617.672 473.143 613.853 475.301 608.042 475.301C599.243 475.301 593.101 469.159 593.101 460.195C593.101 451.231 599.243 445.088 607.71 445.088C615.845 445.088 621.324 451.231 621.324 459.697C621.158 460.527 620.992 461.357 620.992 461.689ZM598.081 457.705H616.177C615.513 452.891 612.359 449.571 607.378 449.571C602.73 449.571 598.911 452.725 598.081 457.705Z" fill="#1A242D"/>
<path d="M642.906 460.527C642.906 451.729 648.883 445.254 657.35 445.254C661.667 445.254 665.485 447.246 667.643 450.899H667.809V445.752H672.79V475.301H667.975V469.989C665.817 473.475 662.165 475.633 657.35 475.633C649.215 475.467 642.906 469.491 642.906 460.527ZM667.975 460.527C667.975 454.385 663.991 449.737 658.014 449.737C652.369 449.737 647.887 454.053 647.887 460.527C647.887 466.503 651.871 470.985 658.014 470.985C663.493 470.985 667.975 466.669 667.975 460.527Z" fill="#1A242D"/>
<path d="M721.268 469.989C718.944 473.309 715.292 475.467 710.643 475.467C702.508 475.467 696.199 469.491 696.199 460.527C696.199 451.729 702.176 445.254 710.643 445.254C715.126 445.254 718.944 447.246 721.268 450.899V445.586H726.249V487.088H721.268V469.989ZM721.268 460.527C721.268 454.385 717.284 449.737 711.307 449.737C705.662 449.737 701.18 454.053 701.18 460.527C701.18 466.503 705.164 470.985 711.307 470.985C716.786 470.985 721.268 466.669 721.268 460.527Z" fill="#1A242D"/>
<path d="M734.384 463.183V445.586H739.364V461.855C739.364 468.495 741.855 471.151 746.669 471.151C751.484 471.151 755.468 467.167 755.468 460.029V445.752H760.449V475.301H755.468V470.155C753.144 473.641 749.658 475.633 745.673 475.633C738.7 475.467 734.384 471.483 734.384 463.183Z" fill="#1A242D"/>
<path d="M768.418 436.622C768.418 434.63 770.078 433.136 772.07 433.136C774.063 433.136 775.723 434.796 775.723 436.622C775.723 438.448 774.063 440.108 772.07 440.108C770.078 440.108 768.418 438.448 768.418 436.622ZM769.58 445.421H774.561V474.969H769.58V445.421Z" fill="#1A242D"/>
<path d="M782.198 460.361C782.198 451.397 788.341 445.254 797.14 445.254C801.623 445.254 806.105 447.08 809.094 450.567L805.773 453.555C803.947 451.397 800.959 449.737 797.472 449.737C791.329 449.737 787.345 454.219 787.345 460.361C787.345 466.669 791.329 470.985 797.472 470.985C800.959 470.985 804.113 469.491 805.939 467.167L809.26 470.321C806.769 473.309 802.785 475.467 797.14 475.467C788.341 475.467 782.198 469.325 782.198 460.361Z" fill="#1A242D"/>
<path d="M815.734 430.314H820.715V461.523L835.159 445.254H841.136L830.012 457.373L841.136 474.803H835.657L826.692 460.859L820.715 467.665V474.969H815.734V430.314Z" fill="#1A242D"/>
<path d="M861.058 471.151L863.548 467.333C865.872 469.657 868.529 470.985 872.513 470.985C876.166 470.985 878.158 469.159 878.158 467.001C878.158 464.345 875.501 463.681 871.185 462.021C866.37 460.361 862.386 458.369 862.386 453.057C862.386 448.575 866.536 445.088 872.015 445.088C875.667 445.088 878.988 446.084 882.142 448.74L879.652 452.559C877.162 450.235 874.339 449.405 871.849 449.405C869.525 449.405 867.366 450.733 867.366 453.057C867.366 455.381 869.691 456.543 873.011 457.705C879.32 460.195 883.47 461.191 883.304 467.001C883.304 471.649 879.818 475.467 872.679 475.467C867.532 475.467 863.88 473.641 861.058 471.151Z" fill="#1A242D"/>
<path d="M889.447 463.183V445.586H894.428V461.855C894.428 468.495 896.918 471.151 901.733 471.151C906.547 471.151 910.532 467.167 910.532 460.029V445.752H915.512V475.301H910.532V470.155C908.208 473.641 904.721 475.633 900.737 475.633C893.764 475.467 889.447 471.483 889.447 463.183Z" fill="#1A242D"/>
<path d="M924.312 445.42H929.292V450.899H929.458C931.616 447.246 934.937 445.088 939.087 445.088C939.585 445.088 939.917 445.088 940.249 445.088V450.567C939.585 450.567 938.755 450.401 938.257 450.401C932.612 450.401 929.292 454.717 929.292 460.693V474.969H924.312V445.42Z" fill="#1A242D"/>
<path d="M942.407 445.421H947.72L956.685 468.662L965.65 445.421H970.963L959.009 474.97H954.195L942.407 445.421Z" fill="#1A242D"/>
<path d="M1001.68 461.689H978.6C979.264 467.167 983.082 470.819 988.727 470.819C992.712 470.819 995.534 469.159 997.36 466.835L1000.85 469.823C998.356 473.143 994.538 475.301 988.727 475.301C979.928 475.301 973.785 469.159 973.785 460.195C973.785 451.231 979.928 445.088 988.395 445.088C996.53 445.088 1002.01 451.231 1002.01 459.697C1001.84 460.527 1001.68 461.357 1001.68 461.689ZM978.766 457.705H996.862C996.198 452.891 993.044 449.571 988.063 449.571C983.414 449.571 979.762 452.725 978.766 457.705Z" fill="#1A242D"/>
<path d="M1016.95 473.974L1004.33 445.587H1009.65L1019.28 467.998H1019.44L1028.41 445.587H1033.55L1016.79 487.088H1011.64L1016.95 473.974Z" fill="#1A242D"/>
<path d="M253.627 197.628H195.85V337.515H253.627V197.628Z" fill="#E3152E"/>
<path d="M382.645 243.958H358.636V233.862H382.645C385.113 233.862 387.469 232.852 389.152 231.169C390.947 229.374 391.845 227.131 391.845 224.663C391.845 222.195 390.835 219.839 389.152 218.157C387.357 216.362 385.113 215.464 382.645 215.464H312.078L315.892 208.06C319.034 202.003 321.614 195.384 323.185 189.102C324.755 182.596 325.54 175.865 325.54 169.247V160.272C325.54 157.804 324.531 155.449 322.848 153.766C321.053 151.971 318.809 151.074 316.341 151.074C313.873 151.074 311.517 152.083 309.834 153.766C308.039 155.561 307.029 157.917 307.029 160.384C307.029 167.788 305.683 173.958 302.429 181.698C299.4 188.99 295.025 195.384 289.528 200.769C284.703 205.48 279.206 209.182 273.036 211.65C266.753 214.23 260.246 215.464 253.627 215.464V205.368C259.012 205.368 264.285 204.359 269.221 202.339C274.158 200.32 278.645 197.291 282.46 193.589C287.059 188.99 290.537 183.83 293.118 177.772C295.81 171.266 296.932 166.442 296.932 160.384C296.932 155.224 298.952 150.288 302.654 146.699C306.244 143.109 311.068 140.978 316.341 140.978C321.502 140.978 326.438 142.997 330.028 146.699C333.73 150.288 335.75 155.224 335.75 160.384V169.359C335.75 176.763 334.852 184.279 333.057 191.57C331.935 196.169 330.365 200.881 328.457 205.368H382.645C387.806 205.368 392.742 207.387 396.332 211.089C400.034 214.791 402.054 219.615 402.054 224.775C402.054 229.935 400.034 234.871 396.332 238.461C392.742 241.938 387.806 243.958 382.645 243.958Z" fill="#1A242C"/>
<path d="M374.568 272.563H358.637V262.467H374.568C377.036 262.467 379.392 261.458 381.075 259.775C382.87 257.98 383.767 255.737 383.767 253.269C383.767 250.801 382.757 248.445 381.075 246.65C379.28 244.855 377.036 243.958 374.568 243.958H358.637V233.862H374.568C379.728 233.862 384.665 235.881 388.255 239.583C391.957 243.285 393.976 248.109 393.976 253.269C393.976 258.429 391.957 263.365 388.255 266.955C384.553 270.544 379.728 272.563 374.568 272.563Z" fill="#1A242C"/>
<path d="M366.602 301.281H358.637V291.185H366.602C369.07 291.185 371.426 290.175 373.109 288.493C374.904 286.698 375.802 284.454 375.802 281.986C375.802 279.518 374.792 277.162 373.109 275.48C371.314 273.685 369.07 272.787 366.602 272.787H358.637V262.691H366.602C371.763 262.691 376.699 264.711 380.289 268.413C383.992 272.114 386.011 276.938 386.011 282.098C386.011 287.259 383.992 292.194 380.289 295.784C376.587 299.262 371.763 301.281 366.602 301.281Z" fill="#1A242C"/>
<path d="M358.636 329.999H253.627V319.903H358.636C361.105 319.903 363.461 318.893 365.143 317.21C366.938 315.415 367.836 313.172 367.836 310.704C367.836 308.236 366.826 305.88 365.143 304.198C363.348 302.403 361.105 301.505 358.636 301.505V291.409C363.797 291.409 368.734 293.428 372.324 297.13C376.026 300.832 378.045 305.656 378.045 310.816C378.045 315.976 376.026 320.912 372.324 324.502C368.734 327.979 363.797 329.999 358.636 329.999Z" fill="#1A242C"/>
<path d="M243.531 309.694H233.434V319.79H243.531V309.694Z" fill="white"/>
<path d="M241.623 104.183H138.296V163.974H241.623V104.183Z" fill="#7AA2D3"/>
<path d="M223.448 118.878H156.583V128.974H223.448V118.878Z" fill="#1A242C"/>
<path d="M190.016 139.182H156.583V149.278H190.016V139.182Z" fill="#1A242C"/>
<path d="M138.297 212.772V183.269H119V85H260.808V183.269H167.802L138.297 212.772ZM129.209 173.172H148.506V188.317L163.764 173.172H250.823V95.0961H129.209V173.172Z" fill="#1A242C"/>
<path d="M495.978 263.95H505.155V287.87H529.228V263.95H538.406V317.356H529.228V295.843H505.155V317.356H495.978V263.95Z" fill="#1A242D"/>
<path d="M548.186 299.002C548.186 288.171 555.859 280.047 567.444 280.047C579.029 280.047 586.702 287.719 586.702 299.002C586.702 310.286 578.728 317.958 567.444 317.958C556.16 317.958 548.186 309.834 548.186 299.002ZM578.126 299.002C578.126 292.233 573.462 287.569 567.444 287.569C560.974 287.569 556.761 292.533 556.761 299.002C556.761 305.471 561.125 310.286 567.444 310.286C573.312 310.286 578.126 305.622 578.126 299.002Z" fill="#1A242D"/>
<path d="M591.817 280.649H600.544L608.367 305.02H608.518L615.74 280.649H622.811L630.184 305.02H630.334L638.158 280.649H646.734L634.246 317.357H626.422L619.351 294.189L612.279 317.357H604.606L591.817 280.649Z" fill="#1A242D"/>
<path d="M672.913 269.516C672.913 266.507 675.471 263.95 678.63 263.95C681.79 263.95 684.348 266.507 684.348 269.516C684.348 272.525 681.79 275.233 678.63 275.233C675.471 275.233 672.913 272.675 672.913 269.516ZM674.267 280.649H682.693V317.356H674.267V280.649Z" fill="#1A242D"/>
<path d="M691.119 312.692L695.332 306.374C698.341 309.232 701.35 310.737 706.014 310.737C709.324 310.737 711.13 309.232 711.13 307.126C711.13 305.321 708.722 304.268 703.908 302.613C697.89 300.507 692.624 297.799 692.624 290.578C692.624 284.56 698.04 280.197 705.563 280.197C710.227 280.197 714.44 281.551 718.502 284.71L714.289 291.33C711.28 288.472 707.97 287.418 705.111 287.418C703.456 287.418 701.049 288.321 701.049 290.578C701.049 292.383 703.306 293.587 706.917 295.091C714.741 298.1 719.706 299.604 719.706 306.976C719.706 313.144 715.342 318.108 706.014 318.108C699.996 317.958 695.031 316.002 691.119 312.692Z" fill="#1A242D"/>
<path d="M759.275 315.401L744.229 280.649H753.257L763.337 305.321H763.488L772.966 280.649H781.693L761.532 332.25H752.805L759.275 315.401Z" fill="#1A242D"/>
<path d="M786.356 299.002C786.356 288.171 794.03 280.047 805.615 280.047C817.2 280.047 824.873 287.719 824.873 299.002C824.873 310.286 816.899 317.958 805.615 317.958C794.331 317.958 786.356 309.834 786.356 299.002ZM816.297 299.002C816.297 292.233 811.633 287.569 805.615 287.569C799.145 287.569 794.932 292.533 794.932 299.002C794.932 305.471 799.296 310.286 805.615 310.286C811.633 310.286 816.297 305.622 816.297 299.002Z" fill="#1A242D"/>
<path d="M832.998 302.914V280.498H841.424V300.657C841.424 308.029 843.68 310.285 848.796 310.285C853.911 310.285 858.275 306.073 858.275 298.25V280.648H866.7V317.356H858.275V312.843H858.124C855.115 316.453 851.053 318.108 846.84 318.108C838.715 317.958 832.998 313.896 832.998 302.914Z" fill="#1A242D"/>
<path d="M877.232 280.649H885.658V286.215H885.808C888.667 282.454 892.729 280.197 897.243 280.197H898.296V289.675C897.243 289.675 896.34 289.525 895.739 289.525C889.419 289.525 885.658 294.038 885.658 300.206V317.657H877.232V280.649Z" fill="#1A242D"/>
<path d="M958.929 301.71H932.148C933.201 306.976 937.113 310.286 942.981 310.286C947.344 310.286 950.353 308.33 952.309 305.923L958.177 311.038C955.168 314.949 950.504 317.958 942.53 317.958C931.396 317.958 923.422 310.436 923.422 299.002C923.422 287.569 931.095 280.047 941.928 280.047C952.761 280.047 959.23 287.87 959.23 298.551C959.08 299.905 958.929 301.109 958.929 301.71ZM932.148 295.091H950.504C949.451 290.578 946.442 287.569 941.627 287.569C936.963 287.719 933.352 290.277 932.148 295.091Z" fill="#1A242D"/>
<path d="M977.285 298.551L964.346 280.498H974.125L981.949 292.082H982.099L990.074 280.498H999.853L987.064 298.551L1000.15 317.206H990.675L982.25 305.622L973.824 317.206H964.346L977.285 298.551Z" fill="#1A242D"/>
<path d="M1007.53 280.649H1015.95V285.011H1016.1C1018.81 281.852 1022.87 280.197 1027.69 280.197C1037.92 280.197 1045.44 288.171 1045.44 299.303C1045.44 310.436 1037.77 318.108 1027.54 318.108C1022.57 318.108 1018.66 316.303 1015.95 312.993H1015.8V332.4H1007.38L1007.53 280.649ZM1036.87 299.153C1036.87 292.082 1032.05 287.569 1026.18 287.569C1019.86 287.569 1015.5 292.533 1015.5 299.153C1015.5 305.772 1020.32 310.285 1026.33 310.285C1032.5 310.285 1036.87 305.622 1036.87 299.153Z" fill="#1A242D"/>
<path d="M1087.72 301.71H1060.94C1061.99 306.976 1065.9 310.286 1071.77 310.286C1076.13 310.286 1079.14 308.33 1081.1 305.923L1086.97 311.038C1083.96 314.949 1079.29 317.958 1071.32 317.958C1060.19 317.958 1052.21 310.436 1052.21 299.002C1052.21 287.569 1059.89 280.047 1070.72 280.047C1081.55 280.047 1088.02 287.87 1088.02 298.551C1087.87 299.905 1087.72 301.109 1087.72 301.71ZM1060.94 295.091H1079.29C1078.24 290.578 1075.23 287.569 1070.42 287.569C1065.9 287.719 1062.14 290.277 1060.94 295.091Z" fill="#1A242D"/>
<path d="M1096.6 280.649H1105.02V286.215H1105.17C1108.03 282.454 1112.09 280.197 1116.61 280.197H1117.66V289.675C1116.61 289.675 1115.7 289.525 1115.1 289.525C1108.78 289.525 1105.02 294.038 1105.02 300.206V317.657H1096.6V280.649Z" fill="#1A242D"/>
<path d="M1123.83 269.516C1123.83 266.507 1126.39 263.95 1129.55 263.95C1132.71 263.95 1135.26 266.507 1135.26 269.516C1135.26 272.525 1132.71 275.233 1129.55 275.233C1126.39 275.233 1123.83 272.675 1123.83 269.516ZM1125.18 280.649H1133.61V317.356H1125.18V280.649Z" fill="#1A242D"/>
<path d="M1178.44 301.71H1151.66C1152.72 306.976 1156.63 310.286 1162.5 310.286C1166.86 310.286 1169.87 308.33 1171.82 305.923L1177.69 311.038C1174.68 314.949 1170.02 317.958 1162.04 317.958C1150.91 317.958 1142.94 310.436 1142.94 299.002C1142.94 287.569 1150.61 280.047 1161.44 280.047C1172.28 280.047 1178.74 287.87 1178.74 298.551C1178.74 299.905 1178.59 301.109 1178.44 301.71ZM1151.81 295.091H1170.17C1169.12 290.578 1166.11 287.569 1161.29 287.569C1156.63 287.719 1153.02 290.277 1151.81 295.091Z" fill="#1A242D"/>
<path d="M1187.47 280.649H1195.9V285.764H1196.05C1199.06 282.153 1203.57 280.197 1208.39 280.197C1216.51 280.197 1221.93 284.71 1221.93 295.843V317.507H1213.5V297.949C1213.5 290.126 1210.49 287.719 1205.53 287.719C1199.81 287.719 1196.05 291.631 1196.05 299.002V317.507H1187.62L1187.47 280.649Z" fill="#1A242D"/>
<path d="M1229.9 299.002C1229.9 287.719 1237.87 280.047 1249.01 280.047C1254.72 280.047 1260.74 282.303 1264.5 286.967L1258.79 291.932C1256.68 289.525 1253.52 287.719 1249.46 287.719C1242.84 287.719 1238.48 292.233 1238.48 299.002C1238.48 305.772 1242.84 310.286 1249.46 310.286C1253.52 310.286 1256.83 308.48 1258.79 305.923L1264.65 311.038C1261.5 314.949 1256.83 317.958 1248.86 317.958C1237.87 317.958 1229.9 310.286 1229.9 299.002Z" fill="#1A242D"/>
<path d="M1305.58 301.71H1278.8C1279.85 306.976 1283.76 310.286 1289.63 310.286C1293.99 310.286 1297 308.33 1298.96 305.923L1304.83 311.038C1301.67 314.949 1297.15 317.958 1289.18 317.958C1278.05 317.958 1270.07 310.436 1270.07 299.002C1270.07 287.569 1277.75 280.047 1288.58 280.047C1299.41 280.047 1305.88 287.87 1305.88 298.551C1305.88 299.905 1305.73 301.109 1305.58 301.71ZM1278.95 295.091H1297.3C1296.25 290.578 1293.24 287.569 1288.43 287.569C1283.76 287.719 1280.15 290.277 1278.95 295.091Z" fill="#1A242D"/>
<path d="M1331.61 312.692L1335.82 306.374C1338.83 309.232 1341.99 310.737 1346.5 310.737C1349.81 310.737 1351.62 309.232 1351.62 307.126C1351.62 305.321 1349.21 304.268 1344.4 302.613C1338.38 300.507 1333.11 297.799 1333.11 290.578C1333.11 284.56 1338.53 280.197 1346.05 280.197C1350.72 280.197 1354.93 281.551 1358.99 284.71L1354.78 291.33C1351.92 288.472 1348.46 287.418 1345.6 287.418C1343.94 287.418 1341.69 288.321 1341.69 290.578C1341.69 292.383 1343.94 293.587 1347.41 295.091C1355.23 298.1 1360.19 299.604 1360.19 306.976C1360.19 313.144 1355.83 318.108 1346.5 318.108C1340.48 317.958 1335.52 316.002 1331.61 312.692Z" fill="#1A242D"/>
<path d="M1366.36 299.002C1366.36 288.171 1374.04 280.047 1385.62 280.047C1397.21 280.047 1404.88 287.719 1404.88 299.002C1404.88 310.286 1396.91 317.958 1385.62 317.958C1374.34 317.958 1366.36 309.834 1366.36 299.002ZM1396.3 299.002C1396.3 292.233 1391.64 287.569 1385.62 287.569C1379.15 287.569 1374.94 292.533 1374.94 299.002C1374.94 305.471 1379.3 310.286 1385.62 310.286C1391.64 310.286 1396.3 305.622 1396.3 299.002Z" fill="#1A242D"/>
<path d="M1435.27 287.719H1431.21V280.498H1435.27V273.879C1435.27 265.604 1439.18 261.242 1446.41 261.242C1450.47 261.242 1453.63 262.596 1455.58 263.799L1453.78 270.87C1451.37 269.666 1449.26 269.065 1447.76 269.065C1445.2 269.065 1443.85 270.719 1443.85 274.781V280.649H1452.88V287.87H1443.85V317.507H1435.42V287.719H1435.27Z" fill="#1A242D"/>
<path d="M1457.54 299.153C1457.54 288.02 1465.21 280.047 1475.29 280.047C1479.96 280.047 1484.02 281.702 1486.73 285.162H1486.88V280.649H1495.3V317.356H1487.18V312.542H1487.03C1484.32 316.153 1480.41 317.958 1475.29 317.958C1465.06 317.958 1457.54 310.436 1457.54 299.153ZM1487.18 299.153C1487.18 292.533 1482.67 287.569 1476.65 287.569C1470.63 287.569 1466.11 292.082 1466.11 299.153C1466.11 305.622 1470.48 310.286 1476.65 310.286C1482.36 310.286 1487.18 305.772 1487.18 299.153Z" fill="#1A242D"/>
<path d="M1505.83 280.649H1514.26V286.215H1514.41C1517.27 282.454 1521.33 280.197 1525.85 280.197H1526.9V289.675C1526 289.675 1524.94 289.525 1524.34 289.525C1518.02 289.525 1514.26 294.038 1514.26 300.206V317.657H1505.83V280.649Z" fill="#1A242D"/>
<path d="M1539.24 296.746C1539.09 292.082 1542.55 288.923 1545.71 285.613C1548.26 282.905 1550.52 280.197 1550.52 276.286C1550.52 271.923 1547.66 269.666 1543.75 269.666C1540.89 269.666 1537.73 271.321 1535.78 274.18L1529.46 268.312C1532.92 263.95 1538.18 261.392 1544.35 261.392C1552.48 261.392 1560 266.206 1560 275.985C1560 281.852 1556.69 285.914 1553.38 289.224C1550.22 292.232 1547.06 294.489 1546.91 297.347L1546.61 300.657H1539.09L1539.24 296.746ZM1537.43 312.392C1537.43 309.383 1539.99 306.675 1543.15 306.675C1546.31 306.675 1548.87 309.232 1548.87 312.392C1548.87 315.551 1546.31 317.958 1543.15 317.958C1540.14 317.958 1537.43 315.551 1537.43 312.392Z" fill="#1A242D"/>
<path d="M576.191 218.386L566.674 209.651C560.025 214.214 551.811 216.691 542.554 216.691C518.174 216.691 501.355 199.872 501.355 175.753C501.355 151.633 518.174 134.684 542.554 134.684C566.413 134.684 583.492 151.242 583.492 175.753C583.492 184.618 581.276 192.441 577.365 198.829L585.839 206.261L576.191 218.386ZM542.424 199.481C546.726 199.481 550.507 198.308 553.767 196.222L546.857 189.964L554.81 180.577L561.72 186.704C563.023 183.445 563.806 179.794 563.806 175.883C563.806 162.845 555.201 152.415 542.424 152.415C529.908 152.415 520.912 162.585 520.912 175.883C520.912 189.442 530.038 199.481 542.424 199.481Z" fill="#1A242D"/>
<path d="M594.184 193.223V160.629H611.654V188.79C611.654 197.656 614.131 201.046 620.128 201.046C625.474 201.046 629.776 196.613 629.776 187.747V160.629H647.377V215.648H629.776V209.52L629.515 209.39C625.474 214.344 619.998 216.691 613.87 216.691C602.397 216.691 594.184 210.563 594.184 193.223Z" fill="#1A242D"/>
<path d="M657.938 143.68C657.938 138.335 662.37 133.771 668.368 133.771C674.495 133.771 678.928 138.204 678.928 143.68C678.928 149.417 674.495 153.849 668.368 153.849C662.37 153.849 657.938 149.417 657.938 143.68ZM659.632 160.629H677.103V215.648H659.632V160.629Z" fill="#1A242D"/>
<path d="M687.271 188.399C687.271 171.189 699.005 159.716 716.476 159.716C724.95 159.716 734.077 162.454 740.204 169.234L728.861 180.446C726.254 177.056 721.952 175.231 717.91 175.231C710.218 175.231 705.003 180.446 705.003 188.138C705.003 195.831 710.348 200.915 718.04 200.915C722.995 200.915 726.645 199.09 729.774 195.7L740.595 206.913C735.641 212.649 727.558 216.43 716.085 216.43C699.397 216.691 687.271 205.218 687.271 188.399Z" fill="#1A242D"/>
<path d="M748.549 132.989H765.889V180.577H766.15L782.186 160.759H802.525L784.011 182.663L803.176 215.648H783.75L771.495 194.136L766.019 200.264V215.778H748.679V132.989H748.549Z" fill="#1A242D"/>
<path d="M909.433 218.386L899.915 209.651C893.266 214.214 885.052 216.691 875.796 216.691C851.415 216.691 834.597 199.872 834.597 175.753C834.597 151.633 851.415 134.684 875.796 134.684C899.654 134.684 916.734 151.242 916.734 175.753C916.734 184.618 914.517 192.441 910.606 198.829L919.08 206.261L909.433 218.386ZM875.665 199.481C879.968 199.481 883.748 198.308 887.008 196.222L880.098 189.964L888.051 180.577L894.961 186.704C896.265 183.445 897.047 179.794 897.047 175.883C897.047 162.845 888.442 152.415 875.665 152.415C863.149 152.415 854.153 162.585 854.153 175.883C854.023 189.442 863.149 199.481 875.665 199.481Z" fill="#1A242D"/>
<path d="M927.294 193.223V160.629H944.764V188.79C944.764 197.656 947.241 201.046 953.239 201.046C958.584 201.046 962.887 196.613 962.887 187.747V160.629H980.487V215.648H962.887V209.52L962.626 209.39C958.584 214.344 953.108 216.691 946.981 216.691C935.508 216.691 927.294 210.563 927.294 193.223Z" fill="#1A242D"/>
<path d="M1044.5 192.832H1006.95C1008.13 199.09 1013.34 202.349 1020.12 202.349C1024.55 202.219 1029.25 200.524 1032.9 196.352L1043.07 206.652C1038.5 212.388 1030.81 216.56 1018.3 216.56C1001.61 216.56 989.483 205.087 989.483 188.008C989.483 171.32 1001.22 159.586 1017.78 159.586C1033.29 159.586 1044.63 171.189 1044.63 187.487C1044.76 189.181 1044.5 191.659 1044.5 192.832ZM1007.08 182.402H1027.68C1026.51 177.056 1022.99 173.667 1017.64 173.667C1012.3 173.667 1008.26 176.926 1007.08 182.402Z" fill="#1A242D"/>
<path d="M1049.85 208.608L1058.06 197.265C1062.62 201.437 1067.45 203.392 1072.4 203.392C1075.92 203.392 1077.75 202.219 1077.75 200.133C1077.75 198.308 1076.05 197.265 1069.14 195.048C1059.89 192.18 1051.8 187.747 1051.8 177.187C1051.8 166.105 1060.93 159.716 1072.4 159.716C1080.75 159.716 1086.74 161.802 1093.13 166.626L1084.79 178.882C1081.01 175.101 1076.18 173.145 1072.53 173.145C1070.45 173.145 1068.1 174.058 1068.1 176.144C1068.1 177.839 1070.19 179.012 1075.66 180.968C1087.79 185.14 1094.44 188.269 1094.44 199.09C1094.44 209.259 1087.14 216.691 1072.01 216.691C1063.54 216.691 1055.84 213.953 1049.85 208.608Z" fill="#1A242D"/>
<path d="M1104.91 198.458V174.99H1098.78V160.779H1104.91V143.178L1122.51 141.353V160.779H1135.81V174.99H1122.51V195.199C1122.51 198.849 1123.29 201.326 1126.68 201.326C1127.86 201.326 1130.2 200.935 1132.03 200.153L1136.46 213.06C1132.68 215.146 1128.77 216.711 1121.08 216.711C1111.69 216.841 1104.91 210.974 1104.91 198.458Z" fill="#1A242D"/>
<path d="M1142.99 143.495C1142.99 138.15 1147.43 133.586 1153.42 133.586C1159.55 133.586 1163.98 138.019 1163.98 143.495C1163.98 149.232 1159.55 153.664 1153.42 153.664C1147.3 153.664 1142.99 149.232 1142.99 143.495ZM1144.69 160.444H1162.16V215.463H1144.69V160.444Z" fill="#1A242D"/>
<path d="M1172.2 188.084C1172.2 171.396 1184.19 159.532 1201.92 159.532C1219.26 159.532 1231.65 171.135 1231.65 188.084C1231.65 204.903 1219.26 216.506 1201.92 216.506C1184.19 216.506 1172.2 204.642 1172.2 188.084ZM1213.92 188.084C1213.92 180.392 1208.83 175.177 1202.05 175.177C1195.01 175.177 1190.06 180.522 1190.06 188.084C1190.06 195.385 1195.14 200.992 1202.05 200.992C1208.57 200.992 1213.92 195.516 1213.92 188.084Z" fill="#1A242D"/>
<path d="M1241.04 160.444H1258.51V166.833H1258.77C1263.07 161.878 1268.94 159.401 1275.33 159.401C1286.67 159.401 1295.01 165.008 1295.01 182.478V215.463H1277.54V186.78C1277.54 177.654 1274.54 175.047 1268.81 175.047C1262.68 175.047 1258.64 179.219 1258.64 187.693V215.333H1241.17V160.444H1241.04Z" fill="#1A242D"/>
</svg>
