<?xml version="1.0" encoding="UTF-8"?>
<svg xmlns="http://www.w3.org/2000/svg" viewBox="0 0 22.6 23.76">
    <defs>
        <style>.cls-1{fill:none;stroke:#E21331;stroke-linecap:round;stroke-linejoin:round;}</style>
    </defs>
    <g id="Layer_2" data-name="Layer 2">
        <g id="transport">
            <line class="cls-1" x1="21.04" y1="15.88" x2="21.04" y2="15.87"></line>
            <path class="cls-1"
                  d="M7.5,11.26c3.35-.8,6.71-4.94,6.71-9.87,0-1.23,2.43-1.4,3.07.87.72,2.57-.44,4.83-1.32,7h4.39"></path>
            <path class="cls-1" d="M20.35,9.28A1.75,1.75,0,0,1,22.1,11h0a1.75,1.75,0,0,1-1.75,1.76h-.44"></path>
            <path class="cls-1" d="M19.91,12.79a1.75,1.75,0,0,1,1.75,1.75h0a1.75,1.75,0,0,1-1.75,1.75h-.44"></path>
            <path class="cls-1" d="M19,16.29a1.75,1.75,0,0,1,1.75,1.76h0A1.75,1.75,0,0,1,19,19.8h-.44"></path>
            <path class="cls-1" d="M19.91,12.79a1.75,1.75,0,0,1,1.75,1.75h0a1.75,1.75,0,0,1-1.75,1.75H19"></path>
            <path class="cls-1" d="M18.59,22.87H12.46c-1.76,0-5-1.61-5-1.61"></path>
            <path class="cls-1" d="M18.15,19.8h.22a1.54,1.54,0,0,1,1.54,1.53h0a1.54,1.54,0,0,1-1.54,1.54h-.65"></path>
            <circle class="cls-1" cx="5.44" cy="21.12" r="0.44"></circle>
            <rect class="cls-1" x="0.5" y="9.26" width="7" height="14" rx="1"></rect>
        </g>
    </g>
</svg>