<svg id="Group_2274" data-name="Group 2274" xmlns="http://www.w3.org/2000/svg" xmlns:xlink="http://www.w3.org/1999/xlink" width="16.774" height="17.665" viewBox="0 0 16.774 17.665">
  <defs>
    <clipPath id="clip-path">
      <rect id="Rectangle_64656" data-name="Rectangle 64656" width="16.774" height="17.665" fill="none"/>
    </clipPath>
  </defs>
  <path id="Path_4530" data-name="Path 4530" d="M.672.671H16.1V2.013H.672ZM0,2.684H16.774V0H0Z" transform="translate(-0.001)" fill="#131b22"/>
  <rect id="Rectangle_64652" data-name="Rectangle 64652" width="0.671" height="0.671" transform="translate(1.61 1.006)" fill="#131b22"/>
  <rect id="Rectangle_64653" data-name="Rectangle 64653" width="0.671" height="0.671" transform="translate(2.952 1.006)" fill="#131b22"/>
  <rect id="Rectangle_64654" data-name="Rectangle 64654" width="0.671" height="0.671" transform="translate(4.294 1.006)" fill="#131b22"/>
  <path id="Path_4531" data-name="Path 4531" d="M78.089,55.064v5.319H72.608v.671H78.76v-5.99Z" transform="translate(-61.987 -47.009)" fill="#131b22"/>
  <path id="Path_4532" data-name="Path 4532" d="M0,52.357v3.9H6.151v-.671H.671V52.634l2.241-2.241,1.7,1.7.474-.474-2.169-2.17Z" transform="translate(0 -42.212)" fill="#131b22"/>
  <path id="Path_4533" data-name="Path 4533" d="M0,13.76V19.75H.672V14.431H16.1v2.952l-2.241,2.241-1.7-1.7-.474.474,2.17,2.17,2.814-2.814.1-.1v-3.9Z" transform="translate(-0.001 -11.748)" fill="#131b22"/>
  <g id="Group_2273" data-name="Group 2273">
    <g id="Group_2272" data-name="Group 2272" clip-path="url(#clip-path)">
      <path id="Path_4534" data-name="Path 4534" d="M43.382,38.044A2.885,2.885,0,1,1,40.5,35.159a2.887,2.887,0,0,1,2.885,2.885" transform="translate(-32.11 -30.016)" fill="#d70024"/>
      <path id="Path_4535" data-name="Path 4535" d="M31.972,45.953l-.474-.474,2.814-2.814L36.242,44.6l2.339-2.339.474.474-2.813,2.814-1.931-1.932Z" transform="translate(-26.89 -36.076)" fill="#fff"/>
      <path id="Path_4536" data-name="Path 4536" d="M32.665,34.443a4.228,4.228,0,1,1,4.227-4.228,4.233,4.233,0,0,1-4.227,4.228m0-7.785a3.557,3.557,0,1,0,3.556,3.556,3.56,3.56,0,0,0-3.556-3.556" transform="translate(-24.278 -22.186)" fill="#131b22"/>
      <rect id="Rectangle_64655" data-name="Rectangle 64655" width="0.671" height="1.789" transform="translate(8.051 11.921)" fill="#131b22"/>
      <path id="Path_4537" data-name="Path 4537" d="M50.835,95.722a1.115,1.115,0,0,1-1.114-1.114V91.431h2.227v3.177a1.112,1.112,0,0,1-1.113,1.114m-.443-3.62v2.506a.439.439,0,0,0,.13.313.453.453,0,0,0,.627,0,.442.442,0,0,0,.128-.312V92.1Z" transform="translate(-42.448 -78.057)" fill="#131b22"/>
    </g>
  </g>
</svg>
