<svg xmlns="http://www.w3.org/2000/svg" xmlns:xlink="http://www.w3.org/1999/xlink" viewBox="0 0 432.24 466.98"><defs><style>.cls-1,.cls-13{mask:url(#mask);}.cls-1{filter:url(#luminosity-noclip-17);}.cls-10,.cls-12,.cls-15,.cls-17,.cls-19,.cls-2,.cls-21,.cls-23,.cls-25,.cls-27,.cls-30,.cls-4,.cls-6,.cls-8{mix-blend-mode:multiply;}.cls-2{fill:url(#ÅÂÁ_Ï_ÌÌ_È_ËÂÌÚ_59);}.cls-3{mask:url(#mask-2);filter:url(#luminosity-noclip-22);}.cls-4{fill:url(#ÅÂÁ_Ï_ÌÌ_È_ËÂÌÚ_110);}.cls-5{mask:url(#mask-3);filter:url(#luminosity-noclip-23);}.cls-6{fill:url(#ÅÂÁ_Ï_ÌÌ_È_ËÂÌÚ_59-2);}.cls-7{mask:url(#mask-4);filter:url(#luminosity-noclip-24);}.cls-8{fill:url(#ÅÂÁ_Ï_ÌÌ_È_ËÂÌÚ_185);}.cls-9{mask:url(#mask-5);filter:url(#luminosity-noclip-25);}.cls-10{fill:url(#ÅÂÁ_Ï_ÌÌ_È_ËÂÌÚ_59-3);}.cls-11{mask:url(#mask-6);filter:url(#luminosity-noclip-26);}.cls-12{fill:url(#ÅÂÁ_Ï_ÌÌ_È_ËÂÌÚ_185-2);}.cls-14{mask:url(#mask-8);filter:url(#luminosity-noclip-27);}.cls-15{fill:url(#ÅÂÁ_Ï_ÌÌ_È_ËÂÌÚ_183);}.cls-16{mask:url(#mask-9);filter:url(#luminosity-noclip-28);}.cls-17{fill:url(#ÅÂÁ_Ï_ÌÌ_È_ËÂÌÚ_183-2);}.cls-18{mask:url(#mask-10);filter:url(#luminosity-noclip-29);}.cls-19{fill:url(#ÅÂÁ_Ï_ÌÌ_È_ËÂÌÚ_59-5);}.cls-20{mask:url(#mask-11);filter:url(#luminosity-noclip-30);}.cls-21{fill:url(#ÅÂÁ_Ï_ÌÌ_È_ËÂÌÚ_59-6);}.cls-22{mask:url(#mask-12);filter:url(#luminosity-noclip-31);}.cls-23{fill:url(#ÅÂÁ_Ï_ÌÌ_È_ËÂÌÚ_59-7);}.cls-24{mask:url(#mask-13);filter:url(#luminosity-noclip-32);}.cls-25{fill:url(#ÅÂÁ_Ï_ÌÌ_È_ËÂÌÚ_59-8);}.cls-26,.cls-28{mask:url(#mask-14);}.cls-26{filter:url(#luminosity-noclip-19);}.cls-27{fill:url(#ÅÂÁ_Ï_ÌÌ_È_ËÂÌÚ_185-3);}.cls-29{mask:url(#mask-16);filter:url(#luminosity-noclip-21);}.cls-30{fill:url(#ÅÂÁ_Ï_ÌÌ_È_ËÂÌÚ_185-5);}.cls-31{fill:none;}.cls-32{fill:#f2475c;}.cls-33,.cls-44{fill:#da2c4a;}.cls-34{mask:url(#mask-17);}.cls-35,.cls-36{opacity:0.53;}.cls-35{fill:url(#ÅÂÁ_Ï_ÌÌ_È_ËÂÌÚ_3);}.cls-36,.cls-38{fill:#aa0e2c;}.cls-37{opacity:0.5;}.cls-39{mask:url(#mask-19);}.cls-40,.cls-50,.cls-55,.cls-60{opacity:0.49;}.cls-40{fill:url(#ÅÂÁ_Ï_ÌÌ_È_ËÂÌÚ_2);}.cls-41{fill:#a70925;}.cls-41,.cls-47,.cls-62{opacity:0.32;}.cls-42{fill:#8c0006;opacity:0.2;}.cls-43{fill:#ed5c65;}.cls-44{opacity:0.63;}.cls-45{mask:url(#mask-21);}.cls-46{opacity:0.44;fill:url(#ÅÂÁ_Ï_ÌÌ_È_ËÂÌÚ_2-3);}.cls-47{fill:#c4073b;}.cls-48{fill:#ff6976;}.cls-49{mask:url(#mask-22);}.cls-50{fill:#f9e1c2;}.cls-51,.cls-65{fill:#ef9ea5;}.cls-52{mask:url(#mask-23);}.cls-53,.cls-67{fill:#e24e5c;}.cls-54{mask:url(#mask-24);}.cls-55{fill:url(#ÅÂÁ_Ï_ÌÌ_È_ËÂÌÚ_18);}.cls-56,.cls-61,.cls-78{fill:#f7ccd0;}.cls-57{fill:#e55e6a;}.cls-58{mask:url(#mask-25);}.cls-59{mask:url(#mask-26);}.cls-60{fill:url(#ÅÂÁ_Ï_ÌÌ_È_ËÂÌÚ_18-2);}.cls-61{opacity:0.59;}.cls-62{fill:#800704;}.cls-63{fill:#e76e79;}.cls-64{mask:url(#mask-27);}.cls-65,.cls-70{opacity:0.29;}.cls-66{fill:#f9c8d1;}.cls-66,.cls-67{opacity:0.22;}.cls-68{opacity:0.43;}.cls-69{mask:url(#mask-28);}.cls-70{fill:url(#ÅÂÁ_Ï_ÌÌ_È_ËÂÌÚ_17);}.cls-71{mask:url(#mask-29);}.cls-72{fill:url(#ÅÂÁ_Ï_ÌÌ_È_ËÂÌÚ_12);}.cls-73{mask:url(#mask-30);}.cls-74{opacity:0.6;fill:url(#ÅÂÁ_Ï_ÌÌ_È_ËÂÌÚ_12-2);}.cls-75{mask:url(#mask-31);}.cls-76{mask:url(#mask-32);}.cls-77{fill:#fff;}.cls-78{fill-rule:evenodd;}.cls-79{opacity:0.3;}.cls-80{clip-path:url(#clip-path);}.cls-81{clip-path:url(#clip-path-2);}.cls-82{clip-path:url(#clip-path-3);}.cls-83{clip-path:url(#clip-path-4);}.cls-84{clip-path:url(#clip-path-5);}.cls-85{filter:url(#luminosity-noclip-16);}.cls-86{filter:url(#luminosity-noclip-14);}.cls-87{filter:url(#luminosity-noclip-13);}.cls-88{filter:url(#luminosity-noclip-12);}.cls-89{filter:url(#luminosity-noclip-11);}.cls-90{filter:url(#luminosity-noclip-10);}.cls-91{filter:url(#luminosity-noclip-9);}.cls-92{filter:url(#luminosity-noclip-8);}.cls-93{filter:url(#luminosity-noclip-6);}.cls-94{filter:url(#luminosity-noclip-5);}.cls-95{filter:url(#luminosity-noclip-4);}.cls-96{filter:url(#luminosity-noclip-3);}.cls-97{filter:url(#luminosity-noclip-2);}.cls-98{filter:url(#luminosity-noclip);}</style><filter id="luminosity-noclip" x="64.01" y="-3450.97" width="319.16" height="32766" filterUnits="userSpaceOnUse" color-interpolation-filters="sRGB"><feFlood flood-color="#fff" result="bg"/><feBlend in="SourceGraphic" in2="bg"/></filter><mask id="mask" x="64.01" y="-3450.97" width="319.16" height="32766" maskUnits="userSpaceOnUse"><g class="cls-98"/></mask><linearGradient id="ÅÂÁ_Ï_ÌÌ_È_ËÂÌÚ_59" x1="81.38" y1="1493.05" x2="70.67" y2="1173.81" gradientTransform="translate(96.1 -988.76) rotate(-2.46)" gradientUnits="userSpaceOnUse"><stop offset="0.02" stop-color="#fff"/><stop offset="1"/></linearGradient><filter id="luminosity-noclip-2" x="51.84" y="-3450.97" width="340.76" height="32766" filterUnits="userSpaceOnUse" color-interpolation-filters="sRGB"><feFlood flood-color="#fff" result="bg"/><feBlend in="SourceGraphic" in2="bg"/></filter><mask id="mask-2" x="51.84" y="-3450.97" width="340.76" height="32766" maskUnits="userSpaceOnUse"><g class="cls-97"/></mask><linearGradient id="ÅÂÁ_Ï_ÌÌ_È_ËÂÌÚ_110" x1="68.36" y1="1269.57" x2="74.91" y2="1216.29" gradientTransform="translate(96.1 -988.76) rotate(-2.46)" gradientUnits="userSpaceOnUse"><stop offset="0.22" stop-color="#fff"/><stop offset="0.47" stop-color="#fdfdfd"/><stop offset="0.57" stop-color="#f6f6f6"/><stop offset="0.65" stop-color="#e9e9e9"/><stop offset="0.72" stop-color="#d7d7d7"/><stop offset="0.78" stop-color="silver"/><stop offset="0.83" stop-color="#a3a3a3"/><stop offset="0.88" stop-color="#818181"/><stop offset="0.92" stop-color="#595959"/><stop offset="0.96" stop-color="#2e2e2e"/><stop offset="1"/></linearGradient><filter id="luminosity-noclip-3" x="90.83" y="-3450.97" width="72.81" height="32766" filterUnits="userSpaceOnUse" color-interpolation-filters="sRGB"><feFlood flood-color="#fff" result="bg"/><feBlend in="SourceGraphic" in2="bg"/></filter><mask id="mask-3" x="90.83" y="-3450.97" width="72.81" height="32766" maskUnits="userSpaceOnUse"><g class="cls-96"/></mask><linearGradient id="ÅÂÁ_Ï_ÌÌ_È_ËÂÌÚ_59-2" x1="-25.06" y1="1324.28" x2="-22.37" y2="1218.64" xlink:href="#ÅÂÁ_Ï_ÌÌ_È_ËÂÌÚ_59"/><filter id="luminosity-noclip-4" x="93.58" y="-3450.97" width="70.06" height="32766" filterUnits="userSpaceOnUse" color-interpolation-filters="sRGB"><feFlood flood-color="#fff" result="bg"/><feBlend in="SourceGraphic" in2="bg"/></filter><mask id="mask-4" x="93.58" y="-3450.97" width="70.06" height="32766" maskUnits="userSpaceOnUse"><g class="cls-95"/></mask><linearGradient id="ÅÂÁ_Ï_ÌÌ_È_ËÂÌÚ_185" x1="-26.06" y1="1318.73" x2="-21.31" y2="1298.99" gradientTransform="translate(96.1 -988.76) rotate(-2.46)" gradientUnits="userSpaceOnUse"><stop offset="0.02" stop-color="#fff"/><stop offset="1"/></linearGradient><filter id="luminosity-noclip-5" x="284.16" y="-3450.97" width="68.44" height="32766" filterUnits="userSpaceOnUse" color-interpolation-filters="sRGB"><feFlood flood-color="#fff" result="bg"/><feBlend in="SourceGraphic" in2="bg"/></filter><mask id="mask-5" x="284.16" y="-3450.97" width="68.44" height="32766" maskUnits="userSpaceOnUse"><g class="cls-94"/></mask><linearGradient id="ÅÂÁ_Ï_ÌÌ_È_ËÂÌÚ_59-3" x1="11387.28" y1="1324.86" x2="11389.97" y2="1219.23" gradientTransform="matrix(-1, 0.04, 0.04, 1, 11640.91, -1483.63)" xlink:href="#ÅÂÁ_Ï_ÌÌ_È_ËÂÌÚ_59"/><filter id="luminosity-noclip-6" x="284.16" y="-3450.97" width="67.98" height="32766" filterUnits="userSpaceOnUse" color-interpolation-filters="sRGB"><feFlood flood-color="#fff" result="bg"/><feBlend in="SourceGraphic" in2="bg"/></filter><mask id="mask-6" x="284.16" y="-3450.97" width="67.98" height="32766" maskUnits="userSpaceOnUse"><g class="cls-93"/></mask><linearGradient id="ÅÂÁ_Ï_ÌÌ_È_ËÂÌÚ_185-2" x1="11386.29" y1="1319.31" x2="11391.03" y2="1299.57" gradientTransform="matrix(-1, 0.04, 0.04, 1, 11640.91, -1483.63)" xlink:href="#ÅÂÁ_Ï_ÌÌ_È_ËÂÌÚ_185"/><filter id="luminosity-noclip-8" x="67.88" y="-3450.97" width="286.06" height="32766" filterUnits="userSpaceOnUse" color-interpolation-filters="sRGB"><feFlood flood-color="#fff" result="bg"/><feBlend in="SourceGraphic" in2="bg"/></filter><mask id="mask-8" x="67.88" y="-3450.97" width="286.06" height="32766" maskUnits="userSpaceOnUse"><g class="cls-92"/></mask><radialGradient id="ÅÂÁ_Ï_ÌÌ_È_ËÂÌÚ_183" cx="33.94" cy="1213.23" r="145.66" gradientTransform="translate(96.1 -988.76) rotate(-2.46)" xlink:href="#ÅÂÁ_Ï_ÌÌ_È_ËÂÌÚ_185"/><filter id="luminosity-noclip-9" x="108.12" y="-3450.97" width="49.56" height="32766" filterUnits="userSpaceOnUse" color-interpolation-filters="sRGB"><feFlood flood-color="#fff" result="bg"/><feBlend in="SourceGraphic" in2="bg"/></filter><mask id="mask-9" x="108.12" y="-3450.97" width="49.56" height="32766" maskUnits="userSpaceOnUse"><g class="cls-91"/></mask><radialGradient id="ÅÂÁ_Ï_ÌÌ_È_ËÂÌÚ_183-2" cx="-20.55" cy="1223.21" r="18.89" gradientTransform="translate(96.1 -988.76) rotate(-2.46)" xlink:href="#ÅÂÁ_Ï_ÌÌ_È_ËÂÌÚ_185"/><filter id="luminosity-noclip-10" x="197.34" y="-3450.97" width="156.59" height="32766" filterUnits="userSpaceOnUse" color-interpolation-filters="sRGB"><feFlood flood-color="#fff" result="bg"/><feBlend in="SourceGraphic" in2="bg"/></filter><mask id="mask-10" x="197.34" y="-3450.97" width="156.59" height="32766" maskUnits="userSpaceOnUse"><g class="cls-90"/></mask><linearGradient id="ÅÂÁ_Ï_ÌÌ_È_ËÂÌÚ_59-5" x1="198.46" y1="1270.97" x2="81.91" y2="1112.44" xlink:href="#ÅÂÁ_Ï_ÌÌ_È_ËÂÌÚ_59"/><filter id="luminosity-noclip-11" x="149.79" y="-3450.97" width="69.66" height="32766" filterUnits="userSpaceOnUse" color-interpolation-filters="sRGB"><feFlood flood-color="#fff" result="bg"/><feBlend in="SourceGraphic" in2="bg"/></filter><mask id="mask-11" x="149.79" y="-3450.97" width="69.66" height="32766" maskUnits="userSpaceOnUse"><g class="cls-89"/></mask><linearGradient id="ÅÂÁ_Ï_ÌÌ_È_ËÂÌÚ_59-6" x1="36.55" y1="1237.64" x2="37.95" y2="1187.76" xlink:href="#ÅÂÁ_Ï_ÌÌ_È_ËÂÌÚ_59"/><filter id="luminosity-noclip-12" x="110.47" y="-3450.97" width="53.95" height="32766" filterUnits="userSpaceOnUse" color-interpolation-filters="sRGB"><feFlood flood-color="#fff" result="bg"/><feBlend in="SourceGraphic" in2="bg"/></filter><mask id="mask-12" x="110.47" y="-3450.97" width="53.95" height="32766" maskUnits="userSpaceOnUse"><g class="cls-88"/></mask><linearGradient id="ÅÂÁ_Ï_ÌÌ_È_ËÂÌÚ_59-7" x1="-4.45" y1="1150.24" x2="-13" y2="1091.6" xlink:href="#ÅÂÁ_Ï_ÌÌ_È_ËÂÌÚ_59"/><filter id="luminosity-noclip-13" x="213.71" y="-3450.97" width="101.14" height="32766" filterUnits="userSpaceOnUse" color-interpolation-filters="sRGB"><feFlood flood-color="#fff" result="bg"/><feBlend in="SourceGraphic" in2="bg"/></filter><mask id="mask-13" x="213.71" y="-3450.97" width="101.14" height="32766" maskUnits="userSpaceOnUse"><g class="cls-87"/></mask><linearGradient id="ÅÂÁ_Ï_ÌÌ_È_ËÂÌÚ_59-8" x1="68.18" y1="1136.54" x2="170.71" y2="1136.54" xlink:href="#ÅÂÁ_Ï_ÌÌ_È_ËÂÌÚ_59"/><filter id="luminosity-noclip-14" x="64.01" y="-3450.97" width="319.16" height="32766" filterUnits="userSpaceOnUse" color-interpolation-filters="sRGB"><feFlood flood-color="#fff" result="bg"/><feBlend in="SourceGraphic" in2="bg"/></filter><mask id="mask-14" x="64.01" y="-3450.97" width="319.16" height="32766" maskUnits="userSpaceOnUse"><g class="cls-86"/></mask><linearGradient id="ÅÂÁ_Ï_ÌÌ_È_ËÂÌÚ_185-3" x1="65.51" y1="1465.59" x2="68.66" y2="1384.72" xlink:href="#ÅÂÁ_Ï_ÌÌ_È_ËÂÌÚ_185"/><filter id="luminosity-noclip-16" x="222.32" y="-3450.97" width="172.43" height="32766" filterUnits="userSpaceOnUse" color-interpolation-filters="sRGB"><feFlood flood-color="#fff" result="bg"/><feBlend in="SourceGraphic" in2="bg"/></filter><mask id="mask-16" x="222.32" y="-3450.97" width="172.43" height="32766" maskUnits="userSpaceOnUse"><g class="cls-85"/></mask><linearGradient id="ÅÂÁ_Ï_ÌÌ_È_ËÂÌÚ_185-5" x1="204.55" y1="1269.63" x2="-1.28" y2="1315.14" xlink:href="#ÅÂÁ_Ï_ÌÌ_È_ËÂÌÚ_185"/><filter id="luminosity-noclip-17" x="64.01" y="234.53" width="319.16" height="232.45" filterUnits="userSpaceOnUse" color-interpolation-filters="sRGB"><feFlood flood-color="#fff" result="bg"/><feBlend in="SourceGraphic" in2="bg"/></filter><mask id="mask-17" x="64.01" y="234.53" width="319.16" height="232.45" maskUnits="userSpaceOnUse"><g class="cls-1"><path class="cls-2" d="M353.94,235.12,230.84,273a28.54,28.54,0,0,0-6.86,2.46,28.89,28.89,0,0,0-7-1.86L91,246.39c-15.58-2-27.73,10.25-27,27.23L75.8,404.38c.73,17,14.07,32.51,29.65,34.51l100.16,26.18c16.94,2.68,26.62,2.86,43.7-1.51l106.75-35.41c15.35-3.33,27.31-19.95,26.58-36.92l.53-131.3C382.44,243,369.29,231.79,353.94,235.12Z"/></g></mask><linearGradient id="ÅÂÁ_Ï_ÌÌ_È_ËÂÌÚ_3" x1="81.38" y1="1493.05" x2="70.67" y2="1173.81" gradientTransform="translate(96.1 -988.76) rotate(-2.46)" gradientUnits="userSpaceOnUse"><stop offset="0.02" stop-color="#952b47"/><stop offset="1" stop-color="#fe3f51"/></linearGradient><filter id="luminosity-noclip-19" x="64.01" y="254.39" width="319.16" height="212.59" filterUnits="userSpaceOnUse" color-interpolation-filters="sRGB"><feFlood flood-color="#fff" result="bg"/><feBlend in="SourceGraphic" in2="bg"/></filter><mask id="mask-19" x="64.01" y="254.39" width="319.16" height="212.59" maskUnits="userSpaceOnUse"><g class="cls-26"><path class="cls-27" d="M370.35,376.94c.73,17-15.74,37.35-31.09,40.68l-90.63,30.07c-17.08,4.37-26.76,4.18-43.7,1.51L104.77,423c-15.58-2-28.92-17.53-29.65-34.51L64.28,268a32.13,32.13,0,0,0-.24,5.59L75.8,404.38c.73,17,14.07,32.51,29.65,34.51l100.16,26.18c16.94,2.68,26.62,2.86,43.7-1.51l106.75-35.41c15.35-3.33,27.31-19.95,26.58-36.92l.53-131.3a31.89,31.89,0,0,0-.72-5.54l-14,8.41Z"/></g></mask><linearGradient id="ÅÂÁ_Ï_ÌÌ_È_ËÂÌÚ_2" x1="65.51" y1="1465.59" x2="68.66" y2="1384.72" gradientTransform="translate(96.1 -988.76) rotate(-2.46)" gradientUnits="userSpaceOnUse"><stop offset="0.02" stop-color="#9a0a2a"/><stop offset="1" stop-color="#e61b3b"/></linearGradient><filter id="luminosity-noclip-21" x="222.32" y="225.83" width="172.43" height="115.19" filterUnits="userSpaceOnUse" color-interpolation-filters="sRGB"><feFlood flood-color="#fff" result="bg"/><feBlend in="SourceGraphic" in2="bg"/></filter><mask id="mask-21" x="222.32" y="225.83" width="172.43" height="115.19" maskUnits="userSpaceOnUse"><g class="cls-29"><path class="cls-30" d="M394.07,249.86l-.56-5.51c-.9-20.91-2.72-20.33-20-16.3L230.07,272.71a29.8,29.8,0,0,0-7.71,3l0,0L225.13,341a112.34,112.34,0,0,0,18.09-2.23l118.45-40.3s25.59-5.32,28.81-10.52C396.27,279.59,394.72,265,394.07,249.86Z"/></g></mask><linearGradient id="ÅÂÁ_Ï_ÌÌ_È_ËÂÌÚ_2-3" x1="204.55" y1="1269.63" x2="-1.28" y2="1315.14" xlink:href="#ÅÂÁ_Ï_ÌÌ_È_ËÂÌÚ_2"/><filter id="luminosity-noclip-22" x="51.84" y="224.54" width="340.76" height="51.54" filterUnits="userSpaceOnUse" color-interpolation-filters="sRGB"><feFlood flood-color="#fff" result="bg"/><feBlend in="SourceGraphic" in2="bg"/></filter><mask id="mask-22" x="51.84" y="224.54" width="340.76" height="51.54" maskUnits="userSpaceOnUse"><g class="cls-3"><path class="cls-4" d="M386.44,224.54,248.19,266c-10.68,2.42-28.29,3.18-39.14,1.68L65,237.63a27.81,27.81,0,0,1-6.14-1.43c-10.31,4.31-8.81,7.59,1.67,9l144.07,30.08c10.85,1.5,28.46.74,39.14-1.68l141-42.3C394.63,229.08,395.19,226.14,386.44,224.54Z"/></g></mask><filter id="luminosity-noclip-23" x="90.83" y="251.75" width="72.81" height="80.76" filterUnits="userSpaceOnUse" color-interpolation-filters="sRGB"><feFlood flood-color="#fff" result="bg"/><feBlend in="SourceGraphic" in2="bg"/></filter><mask id="mask-23" x="90.83" y="251.75" width="72.81" height="80.76" maskUnits="userSpaceOnUse"><g class="cls-5"><path class="cls-6" d="M153.52,295c.25-8.71.08-25.82,1.57-29.34L91.5,251.75c-1.53,7-.68,60.56,5,66.21s59.28,14.54,59.28,14.54a30.31,30.31,0,0,0,4.07-.17,8.36,8.36,0,0,0,3.78-1.89s-4.87-1.45-6.94-1.79S153.25,303.88,153.52,295Z"/></g></mask><filter id="luminosity-noclip-24" x="93.58" y="309.13" width="70.06" height="23.39" filterUnits="userSpaceOnUse" color-interpolation-filters="sRGB"><feFlood flood-color="#fff" result="bg"/><feBlend in="SourceGraphic" in2="bg"/></filter><mask id="mask-24" x="93.58" y="309.13" width="70.06" height="23.39" maskUnits="userSpaceOnUse"><g class="cls-7"><path class="cls-8" d="M154.79,320.92c-7.27-.51-17.13-1.51-29.5-3.43-18.41-2.85-26.19-5.57-31.71-8.36.78,4.44,1.75,7.66,2.93,8.83,5.74,5.71,59.28,14.54,59.28,14.54a30.31,30.31,0,0,0,4.07-.17,8.36,8.36,0,0,0,3.78-1.89s-4.87-1.45-6.94-1.79C156,328.53,155.31,325.35,154.79,320.92Z"/></g></mask><linearGradient id="ÅÂÁ_Ï_ÌÌ_È_ËÂÌÚ_18" x1="-26.06" y1="1318.73" x2="-21.31" y2="1298.99" gradientTransform="translate(96.1 -988.76) rotate(-2.46)" gradientUnits="userSpaceOnUse"><stop offset="0.02" stop-color="#aa3a4a"/><stop offset="1" stop-color="#e66974"/></linearGradient><filter id="luminosity-noclip-25" x="284.16" y="241.86" width="68.44" height="86.15" filterUnits="userSpaceOnUse" color-interpolation-filters="sRGB"><feFlood flood-color="#fff" result="bg"/><feBlend in="SourceGraphic" in2="bg"/></filter><mask id="mask-25" x="284.16" y="241.86" width="68.44" height="86.15" maskUnits="userSpaceOnUse"><g class="cls-9"><path class="cls-10" d="M291.21,290.24c-1-8.66-2.29-25.71-4.07-29.1l62.16-19.28c2.12,6.81,5.86,60.28.68,66.4s-57.82,19.56-57.82,19.56a31.29,31.29,0,0,1-4.08.18,8.45,8.45,0,0,1-3.92-1.56s4.73-1.86,6.77-2.38S292.23,299.08,291.21,290.24Z"/></g></mask><filter id="luminosity-noclip-26" x="284.16" y="299.2" width="67.98" height="28.81" filterUnits="userSpaceOnUse" color-interpolation-filters="sRGB"><feFlood flood-color="#fff" result="bg"/><feBlend in="SourceGraphic" in2="bg"/></filter><mask id="mask-26" x="284.16" y="299.2" width="67.98" height="28.81" maskUnits="userSpaceOnUse"><g class="cls-11"><path class="cls-12" d="M292.16,316.2c7.2-1.14,16.94-3,29.1-5.95,18.1-4.42,25.62-7.79,30.88-11.05-.4,4.5-1.09,7.79-2.16,9.06-5.23,6.18-57.82,19.56-57.82,19.56a31.29,31.29,0,0,1-4.08.18,8.45,8.45,0,0,1-3.92-1.56s4.73-1.86,6.77-2.38C291.65,323.88,292,320.66,292.16,316.2Z"/></g></mask><linearGradient id="ÅÂÁ_Ï_ÌÌ_È_ËÂÌÚ_18-2" x1="11386.29" y1="1319.31" x2="11391.03" y2="1299.57" gradientTransform="matrix(-1, 0.04, 0.04, 1, 11640.91, -1483.63)" xlink:href="#ÅÂÁ_Ï_ÌÌ_È_ËÂÌÚ_18"/><filter id="luminosity-noclip-27" x="67.88" y="103.69" width="286.06" height="147.9" filterUnits="userSpaceOnUse" color-interpolation-filters="sRGB"><feFlood flood-color="#fff" result="bg"/><feBlend in="SourceGraphic" in2="bg"/></filter><mask id="mask-27" x="67.88" y="103.69" width="286.06" height="147.9" maskUnits="userSpaceOnUse"><g class="cls-14"><path class="cls-15" d="M170.8,231s-30,8.85-57.16,2.83S41.16,124.39,88.47,110.13,174,148.9,177.9,155.21s-1.85,7.28-1.85,7.28L222.83,154s37.17-48.36,81-50.24c15.06-.64,35.86,2.37,41.87,15.47,17.16,37.4,9.87,113.64-44.09,128.15-52.55,14.14-94.73-12-94.73-12Z"/></g></mask><filter id="luminosity-noclip-28" x="108.12" y="231.47" width="49.56" height="4.48" filterUnits="userSpaceOnUse" color-interpolation-filters="sRGB"><feFlood flood-color="#fff" result="bg"/><feBlend in="SourceGraphic" in2="bg"/></filter><mask id="mask-28" x="108.12" y="231.47" width="49.56" height="4.48" maskUnits="userSpaceOnUse"><g class="cls-16"><path class="cls-17" d="M108.12,231.47a18.19,18.19,0,0,0,5.52,2.38c15.9,3.53,32.78,2,44,0Z"/></g></mask><radialGradient id="ÅÂÁ_Ï_ÌÌ_È_ËÂÌÚ_17" cx="-20.55" cy="1223.21" r="18.89" gradientTransform="translate(96.1 -988.76) rotate(-2.46)" xlink:href="#ÅÂÁ_Ï_ÌÌ_È_ËÂÌÚ_18"/><filter id="luminosity-noclip-29" x="197.34" y="103.69" width="156.59" height="147.9" filterUnits="userSpaceOnUse" color-interpolation-filters="sRGB"><feFlood flood-color="#fff" result="bg"/><feBlend in="SourceGraphic" in2="bg"/></filter><mask id="mask-29" x="197.34" y="103.69" width="156.59" height="147.9" maskUnits="userSpaceOnUse"><g class="cls-18"><path class="cls-19" d="M345.69,119.24c-6-13.1-26.81-16.11-41.87-15.47-15.4.66-30,7.07-42.42,15.09,21.84,9.73,38.69,17.3,38.69,17.3s33.86,20.11,13.74,75.89c-8.71,24.16-35.3,32.12-61.75,30.92s-53.61-14.87-53.61-14.87l-1.13,6.14,9.53,1.15s42.18,26.14,94.73,12C355.56,232.88,362.85,156.64,345.69,119.24Z"/></g></mask><linearGradient id="ÅÂÁ_Ï_ÌÌ_È_ËÂÌÚ_12" x1="198.46" y1="1270.97" x2="81.91" y2="1112.44" gradientTransform="translate(96.1 -988.76) rotate(-2.46)" gradientUnits="userSpaceOnUse"><stop offset="0.02" stop-color="#f9c3cd"/><stop offset="1" stop-color="#e66974"/></linearGradient><filter id="luminosity-noclip-30" x="149.79" y="148.21" width="69.66" height="92.25" filterUnits="userSpaceOnUse" color-interpolation-filters="sRGB"><feFlood flood-color="#fff" result="bg"/><feBlend in="SourceGraphic" in2="bg"/></filter><mask id="mask-30" x="149.79" y="148.21" width="69.66" height="92.25" maskUnits="userSpaceOnUse"><g class="cls-20"><path class="cls-21" d="M218.9,156.52a3.2,3.2,0,0,0-1.64-4.84c-5.51-1.82-16.81-4.39-34.61-3.14-26.54,1.85-34.17,33.9-32.68,47.5s5.85,36.2,18.42,41c10.26,3.92,21.75,3.78,29.86,2.9a8.56,8.56,0,0,0,7.35-10.73c-2-7.23-3.72-18.66-1.56-33.45A95.43,95.43,0,0,1,218.9,156.52Z"/></g></mask><linearGradient id="ÅÂÁ_Ï_ÌÌ_È_ËÂÌÚ_12-2" x1="36.55" y1="1237.64" x2="37.95" y2="1187.76" xlink:href="#ÅÂÁ_Ï_ÌÌ_È_ËÂÌÚ_12"/><filter id="luminosity-noclip-31" x="110.47" y="120.22" width="53.95" height="36.47" filterUnits="userSpaceOnUse" color-interpolation-filters="sRGB"><feFlood flood-color="#fff" result="bg"/><feBlend in="SourceGraphic" in2="bg"/></filter><mask id="mask-31" x="110.47" y="120.22" width="53.95" height="36.47" maskUnits="userSpaceOnUse"><g class="cls-22"><path class="cls-23" d="M164.42,156.69s-53.54-20.05-53.94-29.26,7.51-10.81,21.5,2.43S164.42,156.69,164.42,156.69Z"/></g></mask><filter id="luminosity-noclip-32" x="213.71" y="122.32" width="101.14" height="39.11" filterUnits="userSpaceOnUse" color-interpolation-filters="sRGB"><feFlood flood-color="#fff" result="bg"/><feBlend in="SourceGraphic" in2="bg"/></filter><mask id="mask-32" x="213.71" y="122.32" width="101.14" height="39.11" maskUnits="userSpaceOnUse"><g class="cls-24"><path class="cls-25" d="M213.71,161.43s39.43-14.11,56-18.6,34.58-6.51,40.72-9.71,9.24-14.66-14.15-9.47S213.71,161.43,213.71,161.43Z"/></g></mask><clipPath id="clip-path"><path class="cls-31" d="M289.28,71.27a9.89,9.89,0,1,1-7.57-11.76A9.89,9.89,0,0,1,289.28,71.27Z"/></clipPath><clipPath id="clip-path-2"><path class="cls-31" d="M108.43,256.76a12.82,12.82,0,1,1-9.82-15.24A12.82,12.82,0,0,1,108.43,256.76Z"/></clipPath><clipPath id="clip-path-3"><path class="cls-31" d="M92.45,117a12.82,12.82,0,1,1-9.82-15.24A12.81,12.81,0,0,1,92.45,117Z"/></clipPath><clipPath id="clip-path-4"><path class="cls-31" d="M321,165.83a21.55,21.55,0,1,1-16.51-25.61A21.55,21.55,0,0,1,321,165.83Z"/></clipPath><clipPath id="clip-path-5"><path class="cls-31" d="M32.18,171.93a13.85,13.85,0,1,1-10.61-16.47A13.85,13.85,0,0,1,32.18,171.93Z"/></clipPath></defs><g id="Layer_2" data-name="Layer 2"><g id="Layer_1-2" data-name="Layer 1"><path class="cls-32" d="M353.94,235.12,230.84,273a28.54,28.54,0,0,0-6.86,2.46,28.89,28.89,0,0,0-7-1.86L91,246.39c-15.58-2-27.73,10.25-27,27.23L75.8,404.38c.73,17,14.07,32.51,29.65,34.51l100.16,26.18c16.94,2.68,26.62,2.86,43.7-1.51l106.75-35.41c15.35-3.33,27.31-19.95,26.58-36.92l.53-131.3C382.44,243,369.29,231.79,353.94,235.12Z"/><path class="cls-33" d="M353.94,235.12,230.84,273a28.54,28.54,0,0,0-6.86,2.46c-.56-.22-1.12-.43-1.69-.62l8,186a34.5,34.5,0,0,1-.28,6,100.61,100.61,0,0,0,19.32-3.29l106.75-35.41c15.35-3.33,27.31-19.95,26.58-36.92l.53-131.3C382.44,243,369.29,231.79,353.94,235.12Z"/><g class="cls-34"><path class="cls-35" d="M353.94,235.12,230.84,273a28.54,28.54,0,0,0-6.86,2.46,28.89,28.89,0,0,0-7-1.86L91,246.39c-15.58-2-27.73,10.25-27,27.23L75.8,404.38c.73,17,14.07,32.51,29.65,34.51l100.16,26.18c16.94,2.68,26.62,2.86,43.7-1.51l106.75-35.41c15.35-3.33,27.31-19.95,26.58-36.92l.53-131.3C382.44,243,369.29,231.79,353.94,235.12Z"/></g><g class="cls-34"><path class="cls-36" d="M353.94,235.12,230.84,273a28.54,28.54,0,0,0-6.86,2.46,28.89,28.89,0,0,0-7-1.86L91,246.39c-15.58-2-27.73,10.25-27,27.23L75.8,404.38c.73,17,14.07,32.51,29.65,34.51l100.16,26.18c16.94,2.68,26.62,2.86,43.7-1.51l106.75-35.41c15.35-3.33,27.31-19.95,26.58-36.92l.53-131.3C382.44,243,369.29,231.79,353.94,235.12Z"/></g><g class="cls-37"><path class="cls-38" d="M187.12,352.48l4.57-8.19c2-3.58,7.26-6.14,11.69-5.69l10.14,1c4.43.45,5.45-2.43,2.26-6.41l-7.31-9.09c-3.19-4-5.16-10.73-4.39-15l1.78-9.82c.77-4.29-1.84-6.88-5.81-5.76L191,296.12c-4,1.12-10.45-.49-14.4-3.6l-9-7.1c-4-3.11-6.59-1.83-5.85,2.84l1.69,10.68c.74,4.67-1.29,10.43-4.51,12.81l-7.36,5.42c-3.22,2.38-2.23,5.76,2.19,7.52l10.13,4c4.43,1.76,9.65,6.94,11.62,11.51l4.49,10.46C181.88,355.25,185.12,356.06,187.12,352.48Z"/><path class="cls-38" d="M241.84,416.91c-3.44-3-5.8-9-5.25-13.38l1.27-10.08c.55-4.41-2.23-6.17-6.18-3.93l-9,5.14a18.32,18.32,0,0,1-14.74.67L198.38,391c-4.15-1.88-6.74.13-5.75,4.47l2.28,9.92A16.78,16.78,0,0,1,191,419.19l-7.14,7.42c-3.13,3.25-2,6.26,2.62,6.69l10.44,1c4.57.44,10.13,4,12.36,7.86l5.1,8.89c2.22,3.89,5.54,3.74,7.37-.33L226,441.4c1.82-4.07,7-8.09,11.5-8.93l10.3-1.93c4.5-.84,5.37-3.94,1.93-6.89Z"/><path class="cls-38" d="M316.47,330.5l-10.61-.26c-4.64-.11-10-3.2-12-6.86l-4.5-8.39c-2-3.66-5.37-3.28-7.57.84l-5,9.44c-2.2,4.12-7.82,8.42-12.5,9.56l-10.69,2.61c-4.68,1.13-5.82,4.24-2.54,6.9l7.5,6.08c3.28,2.66,5.21,8.41,4.29,12.78l-2.11,10c-.92,4.37,1.78,5.91,6,3.43l9.67-5.67c4.22-2.48,11-3.23,15.14-1.67l9.39,3.57c4.11,1.56,6.92-.59,6.25-4.78l-1.53-9.59c-.67-4.2,1.62-10.41,5.08-13.81l7.91-7.79C322.07,333.48,321.11,330.61,316.47,330.5Z"/><path class="cls-38" d="M143.53,437.39c-3.19-4-5.17-10.74-4.39-15l1.77-9.82c.78-4.29-1.84-6.88-5.81-5.75L126,409.36c-4,1.13-10.45-.49-14.4-3.6l-9.05-7.1c-3.95-3.11-6.58-1.83-5.84,2.84l1.69,10.69c.73,4.67-1.3,10.43-4.51,12.8l-6.68,4.92a32,32,0,0,0,17.72,9l47.53,12.64c.54-1.15,0-2.94-1.65-5Z"/><path class="cls-38" d="M376.27,379.93l1.27-10.08c.55-4.41-2.23-6.17-6.18-3.93l-9,5.14a18.32,18.32,0,0,1-14.74.67l-9.52-4.31c-4.16-1.88-6.74.13-5.75,4.46l2.28,9.93a16.78,16.78,0,0,1-3.87,13.78L323.58,403c-3.13,3.25-1.95,6.25,2.62,6.69l10.44,1c4.57.44,10.13,4,12.36,7.86l5.1,8.89a9.1,9.1,0,0,0,.76,1.12l1.07-.35a28.31,28.31,0,0,0,5.93-2l3.78-8.43c1.83-4.07,7-8.09,11.51-8.93l2-.37a37.79,37.79,0,0,0,3.56-14.21l-1.15-1C378.08,390.36,375.72,384.34,376.27,379.93Z"/><path class="cls-38" d="M95.3,369.42l4.49,10.46c2,4.57,5.2,5.38,7.2,1.8l4.57-8.19c2-3.59,7.26-6.15,11.69-5.69l10.14,1c4.43.46,5.45-2.42,2.26-6.4l-7.31-9.09c-3.19-4-5.16-10.73-4.39-15l1.78-9.81c.77-4.3-1.84-6.89-5.81-5.76l-9.09,2.58c-4,1.12-10.45-.5-14.4-3.6l-9-7.11c-4-3.1-6.58-1.82-5.85,2.85l1.69,10.68c.74,4.67-1.29,10.43-4.51,12.8l-7.24,5.34.59,6.88a10.19,10.19,0,0,0,1.48.72l10.13,4C88.11,359.67,93.33,364.85,95.3,369.42Z"/><path class="cls-38" d="M374.32,286.19l-10.41-3.59c-4.54-1.57-7.18.42-5.86,4.43l3,9.18c1.32,4-.17,9.89-3.31,13.06l-7.18,7.27c-3.14,3.17-1.7,5.93,3.2,6.13l11.2.45c4.89.2,11,3.26,13.64,6.79l4.54,6.15.42-49.2A21.32,21.32,0,0,1,374.32,286.19Z"/></g><g class="cls-39"><path class="cls-40" d="M370.35,376.94c.73,17-15.74,37.35-31.09,40.68l-90.63,30.07c-17.08,4.37-26.76,4.18-43.7,1.51L104.77,423c-15.58-2-28.92-17.53-29.65-34.51L64.28,268a32.13,32.13,0,0,0-.24,5.59L75.8,404.38c.73,17,14.07,32.51,29.65,34.51l100.16,26.18c16.94,2.68,26.62,2.86,43.7-1.51l106.75-35.41c15.35-3.33,27.31-19.95,26.58-36.92l.53-131.3a31.89,31.89,0,0,0-.72-5.54l-14,8.41Z"/></g><g class="cls-39"><path class="cls-40" d="M370.35,376.94c.73,17-15.74,37.35-31.09,40.68l-90.63,30.07c-17.08,4.37-26.76,4.18-43.7,1.51L104.77,423c-15.58-2-28.92-17.53-29.65-34.51L64.28,268a32.13,32.13,0,0,0-.24,5.59L75.8,404.38c.73,17,14.07,32.51,29.65,34.51l100.16,26.18c16.94,2.68,26.62,2.86,43.7-1.51l106.75-35.41c15.35-3.33,27.31-19.95,26.58-36.92l.53-131.3a31.89,31.89,0,0,0-.72-5.54l-14,8.41Z"/></g><path class="cls-41" d="M370.35,376.94c.73,17-15.74,37.35-31.09,40.68l-90.63,30.07c-17.08,4.37-26.76,4.18-43.7,1.51L104.77,423c-15.58-2-28.92-17.53-29.65-34.51L64.28,268a32.13,32.13,0,0,0-.24,5.59L75.8,404.38c.73,17,14.07,32.51,29.65,34.51l100.16,26.18c16.94,2.68,26.62,2.86,43.7-1.51l106.75-35.41c15.35-3.33,27.31-19.95,26.58-36.92l.53-131.3a31.89,31.89,0,0,0-.72-5.54l-14,8.41Z"/><path class="cls-42" d="M125.87,345.28c3,.38,87.06,26.38,102.2,25.73s69.33-25.14,72.25-25.78l82.3-29.34.55-56c-.73-17-13.88-28.14-29.23-24.81L230.84,273a28.54,28.54,0,0,0-6.86,2.46,28.89,28.89,0,0,0-7-1.86L91,246.39c-15.58-2-27.73,10.25-27,27.23l5.34,55.7Z"/><path class="cls-42" d="M125.39,334.11c3,.38,86.79,20.11,101.93,19.46s69.6-18.87,72.52-19.5l82.3-29.34.55-56c-.73-17-13.88-28.15-29.23-24.82l-123.1,37.89a29,29,0,0,0-6.86,2.46,28.89,28.89,0,0,0-7.05-1.86L90.56,235.22c-15.58-2-27.73,10.25-27,27.23l5.34,55.7Z"/><path class="cls-43" d="M390.48,288c5.79-8.38,4.24-22.93,3.59-38.11l-.56-5.51c-.9-20.91-2.72-20.33-20-16.3L230.07,272.71a29.8,29.8,0,0,0-7.71,3,30,30,0,0,0-7.94-2.33L65.79,241.24C48.26,238.71,48,240,48.48,250.9l.59,13.75c.63,14.73,0,28.94,5.69,37,4.1,5.24,6.13,5.86,15,7.08l134.36,31.79c10.84,1.49,28.46.74,39.13-1.68l118.45-40.3S387.26,293.17,390.48,288Z"/><path class="cls-44" d="M394.07,249.86l-.56-5.51c-.9-20.91-2.72-20.33-20-16.3L230.07,272.71a29.8,29.8,0,0,0-7.71,3l0,0L225.13,341a112.34,112.34,0,0,0,18.09-2.23l118.45-40.3s25.59-5.32,28.81-10.52C396.27,279.59,394.72,265,394.07,249.86Z"/><g class="cls-45"><path class="cls-46" d="M394.07,249.86l-.56-5.51c-.9-20.91-2.72-20.33-20-16.3L230.07,272.71a29.8,29.8,0,0,0-7.71,3l0,0L225.13,341a112.34,112.34,0,0,0,18.09-2.23l118.45-40.3s25.59-5.32,28.81-10.52C396.27,279.59,394.72,265,394.07,249.86Z"/></g><path class="cls-47" d="M390,275.67c-3.22,5.21-28.8,10.52-28.8,10.52L242.7,326.49c-10.68,2.42-28.29,3.18-39.14,1.68L69.2,296.38c-8.83-1.22-10.87-1.84-15-7.07C51,284.82,49.84,278.37,49.29,271c.36,12.37.6,23.77,5.47,30.62,4.1,5.24,6.13,5.86,15,7.08l134.36,31.79c10.84,1.49,28.46.74,39.13-1.68l118.45-40.3s25.59-5.32,28.81-10.52c5.48-7.92,4.39-21.35,3.7-35.62C394.41,261.77,393.81,270.09,390,275.67Z"/><path class="cls-48" d="M383,231.41l-141,42.29c-10.68,2.42-28.29,3.18-39.14,1.68L58.85,245.31c-10.84-1.5-12.07-5-.55-9.49l141.21-39.93c10.68-2.42,28.29-3.18,39.14-1.68l144.07,30.07C393.56,225.78,393.7,229,383,231.41Z"/><g class="cls-49"><path class="cls-50" d="M386.44,224.54,248.19,266c-10.68,2.42-28.29,3.18-39.14,1.68L65,237.63a27.81,27.81,0,0,1-6.14-1.43c-10.31,4.31-8.81,7.59,1.67,9l144.07,30.08c10.85,1.5,28.46.74,39.14-1.68l141-42.3C394.63,229.08,395.19,226.14,386.44,224.54Z"/></g><path class="cls-51" d="M91.55,251.54c2-7.73,172-52.14,172-52.14L337,214.73S158.52,259.2,155.19,265.42c-1.6,3-1.41,20.66-1.67,29.56s1.1,33.33,3.18,33.67,6.94,1.79,6.94,1.79a8.36,8.36,0,0,1-3.78,1.89,30.31,30.31,0,0,1-4.07.17S102.25,323.67,96.51,318,90,257.6,91.55,251.54Z"/><g class="cls-52"><path class="cls-53" d="M153.52,295c.25-8.71.08-25.82,1.57-29.34L91.5,251.75c-1.53,7-.68,60.56,5,66.21s59.28,14.54,59.28,14.54a30.31,30.31,0,0,0,4.07-.17,8.36,8.36,0,0,0,3.78-1.89s-4.87-1.45-6.94-1.79S153.25,303.88,153.52,295Z"/></g><g class="cls-54"><path class="cls-55" d="M154.79,320.92c-7.27-.51-17.13-1.51-29.5-3.43-18.41-2.85-26.19-5.57-31.71-8.36.78,4.44,1.75,7.66,2.93,8.83,5.74,5.71,59.28,14.54,59.28,14.54a30.31,30.31,0,0,0,4.07-.17,8.36,8.36,0,0,0,3.78-1.89s-4.87-1.45-6.94-1.79C156,328.53,155.31,325.35,154.79,320.92Z"/></g><path class="cls-56" d="M104.93,245c-1.64.6-3.27,2.9,10.12,5.72S172,258.81,172,258.81s-16.94-1.76-19.16,4.22c-.65,1.75.19,12.46.19,12.46s-14.82-13.44-35.6-14.74-26.55,1.14-26.55,1.14-1-7.49.63-10.14C92.77,249.65,104.93,245,104.93,245Z"/><path class="cls-53" d="M100.85,246.55c2.83-1.07,6-2.22,9.44-3.43C106.7,244.36,103.52,245.51,100.85,246.55Z"/><path class="cls-53" d="M157.63,265.51C161,259.29,337,214.73,337,214.73L326.26,212c-58.4,11.33-170.56,45.46-173.08,50.16-1.6,3-5.74,26.51-6,35.41s1.11,33.33,3.18,33.67c1.09.18,3,.67,4.47,1.09l1,.16a30.31,30.31,0,0,0,4.07-.17,8.36,8.36,0,0,0,3.78-1.89s-4.87-1.45-6.94-1.79-3.45-24.77-3.18-33.67S156,268.49,157.63,265.51Z"/><path class="cls-57" d="M349.23,241.65c-2.69-7.52-175.79-37.22-175.79-37.22L101.56,226S283.16,255,287,260.93c1.84,2.83,3.17,20.46,4.19,29.31s1.75,33.3-.28,33.82-6.77,2.38-6.77,2.38a8.45,8.45,0,0,0,3.92,1.56,31.29,31.29,0,0,0,4.08-.18s52.59-13.38,57.82-19.56S351.34,247.56,349.23,241.65Z"/><g class="cls-58"><path class="cls-53" d="M291.21,290.24c-1-8.66-2.29-25.71-4.07-29.1l62.16-19.28c2.12,6.81,5.86,60.28.68,66.4s-57.82,19.56-57.82,19.56a31.29,31.29,0,0,1-4.08.18,8.45,8.45,0,0,1-3.92-1.56s4.73-1.86,6.77-2.38S292.23,299.08,291.21,290.24Z"/></g><g class="cls-59"><path class="cls-60" d="M292.16,316.2c7.2-1.14,16.94-3,29.1-5.95,18.1-4.42,25.62-7.79,30.88-11.05-.4,4.5-1.09,7.79-2.16,9.06-5.23,6.18-57.82,19.56-57.82,19.56a31.29,31.29,0,0,1-4.08.18,8.45,8.45,0,0,1-3.92-1.56s4.73-1.86,6.77-2.38C291.65,323.88,292,320.66,292.16,316.2Z"/></g><path class="cls-61" d="M335.35,236.3c1.68.47,3.5,2.61-9.6,6.57s-56,12.92-56,12.92,16.72-3.21,19.45,2.56c.8,1.69.88,12.43.88,12.43s13.61-14.66,34.2-17.73,26.56-1.14,26.56-1.14-.16-8-1.5-10S335.35,236.3,335.35,236.3Z"/><path class="cls-51" d="M339.54,237.49c-2.92-.83-6.17-1.7-9.7-2.62C333.53,235.8,336.79,236.67,339.54,237.49Z"/><path class="cls-51" d="M284.59,261.23c-3.86-5.91-183-35.24-183-35.24L112,222.36c59.16,6.29,173.83,30.7,176.74,35.16,1.85,2.83,8,25.93,9,34.77s1.76,33.31-.28,33.82c-1.07.27-2.88.92-4.36,1.47l-.95.24a31.29,31.29,0,0,1-4.08.18,8.45,8.45,0,0,1-3.92-1.56s4.73-1.86,6.77-2.38,1.3-25,.28-33.82S286.43,264.06,284.59,261.23Z"/><path class="cls-62" d="M118.29,218.86c-13,3.35-57,14.88-17.83,18.65,34,3.28,57.37,0,57.37,0a79.92,79.92,0,0,0,28,6.59c15.92.77,18.63-.8,18.63-.8S230.93,265.6,268.31,260s73.36-11.63,64.1-22.2-184.68-19.53-187.68-20S118.29,218.86,118.29,218.86Z"/><path class="cls-63" d="M170.8,231s-30,8.85-57.16,2.83S41.16,124.39,88.47,110.13,174,148.9,177.9,155.21s-1.85,7.28-1.85,7.28L222.83,154s37.17-48.36,81-50.24c15.06-.64,35.86,2.37,41.87,15.47,17.16,37.4,9.87,113.64-44.09,128.15-52.55,14.14-94.73-12-94.73-12Z"/><g class="cls-64"><path class="cls-65" d="M170.8,231s-30,8.85-57.16,2.83S41.16,124.39,88.47,110.13,174,148.9,177.9,155.21s-1.85,7.28-1.85,7.28L222.83,154s37.17-48.36,81-50.24c15.06-.64,35.86,2.37,41.87,15.47,17.16,37.4,9.87,113.64-44.09,128.15-52.55,14.14-94.73-12-94.73-12Z"/></g><path class="cls-66" d="M182.82,223.78l-6.44-55.58-22.89,5s-2.65,29.45-9.67,41.21S122.4,227.87,101.56,226l-.22,0c4.26,4.23,8.46,7,12.3,7.88,27.13,6,57.16-2.83,57.16-2.83l18.34,2.22C185.34,227.6,182.82,223.78,182.82,223.78Z"/><path class="cls-67" d="M182.82,223.78l-6.44-55.58-22.89,5s-2.65,29.45-9.67,41.21S122.4,227.87,101.56,226l-.22,0c4.26,4.23,8.46,7,12.3,7.88,27.13,6,57.16-2.83,57.16-2.83l18.34,2.22C185.34,227.6,182.82,223.78,182.82,223.78Z"/><g class="cls-68"><g class="cls-69"><path class="cls-70" d="M108.12,231.47a18.19,18.19,0,0,0,5.52,2.38c15.9,3.53,32.78,2,44,0Z"/></g><g class="cls-71"><path class="cls-72" d="M345.69,119.24c-6-13.1-26.81-16.11-41.87-15.47-15.4.66-30,7.07-42.42,15.09,21.84,9.73,38.69,17.3,38.69,17.3s33.86,20.11,13.74,75.89c-8.71,24.16-35.3,32.12-61.75,30.92s-53.61-14.87-53.61-14.87l-1.13,6.14,9.53,1.15s42.18,26.14,94.73,12C355.56,232.88,362.85,156.64,345.69,119.24Z"/></g></g><path class="cls-56" d="M164.54,165.84s-31.57-1.3-56.82-16.39-33.58-26.68-25.43-33.78,27.79-14,54.09.71a112.24,112.24,0,0,1,39.39,37.53Z"/><path class="cls-56" d="M216.32,168.7s51.3-1.9,95.26-9.16c35.81-5.92,38-44.66,16.23-53.29-13.68-5.41-46.2-5.08-74.8,18.49s-39.3,36.69-39.3,36.69L206,170.9Z"/><path class="cls-51" d="M218.9,156.52a3.2,3.2,0,0,0-1.64-4.84c-5.51-1.82-16.81-4.39-34.61-3.14-26.54,1.85-34.17,33.9-32.68,47.5s5.85,36.2,18.42,41c10.26,3.92,21.75,3.78,29.86,2.9a8.56,8.56,0,0,0,7.35-10.73c-2-7.23-3.72-18.66-1.56-33.45A95.43,95.43,0,0,1,218.9,156.52Z"/><g class="cls-73"><path class="cls-74" d="M218.9,156.52a3.2,3.2,0,0,0-1.64-4.84c-5.51-1.82-16.81-4.39-34.61-3.14-26.54,1.85-34.17,33.9-32.68,47.5s5.85,36.2,18.42,41c10.26,3.92,21.75,3.78,29.86,2.9a8.56,8.56,0,0,0,7.35-10.73c-2-7.23-3.72-18.66-1.56-33.45A95.43,95.43,0,0,1,218.9,156.52Z"/></g><path class="cls-56" d="M215.6,152c-10.18,7.15-19.73,15.4-22.07,31.42-1.55,10.55.09,27.85,1.34,31.43,1.55,4.42-15.09,3.43-20.09-6.56s-5.94-20.1-4.1-27.06a52.29,52.29,0,0,1,5.7-13s-9.42,4.37-13,19c-2.48,10.18-.3,22.57-.3,22.57a16.47,16.47,0,0,1-11.7-9.88c-3.71-8.66-.73-25.82,5.19-34,7.35-10.15,12.27-13.87,21.55-16.41C191.91,145.72,215.6,152,215.6,152Z"/><path class="cls-51" d="M164.42,156.69s-53.54-20.05-53.94-29.26,7.51-10.81,21.5,2.43S164.42,156.69,164.42,156.69Z"/><g class="cls-75"><path class="cls-53" d="M164.42,156.69s-53.54-20.05-53.94-29.26,7.51-10.81,21.5,2.43S164.42,156.69,164.42,156.69Z"/></g><path class="cls-51" d="M213.71,161.43s39.43-14.11,56-18.6,34.58-6.51,40.72-9.71,9.24-14.66-14.15-9.47S213.71,161.43,213.71,161.43Z"/><g class="cls-76"><path class="cls-53" d="M213.71,161.43s39.43-14.11,56-18.6,34.58-6.51,40.72-9.71,9.24-14.66-14.15-9.47S213.71,161.43,213.71,161.43Z"/></g><path class="cls-77" d="M94.49,108.66s-10.21,4.59-12.66,11.85C80,126,83.65,131.85,92.26,138.12s14.27,8.23,19.34,10.76c9.85,4.92,30.55,13.55,29.62,13.29s-32.77-9.39-48.95-20-20-17.42-17.79-22.41C78.33,111.16,94.49,108.66,94.49,108.66Z"/><path class="cls-77" d="M98.83,247.53s-6.52,1.6-7.38,4.44a16.76,16.76,0,0,0-.74,5.16,132.89,132.89,0,0,1,27.85.79c14.92,2.07,33.23,9,33.23,9a21,21,0,0,1,1.34-4.5c.54-.95,4.81-2.85,4.81-2.85s-6.93,1.64-26.32-2.31A185,185,0,0,1,98.83,247.53Z"/><path class="cls-77" d="M176,156.26a5,5,0,0,0-6.47-.79c-3.72,2.55-7.23,6.16-10.94,12.39-5.19,8.68-3.74,19.61-1.52,14.37s18.88-20,22.59-17-3,22.89-.94,23.32c1.41.29,15.23-27.28,22.29-37,1.39-1.9-16.64,9.09-21.29,7.26A9.6,9.6,0,0,1,176,156.26Z"/><path class="cls-77" d="M247.56,166.83c10.4,1.37,44.5-1.81,64-7.29S340.08,145,342.71,138s-3.23-20.7-3.23-20.7-3.09,32.08-29.12,37.43S247.56,166.83,247.56,166.83Z"/><path class="cls-78" d="M40,144.37a5.19,5.19,0,1,0-4-6.18A5.21,5.21,0,0,0,40,144.37Z"/><path class="cls-78" d="M182.82,118.63a5,5,0,1,0,3.83,6A5,5,0,0,0,182.82,118.63Z"/><path class="cls-78" d="M159.48,7.16a3.62,3.62,0,1,0-2.78-4.3A3.61,3.61,0,0,0,159.48,7.16Z"/><path class="cls-78" d="M405.24,52.9a2.86,2.86,0,1,0-3.41,2.19A2.87,2.87,0,0,0,405.24,52.9Z"/><path class="cls-78" d="M312.24,101.22a3.49,3.49,0,1,0-2.67-4.15A3.49,3.49,0,0,0,312.24,101.22Z"/><path class="cls-78" d="M358.16,199.62a4.63,4.63,0,1,0,5.51-3.55A4.63,4.63,0,0,0,358.16,199.62Z"/><path class="cls-78" d="M424.89,146.62a3.71,3.71,0,1,0,4.42-2.85A3.71,3.71,0,0,0,424.89,146.62Z"/><path class="cls-78" d="M103.6,73.6a5.5,5.5,0,1,0-4.22-6.54A5.51,5.51,0,0,0,103.6,73.6Z"/><path class="cls-78" d="M168.61,88a2.92,2.92,0,1,0-2.24-3.47A2.92,2.92,0,0,0,168.61,88Z"/><circle class="cls-56" cx="27.4" cy="57.36" r="3.22" transform="translate(-35.34 47.11) rotate(-55.19)"/><g class="cls-79"><g class="cls-80"><rect class="cls-77" x="269.72" y="59.29" width="19.79" height="19.79" transform="translate(152.89 327.86) rotate(-77.8)"/><path class="cls-77" d="M289.28,71.27a9.89,9.89,0,1,1-7.57-11.76A9.89,9.89,0,0,1,289.28,71.27Z"/><path class="cls-77" d="M284.45,70.23a4.95,4.95,0,1,1-3.79-5.88A5,5,0,0,1,284.45,70.23Z"/></g></g><path class="cls-77" d="M282.17,53.5s-1.9,9.44-4.36,11.32-11.51,0-11.51,0,9.71,2.74,10.53,5.82c.9,3.37-.13,13.24-.13,13.24s2.71-10.82,5.29-12.48c2.38-1.54,10.7-1.23,10.7-1.23s-9.64-2.72-10.5-4.61C281.23,63.47,282.17,53.5,282.17,53.5Z"/><g class="cls-79"><g class="cls-81"><rect class="cls-77" x="83.08" y="241.23" width="25.64" height="25.64" transform="translate(-172.68 294.08) rotate(-77.8)"/><path class="cls-77" d="M108.43,256.76a12.82,12.82,0,1,1-9.82-15.24A12.82,12.82,0,0,1,108.43,256.76Z"/><circle class="cls-77" cx="95.9" cy="254.05" r="6.41" transform="translate(-174.68 231.1) rotate(-64.47)"/></g></g><path class="cls-77" d="M99.21,233.72S96.74,246,93.55,248.39s-14.9,0-14.9,0,12.58,3.55,13.64,7.55c1.16,4.36-.17,17.15-.17,17.15s3.51-14,6.85-16.17c3.09-2,13.87-1.59,13.87-1.59s-12.49-3.53-13.61-6C98,246.64,99.21,233.72,99.21,233.72Z"/><g class="cls-79"><g class="cls-82"><rect class="cls-77" x="67.1" y="101.47" width="25.64" height="25.64" transform="translate(-48.68 168.25) rotate(-77.8)"/><path class="cls-77" d="M92.45,117a12.82,12.82,0,1,1-9.82-15.24A12.81,12.81,0,0,1,92.45,117Z"/><path class="cls-77" d="M86.19,115.65A6.41,6.41,0,1,1,81.28,108,6.41,6.41,0,0,1,86.19,115.65Z"/></g></g><path class="cls-77" d="M83.23,94s-2.46,12.23-5.65,14.67-14.91,0-14.91,0,12.58,3.55,13.65,7.55c1.16,4.36-.17,17.15-.17,17.15s3.5-14,6.85-16.16c3.09-2,13.87-1.6,13.87-1.6s-12.49-3.52-13.61-6C82,106.88,83.23,94,83.23,94Z"/><g class="cls-79"><g class="cls-83"><rect class="cls-77" x="278.4" y="139.73" width="43.09" height="43.09" transform="translate(78.91 420.36) rotate(-77.8)"/><path class="cls-77" d="M321,165.83a21.55,21.55,0,1,1-16.51-25.61A21.55,21.55,0,0,1,321,165.83Z"/><path class="cls-77" d="M310.48,163.55a10.77,10.77,0,1,1-8.26-12.8A10.79,10.79,0,0,1,310.48,163.55Z"/></g></g><path class="cls-77" d="M305.51,127.11s-4.14,20.57-9.5,24.66c-5.15,3.93-25.06,0-25.06,0s21.15,6,22.94,12.68c1.95,7.34-.29,28.83-.29,28.83s5.89-23.55,11.51-27.17c5.2-3.36,23.32-2.68,23.32-2.68s-21-5.93-22.88-10C303.46,148.82,305.51,127.11,305.51,127.11Z"/><g class="cls-79"><g class="cls-84"><rect class="cls-77" x="4.79" y="155.14" width="27.71" height="27.71" transform="translate(-150.48 151.5) rotate(-77.8)"/><path class="cls-77" d="M32.18,171.93a13.85,13.85,0,1,1-10.61-16.47A13.85,13.85,0,0,1,32.18,171.93Z"/><circle class="cls-77" cx="18.64" cy="169" r="6.93" transform="translate(-141.89 112.98) rotate(-64.47)"/></g></g><path class="cls-77" d="M22.22,147s-2.66,13.22-6.11,15.85-16.11,0-16.11,0,13.6,3.84,14.75,8.16c1.25,4.71-.18,18.53-.18,18.53s3.78-15.14,7.39-17.47c3.35-2.15,15-1.72,15-1.72s-13.5-3.81-14.72-6.46C20.9,161,22.22,147,22.22,147Z"/></g></g></svg>