<?xml version="1.0" encoding="UTF-8"?>
<svg xmlns="http://www.w3.org/2000/svg" viewBox="0 0 31.37 37.54">
    <defs>
        <style>.cls-1{fill:#fff;stroke:#E21331;stroke-miterlimit:10;stroke-width:2px;}</style>
    </defs>
    <g id="Layer_2" data-name="Layer 2">
        <g id="Layer_1-2" data-name="Layer 1">
            <path d="M17.73,0H5.21A5.22,5.22,0,0,0,0,5.21V32.32a5.22,5.22,0,0,0,5.21,5.22H17.73a5.22,5.22,0,0,0,5.21-5.22V5.21A5.22,5.22,0,0,0,17.73,0Zm3.12,32.32a3.13,3.13,0,0,1-3.12,3.13H5.21a3.13,3.13,0,0,1-3.13-3.13V5.21A3.14,3.14,0,0,1,5.21,2.08H17.73a3.13,3.13,0,0,1,3.12,3.13Z" fill="#E21331"></path>
            <circle cx="11.47" cy="32.32" r="2.08" fill="#E21331"></circle>
            <path d="M13.55,3.13H9.38a1,1,0,1,0,0,2.08h4.17a1,1,0,1,0,0-2.08Z" fill="#E21331"></path>
            <path class="cls-1" d="M10.92,23.07h1.91l1.65,2.83a.59.59,0,0,0,.93,0L17,23.07h9.59a3.84,3.84,0,0,0,3.83-3.83V13.45a3.84,3.84,0,0,0-3.83-3.83H10.92a3.85,3.85,0,0,0-3.84,3.83v5.79A3.85,3.85,0,0,0,10.92,23.07Z"></path>
            <circle cx="13.02" cy="16.03" r="2.08" fill="#E21331"></circle>
            <circle cx="19.12" cy="16.03" r="2.08" fill="#E21331"></circle>
            <circle cx="25.1" cy="16.03" r="2.08" fill="#E21331"></circle>
        </g>
    </g>
</svg>