<?xml version="1.0" encoding="utf-8"?>
<!-- Generator: Adobe Illustrator 27.0.1, SVG Export Plug-In . SVG Version: 6.00 Build 0)  -->
<svg version="1.1" id="Layer_1" xmlns="http://www.w3.org/2000/svg" xmlns:xlink="http://www.w3.org/1999/xlink" x="0px" y="0px"
	 viewBox="0 0 200 200" style="enable-background:new 0 0 200 200;" xml:space="preserve">
<style type="text/css">
	.st0{fill:#EFE8E2;}
	.st1{fill:#7AA2D3;}
	.st2{fill:#FFFFFF;stroke:#1A242D;stroke-width:4.2349;stroke-miterlimit:10;}
	.st3{fill:none;stroke:#1A242D;stroke-width:5.0348;stroke-miterlimit:10;}
	.st4{fill:#E3152E;}
	.st5{fill:#1A242D;}
	.st6{fill:#1A232C;}
	.st7{fill:#E11E2F;}
	.st8{fill:#FFFFFF;}
	.st9{fill:none;stroke:#1A242D;stroke-width:4.2716;stroke-miterlimit:10;}
	.st10{fill:#FFFFFF;stroke:#1A242D;stroke-width:4.2716;stroke-miterlimit:10;}
	.st11{fill:#FFFFFF;stroke:#1A242D;stroke-miterlimit:10;}
	.st12{fill:none;stroke:#1A242D;stroke-width:1.1889;stroke-miterlimit:10;}
	.st13{fill:none;stroke:#1A242D;stroke-width:1.0087;stroke-miterlimit:10;}
	.st14{fill:#FFFFFF;stroke:#1A242D;stroke-width:1.0087;stroke-miterlimit:10;}
</style>
<g>
	<circle class="st0" cx="100" cy="100" r="73.77"/>
	<g>
		<path class="st1" d="M128.82,140.77h-60.2c-3.5,0-6.33-2.83-6.33-6.33v-21.83h3.69c2.01,3.63,5.91,6.08,10.34,6.08
			c7.43,0,13.26-6.83,11.55-14.51c-0.94-4.21-4.29-7.66-8.46-8.72c-5.65-1.45-10.95,1.23-13.43,5.68h-3.69V77.25
			c0-3.5,2.83-6.33,6.33-6.33h20.82v-1.71c-4.45-2.47-7.13-7.77-5.68-13.43c1.07-4.17,4.52-7.52,8.72-8.46
			c7.68-1.71,14.51,4.12,14.51,11.55c0,4.43-2.45,8.32-6.08,10.34v1.71h21.56c3.5,0,6.33,2.83,6.33,6.33v24.99"/>
		<g>
			<circle class="st2" cx="129" cy="121.55" r="19.31"/>
			<line class="st3" x1="115.97" y1="121.27" x2="141.65" y2="121.27"/>
			<line class="st3" x1="128.81" y1="108.43" x2="128.81" y2="134.11"/>
		</g>
	</g>
</g>
</svg>
