<svg width="24"
     height="24"
     viewBox="0 0 24 24"
     fill="none"
     xmlns="http://www.w3.org/2000/svg">
	<path d="M17.2 21.2H6.8C6.3584 21.2 6 20.8416 6 20.4V3.59998C6 3.15838 6.3584 2.79998 6.8 2.79998H17.2C17.6424 2.79998 18 3.15838 18 3.59998V20.4C18 20.8416 17.6424 21.2 17.2 21.2Z"
	      stroke="#959595"
	      stroke-width="0.8"
	      stroke-linecap="round"
	      stroke-linejoin="round"/>
	<path d="M6 17.2H18"
	      stroke="#959595"
	      stroke-width="0.8"
	      stroke-linecap="round"
	      stroke-linejoin="round"/>
	<path d="M6 5.20001H18"
	      stroke="#959595"
	      stroke-width="0.8"
	      stroke-linecap="round"
	      stroke-linejoin="round"/>
	<path d="M12.8 19.2C12.8 19.6416 12.4424 20 12 20C11.5584 20 11.2 19.6416 11.2 19.2C11.2 18.7584 11.5584 18.4 12 18.4C12.4424 18.4 12.8 18.7584 12.8 19.2Z"
	      fill="#959595"/>
	<path d="M6 5.19995L18 17.2"
	      stroke="#959595"
	      stroke-width="0.8"
	      stroke-linecap="round"
	      stroke-linejoin="round"/>
	<path d="M18 5.19995L6 17.2"
	      stroke="#959595"
	      stroke-width="0.8"
	      stroke-linecap="round"
	      stroke-linejoin="round"/>
</svg>
