<svg xmlns="http://www.w3.org/2000/svg" width="12.03" height="12.955" viewBox="0 0 12.03 12.955">
  <path id="Path_2304" data-name="Path 2304" d="M1589.252,396.755a2.7,2.7,0,0,1-1.91-4.609l5.921-5.922a1.891,1.891,0,0,1,2.674,2.674l-5.348,5.348a.27.27,0,0,1-.382-.382l5.348-5.348a1.351,1.351,0,1,0-1.91-1.91l-5.921,5.921a2.161,2.161,0,0,0,3.056,3.056l5.921-5.921a2.971,2.971,0,1,0-4.2-4.2l-4.966,4.966a.27.27,0,0,1-.382-.382l4.966-4.966a3.511,3.511,0,1,1,4.966,4.966l-5.921,5.921A2.693,2.693,0,0,1,1589.252,396.755Z" transform="translate(-1586.427 -383.925)" fill="#e40232" stroke="#e21331" stroke-width="0.25"/>
</svg>
