<svg xmlns="http://www.w3.org/2000/svg" width="17.343" height="17.994" viewBox="0 0 17.343 17.994">
  <g id="Group_1185" data-name="Group 1185" transform="translate(-95.8 -911.949)">
    <path id="Path_1535" data-name="Path 1535" d="M109.287,916.751a2.894,2.894,0,0,1-3.152,2.882A2.994,2.994,0,0,1,103.5,916.6v-.858a2.994,2.994,0,0,1,2.635-3.032,2.894,2.894,0,0,1,3.152,2.882Z" transform="translate(-1.922 0)" fill="none" stroke="#fff" stroke-linecap="round" stroke-linejoin="round" stroke-width="1.5"/>
    <path id="Path_1536" data-name="Path 1536" d="M105.993,925.786l-.967,1.156a.724.724,0,0,1-1.11,0l-.967-1.156a1.429,1.429,0,0,0-1.654-.414,7.959,7.959,0,0,0-4.741,6.49.73.73,0,0,0,.723.805h14.386a.73.73,0,0,0,.723-.805,7.959,7.959,0,0,0-4.741-6.49A1.429,1.429,0,0,0,105.993,925.786Z" transform="translate(0 -3.474)" fill="none" stroke="#fff" stroke-linecap="round" stroke-linejoin="round" stroke-width="1.5"/>
  </g>
</svg>
