<svg xmlns="http://www.w3.org/2000/svg" width="27.36" height="27.36" viewBox="0 0 27.36 27.36">
  <g id="Group_2181" data-name="Group 2181" transform="translate(-309 -367)">
    <rect id="Rectangle_63960" data-name="Rectangle 63960" width="2" height="10" transform="translate(322 376)" fill="#fff"/>
    <path id="Path_2269" data-name="Path 2269" d="M-161.966,97.467a13.7,13.7,0,0,1-13.68-13.68,13.7,13.7,0,0,1,13.68-13.68,13.7,13.7,0,0,1,13.68,13.68A13.7,13.7,0,0,1-161.966,97.467Zm0-26.187a12.521,12.521,0,0,0-12.507,12.507,12.521,12.521,0,0,0,12.507,12.507A12.521,12.521,0,0,0-149.46,83.787,12.521,12.521,0,0,0-161.966,71.28Z" transform="translate(484.646 296.893)" fill="#fff"/>
    <rect id="Rectangle_63960-2" data-name="Rectangle 63960" width="2" height="10" transform="translate(328.104 380) rotate(90)" fill="#fff"/>
  </g>
</svg>
