<?xml version="1.0" encoding="utf-8"?>
<!-- Generator: Adobe Illustrator 27.0.1, SVG Export Plug-In . SVG Version: 6.00 Build 0)  -->
<svg version="1.1" id="Layer_1" xmlns="http://www.w3.org/2000/svg" xmlns:xlink="http://www.w3.org/1999/xlink" x="0px" y="0px"
	 viewBox="0 0 200 200" style="enable-background:new 0 0 200 200;" xml:space="preserve">
<style type="text/css">
	.st0{fill:#EFE8E2;}
	.st1{fill:#7AA2D3;}
	.st2{fill:#FFFFFF;stroke:#1A242D;stroke-width:4.2349;stroke-miterlimit:10;}
	.st3{fill:none;stroke:#1A242D;stroke-width:5.0348;stroke-miterlimit:10;}
	.st4{fill:#E3152E;}
	.st5{fill:#1A242D;}
	.st6{fill:#1A232C;}
	.st7{fill:#E11E2F;}
	.st8{fill:#FFFFFF;}
	.st9{fill:none;stroke:#1A242D;stroke-width:4.2716;stroke-miterlimit:10;}
	.st10{fill:#FFFFFF;stroke:#1A242D;stroke-width:4.2716;stroke-miterlimit:10;}
	.st11{fill:#FFFFFF;stroke:#1A242D;stroke-miterlimit:10;}
	.st12{fill:none;stroke:#1A242D;stroke-width:1.1889;stroke-miterlimit:10;}
	.st13{fill:none;stroke:#1A242D;stroke-width:1.0087;stroke-miterlimit:10;}
	.st14{fill:#FFFFFF;stroke:#1A242D;stroke-width:1.0087;stroke-miterlimit:10;}
</style>
<g>
	<circle class="st0" cx="100" cy="100" r="73.77"/>
	<g>
		<g>
			<rect x="97.67" y="53.88" class="st5" width="4.65" height="4.16"/>
			<rect x="92.09" y="141.95" class="st5" width="15.81" height="4.16"/>
			<path class="st5" d="M128.44,154.15H71.56c-6.51,0-11.8-5.29-11.8-11.79v-84.7c0-6.51,5.3-11.8,11.8-11.8h56.88
				c6.51,0,11.8,5.29,11.8,11.8v84.7C140.24,148.86,134.95,154.15,128.44,154.15z M71.56,50.02c-4.21,0-7.64,3.42-7.64,7.64v84.7
				c0,4.2,3.43,7.62,7.64,7.62h56.88c4.21,0,7.63-3.42,7.63-7.62v-84.7c0-4.21-3.42-7.64-7.63-7.64H71.56z"/>
			<rect x="70.24" y="61.67" class="st1" width="59.53" height="76.65"/>
		</g>
		<g>
			<path class="st8" d="M116.97,100.31c0,9.89-8.02,17.91-17.91,17.91c-9.89,0-17.91-8.02-17.91-17.91
				c0-9.89,8.02-17.91,17.91-17.91C108.95,82.4,116.97,90.42,116.97,100.31z"/>
			<path class="st5" d="M100,119.99c-11.02,0-19.99-8.97-19.99-19.99c0-11.02,8.97-19.99,19.99-19.99s19.99,8.97,19.99,19.99
				C119.99,111.02,111.02,119.99,100,119.99z M100,84.17c-8.73,0-15.83,7.1-15.83,15.83c0,8.73,7.1,15.83,15.83,15.83
				c8.73,0,15.83-7.1,15.83-15.83C115.83,91.27,108.73,84.17,100,84.17z"/>
			<path class="st9" d="M107.53,103.86c-0.71,1.46-1.84,2.73-3.35,3.6c-4.02,2.33-9.16,0.96-11.49-3.06s-0.96-9.16,3.06-11.49
				c2.01-1.16,4.3-1.41,6.38-0.85"/>
			<polygon class="st5" points="100.31,96.7 102.72,87.18 107.06,93.7 			"/>
		</g>
	</g>
</g>
</svg>
