<svg width="52" height="52" viewBox="0 0 52 52" fill="none" xmlns="http://www.w3.org/2000/svg">
<path d="M41.9791 44.2917C37.9486 44.2917 33.893 43.257 29.8125 41.1875C25.7319 39.1181 22.0486 36.4438 18.7625 33.1646C15.4764 29.8855 12.7987 26.2091 10.7292 22.1355C8.6598 18.0619 7.62509 14.0099 7.62509 9.97934C7.62509 9.29482 7.85326 8.72439 8.3096 8.26805C8.76593 7.81168 9.33636 7.5835 10.0209 7.5835H16.2083C16.7608 7.5835 17.2427 7.76197 17.6539 8.11893C18.0652 8.47589 18.3319 8.95714 18.4541 9.56269L19.75 15.3876C19.8361 15.9209 19.8236 16.4057 19.7125 16.8418C19.6014 17.2779 19.3887 17.6392 19.0744 17.9258L13.9667 22.9209C16.0445 26.3765 18.3486 29.3571 20.8792 31.8626C23.4097 34.3682 26.3264 36.5223 29.6292 38.3251L34.525 33.246C34.8861 32.8488 35.291 32.5724 35.7396 32.4168C36.1882 32.2612 36.6542 32.2376 37.1375 32.3459L42.3958 33.5043C42.9904 33.6262 43.4689 33.908 43.8313 34.3498C44.1937 34.7917 44.3749 35.321 44.3749 35.9376V41.8959C44.3749 42.5804 44.1467 43.1508 43.6904 43.6071C43.2341 44.0635 42.6636 44.2917 41.9791 44.2917ZM12.7167 20.6918L17.1875 16.3543C17.2431 16.2988 17.2813 16.2224 17.3021 16.1251C17.323 16.0279 17.3264 15.9376 17.3125 15.8543L16.1292 10.3751C16.1153 10.264 16.0702 10.1807 15.9938 10.1252C15.9174 10.0696 15.8236 10.0418 15.7125 10.0418H10.375C10.2917 10.0418 10.2222 10.0696 10.1667 10.1252C10.1111 10.1807 10.0833 10.2501 10.0833 10.3335C10.0556 11.7557 10.2688 13.3203 10.7229 15.0272C11.1771 16.7342 11.8417 18.6224 12.7167 20.6918ZM31.9333 39.4793C33.4139 40.2071 35.0347 40.7737 36.7958 41.1792C38.5569 41.5848 40.1666 41.8098 41.625 41.8543C41.7083 41.8543 41.7778 41.8265 41.8333 41.7709C41.8889 41.7154 41.9167 41.6459 41.9167 41.5626V36.2459C41.9167 36.1348 41.8889 36.041 41.8333 35.9647C41.7778 35.8883 41.6944 35.8431 41.5833 35.8292L36.6708 34.8168C36.5875 34.8029 36.5146 34.8063 36.4521 34.8272C36.3895 34.848 36.3236 34.8862 36.2541 34.9417L31.9333 39.4793Z" fill="#E21331"/>
</svg>
