<svg width="52" height="52" viewBox="0 0 52 52" fill="none" xmlns="http://www.w3.org/2000/svg">
<path d="M41.8875 25.1416C41.6236 20.8832 40.0063 17.2687 37.0354 14.2978C34.0646 11.327 30.4569 9.7166 26.2125 9.4666V7.0083C28.6597 7.10833 30.9604 7.64861 33.1146 8.62913C35.2687 9.60969 37.1604 10.918 38.7895 12.5542C40.4187 14.1902 41.7235 16.0854 42.7041 18.2395C43.6846 20.3937 44.2319 22.6944 44.3458 25.1416H41.8875ZM32.8583 25.1416C32.5944 23.4055 31.8548 21.9284 30.6396 20.7104C29.4243 19.4923 27.9486 18.7652 26.2125 18.5291V16.0708C28.6292 16.3069 30.6847 17.2701 32.3791 18.9604C34.0735 20.6506 35.0527 22.711 35.3166 25.1416H32.8583ZM41.9791 44.2915C37.9486 44.2915 33.893 43.2568 29.8125 41.1874C25.7319 39.1179 22.0486 36.4436 18.7625 33.1645C15.4764 29.8853 12.7987 26.209 10.7292 22.1354C8.6598 18.0618 7.62509 14.0097 7.62509 9.97918C7.62509 9.29466 7.85326 8.72423 8.3096 8.26789C8.76593 7.81152 9.33636 7.58333 10.0209 7.58333H16.2083C16.7608 7.58333 17.2427 7.76181 17.6539 8.11877C18.0652 8.47573 18.3319 8.95698 18.4541 9.56253L19.75 15.3875C19.8361 15.9208 19.8236 16.4055 19.7125 16.8416C19.6014 17.2777 19.3887 17.6391 19.0744 17.9256L13.9667 22.9208C16.0445 26.3763 18.3486 29.3569 20.8792 31.8625C23.4097 34.368 26.3264 36.5222 29.6292 38.325L34.525 33.2458C34.8861 32.8486 35.291 32.5722 35.7396 32.4166C36.1882 32.2611 36.6542 32.2375 37.1375 32.3458L42.3958 33.5041C42.9904 33.626 43.4689 33.9079 43.8313 34.3497C44.1937 34.7915 44.3749 35.3208 44.3749 35.9375V41.8957C44.3749 42.5802 44.1467 43.1506 43.6904 43.607C43.2341 44.0634 42.6636 44.2915 41.9791 44.2915ZM12.7167 20.6917L17.1875 16.3542C17.2431 16.2986 17.2813 16.2222 17.3021 16.125C17.323 16.0277 17.3264 15.9375 17.3125 15.8542L16.1292 10.375C16.1153 10.2639 16.0702 10.1805 15.9938 10.125C15.9174 10.0694 15.8236 10.0416 15.7125 10.0416H10.375C10.2917 10.0416 10.2222 10.0694 10.1667 10.125C10.1111 10.1805 10.0833 10.25 10.0833 10.3333C10.0556 11.7556 10.2688 13.3201 10.7229 15.0271C11.1771 16.734 11.8417 18.6222 12.7167 20.6917ZM31.9333 39.4791C33.4139 40.2069 35.0347 40.7735 36.7958 41.1791C38.5569 41.5846 40.1666 41.8096 41.625 41.8541C41.7083 41.8541 41.7778 41.8263 41.8333 41.7707C41.8889 41.7152 41.9167 41.6458 41.9167 41.5624V36.2458C41.9167 36.1346 41.8889 36.0409 41.8333 35.9645C41.7778 35.8881 41.6944 35.843 41.5833 35.8291L36.6708 34.8166C36.5875 34.8027 36.5146 34.8062 36.4521 34.827C36.3895 34.8478 36.3236 34.886 36.2541 34.9416L31.9333 39.4791Z" fill="#E21331"/>
</svg>
