<svg xmlns="http://www.w3.org/2000/svg" xmlns:xlink="http://www.w3.org/1999/xlink" width="26.997" height="24.478" viewBox="0 0 26.997 24.478">
  <defs>
    <clipPath id="clip-path">
      <rect id="Rectangle_64711" data-name="Rectangle 64711" width="26.997" height="24.478" transform="translate(0 0.001)" fill="none"/>
    </clipPath>
  </defs>
  <g id="Group_2302" data-name="Group 2302" transform="translate(0 -0.001)">
    <g id="Group_2300" data-name="Group 2300" clip-path="url(#clip-path)">
      <path id="Path_4591" data-name="Path 4591" d="M22.851,24.479H4.146a4.14,4.14,0,0,1-3.585-6.21l9.352-16.2a4.139,4.139,0,0,1,7.17,0l9.352,16.2a4.14,4.14,0,0,1-3.585,6.21M13.5,1.829a2.289,2.289,0,0,0-2,1.156l-9.352,16.2a2.312,2.312,0,0,0,2,3.468h18.7a2.312,2.312,0,0,0,2-3.468L15.5,2.985a2.289,2.289,0,0,0-2-1.156" fill="#f0e9e3"/>
      <path id="Path_4592" data-name="Path 4592" d="M12.073,17.823a1.426,1.426,0,1,1,1.452,1.4h-.019a1.417,1.417,0,0,1-1.433-1.4m.058-9.5h2.7l-.438,7.018H12.57Z" fill="#f0e9e3"/>
    </g>
  </g>
</svg>
