<svg width="19" height="19" viewBox="0 0 19 19" fill="none" xmlns="http://www.w3.org/2000/svg">
<g id="Icons/Solid/Warning">
<mask id="mask0_536_4" style="mask-type:alpha" maskUnits="userSpaceOnUse" x="0" y="0" width="19" height="19">
<rect id="Bounding box" width="19" height="19" fill="#D9D9D9"/>
</mask>
<g mask="url(#mask0_536_4)">
<path id="emergency_home" d="M9.49896 17.4364C9.28785 17.4364 9.08663 17.3968 8.89531 17.3176C8.70399 17.2385 8.52917 17.1263 8.37083 16.9812L2.01771 10.6281C1.87257 10.4697 1.76042 10.2949 1.68125 10.1036C1.60208 9.91226 1.5625 9.71105 1.5625 9.49994C1.5625 9.28882 1.60208 9.08431 1.68125 8.88639C1.76042 8.68848 1.87257 8.51695 2.01771 8.37181L8.37083 2.01868C8.52917 1.86035 8.70399 1.7449 8.89531 1.67233C9.08663 1.59976 9.28785 1.56348 9.49896 1.56348C9.71007 1.56348 9.91458 1.59976 10.1125 1.67233C10.3104 1.7449 10.4819 1.86035 10.6271 2.01868L16.9802 8.37181C17.1385 8.51695 17.254 8.68848 17.3266 8.88639C17.3991 9.08431 17.4354 9.28882 17.4354 9.49994C17.4354 9.71105 17.3991 9.91226 17.3266 10.1036C17.254 10.2949 17.1385 10.4697 16.9802 10.6281L10.6271 16.9812C10.4819 17.1263 10.3104 17.2385 10.1125 17.3176C9.91458 17.3968 9.71007 17.4364 9.49896 17.4364ZM8.70729 10.2916H10.2906V5.5416H8.70729V10.2916ZM9.49896 12.6666C9.72326 12.6666 9.91129 12.5907 10.063 12.439C10.2148 12.2873 10.2906 12.0992 10.2906 11.8749C10.2906 11.6506 10.2148 11.4626 10.063 11.3109C9.91129 11.1591 9.72326 11.0833 9.49896 11.0833C9.27465 11.0833 9.08663 11.1591 8.9349 11.3109C8.78316 11.4626 8.70729 11.6506 8.70729 11.8749C8.70729 12.0992 8.78316 12.2873 8.9349 12.439C9.08663 12.5907 9.27465 12.6666 9.49896 12.6666Z" fill="#E21331"/>
</g>
</g>
</svg>
