<svg width="12" height="11" viewBox="0 0 12 11" fill="none" xmlns="http://www.w3.org/2000/svg">
<path d="M10.6375 10.75C9.38333 10.75 8.16076 10.4705 6.96979 9.91146C5.77882 9.35243 4.72396 8.61354 3.80521 7.69479C2.88646 6.77604 2.14757 5.72118 1.58854 4.53021C1.02951 3.33924 0.75 2.11667 0.75 0.8625C0.75 0.6875 0.808333 0.541667 0.925 0.425C1.04167 0.308333 1.1875 0.25 1.3625 0.25H3.725C3.86111 0.25 3.98264 0.29375 4.08958 0.38125C4.19653 0.46875 4.25972 0.580556 4.27917 0.716667L4.65833 2.75833C4.67778 2.89444 4.67535 3.0184 4.65104 3.13021C4.62674 3.24201 4.57083 3.34167 4.48333 3.42917L3.06875 4.85833C3.47708 5.55833 3.98993 6.21458 4.60729 6.82708C5.22465 7.43958 5.90278 7.96944 6.64167 8.41667L8.0125 7.04583C8.1 6.95833 8.21424 6.89271 8.35521 6.84896C8.49618 6.80521 8.63472 6.79306 8.77083 6.8125L10.7833 7.22083C10.9194 7.25 11.0312 7.31563 11.1188 7.41771C11.2063 7.51979 11.25 7.63889 11.25 7.775V10.1375C11.25 10.3125 11.1917 10.4583 11.075 10.575C10.9583 10.6917 10.8125 10.75 10.6375 10.75ZM2.51458 3.75L3.47708 2.7875L3.22917 1.41667H1.93125C1.97986 1.81528 2.04792 2.20903 2.13542 2.59792C2.22292 2.98681 2.34931 3.37083 2.51458 3.75ZM7.73542 8.97083C8.11458 9.13611 8.50104 9.26736 8.89479 9.36458C9.28854 9.46181 9.68472 9.525 10.0833 9.55417V8.27083L8.7125 7.99375L7.73542 8.97083Z" fill="#070A0C"/>
</svg>
