<svg xmlns="http://www.w3.org/2000/svg" viewBox="0 0 777.7 285.9"><defs><style>.cls-1{fill:#3cb4e5;}.cls-2{fill:#0047ba;}</style></defs><g id="Layer_2" data-name="Layer 2"><g id="Layer_1-2" data-name="Layer 1"><circle class="cls-1" cx="208.57" cy="208.57" r="69.52"/><circle class="cls-2" cx="208.57" cy="69.52" r="69.52"/><path class="cls-2" d="M139,69.52a69.52,69.52,0,0,0-139,0V208.57a69.52,69.52,0,0,0,139,0Z"/><path class="cls-1" d="M312.61,154.17h33.88L371.38,238l24.9-83.81h34V255.5h-21V176.75L386,255.5H356.76L333.6,177.19V255.5h-21Z"/><path class="cls-1" d="M481.11,256.66a37.67,37.67,0,0,1-19.76-5.43,40.75,40.75,0,0,1-14.41-14.55,39,39,0,0,1,0-39.44,40.44,40.44,0,0,1,14.41-14.41,39.15,39.15,0,0,1,39.51,0,40.32,40.32,0,0,1,14.41,14.48,39.17,39.17,0,0,1,0,39.52,40.21,40.21,0,0,1-14.41,14.47A38.06,38.06,0,0,1,481.11,256.66Zm0-19.11a18.77,18.77,0,0,0,10.06-2.82,20.72,20.72,0,0,0,7.23-7.53,20.66,20.66,0,0,0-7.23-27.86,19.07,19.07,0,0,0-10.06-2.75,18.74,18.74,0,0,0-10.06,2.82,20.92,20.92,0,0,0-7.24,7.45A19.87,19.87,0,0,0,461.13,217a20.22,20.22,0,0,0,2.68,10.2,20.67,20.67,0,0,0,7.24,7.53A18.74,18.74,0,0,0,481.11,237.55Z"/><path class="cls-1" d="M530.17,178.78h21v7.09a28.55,28.55,0,0,1,9.34-6.15,31.49,31.49,0,0,1,12.09-2.24,34.35,34.35,0,0,1,15.7,3.69,29.09,29.09,0,0,1,16.14,26.71V255.5h-21V213.23a17.33,17.33,0,0,0-2-8.47,14.68,14.68,0,0,0-5.5-5.71,15,15,0,0,0-7.68-2,16.21,16.21,0,0,0-9,2.53,16.73,16.73,0,0,0-6,6.81,21.15,21.15,0,0,0-2.1,9.48V255.5h-21Z"/><path class="cls-1" d="M653.94,256.66a39.6,39.6,0,0,1-34.16-59.5,39.5,39.5,0,0,1,14.47-14.4,38.62,38.62,0,0,1,19.69-5.28,38.2,38.2,0,0,1,17.44,4.12,40.08,40.08,0,0,1,13.75,11.29A39.15,39.15,0,0,1,692.59,209a35.59,35.59,0,0,1,.14,15.93H635.12a16.74,16.74,0,0,0,10.49,11.72,23.29,23.29,0,0,0,8.33,1.45,29.69,29.69,0,0,0,9.77-1.67,23.21,23.21,0,0,0,8.32-4.84l18.24,5.21q-4.49,9-14.91,14.4A45.84,45.84,0,0,1,653.94,256.66ZM672.32,209a19.26,19.26,0,0,0-3.69-6.44,19,19,0,0,0-6.3-4.77,19.4,19.4,0,0,0-8.54-1.81,19.9,19.9,0,0,0-8.61,1.81,18.76,18.76,0,0,0-6.37,4.77,19.26,19.26,0,0,0-3.69,6.44Z"/><path class="cls-1" d="M725.3,255.06l-31.56-76.28H716l20,51.68,19-51.68h22.3L734.85,285.9H713.14Z"/><path class="cls-2" d="M312.61,23.85h47.05a37.12,37.12,0,0,1,16.79,3.62,26.74,26.74,0,0,1,11.07,9.77,25.31,25.31,0,0,1,3.84,13.68,26.75,26.75,0,0,1-3.26,12.95,26.25,26.25,0,0,1-8.76,9.63,26.28,26.28,0,0,1,12.31,10.21A26.71,26.71,0,0,1,395.7,98a25.2,25.2,0,0,1-3.91,13.83,27.15,27.15,0,0,1-11.21,9.77,38.64,38.64,0,0,1-17.3,3.62H312.61ZM358.94,66a11.27,11.27,0,0,0,8.46-3.33,11.35,11.35,0,0,0,0-15.92,11.31,11.31,0,0,0-8.46-3.33H333.6V66Zm2.89,39.67a11.62,11.62,0,0,0,8.47-3.19,10.51,10.51,0,0,0,3.26-7.82,10.74,10.74,0,0,0-3.26-7.88,11.43,11.43,0,0,0-8.47-3.26H333.6v22.15Z"/><path class="cls-2" d="M405.55,23.85h73.38V44H427.26v20.7h45.89V84.36H427.26v20.7h51.67v20.12H405.55Z"/><path class="cls-2" d="M520.33,94.05l-34.45-70.2H509l22,45.6,22-45.6h23.16l-34,69.63v31.7H520.33Z"/><path class="cls-2" d="M625.57,126.33a50.38,50.38,0,0,1-25.91-6.94,52.35,52.35,0,0,1-18.89-18.82,51.33,51.33,0,0,1,0-51.82,52.86,52.86,0,0,1,18.89-18.89,51.33,51.33,0,0,1,51.82,0,52.93,52.93,0,0,1,18.89,18.89,51.55,51.55,0,0,1,.07,51.82,51.66,51.66,0,0,1-18.89,18.82A50.76,50.76,0,0,1,625.57,126.33Zm0-20.26a29,29,0,0,0,15.41-4.2,29.67,29.67,0,0,0,10.79-11.43,33.8,33.8,0,0,0,0-31.56A30.24,30.24,0,0,0,641,47.37a29.82,29.82,0,0,0-30.75,0,30,30,0,0,0-10.86,11.51,33.8,33.8,0,0,0,0,31.56,29.64,29.64,0,0,0,10.78,11.43A29,29,0,0,0,625.57,106.07Z"/><path class="cls-2" d="M687.67,23.85h34.74l34.16,80.48-.15-80.48H777.7V125.18H744L709,42.09v83.09H687.67Z"/></g></g></svg>