<svg width="26" height="32" viewBox="0 0 26 32" fill="none" xmlns="http://www.w3.org/2000/svg">
<path d="M19.1597 31.3049H6.84034C5.02722 31.3014 3.28937 30.5797 2.0073 29.2976C0.725227 28.0155 0.003427 26.2776 0 24.4645V6.84034C0.003427 5.02722 0.725227 3.28935 2.0073 2.00727C3.28937 0.725199 5.02722 0.003427 6.84034 0H19.1597C20.9728 0.003427 22.7107 0.725199 23.9928 2.00727C25.2748 3.28935 25.9966 5.02722 26 6.84034V24.4645C25.9966 26.2776 25.2748 28.0155 23.9928 29.2976C22.7107 30.5797 20.9728 31.3014 19.1597 31.3049ZM6.84034 2.0523C5.57092 2.05377 4.35391 2.55867 3.45629 3.45629C2.55867 4.35391 2.05377 5.57092 2.0523 6.84034V24.4645C2.05377 25.7339 2.55867 26.9509 3.45629 27.8485C4.35391 28.7462 5.57092 29.2511 6.84034 29.2526H19.1597C20.4291 29.2511 21.6461 28.7462 22.5437 27.8485C23.4413 26.9509 23.9463 25.7339 23.9478 24.4645V6.84034C23.9463 5.57092 23.4413 4.35391 22.5437 3.45629C21.6461 2.55867 20.4291 2.05377 19.1597 2.0523H6.84034Z" fill="#1A242D"/>
<path d="M18.8136 10.0853H7.18517C6.92081 10.0741 6.67101 9.96119 6.48792 9.77015C6.30484 9.57912 6.20264 9.32473 6.20264 9.06013C6.20264 8.79552 6.30484 8.54114 6.48792 8.3501C6.67101 8.15907 6.92081 8.04615 7.18517 8.03491H18.8136C19.078 8.04615 19.3278 8.15907 19.5109 8.3501C19.694 8.54114 19.7962 8.79552 19.7962 9.06013C19.7962 9.32473 19.694 9.57912 19.5109 9.77015C19.3278 9.96119 19.078 10.0741 18.8136 10.0853Z" fill="#1A242D"/>
<path d="M18.8136 16.3002H7.18517C6.92081 16.289 6.67101 16.176 6.48792 15.985C6.30484 15.794 6.20264 15.5396 6.20264 15.275C6.20264 15.0104 6.30484 14.756 6.48792 14.565C6.67101 14.3739 6.92081 14.261 7.18517 14.2498H18.8136C19.078 14.261 19.3278 14.3739 19.5109 14.565C19.694 14.756 19.7962 15.0104 19.7962 15.275C19.7962 15.5396 19.694 15.794 19.5109 15.985C19.3278 16.176 19.078 16.289 18.8136 16.3002Z" fill="#1A242D"/>
<path d="M18.8136 22.5144H7.18517C6.92081 22.5031 6.67101 22.3901 6.48792 22.1991C6.30484 22.0081 6.20264 21.7537 6.20264 21.4891C6.20264 21.2245 6.30484 20.9701 6.48792 20.7791C6.67101 20.5881 6.92081 20.4751 7.18517 20.4639H18.8136C19.078 20.4751 19.3278 20.5881 19.5109 20.7791C19.694 20.9701 19.7962 21.2245 19.7962 21.4891C19.7962 21.7537 19.694 22.0081 19.5109 22.1991C19.3278 22.3901 19.078 22.5031 18.8136 22.5144Z" fill="#1A242D"/>
</svg>
