<svg xmlns="http://www.w3.org/2000/svg" width="14.15" height="11.051" viewBox="0 0 14.15 11.051">
  <g id="Group_956" data-name="Group 956" transform="translate(-128.309 -37.117)">
    <path id="Path_2258" data-name="Path 2258" d="M141.716,41.228a.747.747,0,0,1-.526-.217,8.2,8.2,0,0,0-11.611,0,.743.743,0,1,1-1.051-1.051,9.69,9.69,0,0,1,13.713,0,.743.743,0,0,1-.525,1.268Z" fill="#e40232"/>
    <path id="Path_2259" data-name="Path 2259" d="M130.961,42.917a.744.744,0,0,1-.525-1.27,5.823,5.823,0,0,1,8.036,0,.743.743,0,1,1-1.051,1.051,4.3,4.3,0,0,0-5.934,0A.742.742,0,0,1,130.961,42.917Z" transform="translate(0.929 1.422)" fill="#e40232"/>
    <circle id="Ellipse_20" data-name="Ellipse 20" cx="1.214" cy="1.214" r="1.214" transform="translate(134.17 45.739)" fill="#e40232"/>
  </g>
</svg>
