<svg width="50" height="50" viewBox="0 0 50 50" fill="none" xmlns="http://www.w3.org/2000/svg">
<g clip-path="url(#clip0_5005_34852)">
<path d="M42 0H8C3.58172 0 0 3.51149 0 7.84314V42.1569C0 46.4885 3.58172 50 8 50H42C46.4183 50 50 46.4885 50 42.1569V7.84314C50 3.51149 46.4183 0 42 0Z" fill="white"/>
<path d="M22.04 25.7843H27.96V24.2157H22.04V25.7843Z" fill="black"/>
<path d="M42 0.490234H8C3.85786 0.490234 0.5 3.78226 0.5 7.84318V42.1569C0.5 46.2178 3.85786 49.5098 8 49.5098H42C46.1421 49.5098 49.5 46.2178 49.5 42.1569V7.84318C49.5 3.78226 46.1421 0.490234 42 0.490234Z" stroke="#1A242D"/>
</g>
<defs>
<clipPath id="clip0_5005_34852">
<rect width="50" height="50" fill="white"/>
</clipPath>
</defs>
</svg>
