<svg width="197" height="267" viewBox="0 0 197 267" fill="none" xmlns="http://www.w3.org/2000/svg">
<g clip-path="url(#clip0_1868_4723)">
<path d="M156.509 128.7C156.009 130.7 152.009 130.3 152.209 128.2L160.609 31.7C161.209 22.3 155.709 16.4 147.309 16.4C138.809 16.4 135.609 22 134.009 31.7L125.009 118.5C124.809 120.6 119.809 120.6 119.709 118.5L118.109 16.3C118.109 7.8 113.209 1 104.809 1C96.309 1 91.5091 7.9 91.5091 16.3L89.309 121.4C89.409 123.5 85.3091 123.8 85.0091 121.7L72.809 26.9C70.609 16.9 68.009 11.6 59.509 11.6C51.009 11.6 46.509 15.9 47.509 31.1L61.709 132.9C61.709 132.9 27.409 82.1 3.90904 105.6C-0.590958 110.2 0.409049 119.6 5.00905 124.1C12.909 131.7 28.309 150 36.809 165.6C63.509 215.8 75.909 228.7 112.309 228.7C144.909 228.7 169.809 222 177.809 157.6L178.609 149.8C178.609 141.9 180.609 134.3 181.709 126.5L194.609 72.7C197.309 62.7 194.209 53.1 184.109 53.1C178.809 53.3 174.309 57.2 171.909 66.5L156.509 128.7Z" stroke="#19232D" stroke-width="2" stroke-linecap="round" stroke-linejoin="round"/>
<path d="M128.309 9.30005H166.609V47.7001H128.309V9.30005Z" stroke="#E21432" stroke-width="3" stroke-linecap="round" stroke-linejoin="round"/>
<path d="M83 257.1H84.9V264.7H89V266.3H83.1V257.1H83Z" fill="#1A242C"/>
<path d="M96.1008 263.7H91.6008C91.8008 264.5 92.4008 264.9 93.3008 264.9C94.0008 264.9 94.5008 264.6 94.8008 264.2L95.9008 265.2C95.4008 265.9 94.5008 266.4 93.1008 266.4C91.1008 266.4 89.8008 265.1 89.8008 263.1C89.8008 261.2 91.1008 259.8 93.0008 259.8C94.8008 259.8 96.0008 261.2 96.0008 263C96.1008 263.3 96.1008 263.6 96.1008 263.7ZM91.6008 262.5H94.4008C94.2008 261.8 93.8008 261.4 93.0008 261.4C92.4008 261.3 91.8008 261.7 91.6008 262.5Z" fill="#1A242C"/>
<path d="M97.7 261.4H97V260H97.7V258.9C97.7 257.4 98.4 256.7 99.7 256.7C100.5 256.7 101.1 257 101.3 257.2L100.9 258.5C100.5 258.3 100.2 258.2 100 258.2C99.6 258.2 99.4 258.4 99.4 259.1V260.1H100.8V261.5H99.4V266.4H97.7V261.4Z" fill="#1A242C"/>
<path d="M102.101 264.3V261.4H101.301V260H102.101V257.9L103.801 257.7V259.9H105.501V261.3H103.801V264C103.801 264.6 103.901 264.8 104.301 264.8C104.501 264.8 104.801 264.7 105.101 264.6L105.501 266C105.101 266.2 104.701 266.4 103.801 266.4C102.801 266.4 102.101 265.7 102.101 264.3Z" fill="#1A242C"/>
<path d="M110.199 257.1H111.999V261.1H115.799V257.1H117.599V266.3H115.799V262.7H111.999V266.3H110.199V257.1Z" fill="#1A242C"/>
<path d="M119.199 263.2C119.199 261.3 120.499 259.9 122.199 259.9C122.899 259.9 123.599 260.2 124.099 260.7V260H125.799V266.4H124.199V265.6C123.799 266.2 123.099 266.5 122.299 266.5C120.399 266.4 119.199 265.1 119.199 263.2ZM124.099 263.2C124.099 262.2 123.399 261.4 122.499 261.4C121.599 261.4 120.899 262.1 120.899 263.2C120.899 264.2 121.599 264.9 122.499 264.9C123.399 264.9 124.099 264.2 124.099 263.2Z" fill="#1A242C"/>
<path d="M127.4 260H129.1V260.8C129.6 260.2 130.3 259.9 131.1 259.9C132.5 259.9 133.4 260.6 133.4 262.6V266.4H131.7V263.1C131.7 261.9 131.3 261.5 130.5 261.5C129.6 261.5 129.1 262.1 129.1 263.2V266.4H127.4V260Z" fill="#1A242C"/>
<path d="M134.699 263.2C134.699 261.3 135.999 259.9 137.699 259.9C138.499 259.9 139.199 260.2 139.599 260.7V256.7H141.299V266.3H139.699V265.5C139.299 266.1 138.599 266.4 137.699 266.4C135.899 266.4 134.699 265.1 134.699 263.2ZM139.699 263.2C139.699 262.2 138.999 261.4 137.999 261.4C137.099 261.4 136.399 262.1 136.399 263.2C136.399 264.2 137.099 264.9 137.999 264.9C138.899 264.9 139.699 264.2 139.699 263.2Z" fill="#1A242C"/>
</g>
<defs>
<clipPath id="clip0_1868_4723">
<rect width="196.54" height="266.5" fill="white"/>
</clipPath>
</defs>
</svg>
