<svg width="25" height="25" viewBox="0 0 25 25" fill="none" xmlns="http://www.w3.org/2000/svg">
<path d="M15 24H10V15.5C10 14.119 11.119 13 12.5 13C13.881 13 15 14.119 15 15.5V24Z" stroke="#DB1239" stroke-width="1.5" stroke-linecap="round" stroke-linejoin="round"/>
<path d="M12.5 1L1 9V10C1 10.552 1.448 11 2 11H4V23C4 23.552 4.448 24 5 24H20C20.553 24 21 23.552 21 23V11H23C23.553 11 24 10.552 24 10V9L12.5 1Z" stroke="#DB1239" stroke-width="1.5" stroke-linecap="round" stroke-linejoin="round"/>
<path d="M17 4.13002V2.00002C17 1.45002 17.45 1.00002 18 1.00002C18.55 1.00002 19 1.45002 19 2.00002V5.52002" stroke="#DB1239" stroke-width="1.5" stroke-linecap="round" stroke-linejoin="round"/>
</svg>
