<svg id="Layer_1" data-name="Layer 1" xmlns="http://www.w3.org/2000/svg" viewBox="0 0 175.64 283"><defs><style>.cls-1{fill:#e21331;}</style></defs><path class="cls-1" d="M145.57,97.05a81.37,81.37,0,0,1-12.68,22.56A62.73,62.73,0,1,1,25.06,163.18V138H69A69,69,0,0,0,69,0H0V100.41H69A31.44,31.44,0,0,0,99.56,76.17a89,89,0,0,0-11.74-.8H25.07V25.06H69a43.94,43.94,0,0,1,0,87.88H0v50.24A87.82,87.82,0,1,0,145.57,97.05"/><path class="cls-1" d="M144.93,268.27a14.65,14.65,0,1,1-14.65-14.65,14.66,14.66,0,0,1,14.65,14.65"/></svg>