<svg width="117" height="117" viewBox="0 0 117 117" fill="none" xmlns="http://www.w3.org/2000/svg">
<g clip-path="url(#clip0_1011_10578)">
<path d="M5.64876 88.28C1.45876 98.5 1.44876 106.64 5.62876 110.83C10.9388 116.12 22.5888 113.97 36.7688 106.29C44.9888 101.84 54.0588 96.15 63.2588 88.32" stroke="#1A243E" stroke-width="5.01" stroke-linejoin="round"/>
<path d="M88.2581 5.66C98.5281 1.43 106.728 1.46 110.928 5.68C116.208 10.99 114.048 22.64 106.348 36.81C100.628 47.3 91.8781 59.05 80.8281 70.79" stroke="#1A243E" stroke-width="5.01" stroke-linejoin="round"/>
<path d="M58.278 110.87C87.3337 110.87 110.888 87.3157 110.888 58.26C110.888 29.2043 87.3337 5.65002 58.278 5.65002C29.2223 5.65002 5.66797 29.2043 5.66797 58.26C5.66797 87.3157 29.2223 110.87 58.278 110.87Z" stroke="#1A243E" stroke-width="5.01" stroke-linejoin="round"/>
<path d="M38.1087 80.78L33.2188 73.27L73.3288 33.22L83.3387 43.24L50.7487 75.79L38.1087 80.78Z" fill="#78A4D7"/>
<path d="M68.2773 85.82L73.2873 80.8L73.3073 53.26L58.2773 53.25L68.2773 85.82Z" fill="#78A4D7"/>
<path d="M30.7266 48.22L38.1266 43.21L63.2966 43.23L63.2866 58.26L30.7266 48.22Z" fill="#78A4D7"/>
<path d="M38.1081 80.78L23.0781 75.77L27.9781 70.76L40.7281 70.77L38.1081 80.78Z" fill="#78A4D7"/>
<path d="M83.3381 43.24C87.6381 38.94 88.3581 33.22 88.3581 28.21C83.3481 28.21 77.6281 28.91 73.3281 33.21L83.3381 43.24Z" fill="#78A4D7"/>
</g>
<defs>
<clipPath id="clip0_1011_10578">
<rect width="116.34" height="116.24" fill="white"/>
</clipPath>
</defs>
</svg>
