<svg id="Group_2276" data-name="Group 2276" xmlns="http://www.w3.org/2000/svg" xmlns:xlink="http://www.w3.org/1999/xlink" width="18.615" height="18.615" viewBox="0 0 18.615 18.615">
  <defs>
    <clipPath id="clip-path">
      <rect id="Rectangle_64671" data-name="Rectangle 64671" width="18.615" height="18.615" fill="none"/>
    </clipPath>
  </defs>
  <g id="Group_2275" data-name="Group 2275" clip-path="url(#clip-path)">
    <path id="Path_4538" data-name="Path 4538" d="M31.734,27.308a4.425,4.425,0,1,1-4.426-4.426,4.426,4.426,0,0,1,4.426,4.426" transform="translate(-19.383 -19.382)" fill="#d70024"/>
    <path id="Path_4539" data-name="Path 4539" d="M29.093,37.79h-.7a3.565,3.565,0,0,1,1.049-2.533l.5.5a2.866,2.866,0,0,0-.844,2.036" transform="translate(-24.048 -29.865)" fill="#fff"/>
    <path id="Path_4540" data-name="Path 4540" d="M18.52,24.533a6.012,6.012,0,1,1,4.251-1.761,5.973,5.973,0,0,1-4.251,1.761m0-11.322a5.31,5.31,0,1,0,3.755,1.555,5.274,5.274,0,0,0-3.755-1.555" transform="translate(-10.595 -10.596)" fill="#131b22"/>
    <rect id="Rectangle_64657" data-name="Rectangle 64657" width="0.702" height="1.698" transform="translate(11.68 12.177) rotate(-45)" fill="#131b22"/>
    <path id="Path_4541" data-name="Path 4541" d="M82.661,84.144a1.473,1.473,0,0,1-1.049-.435l-4.251-4.251,2.1-2.1,4.251,4.251a1.484,1.484,0,0,1-1.049,2.532m-4.307-4.686,3.754,3.755a.781.781,0,1,0,1.1-1.1l-3.754-3.754Z" transform="translate(-65.529 -65.528)" fill="#131b22"/>
    <rect id="Rectangle_64658" data-name="Rectangle 64658" width="0.702" height="1.132" transform="translate(2.073 2.57) rotate(-45)" fill="#131b22"/>
    <rect id="Rectangle_64659" data-name="Rectangle 64659" width="0.703" height="1.132" transform="translate(4.568 0.738) rotate(-22.494)" fill="#131b22"/>
    <rect id="Rectangle_64660" data-name="Rectangle 64660" width="0.702" height="1.132" transform="translate(7.574 0)" fill="#131b22"/>
    <rect id="Rectangle_64661" data-name="Rectangle 64661" width="1.132" height="0.703" transform="translate(10.2 1.515) rotate(-67.499)" fill="#131b22"/>
    <rect id="Rectangle_64662" data-name="Rectangle 64662" width="1.132" height="0.702" transform="matrix(0.707, -0.707, 0.707, 0.707, 12.48, 2.873)" fill="#131b22"/>
    <rect id="Rectangle_64663" data-name="Rectangle 64663" width="1.133" height="0.702" transform="translate(14.067 5.001) rotate(-22.494)" fill="#131b22"/>
    <rect id="Rectangle_64664" data-name="Rectangle 64664" width="1.132" height="0.702" transform="translate(14.718 7.574)" fill="#131b22"/>
    <rect id="Rectangle_64665" data-name="Rectangle 64665" width="0.702" height="1.132" transform="matrix(0.383, -0.924, 0.924, 0.383, 0.469, 5.217)" fill="#131b22"/>
    <rect id="Rectangle_64666" data-name="Rectangle 64666" width="1.132" height="0.702" transform="translate(0 7.574)" fill="#131b22"/>
    <rect id="Rectangle_64667" data-name="Rectangle 64667" width="1.133" height="0.702" transform="translate(0.469 10.634) rotate(-22.506)" fill="#131b22"/>
    <rect id="Rectangle_64668" data-name="Rectangle 64668" width="1.132" height="0.702" transform="translate(2.073 13.281) rotate(-45)" fill="#131b22"/>
    <rect id="Rectangle_64669" data-name="Rectangle 64669" width="1.132" height="0.702" transform="translate(4.568 15.113) rotate(-67.483)" fill="#131b22"/>
    <rect id="Rectangle_64670" data-name="Rectangle 64670" width="0.702" height="1.132" transform="translate(7.574 14.718)" fill="#131b22"/>
  </g>
</svg>
