<svg xmlns="http://www.w3.org/2000/svg" width="45.74" height="56.375" viewBox="0 0 45.74 56.375">
  <g id="Group_1024" data-name="Group 1024" transform="translate(-105.394 45.544)">
    <g id="Group_1012" data-name="Group 1012" transform="translate(106.675 -44.264)">
      <rect id="Rectangle_64032" data-name="Rectangle 64032" width="30.75" height="53.812" rx="2" fill="#fff"/>
      <path id="Path_2338" data-name="Path 2338" d="M117.894-28.044" transform="translate(-87.144 71.607)" fill="#fff" stroke="#1a242d" stroke-linecap="round" stroke-linejoin="round" stroke-width="1"/>
      <path id="Path_2339" data-name="Path 2339" d="M105.894-28.044" transform="translate(-105.894 71.607)" fill="#fff" stroke="#1a242d" stroke-linecap="round" stroke-linejoin="round" stroke-width="1"/>
      <g id="Group_1011" data-name="Group 1011" transform="translate(11.531 47.407)">
        <line id="Line_66" data-name="Line 66" x2="5.125" transform="translate(1.281 1.28)" fill="#fff"/>
        <path id="Path_2340" data-name="Path 2340" d="M116.8-23.982h-5.125a1.282,1.282,0,0,1-1.281-1.281,1.282,1.282,0,0,1,1.281-1.281H116.8a1.282,1.282,0,0,1,1.281,1.281A1.282,1.282,0,0,1,116.8-23.982Z" transform="translate(-110.394 26.544)" fill="#1a242d"/>
      </g>
    </g>
    <path id="Path_2341" data-name="Path 2341" d="M151.134-17.359a13.66,13.66,0,0,0-12.428-13.579v-8.2a6.415,6.415,0,0,0-6.406-6.406H111.8a6.415,6.415,0,0,0-6.406,6.406V4.425a6.415,6.415,0,0,0,6.406,6.406h20.5a6.415,6.415,0,0,0,6.406-6.406v-8.2A13.661,13.661,0,0,0,151.134-17.359ZM132.3,8.268H111.8a3.848,3.848,0,0,1-3.844-3.844V-39.138a3.848,3.848,0,0,1,3.844-3.844h20.5a3.848,3.848,0,0,1,3.844,3.844v8.2a13.66,13.66,0,0,0-12.428,13.579A13.661,13.661,0,0,0,136.144-3.778v8.2A3.848,3.848,0,0,1,132.3,8.268Z" fill="#1a242d"/>
    <g id="Group_1014" data-name="Group 1014" transform="translate(127.144 -25.795)">
      <g id="Group_1013" data-name="Group 1013">
        <path id="Path_2342" data-name="Path 2342" d="M122.279-29.784a.784.784,0,0,1,.341.5.788.788,0,0,1-.12.594.784.784,0,0,1-.5.341.791.791,0,0,1-.595-.12l-3.426-2.283a.661.661,0,0,1-.264-.495V-35.8a.777.777,0,0,1,.236-.559.788.788,0,0,1,.559-.236.793.793,0,0,1,.561.236.783.783,0,0,1,.231.559v3.708a.66.66,0,0,0,.264.492Z" transform="translate(-107.901 39.785)" fill="#fff"/>
        <path id="Path_2343" data-name="Path 2343" d="M116.122-30.536a8.235,8.235,0,0,1,2.4-4.828,8.425,8.425,0,0,1,5.963-2.473,8.431,8.431,0,0,1,5.965,2.473,8.431,8.431,0,0,1,2.473,5.965,8.446,8.446,0,0,1-2.473,5.968,8.448,8.448,0,0,1-5.965,2.468,8.387,8.387,0,0,1-3.288-.666.779.779,0,0,1-.425-.431.8.8,0,0,1,0-.607.788.788,0,0,1,.436-.425.786.786,0,0,1,.6,0,6.785,6.785,0,0,0,2.67.541,6.85,6.85,0,0,0,4.846-2.006,6.861,6.861,0,0,0,2.006-4.843,6.872,6.872,0,0,0-2.006-4.846,6.872,6.872,0,0,0-4.846-2.006,6.861,6.861,0,0,0-4.843,2.006,6.677,6.677,0,0,0-1.924,3.739c-.02.174.064.213.19.09l.656-.653a.777.777,0,0,1,.559-.236.783.783,0,0,1,.561.236.783.783,0,0,1,.231.559.789.789,0,0,1-.231.561l-2.334,2.337a.633.633,0,0,1-.9,0l-2.34-2.337a.789.789,0,0,1-.231-.561.783.783,0,0,1,.231-.559.8.8,0,0,1,.564-.236.792.792,0,0,1,.561.236l.628.625C115.988-30.319,116.1-30.362,116.122-30.536Z" transform="translate(-113.882 37.837)" fill="#fff"/>
      </g>
    </g>
  </g>
</svg>
