<svg width="12" height="13" viewBox="0 0 12 13" fill="none" xmlns="http://www.w3.org/2000/svg">
<path d="M3.66675 7.66669H8.33342V7.34585C8.33342 6.91808 8.11953 6.57294 7.69175 6.31044C7.26397 6.04794 6.70008 5.91669 6.00008 5.91669C5.30008 5.91669 4.73619 6.04794 4.30841 6.31044C3.88064 6.57294 3.66675 6.91808 3.66675 7.34585V7.66669ZM6.00008 5.33335C6.32092 5.33335 6.59557 5.21912 6.82404 4.99065C7.05251 4.76217 7.16675 4.48752 7.16675 4.16669C7.16675 3.84585 7.05251 3.5712 6.82404 3.34273C6.59557 3.11426 6.32092 3.00002 6.00008 3.00002C5.67925 3.00002 5.4046 3.11426 5.17612 3.34273C4.94765 3.5712 4.83342 3.84585 4.83342 4.16669C4.83342 4.48752 4.94765 4.76217 5.17612 4.99065C5.4046 5.21912 5.67925 5.33335 6.00008 5.33335ZM0.166748 12.3334V1.83335C0.166748 1.51252 0.280984 1.23787 0.509456 1.0094C0.737929 0.780923 1.01258 0.666687 1.33341 0.666687H10.6667C10.9876 0.666687 11.2622 0.780923 11.4907 1.0094C11.7192 1.23787 11.8334 1.51252 11.8334 1.83335V8.83335C11.8334 9.15419 11.7192 9.42884 11.4907 9.65731C11.2622 9.88579 10.9876 10 10.6667 10H2.50008L0.166748 12.3334ZM1.33341 9.51877L2.01883 8.83335H10.6667V1.83335H1.33341V9.51877Z" fill="#070A0C"/>
</svg>
