<svg width="18" height="12" viewBox="0 0 18 12" fill="none" xmlns="http://www.w3.org/2000/svg">
<g id="Frame 3127">
<path id="Vector" d="M12.6672 0.0869141H2.72243C1.40542 0.0869141 0.34375 1.14859 0.34375 2.4656V9.52101C0.34375 10.838 1.40542 11.8997 2.72243 11.8997H17.1155V4.68301C17.1155 4.34704 16.9811 4.02451 16.7526 3.79605L13.6079 0.49008C13.366 0.234742 13.0301 0.0869141 12.6672 0.0869141ZM6.57939 2.58655V4.36048H4.29478V3.17786C4.29478 2.85532 4.56356 2.58655 4.88609 2.58655H6.57939ZM7.60075 7.80083H9.67034V8.91626C9.67034 9.23879 9.40156 9.50757 9.07902 9.50757H4.88609C4.56356 9.50757 4.29478 9.23879 4.29478 8.91626V5.26088H6.57939V6.79292C6.57939 7.34391 7.03631 7.80083 7.60075 7.80083ZM7.4798 2.58655H9.09246C9.415 2.58655 9.68377 2.85532 9.68377 3.17786V6.90043H7.60075C7.53355 6.90043 7.4798 6.84667 7.4798 6.77948V2.58655Z" fill="#1A242D"/>
</g>
</svg>
