<svg xmlns="http://www.w3.org/2000/svg" xmlns:xlink="http://www.w3.org/1999/xlink" viewBox="95 75 84 110" width="500"
     height="500" preserveAspectRatio="xMidYMid meet"
     style="width: 100%; height: 100%; transform: translate3d(0px, 0px, 0px);">
    <g id="k31yGD78Ir" transform="matrix(1,0,0,1,83.75,92.75)" opacity="1" style="display: block;" class="">
        <g id="ce3vDBLULR" opacity="1" transform="matrix(1,0,0,1,52.25,36.25)">
            <path id="Mbq_4RXTWX" fill="rgb(255,255,255)" fill-opacity="1"
                  d=" M-48,-36 C-48,-36 48,-36 48,-36 C50.20899963378906,-36 52,-34.20899963378906 52,-32 C52,-32 52,32 52,32 C52,34.20899963378906 50.20899963378906,36 48,36 C48,36 -48,36 -48,36 C-50.20899963378906,36 -52,34.20899963378906 -52,32 C-52,32 -52,-32 -52,-32 C-52,-34.20899963378906 -50.20899963378906,-36 -48,-36z"></path>
        </g>
        <g id="7CPH1tkeWA" opacity="1" transform="matrix(1,0,0,1,24.25,24.25)">
            <path id="UuRvr81TNv" fill="rgb(250,191,195)" fill-opacity="1"
                  d=" M0,-16 C8.836000442504883,-16 16,-8.836000442504883 16,0 C16,8.836000442504883 8.836000442504883,16 0,16 C-8.836000442504883,16 -16,8.836000442504883 -16,0 C-16,-8.836000442504883 -8.836000442504883,-16 0,-16z"></path>
        </g>
        <g id="OMXTiLEBZU" opacity="1" transform="matrix(1,0,0,1,24.249000549316406,27.75)">
            <path id="ZlVvyJs0aC" fill="rgb(199,24,60)" fill-opacity="1"
                  d=" M0.0010000000474974513,0.8330000042915344 C3.496000051498413,0.8330000042915344 10.40999984741211,2.555999994277954 10.66100025177002,5.974999904632568 C10.66100025177002,5.974999904632568 10.668000221252441,6.166999816894531 10.668000221252441,6.166999816894531 C10.668000221252441,6.166999816894531 10.668000221252441,8.425999641418457 10.668000221252441,8.425999641418457 C7.836999893188477,10.958999633789062 4.098999977111816,12.5 0.0010000000474974513,12.5 C-4.0980000495910645,12.5 -7.8379998207092285,10.958999633789062 -10.668000221252441,8.423999786376953 C-10.668000221252441,8.423999786376953 -10.666999816894531,6.166999816894531 -10.666999816894531,6.166999816894531 C-10.666999816894531,2.619999885559082 -3.559000015258789,0.8330000042915344 0.0010000000474974513,0.8330000042915344z M0.0010000000474974513,-12.5 C2.947999954223633,-12.5 5.334000110626221,-10.11299991607666 5.334000110626221,-7.166999816894531 C5.334000110626221,-4.21999979019165 2.947999954223633,-1.8329999446868896 0.0010000000474974513,-1.8329999446868896 C-2.946000099182129,-1.8329999446868896 -5.333000183105469,-4.21999979019165 -5.333000183105469,-7.166999816894531 C-5.333000183105469,-10.11299991607666 -2.946000099182129,-12.5 0.0010000000474974513,-12.5z"></path>
        </g>
        <g id="S_QcbzTer0" opacity="1" transform="matrix(1,0,0,1,64.25,17.25)">
            <path id="3Bo6YKVGMN" fill="rgb(250,191,195)" fill-opacity="1"
                  d=" M-15,-4 C-15,-4 15,-4 15,-4 C15.553000450134277,-4 16,-3.552000045776367 16,-3 C16,-3 16,3 16,3 C16,3.552000045776367 15.553000450134277,4 15,4 C15,4 -15,4 -15,4 C-15.552000045776367,4 -16,3.552000045776367 -16,3 C-16,3 -16,-3 -16,-3 C-16,-3.552000045776367 -15.552000045776367,-4 -15,-4z"></path>
        </g>
        <g id="Ab5jwoHCJ-" opacity="1" transform="matrix(1,0,0,1,72.25,31.25)">
            <path id="qcJhVn6Dje" fill="rgb(199,24,60)" fill-opacity="1"
                  d=" M-23,-4 C-23,-4 23,-4 23,-4 C23.55299949645996,-4 24,-3.552000045776367 24,-3 C24,-3 24,3 24,3 C24,3.552000045776367 23.55299949645996,4 23,4 C23,4 -23,4 -23,4 C-23.552000045776367,4 -24,3.552000045776367 -24,3 C-24,3 -24,-3 -24,-3 C-24,-3.552000045776367 -23.552000045776367,-4 -23,-4z"></path>
        </g>
        <g id="bHZW_kNjKb" opacity="1" transform="matrix(1,0,0,1,20.25,60.25)">
            <path id="KuyiyrEzDz" fill="rgb(255,236,237)" fill-opacity="1"
                  d=" M-11,-4 C-11,-4 11,-4 11,-4 C11.552000045776367,-4 12,-3.552000045776367 12,-3 C12,-3 12,3 12,3 C12,3.552000045776367 11.552000045776367,4 11,4 C11,4 -11,4 -11,4 C-11.552000045776367,4 -12,3.552000045776367 -12,3 C-12,3 -12,-3 -12,-3 C-12,-3.552000045776367 -11.552000045776367,-4 -11,-4z"></path>
        </g>
        <g id="OUx-ytnWA9" opacity="1" transform="matrix(1,0,0,1,84.25,60.25)">
            <path id="thcOGnC9xQ" fill="rgb(255,236,237)" fill-opacity="1"
                  d=" M-11,-4 C-11,-4 11,-4 11,-4 C11.553000450134277,-4 12,-3.552000045776367 12,-3 C12,-3 12,3 12,3 C12,3.552000045776367 11.553000450134277,4 11,4 C11,4 -11,4 -11,4 C-11.553000450134277,4 -12,3.552000045776367 -12,3 C-12,3 -12,-3 -12,-3 C-12,-3.552000045776367 -11.553000450134277,-4 -11,-4z"></path>
        </g>
    </g>
</svg>