<svg width="12" height="11" viewBox="0 0 12 11" fill="none" xmlns="http://www.w3.org/2000/svg">
<path d="M1.33341 10.1667C1.01258 10.1667 0.737929 10.0525 0.509456 9.824C0.280984 9.59553 0.166748 9.32087 0.166748 9.00004V2.00004C0.166748 1.67921 0.280984 1.40455 0.509456 1.17608C0.737929 0.94761 1.01258 0.833374 1.33341 0.833374H10.6667C10.9876 0.833374 11.2622 0.94761 11.4907 1.17608C11.7192 1.40455 11.8334 1.67921 11.8334 2.00004V9.00004C11.8334 9.32087 11.7192 9.59553 11.4907 9.824C11.2622 10.0525 10.9876 10.1667 10.6667 10.1667H1.33341ZM6.00008 6.08337L1.33341 3.16671V9.00004H10.6667V3.16671L6.00008 6.08337ZM6.00008 4.91671L10.6667 2.00004H1.33341L6.00008 4.91671ZM1.33341 3.16671V2.00004V9.00004V3.16671Z" fill="#070A0C"/>
</svg>
