<svg xmlns="http://www.w3.org/2000/svg" width="16.259" height="16.363" viewBox="0 0 16.259 16.363">
  <g id="Group_965" data-name="Group 965" transform="translate(-1177.368 -1272.908)">
    <path id="Path_2301" data-name="Path 2301" d="M1178.575,1293.771a3.017,3.017,0,0,1-.733-.088.355.355,0,0,1-.259-.259,3.249,3.249,0,0,1,.07-1.746,4.063,4.063,0,0,1,2.619-2.619.355.355,0,1,1,.21.679,3.353,3.353,0,0,0-2.149,2.151,2.615,2.615,0,0,0-.1,1.146,2.656,2.656,0,0,0,1.147-.1,3.352,3.352,0,0,0,2.15-2.151.356.356,0,0,1,.679.211,4.063,4.063,0,0,1-2.619,2.619A3.425,3.425,0,0,1,1178.575,1293.771Z" transform="translate(0 -4.625)" fill="#e40232" stroke="#e21331" stroke-width="0.25"/>
    <path id="Path_2302" data-name="Path 2302" d="M1184.7,1288.564a.369.369,0,0,1-.136-.027.356.356,0,0,1-.219-.329v-1.94a6.407,6.407,0,0,0-3.732-3.737h-1.946a.356.356,0,0,1-.251-.607l2.011-2.011a.361.361,0,0,1,.364-.086l2.607.87a10.768,10.768,0,0,1,3.057-5.806,7.33,7.33,0,0,1,6.873-1.609.357.357,0,0,1,.271.288,8.789,8.789,0,0,1-1.571,6.8,8.048,8.048,0,0,1-5.842,3.124l.863,2.59a.357.357,0,0,1-.087.364l-2.011,2.011A.355.355,0,0,1,1184.7,1288.564Zm-5.175-6.744h1.153a.341.341,0,0,1,.125.023,7.19,7.19,0,0,1,4.227,4.221.361.361,0,0,1,.026.134v1.153l1.249-1.249-.937-2.808a.355.355,0,0,1,.313-.467,7.505,7.505,0,0,0,5.777-2.879,7.959,7.959,0,0,0,1.475-6.025,6.508,6.508,0,0,0-5.986,1.479,9.9,9.9,0,0,0-2.9,5.8.356.356,0,0,1-.466.3l-2.809-.936Z" transform="translate(-0.236)" fill="#e40232" stroke="#e21331" stroke-width="0.25"/>
    <path id="Path_2303" data-name="Path 2303" d="M1193.648,1279.873a1.761,1.761,0,0,1-1.256-.521,1.778,1.778,0,1,1,1.256.521Zm0-2.844a1.067,1.067,0,0,0-.754,1.821,1.093,1.093,0,0,0,1.508,0,1.067,1.067,0,0,0-.754-1.821Z" transform="translate(-4.154 -0.949)" fill="#e40232" stroke="#e21331" stroke-width="0.25"/>
  </g>
</svg>
