<svg width="52" height="52" viewBox="0 0 52 52" fill="none" xmlns="http://www.w3.org/2000/svg">
<path d="M26.0037 46.5831C23.1568 46.5831 20.4809 46.0428 17.9759 44.9624C15.4709 43.882 13.292 42.4157 11.439 40.5635C9.58599 38.7113 8.11903 36.5333 7.03812 34.0295C5.95721 31.5256 5.41675 28.8503 5.41675 26.0034C5.41675 23.1566 5.95697 20.4807 7.03742 17.9757C8.11786 15.4707 9.58415 13.2917 11.4363 11.4388C13.2885 9.58575 15.4665 8.11879 17.9704 7.03787C20.4742 5.95696 23.1495 5.4165 25.9964 5.4165C28.8433 5.4165 31.5192 5.95673 34.0241 7.03717C36.5291 8.11762 38.7081 9.58391 40.5611 11.436C42.4141 13.2882 43.881 15.4662 44.9619 17.9701C46.0429 20.474 46.5833 23.1493 46.5833 25.9962C46.5833 28.843 46.0431 31.5189 44.9626 34.0239C43.8822 36.5289 42.4159 38.7078 40.5638 40.5608C38.7116 42.4138 36.5336 43.8808 34.0297 44.9617C31.5259 46.0426 28.8505 46.5831 26.0037 46.5831ZM23.7125 44.0497V39.6706C22.4601 39.6706 21.4047 39.215 20.5461 38.304C19.6876 37.3928 19.2584 36.3123 19.2584 35.0623V32.7414L8.34169 21.8248C8.18894 22.5192 8.07297 23.2121 7.99378 23.9034C7.91463 24.5947 7.87505 25.2951 7.87505 26.0044C7.87505 30.6124 9.37644 34.6366 12.3792 38.0768C15.382 41.5171 19.1598 43.5081 23.7125 44.0497ZM39.3875 38.2831C40.1542 37.4442 40.8319 36.5455 41.4208 35.5869C42.0098 34.6283 42.5095 33.6253 42.9202 32.5777C43.331 31.5302 43.6344 30.456 43.8307 29.3552C44.0269 28.2545 44.125 27.136 44.125 25.9998C44.125 22.2449 43.0986 18.8256 41.0459 15.742C38.9931 12.6583 36.2361 10.4151 32.775 9.0123V10.0154C32.775 11.2605 32.3458 12.3387 31.4873 13.2498C30.6288 14.1609 29.5733 14.6164 28.3209 14.6164H23.7125V19.2248C23.7125 19.8446 23.4792 20.3551 23.0125 20.7563C22.5459 21.1575 22.008 21.3581 21.399 21.3581H16.9376V25.9998H30.6417C31.2615 25.9998 31.772 26.2276 32.1732 26.6831C32.5744 27.1387 32.775 27.6734 32.775 28.2873V35.0623H35.0537C36.079 35.0623 36.986 35.3615 37.7746 35.9601C38.5632 36.5586 39.1009 37.3329 39.3875 38.2831Z" fill="#E21331"/>
</svg>
