<svg width="12" height="16" viewBox="0 0 12 16" fill="none" xmlns="http://www.w3.org/2000/svg">
<path d="M5.99998 7.81246C6.36441 7.81246 6.67426 7.68482 6.92953 7.42953C7.18482 7.17426 7.31246 6.86441 7.31246 6.49998C7.31246 6.13556 7.18482 5.82571 6.92953 5.57043C6.67426 5.31514 6.36441 5.1875 5.99998 5.1875C5.63556 5.1875 5.32571 5.31514 5.07043 5.57043C4.81514 5.82571 4.6875 6.13556 4.6875 6.49998C4.6875 6.86441 4.81514 7.17426 5.07043 7.42953C5.32571 7.68482 5.63556 7.81246 5.99998 7.81246ZM5.99998 13.8514C7.54422 12.4707 8.71153 11.1531 9.50192 9.89879C10.2923 8.64446 10.6875 7.56152 10.6875 6.64998C10.6875 5.22978 10.2351 4.06848 9.33028 3.16608C8.42547 2.26367 7.31537 1.81246 5.99998 1.81246C4.68459 1.81246 3.57449 2.26367 2.66968 3.16608C1.76487 4.06848 1.31246 5.22978 1.31246 6.64998C1.31246 7.56152 1.70766 8.64446 2.49804 9.89879C3.28843 11.1531 4.45574 12.4707 5.99998 13.8514ZM5.99998 15.3557C4.04518 13.6577 2.58773 12.0815 1.62763 10.6271C0.667544 9.17281 0.1875 7.84709 0.1875 6.64998C0.1875 4.83268 0.772593 3.38461 1.94278 2.30576C3.11297 1.22692 4.46537 0.6875 5.99998 0.6875C7.53459 0.6875 8.88699 1.22692 10.0572 2.30576C11.2274 3.38461 11.8125 4.83268 11.8125 6.64998C11.8125 7.84709 11.3324 9.17281 10.3723 10.6271C9.41223 12.0815 7.95478 13.6577 5.99998 15.3557Z" fill="#1A242D"/>
</svg>
