<svg id="Group_2268" data-name="Group 2268" xmlns="http://www.w3.org/2000/svg" xmlns:xlink="http://www.w3.org/1999/xlink" width="19.763" height="15.864" viewBox="0 0 19.763 15.864">
  <defs>
    <clipPath id="clip-path">
      <rect id="Rectangle_64635" data-name="Rectangle 64635" width="19.763" height="15.864" transform="translate(0 0)" fill="none"/>
    </clipPath>
  </defs>
  <g id="Group_2267" data-name="Group 2267" transform="translate(0 0)" clip-path="url(#clip-path)">
    <path id="Path_4520" data-name="Path 4520" d="M4.334,37.974a1.545,1.545,0,0,1-.454-1.1V33.2H1.253A1.253,1.253,0,0,0,0,34.457v5.93A1.252,1.252,0,0,0,1.253,41.64h.331v1.7a.125.125,0,0,0,.214.089L3.588,41.64h7.684a1.252,1.252,0,0,0,1.253-1.253V38.428H5.431a1.545,1.545,0,0,1-1.1-.454" transform="translate(0 -27.604)" fill="#d70024"/>
    <path id="Path_4521" data-name="Path 4521" d="M34.48,13.473a.547.547,0,0,1-.384-.159l-2.1-2.1H22.649a1.937,1.937,0,0,1-1.938-1.938V1.938A1.938,1.938,0,0,1,22.649,0H35.043a1.938,1.938,0,0,1,1.938,1.938V9.275a1.937,1.937,0,0,1-1.938,1.938h-.021v1.718a.543.543,0,0,1-.543.543M22.649.775a1.162,1.162,0,0,0-1.163,1.163V9.275a1.162,1.162,0,0,0,1.163,1.163h9.667l1.932,1.932V10.437h.8a1.163,1.163,0,0,0,1.163-1.163V1.938A1.163,1.163,0,0,0,35.043.775Z" transform="translate(-17.218 0)" fill="#131b22"/>
    <rect id="Rectangle_64631" data-name="Rectangle 64631" width="11.775" height="6.717" transform="translate(5.741 2.248)" fill="#5b94cf"/>
    <rect id="Rectangle_64632" data-name="Rectangle 64632" width="0.698" height="0.775" transform="translate(9.884 5.219)" fill="#131b22"/>
    <rect id="Rectangle_64633" data-name="Rectangle 64633" width="0.698" height="0.775" transform="translate(11.279 5.219)" fill="#131b22"/>
    <rect id="Rectangle_64634" data-name="Rectangle 64634" width="0.698" height="0.775" transform="translate(12.674 5.219)" fill="#131b22"/>
  </g>
</svg>
