<svg width="50" height="50" viewBox="0 0 50 50" fill="none" xmlns="http://www.w3.org/2000/svg">
<g clip-path="url(#clip0_5005_34856)">
<path d="M42 0H8C3.58172 0 0 3.58172 0 8V42C0 46.4183 3.58172 50 8 50H42C46.4183 50 50 46.4183 50 42V8C50 3.58172 46.4183 0 42 0Z" fill="white"/>
<path d="M24.2501 29.6799H25.7501V25.7599H29.6901V24.2599H25.7501V20.3199H24.2501V24.2599H20.3101V25.7599H24.2501V29.6799Z" fill="black"/>
<path d="M42 0.5H8C3.85786 0.5 0.5 3.85786 0.5 8V42C0.5 46.1421 3.85786 49.5 8 49.5H42C46.1421 49.5 49.5 46.1421 49.5 42V8C49.5 3.85786 46.1421 0.5 42 0.5Z" stroke="#1A242D"/>
</g>
<defs>
<clipPath id="clip0_5005_34856">
<rect width="50" height="50" fill="white"/>
</clipPath>
</defs>
</svg>
