<?xml version="1.0" encoding="utf-8"?>
<!-- Generator: Adobe Illustrator 26.3.1, SVG Export Plug-In . SVG Version: 6.00 Build 0)  -->
<svg version="1.1" id="_x3C_Layer_x3E_" xmlns="http://www.w3.org/2000/svg" xmlns:xlink="http://www.w3.org/1999/xlink" x="0px"
	 y="0px" viewBox="0 0 2200 2200" style="enable-background:new 0 0 2200 2200;" xml:space="preserve">
<style type="text/css">
	.st0{fill:#E21331;}
</style>
<g>
	<g>
		<g>
			<path d="M888.4,1905.4H592.6c-53.6,0-97.2-43.6-97.2-97.2V1082c0-11,9-20,20-20c11,0,20,9,20,20v726.2
				c0,31.6,25.7,57.2,57.2,57.2h295.9c11,0,20,9,20,20S899.5,1905.4,888.4,1905.4z"/>
			<path d="M1561,1905.4h-305.2c-11,0-20-9-20-20s9-20,20-20H1561c31.6,0,57.2-25.7,57.2-57.2V1082c0-11,9-20,20-20s20,9,20,20
				v726.2C1658.2,1861.8,1614.6,1905.4,1561,1905.4z"/>
			<path d="M855.9,1102H524.2c-85.2,0-154.5-69.3-154.5-154.5v-11.8c0-85.2,69.3-154.5,154.5-154.5h234c11,0,20,9,20,20s-9,20-20,20
				h-234c-63.1,0-114.5,51.3-114.5,114.5v11.8c0,63.1,51.3,114.5,114.5,114.5h331.7c11,0,20,9,20,20S866.9,1102,855.9,1102z"/>
			<path d="M1629.4,1102h-341.9c-11,0-20-9-20-20s9-20,20-20h341.9c63.1,0,114.5-51.3,114.5-114.5v-11.8
				c0-63.1-51.3-114.5-114.5-114.5H1447c-11,0-20-9-20-20s9-20,20-20h182.4c85.2,0,154.5,69.3,154.5,154.5v11.8
				C1783.8,1032.7,1714.6,1102,1629.4,1102z"/>
			<path class="st0" d="M1086.9,821c-0.3,0-0.7,0-1,0l-189.5-9.7c-53.1-2.7-102.6-22.3-143.2-56.7c-40.6-34.4-68-80-79.4-131.9
				c-16.1-73.4,19.3-148.7,86-183.3c40.9-21.2,89.2-24.4,132.6-8.8c43.3,15.5,78.6,48.7,96.7,91.1l116.2,271.4
				c2.7,6.3,2,13.6-2,19.3C1099.6,817.8,1093.4,821,1086.9,821z M836.1,460.7c-19.9,0-39.6,4.8-57.9,14.2
				c-50.7,26.2-77.5,83.4-65.3,139.2c9.5,43.3,32.4,81.3,66.2,110c33.8,28.7,75.1,45,119.3,47.2l157.4,8l-103.6-242
				c-14-32.6-40.1-57.2-73.5-69.2C864.9,463.2,850.4,460.7,836.1,460.7z"/>
			<path class="st0" d="M1074.9,820.4c-6.5,0-12.6-3.1-16.3-8.5c-4-5.6-4.8-12.9-2.1-19.2l127.7-306.6
				c19.9-47.8,58.8-85,106.7-102.2c23-8.2,46.9-11.6,71.1-10c25.1,1.6,49.3,8.5,71.8,20.5c72.3,38.5,110.7,122.3,93.3,203.9
				c-12.4,58.1-42.3,109.1-86.4,147.5c-21.6,18.8-45.8,33.8-72,44.6c-26.9,11.1-55.3,17.5-84.3,19L1076,820.4
				C1075.6,820.4,1075.3,820.4,1074.9,820.4z M1350.5,413.5c-15.5,0-31.1,2.7-46.3,8.1c-37.3,13.3-67.6,42.5-83.2,79.9l-115.4,277.3
				l176.5-9.2c49-2.6,94.7-21.2,132.1-53.8c37.6-32.7,63-76.2,73.6-125.7c13.7-64.2-16.3-130.1-72.9-160.3
				C1394.6,419,1372.6,413.5,1350.5,413.5z"/>
			<path class="st0" d="M1225.7,1102H925.9c-11,0-20-9-20-20V800.5c0-11,9-20,20-20h299.8c11,0,20,9,20,20V1082
				C1245.7,1093,1236.8,1102,1225.7,1102z M945.9,1062h259.8V820.5H945.9V1062z"/>
			<path class="st0" d="M1197.6,1905.4H954c-11,0-20-9-20-20V1082c0-11,9-20,20-20h243.6c11,0,20,9,20,20v803.4
				C1217.6,1896.5,1208.7,1905.4,1197.6,1905.4z M974,1865.4h203.6V1102H974V1865.4z"/>
		</g>
	</g>
</g>
</svg>
