<svg width="10" height="9" viewBox="0 0 10 9" fill="none" xmlns="http://www.w3.org/2000/svg">
<path d="M4.23915 1.34164C4.47864 0.604593 5.52136 0.604592 5.76085 1.34164L6.16747 2.59311C6.27457 2.92273 6.58174 3.1459 6.92832 3.1459H8.24419C9.01917 3.1459 9.34139 4.13759 8.71442 4.59311L7.64986 5.36656C7.36947 5.57028 7.25214 5.93137 7.35924 6.26099L7.76587 7.51246C8.00535 8.24951 7.16176 8.86241 6.53479 8.40689L5.47023 7.63344C5.18984 7.42972 4.81016 7.42972 4.52977 7.63344L3.46521 8.40689C2.83824 8.86241 1.99465 8.24951 2.23413 7.51246L2.64076 6.26099C2.74786 5.93137 2.63053 5.57028 2.35014 5.36656L1.28558 4.59311C0.658609 4.13759 0.98083 3.1459 1.75581 3.1459H3.07168C3.41826 3.1459 3.72543 2.92273 3.83253 2.59311L4.23915 1.34164Z" fill="#BA9865"/>
</svg>
