<svg id="Group_2238" data-name="Group 2238" xmlns="http://www.w3.org/2000/svg" xmlns:xlink="http://www.w3.org/1999/xlink" width="49.832" height="49.855" viewBox="0 0 49.832 49.855">
  <defs>
    <clipPath id="clip-path">
      <rect id="Rectangle_64574" data-name="Rectangle 64574" width="49.832" height="49.855" fill="none"/>
    </clipPath>
  </defs>
  <g id="Group_2237" data-name="Group 2237" clip-path="url(#clip-path)">
    <path id="Path_4424" data-name="Path 4424" d="M21.654,30.814v3.634H34.431V21.667H30.8l.413-.413a18.226,18.226,0,0,0-9.976,9.981Z" transform="translate(-13.147 -13.159)" fill="#5b94cf"/>
    <path id="Path_4425" data-name="Path 4425" d="M78.6,21.668H74.967v12.78H87.738V30.816l.43.43a18.223,18.223,0,0,0-9.98-9.991Z" transform="translate(-46.414 -13.16)" fill="#5b94cf"/>
    <path id="Path_4426" data-name="Path 4426" d="M87.738,78.614V74.979H74.967v12.79H78.6l-.4.4a18.221,18.221,0,0,0,9.965-9.983Z" transform="translate(-46.414 -46.422)" fill="#5b94cf"/>
    <path id="Path_4427" data-name="Path 4427" d="M30.8,87.769h3.634V74.979H21.655v3.634l-.42-.421a18.225,18.225,0,0,0,9.96,9.975Z" transform="translate(-13.147 -46.422)" fill="#5b94cf"/>
    <path id="Path_4428" data-name="Path 4428" d="M24.918,49.855l-9.385-9.385h4.874V29.434H9.385v4.875L0,24.924l9.385-9.385v4.874H20.408V9.385H15.534L24.918,0,34.3,9.385H29.429V20.412H40.447V15.539l9.385,9.385-9.385,9.385V29.434H29.429V40.471H34.3Zm-5.151-7.631,5.151,5.151,5.151-5.151H27.676V27.68H42.2v2.395l5.151-5.151L42.2,19.773v2.393H27.676V7.631H30.07L24.918,2.48,19.767,7.631h2.394V22.166H7.631V19.772L2.48,24.924l5.151,5.151V27.68H22.162V42.224Z" fill="#131b22"/>
    <rect id="Rectangle_64562" data-name="Rectangle 64562" width="1.754" height="1.817" transform="translate(24.042 20.381)" fill="#d70024"/>
    <rect id="Rectangle_64563" data-name="Rectangle 64563" width="1.754" height="1.817" transform="translate(24.042 16.747)" fill="#d70024"/>
    <rect id="Rectangle_64564" data-name="Rectangle 64564" width="1.754" height="1.817" transform="translate(24.042 13.113)" fill="#d70024"/>
    <rect id="Rectangle_64565" data-name="Rectangle 64565" width="1.754" height="1.817" transform="translate(24.042 27.649)" fill="#d70024"/>
    <rect id="Rectangle_64566" data-name="Rectangle 64566" width="1.754" height="1.818" transform="translate(24.042 31.283)" fill="#d70024"/>
    <rect id="Rectangle_64567" data-name="Rectangle 64567" width="1.754" height="1.817" transform="translate(24.042 34.917)" fill="#d70024"/>
    <rect id="Rectangle_64568" data-name="Rectangle 64568" width="1.817" height="1.754" transform="translate(20.376 24.046)" fill="#d70024"/>
    <rect id="Rectangle_64569" data-name="Rectangle 64569" width="1.817" height="1.754" transform="translate(16.742 24.046)" fill="#d70024"/>
    <rect id="Rectangle_64570" data-name="Rectangle 64570" width="1.817" height="1.754" transform="translate(13.108 24.046)" fill="#d70024"/>
    <rect id="Rectangle_64571" data-name="Rectangle 64571" width="1.817" height="1.754" transform="translate(27.645 24.046)" fill="#d70024"/>
    <rect id="Rectangle_64572" data-name="Rectangle 64572" width="1.818" height="1.754" transform="translate(31.278 24.046)" fill="#d70024"/>
    <rect id="Rectangle_64573" data-name="Rectangle 64573" width="1.818" height="1.754" transform="translate(34.912 24.046)" fill="#d70024"/>
  </g>
</svg>
