<svg width="45" height="45" viewBox="0 0 45 45" fill="none" xmlns="http://www.w3.org/2000/svg">
<circle cx="22.5" cy="22.5" r="22" fill="#F4F4F4"/>
<path d="M22.5489 10.8943H21.4502V11.8774H22.5489V10.8943Z" fill="#19232D"/>
<path d="M28.7156 34.5668H15.2865C13.7508 34.5668 12.5 33.3181 12.5 31.7846V11.7865C12.5 10.2487 13.7508 9 15.2865 9H28.7156C30.2513 9 31.5021 10.2487 31.5021 11.7865V31.7824C31.5021 33.316 30.2535 34.5646 28.7156 34.5646V34.5668ZM15.2865 9.98309C14.2927 9.98309 13.4831 10.7906 13.4831 11.7865V31.7824C13.4831 32.7741 14.2927 33.5816 15.2865 33.5816H28.7156C29.7094 33.5816 30.5169 32.7741 30.5169 31.7824V11.7865C30.5169 10.7927 29.7094 9.98309 28.7156 9.98309H15.2865Z" fill="#19232D"/>
<path d="M29.0282 12.7339H14.9736V30.83H29.0282V12.7339Z" fill="#E21432"/>
<path d="M26.2283 21.7832C26.2283 24.1178 24.335 26.0112 22.0004 26.0112C19.6658 26.0112 17.7725 24.1178 17.7725 21.7832C17.7725 19.4487 19.6658 17.5553 22.0004 17.5553C24.335 17.5553 26.2283 19.4487 26.2283 21.7832Z" fill="white"/>
<path d="M21.4567 23.8559L19.4434 21.8405L20.1373 21.1444L21.4567 22.4637L23.8619 20.0585L24.558 20.7546L21.4567 23.8559Z" fill="#19232D"/>
<path d="M22.0008 26.5035C19.3985 26.5035 17.2803 24.3852 17.2803 21.7829C17.2803 19.1806 19.3985 17.0624 22.0008 17.0624C24.6031 17.0624 26.7214 19.1806 26.7214 21.7829C26.7214 24.3852 24.6031 26.5035 22.0008 26.5035ZM22.0008 18.0476C19.9404 18.0476 18.2634 19.7246 18.2634 21.7851C18.2634 23.8455 19.9404 25.5225 22.0008 25.5225C24.0612 25.5225 25.7383 23.8455 25.7383 21.7851C25.7383 19.7246 24.0612 18.0476 22.0008 18.0476Z" fill="#19232D"/>
</svg>
