<svg xmlns="http://www.w3.org/2000/svg" width="39" height="38.999" viewBox="0 0 39 38.999">
  <g id="Group_1260" data-name="Group 1260" transform="translate(-1024.399 -7838.708)">
    <rect id="Rectangle_64148" data-name="Rectangle 64148" width="29.249" height="29.249" transform="translate(1029.274 7843.583)" fill="#d70024"/>
    <path id="Path_4284" data-name="Path 4284" d="M1069.76,7884.07h-23.724v-23.724h23.724Zm-22.1-1.625h20.474v-20.474h-20.474Z" transform="translate(-13.999 -14)" fill="#fff"/>
    <g id="Group_1255" data-name="Group 1255" transform="translate(1032.036 7838.708)">
      <rect id="Rectangle_64149" data-name="Rectangle 64149" width="1.625" height="3.25" transform="translate(0)" fill="#131b22"/>
      <rect id="Rectangle_64150" data-name="Rectangle 64150" width="1.625" height="3.25" transform="translate(3.157)" fill="#131b22"/>
      <rect id="Rectangle_64151" data-name="Rectangle 64151" width="1.625" height="3.25" transform="translate(6.314)" fill="#131b22"/>
      <rect id="Rectangle_64152" data-name="Rectangle 64152" width="1.625" height="3.25" transform="translate(9.471)" fill="#131b22"/>
      <rect id="Rectangle_64153" data-name="Rectangle 64153" width="1.625" height="3.25" transform="translate(12.628)" fill="#131b22"/>
      <rect id="Rectangle_64154" data-name="Rectangle 64154" width="1.625" height="3.25" transform="translate(15.785)" fill="#131b22"/>
      <rect id="Rectangle_64155" data-name="Rectangle 64155" width="1.625" height="3.25" transform="translate(18.942)" fill="#131b22"/>
      <rect id="Rectangle_64156" data-name="Rectangle 64156" width="1.625" height="3.25" transform="translate(22.099)" fill="#131b22"/>
    </g>
    <g id="Group_1256" data-name="Group 1256" transform="translate(1032.036 7874.458)">
      <rect id="Rectangle_64157" data-name="Rectangle 64157" width="1.625" height="3.249" transform="translate(0)" fill="#131b22"/>
      <rect id="Rectangle_64158" data-name="Rectangle 64158" width="1.625" height="3.249" transform="translate(3.157)" fill="#131b22"/>
      <rect id="Rectangle_64159" data-name="Rectangle 64159" width="1.625" height="3.249" transform="translate(6.314)" fill="#131b22"/>
      <rect id="Rectangle_64160" data-name="Rectangle 64160" width="1.625" height="3.249" transform="translate(9.471)" fill="#131b22"/>
      <rect id="Rectangle_64161" data-name="Rectangle 64161" width="1.625" height="3.249" transform="translate(12.628)" fill="#131b22"/>
      <rect id="Rectangle_64162" data-name="Rectangle 64162" width="1.625" height="3.249" transform="translate(15.785)" fill="#131b22"/>
      <rect id="Rectangle_64163" data-name="Rectangle 64163" width="1.625" height="3.249" transform="translate(18.942)" fill="#131b22"/>
      <rect id="Rectangle_64164" data-name="Rectangle 64164" width="1.625" height="3.249" transform="translate(22.099)" fill="#131b22"/>
    </g>
    <g id="Group_1257" data-name="Group 1257" transform="translate(1060.148 7846.346)">
      <rect id="Rectangle_64165" data-name="Rectangle 64165" width="3.25" height="1.625" transform="translate(0)" fill="#131b22"/>
      <rect id="Rectangle_64166" data-name="Rectangle 64166" width="3.25" height="1.625" transform="translate(0 3.156)" fill="#131b22"/>
      <rect id="Rectangle_64167" data-name="Rectangle 64167" width="3.25" height="1.625" transform="translate(0 6.314)" fill="#131b22"/>
      <rect id="Rectangle_64168" data-name="Rectangle 64168" width="3.25" height="1.625" transform="translate(0 9.471)" fill="#131b22"/>
      <rect id="Rectangle_64169" data-name="Rectangle 64169" width="3.25" height="1.625" transform="translate(0 12.628)" fill="#131b22"/>
      <rect id="Rectangle_64170" data-name="Rectangle 64170" width="3.25" height="1.625" transform="translate(0 15.785)" fill="#131b22"/>
      <rect id="Rectangle_64171" data-name="Rectangle 64171" width="3.25" height="1.625" transform="translate(0 18.942)" fill="#131b22"/>
      <rect id="Rectangle_64172" data-name="Rectangle 64172" width="3.25" height="1.625" transform="translate(0 22.099)" fill="#131b22"/>
    </g>
    <g id="Group_1258" data-name="Group 1258" transform="translate(1024.399 7846.346)">
      <rect id="Rectangle_64173" data-name="Rectangle 64173" width="3.25" height="1.625" transform="translate(0)" fill="#131b22"/>
      <rect id="Rectangle_64174" data-name="Rectangle 64174" width="3.25" height="1.625" transform="translate(0 3.156)" fill="#131b22"/>
      <rect id="Rectangle_64175" data-name="Rectangle 64175" width="3.25" height="1.625" transform="translate(0 6.314)" fill="#131b22"/>
      <rect id="Rectangle_64176" data-name="Rectangle 64176" width="3.25" height="1.625" transform="translate(0 9.471)" fill="#131b22"/>
      <rect id="Rectangle_64177" data-name="Rectangle 64177" width="3.25" height="1.625" transform="translate(0 12.628)" fill="#131b22"/>
      <rect id="Rectangle_64178" data-name="Rectangle 64178" width="3.25" height="1.625" transform="translate(0 15.785)" fill="#131b22"/>
      <rect id="Rectangle_64179" data-name="Rectangle 64179" width="3.25" height="1.625" transform="translate(0 18.942)" fill="#131b22"/>
      <rect id="Rectangle_64180" data-name="Rectangle 64180" width="3.25" height="1.625" transform="translate(0 22.099)" fill="#131b22"/>
    </g>
    <g id="Group_1259" data-name="Group 1259" transform="translate(1038.35 7852.66)">
      <rect id="Rectangle_64181" data-name="Rectangle 64181" width="1.625" height="1.625" transform="translate(0)" fill="#131b22"/>
      <rect id="Rectangle_64182" data-name="Rectangle 64182" width="1.625" height="1.625" transform="translate(3.158)" fill="#131b22"/>
      <rect id="Rectangle_64183" data-name="Rectangle 64183" width="1.625" height="1.625" transform="translate(6.315)" fill="#131b22"/>
      <rect id="Rectangle_64184" data-name="Rectangle 64184" width="1.625" height="1.625" transform="translate(9.472)" fill="#131b22"/>
      <rect id="Rectangle_64185" data-name="Rectangle 64185" width="1.625" height="1.625" transform="translate(0 3.157)" fill="#131b22"/>
      <rect id="Rectangle_64186" data-name="Rectangle 64186" width="1.625" height="1.625" transform="translate(3.158 3.157)" fill="#131b22"/>
      <rect id="Rectangle_64187" data-name="Rectangle 64187" width="1.625" height="1.625" transform="translate(6.315 3.157)" fill="#131b22"/>
      <rect id="Rectangle_64188" data-name="Rectangle 64188" width="1.625" height="1.625" transform="translate(9.472 3.157)" fill="#131b22"/>
      <rect id="Rectangle_64189" data-name="Rectangle 64189" width="1.625" height="1.625" transform="translate(0 6.314)" fill="#131b22"/>
      <rect id="Rectangle_64190" data-name="Rectangle 64190" width="1.625" height="1.625" transform="translate(3.158 6.314)" fill="#131b22"/>
      <rect id="Rectangle_64191" data-name="Rectangle 64191" width="1.625" height="1.625" transform="translate(6.315 6.314)" fill="#131b22"/>
      <rect id="Rectangle_64192" data-name="Rectangle 64192" width="1.625" height="1.625" transform="translate(9.472 6.314)" fill="#131b22"/>
      <rect id="Rectangle_64193" data-name="Rectangle 64193" width="1.625" height="1.625" transform="translate(0 9.472)" fill="#131b22"/>
      <rect id="Rectangle_64194" data-name="Rectangle 64194" width="1.625" height="1.625" transform="translate(3.158 9.472)" fill="#131b22"/>
      <rect id="Rectangle_64195" data-name="Rectangle 64195" width="1.625" height="1.625" transform="translate(6.315 9.472)" fill="#131b22"/>
      <rect id="Rectangle_64196" data-name="Rectangle 64196" width="1.625" height="1.625" transform="translate(9.472 9.472)" fill="#131b22"/>
    </g>
  </g>
</svg>
