<svg width="20" height="21" viewBox="0 0 20 21" fill="none" xmlns="http://www.w3.org/2000/svg">
<g id="Icons/Outline/Clock">
<mask id="mask0_352_44077" style="mask-type:alpha" maskUnits="userSpaceOnUse" x="0" y="0" width="20" height="21">
<rect id="Bounding box" y="0.5" width="20" height="20" fill="#D9D9D9"/>
</mask>
<g mask="url(#mask0_352_44077)">
<path id="schedule" d="M12.8941 14.2724L13.7723 13.3943L10.6249 10.2466V6.33334H9.37492V10.7532L12.8941 14.2724ZM10.0013 18.4167C8.90635 18.4167 7.87715 18.2089 6.91371 17.7933C5.95025 17.3778 5.11218 16.8138 4.3995 16.1014C3.68681 15.3891 3.12259 14.5514 2.70686 13.5883C2.29112 12.6253 2.08325 11.5963 2.08325 10.5014C2.08325 9.40646 2.29103 8.37726 2.70659 7.41382C3.12214 6.45036 3.6861 5.61229 4.39846 4.89961C5.11084 4.18692 5.94854 3.6227 6.91156 3.20696C7.87458 2.79123 8.90356 2.58336 9.9985 2.58336C11.0934 2.58336 12.1226 2.79114 13.0861 3.20669C14.0495 3.62225 14.8876 4.18621 15.6003 4.89857C16.313 5.61094 16.8772 6.44864 17.2929 7.41167C17.7087 8.37469 17.9165 9.40367 17.9165 10.4986C17.9165 11.5936 17.7088 12.6227 17.2932 13.5862C16.8777 14.5497 16.3137 15.3877 15.6013 16.1004C14.889 16.8131 14.0513 17.3773 13.0882 17.793C12.1252 18.2088 11.0962 18.4167 10.0013 18.4167ZM9.9999 17.1667C11.8471 17.1667 13.42 16.5174 14.7186 15.2188C16.0173 13.9201 16.6666 12.3472 16.6666 10.5C16.6666 8.65278 16.0173 7.07987 14.7186 5.78126C13.42 4.48264 11.8471 3.83334 9.9999 3.83334C8.15268 3.83334 6.57976 4.48264 5.28115 5.78126C3.98254 7.07987 3.33323 8.65278 3.33323 10.5C3.33323 12.3472 3.98254 13.9201 5.28115 15.2188C6.57976 16.5174 8.15268 17.1667 9.9999 17.1667Z" fill="#606060"/>
</g>
</g>
</svg>
