<?xml version="1.0" encoding="utf-8"?>
<!-- Generator: Adobe Illustrator 26.3.1, SVG Export Plug-In . SVG Version: 6.00 Build 0)  -->
<svg version="1.1" id="_x3C_Layer_x3E_" xmlns="http://www.w3.org/2000/svg" xmlns:xlink="http://www.w3.org/1999/xlink" x="0px"
	 y="0px" viewBox="0 0 2200 2200" style="enable-background:new 0 0 2200 2200;" xml:space="preserve">
<style type="text/css">
	.st0{fill:#E21331;}
</style>
<g id="black_list_email_blocked">
	<path d="M1096,1317.2c-34.8,0-69.6-11.2-98.6-33.6L400.8,842c-8.9-6.6-10.7-19.1-4.2-28c6.6-8.9,19.1-10.8,28-4.2l596.8,441.7
		c0.1,0.1,0.2,0.2,0.3,0.3c43.8,33.9,104.9,33.9,148.6,0c0.1-0.1,0.2-0.2,0.3-0.3l235.7-174.4c8.9-6.6,21.4-4.7,28,4.2
		c6.6,8.9,4.7,21.4-4.2,28l-235.5,174.3C1165.6,1306,1130.8,1317.2,1096,1317.2z"/>
	<path d="M1708.7,1788.5H483.3c-76,0-137.8-61.8-137.8-137.8v-754c0-76,61.8-137.8,137.8-137.8h690.2c11,0,20,9,20,20s-9,20-20,20
		H483.3c-53.9,0-97.8,43.9-97.8,97.8v754c0,53.9,43.9,97.8,97.8,97.8h1225.3c53.9,0,97.8-43.9,97.8-97.8v-650.3c0-11,9-20,20-20
		s20,9,20,20v650.3C1846.5,1726.7,1784.7,1788.5,1708.7,1788.5z"/>
	<path d="M412.7,1741.4c-6.5,0-12.9-3.2-16.8-9.1c-6-9.3-3.4-21.6,5.8-27.7l542-353.5c9.3-6,21.6-3.4,27.7,5.8
		c6,9.3,3.4,21.6-5.8,27.7l-542,353.5C420.2,1740.3,416.4,1741.4,412.7,1741.4z"/>
	<path d="M1779.3,1741.4c-3.7,0-7.5-1.1-10.9-3.2l-542-353.5c-9.3-6-11.9-18.4-5.8-27.7c6-9.3,18.4-11.9,27.7-5.8l542,353.5
		c9.3,6,11.9,18.4,5.8,27.7C1792.3,1738.2,1785.9,1741.4,1779.3,1741.4z"/>
	<g>
		<path class="st0" d="M1542.9,1043.3c-80.3,0-155.8-31.3-212.6-88.1c-56.8-56.8-88.1-132.3-88.1-212.6s31.3-155.8,88.1-212.6
			c56.8-56.8,132.3-88.1,212.6-88.1s155.8,31.3,212.6,88.1c56.8,56.8,88.1,132.3,88.1,212.6s-31.3,155.8-88.1,212.6
			C1698.6,1012.1,1623.2,1043.3,1542.9,1043.3z M1542.9,482.1c-69.6,0-135.1,27.1-184.3,76.3s-76.3,114.7-76.3,184.3
			s27.1,135.1,76.3,184.3c49.2,49.2,114.7,76.3,184.3,76.3s135.1-27.1,184.3-76.3c49.2-49.2,76.3-114.7,76.3-184.3
			s-27.1-135.1-76.3-184.3C1677.9,509.2,1612.5,482.1,1542.9,482.1z"/>
		<path class="st0" d="M1324.6,920.5c-6.2,0-12.3-2.9-16.2-8.3c-6.5-9-4.5-21.5,4.5-27.9l436.4-315.6c9-6.5,21.5-4.5,27.9,4.5
			c6.5,9,4.5,21.5-4.5,27.9l-436.4,315.6C1332.8,919.3,1328.7,920.5,1324.6,920.5z"/>
	</g>
</g>
</svg>
