<svg width="60" height="62" viewBox="0 0 60 62" fill="none" xmlns="http://www.w3.org/2000/svg">
<path d="M19.1982 47.9906V24.953V11.5144C19.1982 10.4528 20.0564 9.5946 21.118 9.5946H49.915C50.9767 9.5946 51.8348 10.4528 51.8348 11.5144V47.9906C51.8348 51.1717 49.2565 53.75 46.0754 53.75H23.0378H19.1982" stroke="#070A0C" stroke-width="1.27987" stroke-linecap="round" stroke-linejoin="round"/>
<path d="M14.3991 53.75C11.7479 53.75 9.59961 51.6017 9.59961 48.9505V30.7124C9.59961 29.6508 10.4578 28.7926 11.5194 28.7926H16H19.1986V48.9505C19.1986 51.6017 17.0504 53.75 14.3991 53.75Z" stroke="#070A0C" stroke-width="1.27987" stroke-linecap="round" stroke-linejoin="round"/>
<path d="M24.958 53.75H21" stroke="black" stroke-width="1.28" stroke-linecap="round" stroke-linejoin="round"/>
<path d="M26.8779 17.2734H44.1561" stroke="#DB1239" stroke-width="1.53584" stroke-linecap="round" stroke-linejoin="round"/>
<path d="M26.8779 24.9492H44.1561" stroke="#DB1239" stroke-width="1.53584" stroke-linecap="round" stroke-linejoin="round"/>
<path d="M26.8779 32.6328H44.1561" stroke="#DB1239" stroke-width="1.53584" stroke-linecap="round" stroke-linejoin="round"/>
</svg>
