<svg width="1679" height="589" viewBox="0 0 1679 589" fill="none" xmlns="http://www.w3.org/2000/svg">
<rect width="1679" height="589" rx="80" fill="#EFE8E2"/>
<path d="M1445.17 222.284H1380.4V379.133H1445.17V222.284Z" fill="#E3152E"/>
<path d="M1235.77 274.232H1262.68V262.912H1235.77C1233 262.912 1230.36 261.779 1228.48 259.893C1226.46 257.88 1225.46 255.365 1225.46 252.597C1225.46 249.83 1226.59 247.189 1228.48 245.302C1230.49 243.29 1233 242.283 1235.77 242.283H1314.88L1310.6 233.982C1307.08 227.19 1304.19 219.769 1302.43 212.725C1300.67 205.429 1299.79 197.883 1299.79 190.462V180.399C1299.79 177.632 1300.92 174.99 1302.8 173.104C1304.82 171.091 1307.33 170.085 1310.1 170.085C1312.87 170.085 1315.51 171.217 1317.39 173.104C1319.41 175.116 1320.54 177.758 1320.54 180.525C1320.54 188.826 1322.05 195.744 1325.69 204.423C1329.09 212.599 1334 219.769 1340.16 225.806C1345.57 231.089 1351.73 235.24 1358.65 238.007C1365.69 240.9 1372.98 242.283 1380.4 242.283V230.963C1374.37 230.963 1368.46 229.831 1362.92 227.567C1357.39 225.303 1352.36 221.907 1348.08 217.756C1342.92 212.599 1339.03 206.813 1336.13 200.021C1333.11 192.726 1331.86 187.317 1331.86 180.525C1331.86 174.739 1329.59 169.204 1325.44 165.179C1321.42 161.154 1316.01 158.765 1310.1 158.765C1304.31 158.765 1298.78 161.029 1294.76 165.179C1290.6 169.204 1288.34 174.739 1288.34 180.525V190.587C1288.34 198.889 1289.35 207.316 1291.36 215.492C1292.62 220.649 1294.38 225.932 1296.52 230.963H1235.77C1229.98 230.963 1224.45 233.227 1220.43 237.378C1216.28 241.529 1214.01 246.937 1214.01 252.723C1214.01 258.509 1216.28 264.044 1220.43 268.069C1224.58 271.968 1229.98 274.232 1235.77 274.232Z" fill="#1A242C"/>
<path d="M1244.95 306.306H1262.81V294.986H1244.95C1242.18 294.986 1239.54 293.854 1237.66 291.967C1235.64 289.955 1234.64 287.439 1234.64 284.672C1234.64 281.905 1235.77 279.263 1237.66 277.251C1239.67 275.238 1242.18 274.232 1244.95 274.232H1262.81V262.912H1244.95C1239.17 262.912 1233.63 265.176 1229.61 269.326C1225.46 273.477 1223.19 278.886 1223.19 284.672C1223.19 290.458 1225.46 295.992 1229.61 300.017C1233.63 304.042 1239.04 306.306 1244.95 306.306Z" fill="#1A242C"/>
<path d="M1253.76 338.506H1262.68V327.186H1253.76C1250.99 327.186 1248.35 326.054 1246.46 324.167C1244.45 322.154 1243.44 319.639 1243.44 316.872C1243.44 314.105 1244.57 311.463 1246.46 309.576C1248.47 307.564 1250.99 306.558 1253.76 306.558H1262.68V295.237H1253.76C1247.97 295.237 1242.44 297.501 1238.41 301.652C1234.26 305.803 1232 311.212 1232 316.997C1232 322.783 1234.26 328.318 1238.41 332.343C1242.56 336.242 1247.97 338.506 1253.76 338.506Z" fill="#1A242C"/>
<path d="M1262.68 370.706H1380.4V359.386H1262.68C1259.92 359.386 1257.28 358.254 1255.39 356.367C1253.38 354.355 1252.37 351.839 1252.37 349.072C1252.37 346.305 1253.5 343.663 1255.39 341.777C1257.4 339.764 1259.92 338.758 1262.68 338.758V327.438C1256.9 327.438 1251.36 329.702 1247.34 333.852C1243.19 338.003 1240.93 343.412 1240.93 349.198C1240.93 354.984 1243.19 360.518 1247.34 364.543C1251.36 368.442 1256.9 370.706 1262.68 370.706Z" fill="#1A242C"/>
<path d="M1403.04 347.939H1391.72V359.26H1403.04V347.939Z" fill="white"/>
<path d="M1509.69 117.509H1393.86V184.55H1509.69V117.509Z" fill="#7AA2D3"/>
<path d="M1489.32 133.986H1414.36V145.306H1489.32V133.986Z" fill="#1A242C"/>
<path d="M1489.32 156.752H1451.84V168.073H1489.32V156.752Z" fill="#1A242C"/>
<path d="M1476.62 206.184H1372.35V96H1531.2V206.184H1509.57V239.265L1476.62 206.184ZM1519.88 107.32H1383.67V194.864H1481.27L1498.37 211.845V194.864H1520.01V107.32H1519.88Z" fill="#1A242C"/>
<path d="M531.088 227.567L530.711 247.818H512.348C506.437 247.818 500.903 246.057 497.005 242.535C493.106 239.013 490.59 233.856 490.59 226.435V223.165H485.308C475.75 223.165 469.713 232.221 470.467 240.774C471.096 248.195 478.768 254.987 486.314 254.987C492.351 254.987 497.885 253.729 504.173 250.208V270.584C498.011 273.98 490.716 274.861 484.05 274.861C465.562 274.861 449.59 259.39 449.59 240.774C449.59 226.938 455.753 213.102 467.449 207.316C465.814 189.455 475.624 175.997 491.848 175.997C497.633 175.997 505.18 178.764 511.971 185.304L498.64 199.643C495.998 196.499 493.609 195.87 491.597 195.996C489.333 196.122 487.446 198.386 487.446 201.279V205.052H511.594L511.468 219.894C511.468 224.045 513.732 227.693 519.517 227.693H531.088V227.567Z" fill="#1A232D"/>
<path d="M541.653 270.081C541.653 275.867 537 280.521 531.214 280.521C525.429 280.521 520.775 275.867 520.775 270.081C520.775 264.295 525.429 259.641 531.214 259.641C537 259.641 541.653 264.295 541.653 270.081ZM569.825 219.391C569.825 235.869 558.632 247.944 543.665 247.944H528.322V227.693H538.886C543.665 227.693 548.696 224.548 548.696 217.253V192.6L569.825 185.934V219.391ZM566.304 270.081C566.304 275.867 561.65 280.521 555.865 280.521C550.079 280.521 545.426 275.867 545.426 270.081C545.426 264.295 550.079 259.641 555.865 259.641C561.65 259.641 566.304 264.295 566.304 270.081Z" fill="#1A232D"/>
<path d="M629.187 247.944C626.043 265.176 612.586 274.735 595.607 275.615C589.696 275.993 582.276 274.861 576.49 272.219L566.555 249.956C572.34 253.855 581.898 256.371 587.81 256.371C599.632 256.371 607.933 249.705 608.31 237.63V198.134L629.942 191.468V227.567H648.304V247.818H629.187V247.944Z" fill="#1A232D"/>
<path d="M759.358 222.661C759.358 238.761 747.787 247.943 732.318 247.943H645.663V227.693H662.893V202.788L684.023 196.122V227.693H700.498V197.757L721.627 191.09V227.818H732.066C736.217 227.818 738.229 225.806 738.229 221.655V192.725L759.358 186.059V222.661Z" fill="#1A232D"/>
<path d="M813.187 231.215C812.809 246.308 819.727 254.987 833.31 254.987C844.88 254.987 852.93 248.698 852.93 236.875V166.06L874.059 159.645V240.774C874.059 262.031 858.967 274.986 833.31 274.986C805.766 274.986 792.058 259.515 792.058 230.083L813.313 223.793L813.187 231.215Z" fill="#1A232D"/>
<path d="M909.904 247.943H888.774V166.311L909.904 159.645V247.943Z" fill="#1A232D"/>
<path d="M1005.11 227.567V247.818H983.855C982.346 265.427 970.901 274.987 954.425 274.987C949.772 274.987 943.106 274.358 937.321 271.716L928.14 250.585C934.68 254.358 942.226 256.119 949.898 256.119C954.3 256.119 960.462 254.736 963.481 247.818C960.714 247.818 955.683 247.944 954.174 247.944C935.937 247.944 924.618 236.749 924.618 217.882C924.618 199.392 936.063 184.801 954.174 184.801C974.548 184.801 983.729 199.14 983.729 219.894V227.567H1005.11ZM975.932 178.764H930.529L938.453 166.186H944.993V164.551C944.993 154.362 951.658 146.815 961.72 146.815C965.996 146.815 971.278 148.451 975.68 153.104L966.248 162.538C964.738 160.526 963.984 159.519 961.594 159.519C959.833 159.519 958.073 161.029 958.073 163.544V166.06H975.932V178.764ZM963.229 217.253C963.229 210.461 961.091 204.172 954.048 204.172C949.772 204.172 945.496 208.197 945.496 217.253C945.496 223.542 949.395 227.567 954.048 227.567H963.229V217.253Z" fill="#1A232D"/>
<path d="M1116.04 222.662C1116.04 238.762 1104.47 247.944 1089 247.944H1002.34V227.693H1019.57V202.788L1040.7 195.996V227.567H1057.18V197.631L1078.31 190.965V227.693H1088.75C1092.9 227.693 1094.91 225.68 1094.91 221.53V192.6L1116.04 185.934V222.662Z" fill="#1A232D"/>
<path d="M460.531 321.777H453.991C453.991 318.13 451.727 315.237 447.828 315.237C444.181 315.237 441.666 318.004 441.666 321.651C441.666 323.287 442.672 325.425 444.684 328.192C445.942 329.827 447.325 331.462 448.583 333.223C449.589 334.607 450.344 335.865 450.47 337.123C450.721 337.877 450.721 339.387 450.721 341.651H444.181C444.181 339.135 443.804 337.248 443.049 336.242C441.414 333.978 439.779 331.714 438.018 329.45C436.006 326.305 435 323.664 435 321.526C435 317.878 436.258 314.859 438.647 312.721C441.163 310.457 444.181 309.451 447.828 309.451C451.476 309.451 454.368 310.583 456.758 312.973C459.148 315.362 460.531 318.13 460.531 321.777ZM450.47 353.726H444.684V348.066H450.47V353.726Z" fill="#1A232D"/>
<path d="M505.682 328.947V352.216C505.682 362.027 499.52 366.933 487.194 366.933C478.894 366.933 473.234 364.417 470.341 359.26C468.203 355.612 467.197 349.826 467.323 341.902L473.863 340.015V346.053C473.863 356.87 477.636 361.021 487.32 361.021C495.244 361.021 499.268 357.876 499.268 351.587V330.959L505.682 328.947ZM489.584 332.217C489.584 334.104 488.075 335.739 486.063 335.739C484.176 335.739 482.415 334.104 482.415 332.217C482.415 330.33 484.05 328.569 486.063 328.569C488.075 328.569 489.584 330.204 489.584 332.217Z" fill="#1A232D"/>
<path d="M544.293 341.399C544.293 344.921 543.161 347.94 540.771 350.204C538.382 352.468 535.363 353.6 531.339 353.6H511.719L514.737 347.814H521.78V313.727L528.32 311.841V347.814H530.961C535.489 347.814 537.753 345.55 537.753 340.896V310.457L544.293 308.57V341.399ZM534.483 305.048C531.968 306.935 529.704 307.941 527.817 307.941C526.559 307.941 525.176 307.564 523.667 306.935C522.158 306.18 521.026 305.803 520.397 305.803C518.888 305.803 517.504 306.432 516.372 307.564L513.354 305.426C515.869 303.539 518.133 302.533 520.019 302.533C521.277 302.533 522.786 302.91 524.421 303.665C526.056 304.294 527.188 304.671 527.943 304.671C529.075 304.671 530.207 304.042 531.59 302.91L534.483 305.048Z" fill="#1A232D"/>
<path d="M556.744 353.726H550.204V311.212L556.744 309.199V353.726Z" fill="#1A232D"/>
<path d="M608.938 353.726C609.19 358.128 607.681 361.524 604.285 363.788C601.266 365.927 597.116 366.933 591.96 366.933C585.923 366.933 581.269 365.172 578.125 361.776C575.358 358.757 573.975 354.732 573.975 349.575C573.975 345.424 574.855 341.148 576.742 336.745L584.288 332.217C581.647 338.255 580.263 343.663 580.263 348.443C580.263 356.367 584.288 361.147 591.96 361.021C595.23 361.021 597.619 360.77 599.128 360.141C601.895 359.134 603.404 356.996 603.656 353.726C599.38 353.349 596.487 351.713 595.104 348.443L598.122 342.28C599.883 346.682 601.644 348.066 606.046 348.066H608.938V353.726Z" fill="#1A232D"/>
<path d="M636.607 353.726H632.457C628.432 353.726 625.162 352.468 622.898 350.078C620.509 352.468 617.239 353.726 613.088 353.726H608.058V348.066H612.585C617.239 348.066 619.503 345.676 619.503 341.022V324.545L626.043 322.658V341.273C626.043 345.802 628.306 348.066 632.834 348.066H636.607V353.726ZM621.515 312.721C621.515 314.608 619.88 316.369 617.868 316.369C615.855 316.369 614.346 314.734 614.346 312.721C614.346 310.709 615.855 309.199 617.868 309.199C619.88 309.199 621.515 310.834 621.515 312.721ZM630.822 312.721C630.822 314.608 629.187 316.369 627.174 316.369C625.288 316.369 623.653 314.734 623.653 312.721C623.653 310.709 625.288 309.199 627.174 309.199C629.187 309.199 630.822 310.834 630.822 312.721Z" fill="#1A232D"/>
<path d="M671.823 353.726H634.973V348.066H665.031V345.55C665.031 340.267 664.528 336.494 663.522 334.104C662.013 330.205 658.994 328.318 654.467 328.318C650.694 328.318 647.172 330.079 643.902 333.601L639.249 329.198C643.902 324.67 648.933 322.406 654.593 322.406C661.636 322.406 666.415 324.922 669.056 329.953C670.817 333.475 671.697 338.632 671.697 345.424V353.726H671.823Z" fill="#1A232D"/>
<path d="M749.925 353.726H747.032C742.378 353.726 738.983 352.09 736.845 348.946C734.581 352.216 730.934 353.726 725.903 353.726H701.378C693.958 353.726 688.927 348.946 688.927 341.776V334.733L695.467 328.066V341.022C695.467 345.55 697.731 347.814 702.258 347.814H725.525C730.179 347.814 732.443 345.55 732.443 341.022V310.96L738.857 309.073V339.009C738.857 344.921 741.75 347.814 747.409 347.814H749.925V353.726ZM724.519 332.972H702.258L705.528 328.947H708.924V327.563C708.924 322.406 712.194 318.255 717.602 318.255C719.74 318.255 721.878 319.262 723.639 321.148L720.62 324.167C719.614 322.909 718.357 322.28 717.099 322.28C714.458 322.28 713.074 323.915 713.074 326.934V328.947H724.394V332.972H724.519Z" fill="#1A232D"/>
<path d="M776.84 353.726H772.689C768.665 353.726 765.395 352.468 763.131 350.078C760.741 352.468 757.471 353.726 753.321 353.726H748.29V348.066H752.818C757.471 348.066 759.735 345.676 759.735 341.022V324.545L766.275 322.658V341.273C766.275 345.802 768.539 348.066 773.066 348.066H776.84V353.726ZM761.747 312.721C761.747 314.608 760.112 316.369 758.1 316.369C756.088 316.369 754.578 314.734 754.578 312.721C754.578 310.709 756.088 309.199 758.1 309.199C760.112 309.199 761.747 310.834 761.747 312.721ZM771.054 312.721C771.054 314.608 769.419 316.369 767.407 316.369C765.52 316.369 763.885 314.734 763.885 312.721C763.885 310.709 765.52 309.199 767.407 309.199C769.293 309.199 771.054 310.834 771.054 312.721Z" fill="#1A232D"/>
<path d="M793.567 341.399C793.567 344.921 792.435 347.94 790.045 350.204C787.655 352.468 784.511 353.6 780.612 353.6H775.33V347.94H780.361C784.888 347.94 787.152 345.55 787.152 340.896V324.418L793.692 322.532V341.399H793.567ZM789.416 363.411C789.416 365.297 787.781 367.058 785.769 367.058C783.882 367.058 782.247 365.423 782.247 363.411C782.247 361.398 783.882 359.889 785.769 359.889C787.781 359.889 789.416 361.398 789.416 363.411Z" fill="#1A232D"/>
<path d="M830.165 353.725H820.355C819.475 361.775 813.815 367.058 804.886 367.058C801.867 367.058 799.478 366.429 797.466 365.172L794.321 358.631C797.466 360.392 800.861 361.272 804.886 361.272C810.545 361.272 813.815 357.625 813.815 351.839V324.418L820.355 322.532V347.94H830.165V353.725Z" fill="#1A232D"/>
<path d="M874.939 353.726H828.656V348.066H859.595V345.55C859.595 340.267 859.092 336.494 858.086 334.104C856.577 330.205 853.558 328.318 848.905 328.318C845.132 328.318 841.61 330.079 838.34 333.601L833.687 329.198C838.34 324.67 843.371 322.406 848.905 322.406C855.948 322.406 860.727 324.922 863.368 329.953C865.255 333.475 866.135 338.632 866.135 345.424V347.814H874.688V353.726H874.939ZM852.552 363.411C852.552 365.298 850.917 367.059 848.905 367.059C847.018 367.059 845.258 365.423 845.258 363.411C845.258 361.398 846.893 359.889 848.905 359.889C850.917 359.889 852.552 361.398 852.552 363.411Z" fill="#1A232D"/>
<path d="M891.54 341.399C891.54 344.921 890.408 347.94 888.019 350.204C885.629 352.468 882.485 353.6 878.586 353.6H873.304V347.94H878.334C882.862 347.94 885.126 345.55 885.126 340.896V324.419L891.666 322.532V341.399H891.54ZM882.736 312.721C882.736 314.608 881.101 316.369 879.215 316.369C877.328 316.369 875.568 314.734 875.568 312.721C875.568 310.709 877.202 309.199 879.215 309.199C881.227 309.199 882.736 310.834 882.736 312.721ZM892.043 312.721C892.043 314.608 890.408 316.369 888.396 316.369C886.509 316.369 884.749 314.734 884.749 312.721C884.749 310.709 886.384 309.199 888.396 309.199C890.408 309.199 892.043 310.834 892.043 312.721Z" fill="#1A232D"/>
<path d="M943.734 353.726C943.986 358.128 942.477 361.524 939.081 363.788C936.062 365.927 931.912 366.933 926.755 366.933C920.719 366.933 916.065 365.172 912.921 361.776C910.154 358.757 908.771 354.732 908.771 349.575C908.771 345.424 909.651 341.148 911.537 336.745L919.084 332.217C916.442 338.255 915.059 343.663 915.059 348.443C915.059 356.367 919.084 361.147 926.755 361.021C930.025 361.021 932.415 360.77 933.924 360.141C936.691 359.134 938.2 356.996 938.452 353.726C934.176 353.349 931.283 351.713 929.9 348.443L932.918 342.28C934.679 346.682 936.44 348.066 940.842 348.066H943.734V353.726ZM925.498 375.989C925.498 377.876 923.863 379.637 921.85 379.637C919.964 379.637 918.203 378.002 918.203 375.989C918.203 374.102 919.838 372.467 921.85 372.467C923.989 372.467 925.498 374.228 925.498 375.989ZM934.805 375.989C934.805 377.876 933.17 379.637 931.157 379.637C929.145 379.637 927.51 378.002 927.51 375.989C927.51 374.102 929.145 372.467 931.157 372.467C933.17 372.467 934.805 374.228 934.805 375.989Z" fill="#1A232D"/>
<path d="M979.327 353.726H942.729V347.94H951.91C950.4 347.311 949.772 344.921 949.772 340.519C949.772 337.626 950.4 335.236 951.658 333.349C953.293 330.959 955.808 329.701 959.078 329.701C962.348 329.701 964.864 330.833 966.373 333.349C967.631 335.236 968.26 337.626 968.26 340.519C968.26 343.915 967.631 346.43 966.373 347.94H972.662V342.28C972.662 336.619 972.033 332.72 970.901 330.582C969.266 327.437 966.122 325.928 961.091 325.928H946.124L953.67 320.142H961.971C969.14 320.142 974.045 322.532 976.686 327.312C978.447 330.582 979.327 335.739 979.327 342.405V353.726ZM963.103 340.519C963.103 336.494 961.72 334.481 959.078 334.481C956.437 334.481 955.054 336.494 955.054 340.519C955.054 345.55 956.437 348.066 959.078 348.066C961.72 348.066 963.103 345.55 963.103 340.519Z" fill="#1A232D"/>
<path d="M1051.9 353.726H1036.93C1035.67 353.726 1034.29 353.6 1033.03 353.348C1031.65 353.6 1030.26 353.726 1029.01 353.726H1009.13C1001.71 353.726 996.683 348.946 996.683 341.776V334.733L1003.22 328.066V341.022C1003.22 345.55 1005.49 347.814 1010.01 347.814H1023.85C1020.96 344.795 1019.57 341.525 1019.45 338.129C1019.32 333.726 1020.2 330.204 1022.21 327.437C1024.6 324.167 1028.12 322.406 1032.9 322.406C1037.81 322.406 1041.46 324.041 1043.72 327.437C1045.73 330.204 1046.61 333.852 1046.49 338.129C1046.36 341.525 1044.98 344.795 1042.09 347.94H1051.9V353.726ZM1032.9 328.318C1028.25 328.318 1025.61 331.965 1025.61 336.494C1025.61 338.758 1026.24 340.896 1027.37 342.908C1028.63 345.047 1030.51 346.556 1032.78 347.311C1035.04 346.556 1036.8 345.047 1038.19 342.908C1039.32 340.896 1039.95 338.758 1039.95 336.494C1040.2 331.84 1037.56 328.318 1032.9 328.318ZM1036.43 312.721C1036.43 314.608 1034.79 316.369 1032.9 316.369C1031.02 316.369 1029.26 314.733 1029.26 312.721C1029.26 310.708 1030.89 309.073 1032.9 309.073C1034.92 309.073 1036.43 310.708 1036.43 312.721Z" fill="#1A232D"/>
<path d="M1078.81 353.726H1074.66C1070.64 353.726 1067.37 352.468 1065.1 350.078C1062.71 352.468 1059.44 353.726 1055.29 353.726H1050.26V348.066H1054.79C1059.44 348.066 1061.71 345.676 1061.71 341.022V324.544L1068.25 322.658V341.273C1068.25 345.801 1070.51 348.066 1075.04 348.066H1078.81V353.726ZM1063.97 363.411C1063.97 365.298 1062.33 367.058 1060.32 367.058C1058.31 367.058 1056.8 365.423 1056.8 363.411C1056.8 361.398 1058.31 359.889 1060.32 359.889C1062.33 359.889 1063.97 361.398 1063.97 363.411ZM1073.28 363.411C1073.28 365.298 1071.64 367.058 1069.63 367.058C1067.62 367.058 1066.11 365.423 1066.11 363.411C1066.11 361.398 1067.74 359.889 1069.63 359.889C1071.52 359.889 1073.28 361.398 1073.28 363.411Z" fill="#1A232D"/>
<path d="M1116.41 353.725H1077.17V348.065H1109.62C1109.75 344.543 1109.5 342.028 1109.37 340.518C1108.87 337.625 1107.74 335.361 1106.1 333.852C1103.71 331.588 1100.69 330.582 1096.79 330.582C1091.76 330.582 1087.87 332.343 1084.72 335.99L1080.19 331.714L1101.7 309.325H1110.25L1095.29 325.047C1096.29 324.922 1097.3 324.796 1098.3 324.796C1103.08 324.796 1107.11 326.305 1110.38 329.198C1113.65 332.091 1115.53 335.865 1116.16 340.644C1116.29 341.399 1116.41 345.927 1116.41 353.725Z" fill="#1A232D"/>
<path d="M168 516.531H1445.4" stroke="#1A242D" stroke-width="1.2" stroke-miterlimit="10"/>
<path d="M207.886 480.589C207.886 485.857 204.425 489.168 199.458 489.168H182.45C177.633 489.168 174.473 485.857 174.473 480.589V474.116L177.784 469.902V480.137C177.784 484.051 179.59 485.857 183.202 485.857H199.307C202.769 485.857 204.575 484.051 204.575 480.137V467.794L207.886 466.741V480.589ZM191.18 499.705C189.825 499.705 189.072 498.952 189.072 497.597C189.072 496.243 189.825 495.641 191.18 495.641C192.534 495.641 193.287 496.393 193.287 497.597C193.136 498.952 192.534 499.705 191.18 499.705Z" fill="#1A232D"/>
<path d="M215.563 489.018C214.058 489.018 212.854 487.813 212.854 486.459C212.854 484.954 214.058 483.9 215.563 483.9C217.068 483.9 218.121 485.104 218.121 486.459C218.121 487.964 216.917 489.018 215.563 489.018Z" fill="#1A232D"/>
<path d="M239.945 489.018H222.034L224.141 485.857H236.634V476.675C236.634 472.761 234.376 470.955 231.366 470.955C228.807 470.955 226.399 472.611 224.743 475.019V470.955C226.399 468.998 228.807 467.945 231.366 467.794C236.483 467.644 240.096 471.106 240.096 476.374V489.018H239.945Z" fill="#1A232D"/>
<path d="M257.104 487.061L269.295 474.869C272.305 471.858 274.713 468.998 274.713 465.085C274.713 460.72 271.703 457.559 267.338 457.559C263.726 457.559 260.866 459.365 259.361 462.827L257.254 461.472C259.06 457.559 262.371 455 267.489 455C272.606 455 277.573 458.613 277.573 464.934C277.573 468.848 275.767 472.159 271.703 476.223L261.318 486.459V486.609H277.874V489.168H257.104V487.061Z" fill="#1A232D"/>
<path d="M282.842 472.159C282.842 462.225 287.357 455 295.334 455C302.408 455 307.827 461.021 307.827 472.159C307.827 481.943 303.462 489.319 295.334 489.319C288.26 489.319 282.842 483.298 282.842 472.159ZM304.967 472.159C304.967 462.526 300.903 457.559 295.334 457.559C289.163 457.559 285.702 463.429 285.702 472.159C285.702 481.642 289.916 486.609 295.334 486.609C301.656 486.609 304.967 480.739 304.967 472.159Z" fill="#1A232D"/>
<path d="M345.455 489.018H343.8C340.639 489.018 338.231 487.814 336.726 485.556C335.371 487.964 332.963 489.018 329.651 489.018C324.384 489.018 321.072 485.556 321.072 477.879C321.072 471.557 323.33 466.891 329.651 466.741H338.833V480.137C338.833 484.051 340.639 485.857 344.251 485.857H345.606V489.018H345.455ZM335.371 469.601H329.952C326.19 469.601 324.384 472.31 324.384 477.879C324.384 483.449 326.19 485.857 329.952 485.857C333.565 485.857 335.371 483.449 335.371 477.879V469.601ZM328.598 460.268C327.243 460.268 326.491 459.516 326.491 458.161C326.491 456.806 327.243 456.054 328.598 456.054C329.952 456.054 330.555 456.806 330.555 458.161C330.555 459.516 329.952 460.268 328.598 460.268ZM335.07 460.268C333.715 460.268 333.113 459.516 333.113 458.161C333.113 456.806 333.715 456.054 335.07 456.054C336.425 456.054 337.177 456.806 337.177 458.161C337.177 459.516 336.425 460.268 335.07 460.268Z" fill="#1A232D"/>
<path d="M378.116 489.018H375.708C372.998 489.018 371.042 488.265 369.236 486.609C368.031 490.222 365.322 492.329 361.258 492.329C357.044 492.329 354.636 490.523 353.281 487.061C351.776 488.415 349.819 489.018 347.411 489.018H344.853V485.857H347.11C350.271 485.857 352.077 484.201 352.378 481.19C352.529 475.32 355.087 470.955 361.258 470.955C366.827 470.955 369.537 474.417 369.988 479.986C369.988 483.9 371.794 485.857 375.407 485.857H378.116V489.018ZM361.258 474.116C357.496 474.116 355.99 476.524 355.99 481.492C355.99 486.459 357.496 489.018 361.258 489.018C365.021 489.018 366.376 486.609 366.376 481.492C366.376 476.374 365.021 474.116 361.258 474.116Z" fill="#1A232D"/>
<path d="M395.575 489.018H393.468C390.608 489.018 388.2 487.663 386.996 485.556C385.491 487.814 383.083 489.018 379.922 489.018H377.664V485.857H379.621C383.233 485.857 384.889 484.051 384.889 480.137V467.794L388.2 466.741V480.589C388.2 484.201 390.006 485.857 393.317 485.857H395.425V489.018H395.575ZM380.223 499.554C378.868 499.554 378.116 498.802 378.116 497.447C378.116 496.092 378.868 495.34 380.223 495.34C381.577 495.34 382.179 496.092 382.179 497.447C382.179 498.802 381.577 499.554 380.223 499.554ZM386.695 499.554C385.34 499.554 384.738 498.802 384.738 497.447C384.738 496.092 385.34 495.34 386.695 495.34C388.049 495.34 388.802 496.092 388.802 497.447C388.802 498.802 388.2 499.554 386.695 499.554Z" fill="#1A232D"/>
<path d="M418.754 489.018H412.433C411.53 489.018 409.724 488.867 408.369 488.114C407.165 488.717 405.81 489.018 404.155 489.018H395.124V485.857C395.124 485.857 398.435 485.857 399.639 485.857C401.897 485.857 403.402 485.857 404.305 485.706C399.94 482.395 397.532 478.03 397.833 473.965C398.285 468.848 402.198 466.138 407.165 466.289C412.884 466.439 416.497 470.503 416.497 476.223C416.497 479.836 414.992 483.599 411.981 485.857C413.035 486.007 413.487 486.007 414.992 486.007C415.895 486.007 418.453 486.007 418.453 486.007V489.018H418.754ZM408.369 484.803C411.68 483.599 413.487 479.836 413.487 476.374C413.487 472.159 411.078 469.299 406.864 469.149C403.402 468.998 400.994 471.256 400.994 474.718C400.994 476.524 401.596 478.481 402.8 480.287C404.004 482.094 406.111 484.05 408.369 484.803ZM403.402 459.967C402.048 459.967 401.295 459.214 401.295 457.86C401.295 456.505 402.048 455.752 403.402 455.752C404.757 455.752 405.359 456.505 405.359 457.86C405.359 459.214 404.757 459.967 403.402 459.967ZM409.874 459.967C408.52 459.967 407.918 459.214 407.918 457.86C407.918 456.505 408.52 455.752 409.874 455.752C411.229 455.752 411.981 456.505 411.981 457.86C411.981 459.214 411.229 459.967 409.874 459.967Z" fill="#1A232D"/>
<path d="M429.29 480.589C429.29 485.556 425.979 489.168 420.862 489.168H418.152V486.007H420.561C424.173 486.007 425.828 484.201 425.828 480.288V467.945L429.14 466.741V480.589H429.29ZM424.173 499.554C422.818 499.554 422.066 498.802 422.066 497.447C422.066 496.092 422.818 495.34 424.173 495.34C425.527 495.34 426.13 496.092 426.13 497.447C426.13 498.802 425.527 499.554 424.173 499.554Z" fill="#1A232D"/>
<path d="M466.015 489.018H464.359C461.198 489.018 458.79 487.814 457.285 485.556C455.931 487.964 453.522 489.018 450.211 489.018C444.943 489.018 441.632 485.556 441.632 477.879C441.632 471.557 443.89 466.891 450.211 466.741H459.392V480.137C459.392 484.051 461.198 485.857 464.811 485.857H466.165V489.018H466.015ZM455.931 469.601H450.512C446.749 469.601 444.943 472.31 444.943 477.879C444.943 483.449 446.749 485.857 450.512 485.857C454.124 485.857 455.931 483.449 455.931 477.879V469.601ZM449.157 460.268C447.803 460.268 447.05 459.516 447.05 458.161C447.05 456.806 447.803 456.054 449.157 456.054C450.512 456.054 451.114 456.806 451.114 458.161C451.114 459.516 450.512 460.268 449.157 460.268ZM455.629 460.268C454.275 460.268 453.673 459.516 453.673 458.161C453.673 456.806 454.275 456.054 455.629 456.054C456.984 456.054 457.737 456.806 457.737 458.161C457.737 459.516 456.984 460.268 455.629 460.268Z" fill="#1A232D"/>
<path d="M483.474 489.018H481.367C478.508 489.018 476.099 487.663 474.895 485.556C473.39 487.814 470.982 489.018 467.821 489.018H465.563V485.857H467.52C471.132 485.857 472.788 484.051 472.788 480.137V467.794L476.099 466.741V480.589C476.099 484.201 477.905 485.857 481.217 485.857H483.324V489.018H483.474ZM468.122 499.554C466.768 499.554 466.015 498.802 466.015 497.447C466.015 496.092 466.768 495.34 468.122 495.34C469.477 495.34 470.079 496.092 470.079 497.447C470.079 498.802 469.477 499.554 468.122 499.554ZM474.594 499.554C473.24 499.554 472.638 498.802 472.638 497.447C472.638 496.092 473.24 495.34 474.594 495.34C475.949 495.34 476.701 496.092 476.701 497.447C476.701 498.802 475.949 499.554 474.594 499.554Z" fill="#1A232D"/>
<path d="M494.011 480.589C494.011 485.556 490.7 489.168 485.582 489.168H482.873V486.007H485.281C488.894 486.007 490.549 484.201 490.549 480.288V467.945L493.86 466.741V480.589H494.011ZM485.883 460.268C484.529 460.268 483.927 459.516 483.927 458.161C483.927 456.806 484.529 456.054 485.883 456.054C487.238 456.054 487.99 456.806 487.99 458.161C487.99 459.516 487.238 460.268 485.883 460.268Z" fill="#1A232D"/>
<path d="M515.834 486.91C515.834 494.135 512.824 498.651 505.901 498.651C504.245 498.651 502.74 498.35 501.235 497.597L499.429 493.834C501.987 495.189 504.094 495.641 505.901 495.641C510.265 495.641 512.373 492.329 512.222 487.513C510.717 488.566 509.061 489.168 507.105 489.168C501.686 489.168 498.375 485.556 498.375 478.331C498.375 470.955 501.686 467.343 507.105 467.343C512.824 467.343 516.135 471.858 515.834 477.879V486.91ZM507.105 470.203C503.492 470.203 501.686 472.761 501.686 478.03C501.686 483.147 503.492 485.857 507.105 485.857C510.717 485.857 512.523 483.298 512.523 478.03C512.523 472.912 510.717 470.203 507.105 470.203Z" fill="#1A232D"/>
<path d="M539.616 485.857V489.018H532.843C532.391 494.437 529.532 498.501 523.511 498.501C522.307 498.501 519.899 498.2 518.394 497.447L516.889 493.834C519.297 495.34 521.404 495.49 523.21 495.49C527.575 495.49 529.682 491.727 529.682 487.663V467.794L532.994 466.741V485.857H539.616Z" fill="#1A232D"/>
<path d="M556.925 489.018H554.817C551.958 489.018 549.55 487.663 548.345 485.556C546.84 487.814 544.432 489.018 541.271 489.018H539.014V485.857H540.97C544.583 485.857 546.238 484.051 546.238 480.137V467.794L549.55 466.741V480.589C549.55 484.201 551.356 485.857 554.667 485.857H556.774V489.018H556.925ZM544.733 460.268C543.379 460.268 542.626 459.516 542.626 458.161C542.626 456.806 543.379 456.054 544.733 456.054C546.088 456.054 546.69 456.806 546.69 458.161C546.69 459.516 546.088 460.268 544.733 460.268ZM551.205 460.268C549.851 460.268 549.249 459.516 549.249 458.161C549.249 456.806 549.851 456.054 551.205 456.054C552.56 456.054 553.312 456.806 553.312 458.161C553.312 459.516 552.56 460.268 551.205 460.268Z" fill="#1A232D"/>
<path d="M556.474 489.018V485.857H579.502C579.502 483.75 579.653 482.545 579.502 480.739C579.201 474.869 575.438 471.708 570.17 471.557C566.709 471.557 563.247 473.063 560.839 475.32L559.032 473.063L573.03 457.107H577.395L566.408 469.3C567.461 468.698 569.719 468.547 571.374 468.547C575.589 468.547 581.91 471.256 582.663 479.385C582.813 480.288 582.663 483.449 582.663 485.857H588.533V489.018H556.474Z" fill="#1A232D"/>
<path d="M599.369 480.589C599.369 485.556 596.058 489.168 590.941 489.168H588.231V486.007H590.64C594.252 486.007 595.908 484.201 595.908 480.287V458.462L599.219 457.258V480.589H599.369Z" fill="#1A232D"/>
<path d="M608.099 489.018H604.638V458.161L608.099 457.107V489.018Z" fill="#1A232D"/>
<path d="M644.824 489.018H643.169C640.008 489.018 637.6 487.814 636.095 485.556C634.74 487.964 632.332 489.018 629.021 489.018C623.753 489.018 620.441 485.556 620.441 477.879C620.441 471.557 622.699 466.891 629.021 466.741H638.202V480.137C638.202 484.051 640.008 485.857 643.62 485.857H644.975V489.018H644.824ZM634.59 469.601H629.171C625.408 469.601 623.602 472.31 623.602 477.879C623.602 483.449 625.408 485.857 629.171 485.857C632.783 485.857 634.59 483.449 634.59 477.879V469.601ZM627.817 460.268C626.462 460.268 625.709 459.516 625.709 458.161C625.709 456.806 626.462 456.054 627.817 456.054C629.171 456.054 629.773 456.806 629.773 458.161C629.773 459.516 629.322 460.268 627.817 460.268ZM634.439 460.268C633.084 460.268 632.482 459.516 632.482 458.161C632.482 456.806 633.084 456.054 634.439 456.054C635.794 456.054 636.546 456.806 636.546 458.161C636.546 459.516 635.794 460.268 634.439 460.268Z" fill="#1A232D"/>
<path d="M677.485 489.018H675.077C672.368 489.018 670.411 488.265 668.605 486.609C667.401 490.222 664.691 492.329 660.628 492.329C656.413 492.329 654.005 490.523 652.65 487.061C651.145 488.415 649.189 489.018 646.78 489.018H644.222V485.857H646.479C649.64 485.857 651.446 484.201 651.747 481.19C651.898 475.32 654.457 470.955 660.628 470.955C666.197 470.955 668.906 474.417 669.357 479.986C669.357 483.9 671.163 485.857 674.776 485.857H677.485V489.018ZM660.628 474.116C656.865 474.116 655.36 476.524 655.36 481.492C655.36 486.459 656.865 489.018 660.628 489.018C664.39 489.018 665.745 486.609 665.745 481.492C665.745 476.374 664.39 474.116 660.628 474.116Z" fill="#1A232D"/>
<path d="M694.945 489.018H692.838C689.978 489.018 687.57 487.663 686.366 485.556C684.861 487.814 682.453 489.018 679.292 489.018H677.034V485.857H678.991C682.603 485.857 684.259 484.051 684.259 480.137V467.794L687.57 466.741V480.589C687.57 484.201 689.376 485.857 692.687 485.857H694.795V489.018H694.945ZM679.593 499.554C678.238 499.554 677.486 498.802 677.486 497.447C677.486 496.092 678.238 495.34 679.593 495.34C680.947 495.34 681.55 496.092 681.55 497.447C681.55 498.802 680.947 499.554 679.593 499.554ZM686.065 499.554C684.71 499.554 684.108 498.802 684.108 497.447C684.108 496.092 684.71 495.34 686.065 495.34C687.42 495.34 688.172 496.092 688.172 497.447C688.172 498.802 687.42 499.554 686.065 499.554Z" fill="#1A232D"/>
<path d="M700.965 472.611L704.277 471.557V485.857H714.662V470.353L717.973 469.299V485.857C723.994 485.857 728.66 485.857 728.66 485.857V468.095L731.971 467.042V485.857H738.293V489.018H694.192V485.857H700.815V472.611H700.965Z" fill="#1A232D"/>
<path d="M761.622 489.018H755.451C754.547 489.018 752.741 488.867 751.387 488.114C750.183 488.717 748.828 489.018 747.172 489.018H738.142V485.857C738.142 485.857 741.453 485.857 742.657 485.857C744.915 485.857 746.42 485.857 747.323 485.706C742.958 482.395 740.55 478.03 740.851 473.965C741.302 468.848 745.216 466.138 750.183 466.289C755.902 466.439 759.514 470.503 759.514 476.223C759.514 479.836 758.009 483.599 754.999 485.857C756.053 486.007 756.504 486.007 758.009 486.007C758.912 486.007 761.471 486.007 761.471 486.007V489.018H761.622ZM751.387 484.803C754.698 483.599 756.504 479.836 756.504 476.374C756.504 472.159 754.096 469.299 749.882 469.149C746.42 468.998 744.012 471.256 744.012 474.718C744.012 476.524 744.614 478.481 745.818 480.287C747.022 482.094 749.129 484.05 751.387 484.803ZM746.42 459.967C745.065 459.967 744.313 459.214 744.313 457.86C744.313 456.505 745.065 455.752 746.42 455.752C747.774 455.752 748.376 456.505 748.376 457.86C748.376 459.214 747.774 459.967 746.42 459.967ZM752.892 459.967C751.537 459.967 750.935 459.214 750.935 457.86C750.935 456.505 751.537 455.752 752.892 455.752C754.246 455.752 754.999 456.505 754.999 457.86C754.999 459.214 754.246 459.967 752.892 459.967Z" fill="#1A232D"/>
<path d="M772.308 480.589C772.308 485.556 768.997 489.168 763.879 489.168H761.17V486.007H763.578C767.19 486.007 768.846 484.201 768.846 480.288V467.945L772.157 466.741V480.589H772.308ZM767.19 499.554C765.836 499.554 765.083 498.802 765.083 497.447C765.083 496.092 765.836 495.34 767.19 495.34C768.545 495.34 769.147 496.092 769.147 497.447C769.147 498.802 768.545 499.554 767.19 499.554Z" fill="#1A232D"/>
<path d="M797.293 487.061C797.444 493.533 794.735 498.5 787.811 498.5C786.607 498.5 784.199 498.199 782.694 497.447L781.188 493.834C783.597 495.339 785.704 495.49 787.51 495.49C791.875 495.49 793.982 491.727 793.982 487.663V467.794L797.293 466.74V487.061ZM795.638 461.021C794.283 461.021 793.681 460.268 793.681 458.913C793.681 457.559 794.283 456.806 795.638 456.806C796.992 456.806 797.745 457.559 797.745 458.913C797.745 460.268 797.143 461.021 795.638 461.021Z" fill="#1A232D"/>
<path d="M809.635 498.501C807.979 498.501 806.474 498.2 804.969 497.447L803.163 493.684C805.722 495.039 807.829 495.49 809.635 495.49C813.398 495.49 815.505 492.931 815.957 489.018H810.839C805.421 489.018 802.109 485.405 802.109 478.18C802.109 470.805 805.421 467.192 810.839 467.192C816.559 467.192 819.87 471.708 819.569 477.729V486.007H826.191V489.168H819.418C818.967 494.888 815.957 498.501 809.635 498.501ZM810.839 470.203C807.227 470.203 805.421 472.762 805.421 478.03C805.421 483.148 807.227 485.706 810.839 485.706H816.258C816.258 485.706 816.258 480.137 816.258 478.03C816.258 472.912 814.451 470.203 810.839 470.203Z" fill="#1A232D"/>
<path d="M849.371 489.018H843.049C842.146 489.018 840.34 488.867 838.985 488.114C837.781 488.717 836.427 489.018 834.771 489.018H825.74V485.857C825.74 485.857 829.052 485.857 830.256 485.857C832.513 485.857 834.018 485.857 834.921 485.706C830.557 482.395 828.148 478.03 828.449 473.965C828.901 468.848 832.814 466.138 837.781 466.289C843.501 466.439 847.113 470.503 847.113 476.223C847.113 479.836 845.608 483.599 842.598 485.857C843.651 486.007 844.103 486.007 845.608 486.007C846.511 486.007 849.07 486.007 849.07 486.007V489.018H849.371ZM838.985 484.803C842.297 483.599 844.103 479.836 844.103 476.374C844.103 472.159 841.695 469.299 837.48 469.149C834.018 468.998 831.61 471.256 831.61 474.718C831.61 476.524 832.212 478.481 833.416 480.287C834.62 482.094 836.728 484.05 838.985 484.803ZM836.577 459.967C835.223 459.967 834.62 459.214 834.62 457.86C834.62 456.505 835.223 455.752 836.577 455.752C837.932 455.752 838.684 456.505 838.684 457.86C838.684 459.214 837.932 459.967 836.577 459.967Z" fill="#1A232D"/>
<path d="M859.907 480.589C859.907 485.556 856.595 489.168 851.478 489.168H848.769V486.007H851.177C854.789 486.007 856.445 484.201 856.445 480.287V458.462L859.756 457.258V480.589H859.907Z" fill="#1A232D"/>
<path d="M868.636 489.018H865.325V458.161L868.787 457.107V489.018H868.636Z" fill="#1A232D"/>
<path d="M905.361 489.018H903.706C900.545 489.018 898.137 487.814 896.632 485.556C895.277 487.964 892.869 489.018 889.558 489.018C884.29 489.018 880.979 485.556 880.979 477.879C880.979 471.557 883.236 466.891 889.558 466.741H898.739V480.137C898.739 484.051 900.545 485.857 904.157 485.857H905.512V489.018H905.361ZM895.277 469.601H889.859C886.096 469.601 884.29 472.31 884.29 477.879C884.29 483.449 886.096 485.857 889.859 485.857C893.471 485.857 895.277 483.449 895.277 477.879V469.601ZM888.504 460.268C887.15 460.268 886.397 459.516 886.397 458.161C886.397 456.806 887.15 456.054 888.504 456.054C889.859 456.054 890.461 456.806 890.461 458.161C890.461 459.516 889.859 460.268 888.504 460.268ZM894.976 460.268C893.622 460.268 893.02 459.516 893.02 458.161C893.02 456.806 893.622 456.054 894.976 456.054C896.331 456.054 897.083 456.806 897.083 458.161C897.083 459.516 896.331 460.268 894.976 460.268Z" fill="#1A232D"/>
<path d="M910.328 471.708L913.639 470.504V477.578C917.101 470.805 923.272 467.042 928.69 467.343C935.162 467.795 939.828 472.912 939.678 482.094C939.678 483.75 939.527 486.008 938.925 489.018H904.909V485.857H910.328V471.708ZM936.065 485.857C936.366 484.502 936.366 483.449 936.366 482.546C936.366 474.718 933.507 470.052 927.486 469.902C921.315 469.751 913.789 477.428 913.187 485.857H936.065Z" fill="#1A232D"/>
<path d="M963.308 485.857V489.018H956.535C956.084 494.437 953.224 498.501 947.204 498.501C946 498.501 943.591 498.2 942.086 497.447L940.581 493.834C942.989 495.34 945.096 495.49 946.903 495.49C951.267 495.49 953.375 491.727 953.375 487.663V467.794L956.686 466.741V485.857H963.308Z" fill="#1A232D"/>
<path d="M986.487 489.018H980.165C979.262 489.018 977.456 488.867 976.102 488.114C974.897 488.717 973.543 489.018 971.887 489.018H962.856V485.857C962.856 485.857 966.168 485.857 967.372 485.857C969.63 485.857 971.135 485.857 972.038 485.706C967.673 482.395 965.265 478.03 965.566 473.965C966.017 468.848 969.931 466.138 974.897 466.289C980.617 466.439 984.229 470.503 984.229 476.223C984.229 479.836 982.724 483.599 979.714 485.857C980.767 486.007 981.219 486.007 982.724 486.007C983.627 486.007 986.186 486.007 986.186 486.007V489.018H986.487ZM976.102 484.803C979.413 483.599 981.219 479.836 981.219 476.374C981.219 472.159 978.811 469.299 974.596 469.149C971.135 468.998 968.726 471.256 968.726 474.718C968.726 476.524 969.329 478.481 970.533 480.287C971.737 482.094 973.844 484.05 976.102 484.803ZM973.693 459.967C972.339 459.967 971.737 459.214 971.737 457.86C971.737 456.505 972.339 455.752 973.693 455.752C975.048 455.752 975.801 456.505 975.801 457.86C975.801 459.214 975.048 459.967 973.693 459.967Z" fill="#1A232D"/>
<path d="M997.023 480.589C997.023 485.556 993.711 489.168 988.594 489.168H985.885V486.007H988.293C991.905 486.007 993.561 484.201 993.561 480.287V458.462L996.872 457.258V480.589H997.023Z" fill="#1A232D"/>
<path d="M1030.59 477.879H1025.17V482.997C1025.17 484.954 1026.07 486.008 1027.88 486.008H1032.54V489.168H1027.43C1023.66 489.168 1021.71 487.061 1021.71 482.997V477.879H1021.41C1016.29 477.729 1012.68 482.094 1012.68 486.911C1012.68 491.727 1016.44 495.49 1021.41 495.49C1023.97 495.49 1026.37 494.587 1028.63 492.931V496.544C1026.37 497.899 1023.81 498.651 1021.41 498.651C1014.78 498.651 1009.06 493.534 1009.06 486.911C1009.06 481.793 1012.23 477.578 1016.44 475.772V474.267C1016.44 469.902 1019 466.59 1023.51 466.59C1025.17 466.59 1026.98 467.343 1028.48 468.848L1025.92 471.256C1025.02 470.203 1024.27 469.751 1023.06 469.751C1020.95 469.751 1019.6 471.407 1019.6 473.665V474.718H1028.63L1030.59 477.879Z" fill="#1A232D"/>
<path d="M1043.23 480.589C1043.23 485.556 1039.92 489.168 1034.8 489.168H1032.09V486.007H1034.5C1038.11 486.007 1039.77 484.201 1039.77 480.288V467.945L1043.08 466.741V480.589H1043.23ZM1034.65 499.554C1033.3 499.554 1032.54 498.802 1032.54 497.447C1032.54 496.092 1033.3 495.34 1034.65 495.34C1036.01 495.34 1036.61 496.092 1036.61 497.447C1036.61 498.802 1036.01 499.554 1034.65 499.554ZM1041.27 499.554C1039.92 499.554 1039.32 498.802 1039.32 497.447C1039.32 496.092 1039.92 495.34 1041.27 495.34C1042.63 495.34 1043.38 496.092 1043.38 497.447C1043.38 498.802 1042.63 499.554 1041.27 499.554Z" fill="#1A232D"/>
<path d="M1066.11 485.857V489.018H1059.34C1058.88 494.437 1056.02 498.501 1050 498.501C1048.8 498.501 1046.39 498.2 1044.89 497.447L1043.38 493.834C1045.79 495.34 1047.9 495.49 1049.7 495.49C1054.07 495.49 1056.17 491.727 1056.17 487.663V467.794L1059.49 466.741V485.857H1066.11Z" fill="#1A232D"/>
<path d="M1103.59 480.588C1103.59 485.857 1100.43 489.168 1095.16 489.168H1065.66V486.007H1072.28V472.46L1075.74 471.256V486.007H1086.13V470.052L1089.59 468.848V485.706H1095.01C1098.62 485.706 1100.28 483.9 1100.28 479.986V467.644L1103.59 466.439V480.588Z" fill="#1A232D"/>
<path d="M1141.36 488.717C1141.36 495.64 1136.85 498.5 1129.17 498.5C1118.03 498.5 1115.93 490.673 1115.93 480.287L1119.39 479.234C1119.39 479.234 1119.24 481.793 1119.24 483.298C1119.24 491.576 1122.1 495.189 1129.17 495.189C1133.84 495.189 1137.9 493.834 1137.9 488.114V472.009L1141.21 470.955V488.717H1141.36ZM1128.27 477.126C1126.92 477.126 1126.31 476.374 1126.31 475.019C1126.31 473.664 1126.92 472.912 1128.27 472.912C1129.62 472.912 1130.38 473.664 1130.38 475.019C1130.38 476.374 1129.62 477.126 1128.27 477.126Z" fill="#1A232D"/>
<path d="M1149.94 457.258V482.997C1149.94 484.954 1150.85 486.007 1152.65 486.007H1157.47V489.168H1152.2C1148.44 489.168 1146.48 487.061 1146.48 482.997V458.311L1149.94 457.258Z" fill="#1A232D"/>
<path d="M1174.93 489.018H1172.82C1169.96 489.018 1167.55 487.663 1166.35 485.556C1164.84 487.814 1162.44 489.018 1159.28 489.018H1157.02V485.857H1158.97C1162.59 485.857 1164.24 484.051 1164.24 480.137V467.794L1167.55 466.741V480.589C1167.55 484.201 1169.36 485.857 1172.67 485.857H1174.78V489.018H1174.93ZM1159.58 499.554C1158.22 499.554 1157.47 498.802 1157.47 497.447C1157.47 496.092 1158.22 495.34 1159.58 495.34C1160.93 495.34 1161.53 496.092 1161.53 497.447C1161.53 498.802 1160.93 499.554 1159.58 499.554ZM1166.2 499.554C1164.84 499.554 1164.24 498.802 1164.24 497.447C1164.24 496.092 1164.84 495.34 1166.2 495.34C1167.55 495.34 1168.31 496.092 1168.31 497.447C1168.31 498.802 1167.55 499.554 1166.2 499.554Z" fill="#1A232D"/>
<path d="M1192.39 489.018H1190.28C1187.42 489.018 1185.01 487.663 1183.81 485.556C1182.3 487.814 1179.9 489.018 1176.74 489.018H1174.48V485.857H1176.43C1180.05 485.857 1181.7 484.051 1181.7 480.137V467.794L1185.01 466.741V480.589C1185.01 484.201 1186.82 485.857 1190.13 485.857H1192.24V489.018H1192.39ZM1183.36 499.705C1182 499.705 1181.25 498.952 1181.25 497.597C1181.25 496.243 1182 495.641 1183.36 495.641C1184.71 495.641 1185.46 496.393 1185.46 497.597C1185.46 498.952 1184.71 499.705 1183.36 499.705Z" fill="#1A232D"/>
<path d="M1209.7 489.018H1207.59C1204.73 489.018 1202.32 487.663 1201.12 485.556C1199.61 487.814 1197.2 489.018 1194.04 489.018H1191.79V485.857H1193.74C1197.36 485.857 1199.01 484.051 1199.01 480.137V467.794L1202.32 466.741V480.589C1202.32 484.201 1204.13 485.857 1207.44 485.857H1209.55V489.018H1209.7ZM1197.51 460.268C1196.15 460.268 1195.4 459.516 1195.4 458.161C1195.4 456.806 1196.15 456.054 1197.51 456.054C1198.86 456.054 1199.46 456.806 1199.46 458.161C1199.46 459.516 1198.86 460.268 1197.51 460.268ZM1203.98 460.268C1202.62 460.268 1202.02 459.516 1202.02 458.161C1202.02 456.806 1202.62 456.054 1203.98 456.054C1205.33 456.054 1206.08 456.806 1206.08 458.161C1206.08 459.516 1205.33 460.268 1203.98 460.268Z" fill="#1A232D"/>
<path d="M1247.18 480.588C1247.18 485.857 1244.01 489.168 1238.75 489.168H1209.25V486.007H1215.87V472.46L1219.33 471.256V486.007H1229.72V470.052L1233.18 468.848V485.706H1238.6C1242.21 485.706 1243.86 483.9 1243.86 479.986V467.644L1247.18 466.439V480.588Z" fill="#1A232D"/>
<path d="M1255.75 489.018H1252.29V458.161L1255.75 457.107V489.018Z" fill="#1A232D"/>
<path d="M1290.82 489.018H1268.1L1271.11 485.857H1274.87V483.749C1274.72 478.18 1278.18 473.815 1283.9 473.815C1286.16 473.815 1288.11 474.718 1289.77 476.374L1287.36 478.782C1286.16 477.427 1284.8 476.825 1283.3 476.825C1280.14 476.825 1278.18 479.535 1278.18 482.696V485.706H1290.82V489.018Z" fill="#1A232D"/>
<path d="M1308.28 498.501C1298.65 498.501 1295.79 492.63 1295.19 484.352L1298.5 483.148V483.75C1298.65 491.577 1301.51 495.039 1308.43 495.039C1313.1 495.039 1317.16 493.684 1317.16 487.964V458.161L1320.47 457.107V485.706H1328.6V488.867H1320.47C1320.32 495.641 1315.81 498.501 1308.28 498.501Z" fill="#1A232D"/>
<path d="M1361.41 489.018H1359.01C1356.3 489.018 1354.34 488.265 1352.53 486.609C1351.33 490.222 1348.62 492.329 1344.56 492.329C1340.34 492.329 1337.93 490.523 1336.58 487.061C1335.07 488.415 1333.12 489.018 1330.71 489.018H1328.15V485.857H1330.41C1333.57 485.857 1335.37 484.201 1335.68 481.19C1335.83 475.32 1338.39 470.955 1344.56 470.955C1350.13 470.955 1352.83 474.417 1353.29 479.986C1353.29 483.9 1355.09 485.857 1358.7 485.857H1361.41V489.018ZM1344.56 474.116C1340.79 474.116 1339.29 476.524 1339.29 481.492C1339.29 486.459 1340.79 489.018 1344.56 489.018C1348.32 489.018 1349.67 486.609 1349.67 481.492C1349.67 476.374 1348.32 474.116 1344.56 474.116Z" fill="#1A232D"/>
<path d="M1371.95 480.589C1371.95 485.556 1368.64 489.168 1363.52 489.168H1360.81V486.007H1363.22C1366.83 486.007 1368.49 484.201 1368.49 480.288V467.945L1371.8 466.741V480.589H1371.95ZM1366.83 499.554C1365.48 499.554 1364.72 498.802 1364.72 497.447C1364.72 496.092 1365.48 495.34 1366.83 495.34C1368.19 495.34 1368.79 496.092 1368.79 497.447C1368.79 498.802 1368.34 499.554 1366.83 499.554Z" fill="#1A232D"/>
<path d="M1419.36 485.857H1421.92V489.018H1419.06C1415.75 489.018 1413.49 488.115 1411.99 485.556C1410.48 487.513 1408.37 488.416 1405.36 488.416C1399.64 488.416 1396.63 484.803 1396.63 477.578C1396.63 474.417 1397.39 471.858 1398.59 470.052H1393.92C1390.01 470.052 1387.75 470.805 1387.6 477.277V497.447L1384.29 498.651V476.525C1384.44 469.45 1387.3 466.741 1394.53 466.741H1405.51C1411.08 466.741 1414.09 470.654 1414.09 477.127C1413.94 482.244 1413.64 485.857 1419.36 485.857ZM1405.36 469.902C1401.9 469.902 1400.1 472.461 1400.1 477.578C1400.1 482.696 1401.9 485.255 1405.36 485.255C1408.83 485.255 1410.63 482.696 1410.63 477.578C1410.63 472.461 1408.68 469.902 1405.36 469.902Z" fill="#1A232D"/>
<path d="M1444.65 481.492C1444.5 487.663 1442.39 488.867 1436.52 489.018H1421.47V485.857H1435.92C1439.98 485.857 1441.34 485.104 1441.34 482.094V481.191H1434.56C1429.75 481.191 1426.89 479.234 1426.89 473.665C1426.89 469.149 1430.8 465.988 1435.92 465.988C1440.73 465.988 1444.65 468.697 1444.5 473.665V481.492H1444.65ZM1441.34 478.331V473.815C1441.34 471.106 1439.38 469.149 1436.07 469.149C1432.61 469.149 1430.35 470.805 1430.35 473.665C1430.35 477.879 1432.16 478.18 1435.17 478.18H1441.34V478.331ZM1432.61 460.268C1431.25 460.268 1430.5 459.516 1430.5 458.161C1430.5 456.806 1431.25 456.054 1432.61 456.054C1433.96 456.054 1434.56 456.806 1434.56 458.161C1434.56 459.516 1433.96 460.268 1432.61 460.268ZM1439.08 460.268C1437.72 460.268 1437.12 459.516 1437.12 458.161C1437.12 456.806 1437.72 456.054 1439.08 456.054C1440.43 456.054 1441.19 456.806 1441.19 458.161C1441.19 459.516 1440.43 460.268 1439.08 460.268Z" fill="#1A232D"/>
</svg>
