<svg width="19" height="19" viewBox="0 0 19 19" fill="none" xmlns="http://www.w3.org/2000/svg">
<g id="Icons/Solid/Info-circle">
<path id="Vector" d="M10 17.125C11.8897 17.125 13.7019 16.3743 15.0381 15.0381C16.3743 13.7019 17.125 11.8897 17.125 10C17.125 8.11034 16.3743 6.29807 15.0381 4.96187C13.7019 3.62568 11.8897 2.87501 10 2.87501C8.11033 2.87501 6.29806 3.62568 4.96186 4.96187C3.62567 6.29807 2.875 8.11034 2.875 10C2.875 11.8897 3.62567 13.7019 4.96186 15.0381C6.29806 16.3743 8.11033 17.125 10 17.125ZM10.8283 8.74245L9.93766 12.9328C9.87531 13.2357 9.96348 13.4075 10.2084 13.4075C10.3812 13.4075 10.6421 13.3452 10.8194 13.1884L10.741 13.5589C10.4854 13.8671 9.92163 14.0915 9.43623 14.0915C8.81012 14.0915 8.54383 13.7157 8.71661 12.9168L9.37389 9.82812C9.43089 9.56717 9.37923 9.47276 9.11828 9.40952L8.71661 9.33738L8.78964 8.99806L10.8292 8.74245H10.8283ZM10 7.77345C9.76379 7.77345 9.53726 7.67961 9.37023 7.51259C9.20321 7.34556 9.10938 7.11903 9.10938 6.88282C9.10938 6.64661 9.20321 6.42008 9.37023 6.25306C9.53726 6.08603 9.76379 5.9922 10 5.9922C10.2362 5.9922 10.4627 6.08603 10.6298 6.25306C10.7968 6.42008 10.8906 6.64661 10.8906 6.88282C10.8906 7.11903 10.7968 7.34556 10.6298 7.51259C10.4627 7.67961 10.2362 7.77345 10 7.77345Z" fill="#DB9C49"/>
</g>
</svg>
