<svg width="40" height="40" viewBox="0 0 40 40" fill="none" xmlns="http://www.w3.org/2000/svg">
<path d="M0 20C0 16.0444 1.17298 12.1776 3.37061 8.8886C5.56824 5.59961 8.69181 3.03616 12.3463 1.52241C16.0009 0.00865805 20.0222 -0.387409 23.9018 0.384296C27.7814 1.156 31.3451 3.06082 34.1421 5.85787C36.9392 8.65492 38.844 12.2186 39.6157 16.0982C40.3874 19.9778 39.9913 23.9991 38.4776 27.6537C36.9638 31.3082 34.4004 34.4318 31.1114 36.6294C27.8224 38.827 23.9556 40 20 40C14.6957 40 9.60859 37.8929 5.85786 34.1421C2.10714 30.3914 0 25.3043 0 20H0Z" fill="#00C65E"/>
<path d="M17.589 24.265L28.341 13.008C28.4907 12.8473 28.6719 12.7192 28.8733 12.6316C29.0746 12.544 29.2919 12.4988 29.5115 12.4988C29.7311 12.4988 29.9483 12.544 30.1497 12.6316C30.3511 12.7192 30.5323 12.8473 30.682 13.008C30.9935 13.34 31.1669 13.7782 31.1669 14.2335C31.1669 14.6888 30.9935 15.127 30.682 15.459L17.589 29.167L9.98499 21.2C9.67345 20.868 9.50006 20.4298 9.50006 19.9745C9.50006 19.5192 9.67345 19.081 9.98499 18.749C10.1347 18.5884 10.3159 18.4602 10.5173 18.3726C10.7186 18.285 10.9359 18.2398 11.1555 18.2398C11.3751 18.2398 11.5923 18.285 11.7937 18.3726C11.9951 18.4602 12.1763 18.5884 12.326 18.749L17.589 24.265Z" fill="white"/>
</svg>
