<?xml version="1.0" encoding="UTF-8"?>
<svg id="Layer_1" data-name="Layer 1" xmlns="http://www.w3.org/2000/svg" viewBox="0 0 70 70">
  <defs>
    <style>
      .cls-1 {
        fill: #f4c980;
      }

      .cls-2 {
        fill: #73a5d8;
      }

      .cls-3 {
        fill: #e3152e;
      }

      .cls-3, .cls-4 {
        stroke: #1a242d;
        stroke-miterlimit: 10;
        stroke-width: 2.03px;
      }

      .cls-4 {
        fill: none;
      }
    </style>
  </defs>
  <rect class="cls-1" x="15" y="23" width="8" height="15"/>
  <g>
    <g>
      <rect class="cls-3" x="15.26" y="12.38" width="34.5" height="4.06"/>
      <rect class="cls-4" x="49.76" y="12.38" width="4.06" height="4.06"/>
    </g>
    <g>
      <path class="cls-2" d="M49.76,62.14v-3.04H3.08v3.04c0,2.24,1.82,4.06,4.06,4.06H53.82c-2.24,0-4.06-1.82-4.06-4.06Z"/>
      <path class="cls-2" d="M61.94,3.28c-2.24,0-4.06,1.82-4.06,4.06v3.04h8.12v-3.04c0-2.24-1.82-4.06-4.06-4.06Z"/>
      <path class="cls-4" d="M61.94,3.28c2.24,0,4.06,1.82,4.06,4.06v3.04h-5.07"/>
      <path class="cls-4" d="M49.76,62.14v-3.04H3.08v3.04c0,2.24,1.82,4.06,4.06,4.06H53.82c-2.24,0-4.06-1.82-4.06-4.06Z"/>
      <line class="cls-4" x1="11.2" y1="59.1" x2="11.2" y2="45.9"/>
      <path class="cls-4" d="M57.88,39V7.34c0-1.04,.4-2.08,1.19-2.87,.79-.79,1.83-1.19,2.87-1.19H15.26c-1.04,0-2.08,.4-2.87,1.19-.79,.79-1.19,1.83-1.19,2.87V47"/>
      <path class="cls-4" d="M57.88,45.9v16.24c0,1.04-.4,2.08-1.19,2.87-.79,.79-1.83,1.19-2.87,1.19"/>
    </g>
    <g>
      <line class="cls-4" x1="14.24" y1="46.92" x2="54.84" y2="46.92"/>
      <line class="cls-4" x1="14.24" y1="50.98" x2="54.84" y2="50.98"/>
      <line class="cls-4" x1="14.24" y1="55.04" x2="34.54" y2="55.04"/>
      <rect class="cls-4" x="15.24" y="23" width="34" height="15"/>
      <line class="cls-4" x1="23" y1="23" x2="23" y2="38"/>
      <line class="cls-4" x1="31" y1="23" x2="31" y2="38"/>
      <line class="cls-4" x1="49" y1="28" x2="15" y2="28"/>
      <line class="cls-4" x1="49" y1="33" x2="15" y2="33"/>
    </g>
  </g>
</svg>