<?xml version="1.0" encoding="utf-8"?>
<!-- Generator: Adobe Illustrator 27.0.1, SVG Export Plug-In . SVG Version: 6.00 Build 0)  -->
<svg version="1.1" id="Layer_1" xmlns="http://www.w3.org/2000/svg" xmlns:xlink="http://www.w3.org/1999/xlink" x="0px" y="0px"
	 viewBox="0 0 200 200" style="enable-background:new 0 0 200 200;" xml:space="preserve">
<style type="text/css">
	.st0{fill:#EFE8E2;}
	.st1{fill:#7AA2D3;}
	.st2{fill:#FFFFFF;stroke:#1A242D;stroke-width:4.2349;stroke-miterlimit:10;}
	.st3{fill:none;stroke:#1A242D;stroke-width:5.0348;stroke-miterlimit:10;}
	.st4{fill:#E3152E;}
	.st5{fill:#1A242D;}
	.st6{fill:#1A232C;}
	.st7{fill:#E11E2F;}
	.st8{fill:#FFFFFF;}
	.st9{fill:none;stroke:#1A242D;stroke-width:4.2716;stroke-miterlimit:10;}
	.st10{fill:#FFFFFF;stroke:#1A242D;stroke-width:4.2716;stroke-miterlimit:10;}
	.st11{fill:#FFFFFF;stroke:#1A242D;stroke-miterlimit:10;}
	.st12{fill:none;stroke:#1A242D;stroke-width:1.1889;stroke-miterlimit:10;}
	.st13{fill:none;stroke:#1A242D;stroke-width:1.0087;stroke-miterlimit:10;}
	.st14{fill:#FFFFFF;stroke:#1A242D;stroke-width:1.0087;stroke-miterlimit:10;}
</style>
<g>
	<circle class="st0" cx="100" cy="100" r="73.77"/>
	<g>
		<g>
			<g>
				<g>
					<path class="st5" d="M55.67,99.58C55.9,75.33,75.7,55.67,100,55.67h9.17v5.55H100c-21.25,0-38.56,17.17-38.78,38.36H55.67z"/>
				</g>
				<g>
					<polygon class="st5" points="98.34,65.77 105.67,58.44 98.34,51.11 102.26,47.19 113.51,58.44 102.26,69.69 					"/>
				</g>
			</g>
		</g>
		<g>
			<g>
				<g>
					<path class="st5" d="M90.84,144.33v-5.55H100c21.25,0,38.56-17.17,38.78-38.36h5.55c-0.23,24.25-20.03,43.91-44.33,43.91H90.84
						z"/>
				</g>
				<g>
					<polygon class="st5" points="86.49,141.56 97.74,130.31 101.66,134.23 94.33,141.56 101.66,148.89 97.74,152.81 					"/>
				</g>
			</g>
		</g>
		<g>
			<circle class="st4" cx="100" cy="100" r="19.18"/>
			<path class="st8" d="M106.39,100c0,3.52-2.86,6.39-6.39,6.39c-3.53,0-6.39-2.87-6.39-6.39c0-3.52,2.86-6.39,6.39-6.39
				C103.53,93.61,106.39,96.48,106.39,100z"/>
			<path class="st5" d="M100,122.38c-12.34,0-22.38-10.04-22.38-22.38S87.66,77.62,100,77.62s22.38,10.04,22.38,22.38
				S112.34,122.38,100,122.38z M100,83.39c-9.16,0-16.61,7.45-16.61,16.61c0,9.16,7.45,16.61,16.61,16.61
				c9.16,0,16.61-7.45,16.61-16.61C116.61,90.84,109.16,83.39,100,83.39z"/>
		</g>
	</g>
</g>
</svg>
