<svg width="1679" height="589" viewBox="0 0 1679 589" fill="none" xmlns="http://www.w3.org/2000/svg">
<rect width="1679" height="589" rx="80" fill="#EFE8E2"/>
<path d="M1445.17 222.284H1380.4V379.133H1445.17V222.284Z" fill="#E3152E"/>
<path d="M1235.77 274.232H1262.68V262.912H1235.77C1233 262.912 1230.36 261.779 1228.48 259.893C1226.46 257.88 1225.46 255.365 1225.46 252.597C1225.46 249.83 1226.59 247.189 1228.48 245.302C1230.49 243.29 1233 242.283 1235.77 242.283H1314.88L1310.6 233.982C1307.08 227.19 1304.19 219.769 1302.43 212.725C1300.67 205.429 1299.79 197.883 1299.79 190.462V180.399C1299.79 177.632 1300.92 174.99 1302.8 173.104C1304.82 171.091 1307.33 170.085 1310.1 170.085C1312.87 170.085 1315.51 171.217 1317.39 173.104C1319.41 175.116 1320.54 177.758 1320.54 180.525C1320.54 188.826 1322.05 195.744 1325.69 204.423C1329.09 212.599 1334 219.769 1340.16 225.806C1345.57 231.089 1351.73 235.24 1358.65 238.007C1365.69 240.9 1372.98 242.283 1380.4 242.283V230.963C1374.37 230.963 1368.46 229.831 1362.92 227.567C1357.39 225.303 1352.36 221.907 1348.08 217.756C1342.92 212.599 1339.03 206.813 1336.13 200.021C1333.11 192.726 1331.86 187.317 1331.86 180.525C1331.86 174.739 1329.59 169.204 1325.44 165.179C1321.42 161.154 1316.01 158.765 1310.1 158.765C1304.31 158.765 1298.78 161.029 1294.76 165.179C1290.6 169.204 1288.34 174.739 1288.34 180.525V190.587C1288.34 198.889 1289.35 207.316 1291.36 215.492C1292.62 220.649 1294.38 225.932 1296.52 230.963H1235.77C1229.98 230.963 1224.45 233.227 1220.43 237.378C1216.28 241.529 1214.01 246.937 1214.01 252.723C1214.01 258.509 1216.28 264.044 1220.43 268.069C1224.58 271.968 1229.98 274.232 1235.77 274.232Z" fill="#1A242C"/>
<path d="M1244.95 306.306H1262.81V294.986H1244.95C1242.18 294.986 1239.54 293.854 1237.66 291.967C1235.64 289.955 1234.64 287.439 1234.64 284.672C1234.64 281.905 1235.77 279.263 1237.66 277.251C1239.67 275.238 1242.18 274.232 1244.95 274.232H1262.81V262.912H1244.95C1239.17 262.912 1233.63 265.176 1229.61 269.326C1225.46 273.477 1223.19 278.886 1223.19 284.672C1223.19 290.458 1225.46 295.992 1229.61 300.017C1233.63 304.042 1239.04 306.306 1244.95 306.306Z" fill="#1A242C"/>
<path d="M1253.76 338.506H1262.68V327.186H1253.76C1250.99 327.186 1248.35 326.054 1246.46 324.167C1244.45 322.154 1243.44 319.639 1243.44 316.872C1243.44 314.105 1244.57 311.463 1246.46 309.576C1248.47 307.564 1250.99 306.558 1253.76 306.558H1262.68V295.237H1253.76C1247.97 295.237 1242.44 297.501 1238.41 301.652C1234.26 305.803 1232 311.212 1232 316.997C1232 322.783 1234.26 328.318 1238.41 332.343C1242.56 336.242 1247.97 338.506 1253.76 338.506Z" fill="#1A242C"/>
<path d="M1262.68 370.706H1380.4V359.386H1262.68C1259.92 359.386 1257.28 358.254 1255.39 356.367C1253.38 354.355 1252.37 351.839 1252.37 349.072C1252.37 346.305 1253.5 343.663 1255.39 341.777C1257.4 339.764 1259.92 338.758 1262.68 338.758V327.438C1256.9 327.438 1251.36 329.702 1247.34 333.852C1243.19 338.003 1240.93 343.412 1240.93 349.198C1240.93 354.984 1243.19 360.518 1247.34 364.543C1251.36 368.442 1256.9 370.706 1262.68 370.706Z" fill="#1A242C"/>
<path d="M1403.04 347.939H1391.72V359.26H1403.04V347.939Z" fill="white"/>
<path d="M1509.69 117.509H1393.86V184.55H1509.69V117.509Z" fill="#7AA2D3"/>
<path d="M1489.32 133.986H1414.36V145.306H1489.32V133.986Z" fill="#1A242C"/>
<path d="M1489.32 156.752H1451.84V168.073H1489.32V156.752Z" fill="#1A242C"/>
<path d="M1476.62 206.184H1372.35V96H1531.2V206.184H1509.57V239.265L1476.62 206.184ZM1519.88 107.32H1383.67V194.864H1481.27L1498.37 211.845V194.864H1520.01V107.32H1519.88Z" fill="#1A242C"/>
<path d="M531.088 227.567L530.711 247.818H512.348C506.437 247.818 500.903 246.057 497.005 242.535C493.106 239.013 490.59 233.856 490.59 226.435V223.165H485.308C475.75 223.165 469.713 232.221 470.467 240.774C471.096 248.195 478.768 254.987 486.314 254.987C492.351 254.987 497.885 253.729 504.173 250.208V270.584C498.011 273.98 490.716 274.861 484.05 274.861C465.562 274.861 449.59 259.39 449.59 240.774C449.59 226.938 455.753 213.102 467.449 207.316C465.814 189.455 475.624 175.997 491.848 175.997C497.633 175.997 505.18 178.764 511.971 185.304L498.64 199.643C495.998 196.499 493.609 195.87 491.597 195.996C489.333 196.122 487.446 198.386 487.446 201.279V205.052H511.594L511.468 219.894C511.468 224.045 513.732 227.693 519.517 227.693H531.088V227.567Z" fill="#1A232D"/>
<path d="M541.653 270.081C541.653 275.867 537 280.521 531.214 280.521C525.429 280.521 520.775 275.867 520.775 270.081C520.775 264.295 525.429 259.641 531.214 259.641C537 259.641 541.653 264.295 541.653 270.081ZM569.825 219.391C569.825 235.869 558.632 247.944 543.665 247.944H528.322V227.693H538.886C543.665 227.693 548.696 224.548 548.696 217.253V192.6L569.825 185.934V219.391ZM566.304 270.081C566.304 275.867 561.65 280.521 555.865 280.521C550.079 280.521 545.426 275.867 545.426 270.081C545.426 264.295 550.079 259.641 555.865 259.641C561.65 259.641 566.304 264.295 566.304 270.081Z" fill="#1A232D"/>
<path d="M629.187 247.944C626.043 265.176 612.586 274.735 595.607 275.615C589.696 275.993 582.276 274.861 576.49 272.219L566.555 249.956C572.34 253.855 581.898 256.371 587.81 256.371C599.632 256.371 607.933 249.705 608.31 237.63V198.134L629.942 191.468V227.567H648.304V247.818H629.187V247.944Z" fill="#1A232D"/>
<path d="M759.358 222.661C759.358 238.761 747.787 247.943 732.318 247.943H645.663V227.693H662.893V202.788L684.023 196.122V227.693H700.498V197.757L721.627 191.09V227.818H732.066C736.217 227.818 738.229 225.806 738.229 221.655V192.725L759.358 186.059V222.661Z" fill="#1A232D"/>
<path d="M813.187 231.215C812.809 246.308 819.727 254.987 833.31 254.987C844.88 254.987 852.93 248.698 852.93 236.875V166.06L874.059 159.645V240.774C874.059 262.031 858.967 274.986 833.31 274.986C805.766 274.986 792.058 259.515 792.058 230.083L813.313 223.793L813.187 231.215Z" fill="#1A232D"/>
<path d="M909.904 247.943H888.774V166.311L909.904 159.645V247.943Z" fill="#1A232D"/>
<path d="M1005.11 227.567V247.818H983.855C982.346 265.427 970.901 274.987 954.425 274.987C949.772 274.987 943.106 274.358 937.321 271.716L928.14 250.585C934.68 254.358 942.226 256.119 949.898 256.119C954.3 256.119 960.462 254.736 963.481 247.818C960.714 247.818 955.683 247.944 954.174 247.944C935.937 247.944 924.618 236.749 924.618 217.882C924.618 199.392 936.063 184.801 954.174 184.801C974.548 184.801 983.729 199.14 983.729 219.894V227.567H1005.11ZM975.932 178.764H930.529L938.453 166.186H944.993V164.551C944.993 154.362 951.658 146.815 961.72 146.815C965.996 146.815 971.278 148.451 975.68 153.104L966.248 162.538C964.738 160.526 963.984 159.519 961.594 159.519C959.833 159.519 958.073 161.029 958.073 163.544V166.06H975.932V178.764ZM963.229 217.253C963.229 210.461 961.091 204.172 954.048 204.172C949.772 204.172 945.496 208.197 945.496 217.253C945.496 223.542 949.395 227.567 954.048 227.567H963.229V217.253Z" fill="#1A232D"/>
<path d="M1116.04 222.662C1116.04 238.762 1104.47 247.944 1089 247.944H1002.34V227.693H1019.57V202.788L1040.7 195.996V227.567H1057.18V197.631L1078.31 190.965V227.693H1088.75C1092.9 227.693 1094.91 225.68 1094.91 221.53V192.6L1116.04 185.934V222.662Z" fill="#1A232D"/>
<path d="M460.531 321.777H453.991C453.991 318.13 451.727 315.237 447.828 315.237C444.181 315.237 441.666 318.004 441.666 321.651C441.666 323.287 442.672 325.425 444.684 328.192C445.942 329.827 447.325 331.462 448.583 333.223C449.589 334.607 450.344 335.865 450.47 337.123C450.721 337.877 450.721 339.387 450.721 341.651H444.181C444.181 339.135 443.804 337.248 443.049 336.242C441.414 333.978 439.779 331.714 438.018 329.45C436.006 326.305 435 323.664 435 321.526C435 317.878 436.258 314.859 438.647 312.721C441.163 310.457 444.181 309.451 447.828 309.451C451.476 309.451 454.368 310.583 456.758 312.973C459.148 315.362 460.531 318.13 460.531 321.777ZM450.47 353.726H444.684V348.066H450.47V353.726Z" fill="#1A232D"/>
<path d="M505.682 328.947V352.216C505.682 362.027 499.52 366.933 487.194 366.933C478.894 366.933 473.234 364.417 470.341 359.26C468.203 355.612 467.197 349.826 467.323 341.902L473.863 340.015V346.053C473.863 356.87 477.636 361.021 487.32 361.021C495.244 361.021 499.268 357.876 499.268 351.587V330.959L505.682 328.947ZM489.584 332.217C489.584 334.104 488.075 335.739 486.063 335.739C484.176 335.739 482.415 334.104 482.415 332.217C482.415 330.33 484.05 328.569 486.063 328.569C488.075 328.569 489.584 330.204 489.584 332.217Z" fill="#1A232D"/>
<path d="M544.293 341.399C544.293 344.921 543.161 347.94 540.771 350.204C538.382 352.468 535.363 353.6 531.339 353.6H511.719L514.737 347.814H521.78V313.727L528.32 311.841V347.814H530.961C535.489 347.814 537.753 345.55 537.753 340.896V310.457L544.293 308.57V341.399ZM534.483 305.048C531.968 306.935 529.704 307.941 527.817 307.941C526.559 307.941 525.176 307.564 523.667 306.935C522.158 306.18 521.026 305.803 520.397 305.803C518.888 305.803 517.504 306.432 516.372 307.564L513.354 305.426C515.869 303.539 518.133 302.533 520.019 302.533C521.277 302.533 522.786 302.91 524.421 303.665C526.056 304.294 527.188 304.671 527.943 304.671C529.075 304.671 530.207 304.042 531.59 302.91L534.483 305.048Z" fill="#1A232D"/>
<path d="M556.744 353.726H550.204V311.212L556.744 309.199V353.726Z" fill="#1A232D"/>
<path d="M608.938 353.726C609.19 358.128 607.681 361.524 604.285 363.788C601.266 365.927 597.116 366.933 591.96 366.933C585.923 366.933 581.269 365.172 578.125 361.776C575.358 358.757 573.975 354.732 573.975 349.575C573.975 345.424 574.855 341.148 576.742 336.745L584.288 332.217C581.647 338.255 580.263 343.663 580.263 348.443C580.263 356.367 584.288 361.147 591.96 361.021C595.23 361.021 597.619 360.77 599.128 360.141C601.895 359.134 603.404 356.996 603.656 353.726C599.38 353.349 596.487 351.713 595.104 348.443L598.122 342.28C599.883 346.682 601.644 348.066 606.046 348.066H608.938V353.726Z" fill="#1A232D"/>
<path d="M636.607 353.726H632.457C628.432 353.726 625.162 352.468 622.898 350.078C620.509 352.468 617.239 353.726 613.088 353.726H608.058V348.066H612.585C617.239 348.066 619.503 345.676 619.503 341.022V324.545L626.043 322.658V341.273C626.043 345.802 628.306 348.066 632.834 348.066H636.607V353.726ZM621.515 312.721C621.515 314.608 619.88 316.369 617.868 316.369C615.855 316.369 614.346 314.734 614.346 312.721C614.346 310.709 615.855 309.199 617.868 309.199C619.88 309.199 621.515 310.834 621.515 312.721ZM630.822 312.721C630.822 314.608 629.187 316.369 627.174 316.369C625.288 316.369 623.653 314.734 623.653 312.721C623.653 310.709 625.288 309.199 627.174 309.199C629.187 309.199 630.822 310.834 630.822 312.721Z" fill="#1A232D"/>
<path d="M671.823 353.726H634.973V348.066H665.031V345.55C665.031 340.267 664.528 336.494 663.522 334.104C662.013 330.205 658.994 328.318 654.467 328.318C650.694 328.318 647.172 330.079 643.902 333.601L639.249 329.198C643.902 324.67 648.933 322.406 654.593 322.406C661.636 322.406 666.415 324.922 669.056 329.953C670.817 333.475 671.697 338.632 671.697 345.424V353.726H671.823Z" fill="#1A232D"/>
<path d="M749.925 353.726H747.032C742.378 353.726 738.983 352.09 736.845 348.946C734.581 352.216 730.934 353.726 725.903 353.726H701.378C693.958 353.726 688.927 348.946 688.927 341.776V334.733L695.467 328.066V341.022C695.467 345.55 697.731 347.814 702.258 347.814H725.525C730.179 347.814 732.443 345.55 732.443 341.022V310.96L738.857 309.073V339.009C738.857 344.921 741.75 347.814 747.409 347.814H749.925V353.726ZM724.519 332.972H702.258L705.528 328.947H708.924V327.563C708.924 322.406 712.194 318.255 717.602 318.255C719.74 318.255 721.878 319.262 723.639 321.148L720.62 324.167C719.614 322.909 718.357 322.28 717.099 322.28C714.458 322.28 713.074 323.915 713.074 326.934V328.947H724.394V332.972H724.519Z" fill="#1A232D"/>
<path d="M776.84 353.726H772.689C768.665 353.726 765.395 352.468 763.131 350.078C760.741 352.468 757.471 353.726 753.321 353.726H748.29V348.066H752.818C757.471 348.066 759.735 345.676 759.735 341.022V324.545L766.275 322.658V341.273C766.275 345.802 768.539 348.066 773.066 348.066H776.84V353.726ZM761.747 312.721C761.747 314.608 760.112 316.369 758.1 316.369C756.088 316.369 754.578 314.734 754.578 312.721C754.578 310.709 756.088 309.199 758.1 309.199C760.112 309.199 761.747 310.834 761.747 312.721ZM771.054 312.721C771.054 314.608 769.419 316.369 767.407 316.369C765.52 316.369 763.885 314.734 763.885 312.721C763.885 310.709 765.52 309.199 767.407 309.199C769.293 309.199 771.054 310.834 771.054 312.721Z" fill="#1A232D"/>
<path d="M793.567 341.399C793.567 344.921 792.435 347.94 790.045 350.204C787.655 352.468 784.511 353.6 780.612 353.6H775.33V347.94H780.361C784.888 347.94 787.152 345.55 787.152 340.896V324.418L793.692 322.532V341.399H793.567ZM789.416 363.411C789.416 365.297 787.781 367.058 785.769 367.058C783.882 367.058 782.247 365.423 782.247 363.411C782.247 361.398 783.882 359.889 785.769 359.889C787.781 359.889 789.416 361.398 789.416 363.411Z" fill="#1A232D"/>
<path d="M830.165 353.725H820.355C819.475 361.775 813.815 367.058 804.886 367.058C801.867 367.058 799.478 366.429 797.466 365.172L794.321 358.631C797.466 360.392 800.861 361.272 804.886 361.272C810.545 361.272 813.815 357.625 813.815 351.839V324.418L820.355 322.532V347.94H830.165V353.725Z" fill="#1A232D"/>
<path d="M874.939 353.726H828.656V348.066H859.595V345.55C859.595 340.267 859.092 336.494 858.086 334.104C856.577 330.205 853.558 328.318 848.905 328.318C845.132 328.318 841.61 330.079 838.34 333.601L833.687 329.198C838.34 324.67 843.371 322.406 848.905 322.406C855.948 322.406 860.727 324.922 863.368 329.953C865.255 333.475 866.135 338.632 866.135 345.424V347.814H874.688V353.726H874.939ZM852.552 363.411C852.552 365.298 850.917 367.059 848.905 367.059C847.018 367.059 845.258 365.423 845.258 363.411C845.258 361.398 846.893 359.889 848.905 359.889C850.917 359.889 852.552 361.398 852.552 363.411Z" fill="#1A232D"/>
<path d="M891.54 341.399C891.54 344.921 890.408 347.94 888.019 350.204C885.629 352.468 882.485 353.6 878.586 353.6H873.304V347.94H878.334C882.862 347.94 885.126 345.55 885.126 340.896V324.419L891.666 322.532V341.399H891.54ZM882.736 312.721C882.736 314.608 881.101 316.369 879.215 316.369C877.328 316.369 875.568 314.734 875.568 312.721C875.568 310.709 877.202 309.199 879.215 309.199C881.227 309.199 882.736 310.834 882.736 312.721ZM892.043 312.721C892.043 314.608 890.408 316.369 888.396 316.369C886.509 316.369 884.749 314.734 884.749 312.721C884.749 310.709 886.384 309.199 888.396 309.199C890.408 309.199 892.043 310.834 892.043 312.721Z" fill="#1A232D"/>
<path d="M943.734 353.726C943.986 358.128 942.477 361.524 939.081 363.788C936.062 365.927 931.912 366.933 926.755 366.933C920.719 366.933 916.065 365.172 912.921 361.776C910.154 358.757 908.771 354.732 908.771 349.575C908.771 345.424 909.651 341.148 911.537 336.745L919.084 332.217C916.442 338.255 915.059 343.663 915.059 348.443C915.059 356.367 919.084 361.147 926.755 361.021C930.025 361.021 932.415 360.77 933.924 360.141C936.691 359.134 938.2 356.996 938.452 353.726C934.176 353.349 931.283 351.713 929.9 348.443L932.918 342.28C934.679 346.682 936.44 348.066 940.842 348.066H943.734V353.726ZM925.498 375.989C925.498 377.876 923.863 379.637 921.85 379.637C919.964 379.637 918.203 378.002 918.203 375.989C918.203 374.102 919.838 372.467 921.85 372.467C923.989 372.467 925.498 374.228 925.498 375.989ZM934.805 375.989C934.805 377.876 933.17 379.637 931.157 379.637C929.145 379.637 927.51 378.002 927.51 375.989C927.51 374.102 929.145 372.467 931.157 372.467C933.17 372.467 934.805 374.228 934.805 375.989Z" fill="#1A232D"/>
<path d="M979.327 353.726H942.729V347.94H951.91C950.4 347.311 949.772 344.921 949.772 340.519C949.772 337.626 950.4 335.236 951.658 333.349C953.293 330.959 955.808 329.701 959.078 329.701C962.348 329.701 964.864 330.833 966.373 333.349C967.631 335.236 968.26 337.626 968.26 340.519C968.26 343.915 967.631 346.43 966.373 347.94H972.662V342.28C972.662 336.619 972.033 332.72 970.901 330.582C969.266 327.437 966.122 325.928 961.091 325.928H946.124L953.67 320.142H961.971C969.14 320.142 974.045 322.532 976.686 327.312C978.447 330.582 979.327 335.739 979.327 342.405V353.726ZM963.103 340.519C963.103 336.494 961.72 334.481 959.078 334.481C956.437 334.481 955.054 336.494 955.054 340.519C955.054 345.55 956.437 348.066 959.078 348.066C961.72 348.066 963.103 345.55 963.103 340.519Z" fill="#1A232D"/>
<path d="M1051.9 353.726H1036.93C1035.67 353.726 1034.29 353.6 1033.03 353.348C1031.65 353.6 1030.26 353.726 1029.01 353.726H1009.13C1001.71 353.726 996.683 348.946 996.683 341.776V334.733L1003.22 328.066V341.022C1003.22 345.55 1005.49 347.814 1010.01 347.814H1023.85C1020.96 344.795 1019.57 341.525 1019.45 338.129C1019.32 333.726 1020.2 330.204 1022.21 327.437C1024.6 324.167 1028.12 322.406 1032.9 322.406C1037.81 322.406 1041.46 324.041 1043.72 327.437C1045.73 330.204 1046.61 333.852 1046.49 338.129C1046.36 341.525 1044.98 344.795 1042.09 347.94H1051.9V353.726ZM1032.9 328.318C1028.25 328.318 1025.61 331.965 1025.61 336.494C1025.61 338.758 1026.24 340.896 1027.37 342.908C1028.63 345.047 1030.51 346.556 1032.78 347.311C1035.04 346.556 1036.8 345.047 1038.19 342.908C1039.32 340.896 1039.95 338.758 1039.95 336.494C1040.2 331.84 1037.56 328.318 1032.9 328.318ZM1036.43 312.721C1036.43 314.608 1034.79 316.369 1032.9 316.369C1031.02 316.369 1029.26 314.733 1029.26 312.721C1029.26 310.708 1030.89 309.073 1032.9 309.073C1034.92 309.073 1036.43 310.708 1036.43 312.721Z" fill="#1A232D"/>
<path d="M1078.81 353.726H1074.66C1070.64 353.726 1067.37 352.468 1065.1 350.078C1062.71 352.468 1059.44 353.726 1055.29 353.726H1050.26V348.066H1054.79C1059.44 348.066 1061.71 345.676 1061.71 341.022V324.544L1068.25 322.658V341.273C1068.25 345.801 1070.51 348.066 1075.04 348.066H1078.81V353.726ZM1063.97 363.411C1063.97 365.298 1062.33 367.058 1060.32 367.058C1058.31 367.058 1056.8 365.423 1056.8 363.411C1056.8 361.398 1058.31 359.889 1060.32 359.889C1062.33 359.889 1063.97 361.398 1063.97 363.411ZM1073.28 363.411C1073.28 365.298 1071.64 367.058 1069.63 367.058C1067.62 367.058 1066.11 365.423 1066.11 363.411C1066.11 361.398 1067.74 359.889 1069.63 359.889C1071.52 359.889 1073.28 361.398 1073.28 363.411Z" fill="#1A232D"/>
<path d="M1116.41 353.725H1077.17V348.065H1109.62C1109.75 344.543 1109.5 342.028 1109.37 340.518C1108.87 337.625 1107.74 335.361 1106.1 333.852C1103.71 331.588 1100.69 330.582 1096.79 330.582C1091.76 330.582 1087.87 332.343 1084.72 335.99L1080.19 331.714L1101.7 309.325H1110.25L1095.29 325.047C1096.29 324.922 1097.3 324.796 1098.3 324.796C1103.08 324.796 1107.11 326.305 1110.38 329.198C1113.65 332.091 1115.53 335.865 1116.16 340.644C1116.29 341.399 1116.41 345.927 1116.41 353.725Z" fill="#1A232D"/>
<path d="M713 498.708H1115.71" stroke="#1A242D" stroke-width="1.2" stroke-miterlimit="10"/>
<path d="M733.249 464.873H728.344V469.527C728.344 471.414 729.224 472.294 730.859 472.294H735.135V475.187H730.482C726.96 475.187 725.2 473.301 725.2 469.527V464.748H724.948C720.169 464.622 716.899 468.521 716.899 473.049C716.899 477.451 720.42 480.973 724.948 480.973C727.212 480.973 729.602 480.093 731.488 478.709V481.98C729.35 483.237 727.086 483.992 724.948 483.992C718.911 483.992 713.629 479.212 713.629 473.175C713.629 468.395 716.522 464.622 720.42 462.987V461.729C720.42 457.704 722.81 454.685 726.96 454.685C728.595 454.685 730.105 455.314 731.614 456.698L729.35 458.962C728.595 457.955 727.715 457.452 726.709 457.452C724.697 457.452 723.565 458.962 723.565 461.1V462.106H731.865L733.249 464.873Z" fill="#1A232D"/>
<path d="M744.945 467.389C744.945 472.043 741.926 475.313 737.147 475.313H734.632V472.42H736.896C740.166 472.42 741.801 470.659 741.801 467.138V455.817L744.945 454.811V467.389ZM737.021 484.999C735.764 484.999 735.009 484.37 735.009 483.112C735.009 481.854 735.638 481.225 737.021 481.225C738.279 481.225 738.908 481.854 738.908 483.112C738.908 484.37 738.279 484.999 737.021 484.999ZM743.058 484.999C741.801 484.999 741.172 484.37 741.172 483.112C741.172 481.854 741.801 481.225 743.058 481.225C744.316 481.225 745.071 481.854 745.071 483.112C745.071 484.37 744.316 484.999 743.058 484.999Z" fill="#1A232D"/>
<path d="M766.074 472.295V475.188H759.786C759.409 480.219 756.768 483.867 751.108 483.992C749.976 483.992 747.838 483.615 746.455 482.986L744.945 479.716C747.209 481.099 749.221 481.225 750.731 481.225C754.755 481.225 756.642 477.829 756.642 473.93V455.566L759.786 454.56V472.169H766.074V472.295Z" fill="#1A232D"/>
<path d="M800.535 467.389C800.535 472.169 797.642 475.313 792.737 475.313H765.571V472.42H771.608V459.968L774.752 458.962V472.546H784.311V457.955L787.455 456.949V472.546H792.486C795.756 472.546 797.391 470.785 797.391 467.263V455.943L800.535 454.937V467.389Z" fill="#1A232D"/>
<path d="M835.373 474.936C835.373 481.351 831.097 483.992 824.054 483.992C813.741 483.992 811.854 476.697 811.854 467.137L814.999 466.131C814.999 466.131 814.873 468.521 814.873 469.905C814.873 477.451 817.514 480.848 824.054 480.848C828.456 480.848 832.103 479.59 832.103 474.307V459.465L835.247 458.458V474.936H835.373ZM823.299 464.244C822.042 464.244 821.413 463.616 821.413 462.358C821.413 461.1 822.042 460.471 823.299 460.471C824.557 460.471 825.312 461.1 825.312 462.358C825.186 463.616 824.557 464.244 823.299 464.244Z" fill="#1A232D"/>
<path d="M843.297 445.88V469.527C843.297 471.414 844.177 472.294 845.812 472.294H850.214V475.187H845.435C841.913 475.187 840.152 473.301 840.152 469.527V446.761L843.297 445.88Z" fill="#1A232D"/>
<path d="M866.312 475.313H864.299C861.658 475.313 859.394 474.056 858.388 472.169C857.005 474.181 854.741 475.313 851.974 475.313H849.836V472.42H851.722C854.992 472.42 856.627 470.659 856.627 467.138V455.817L859.772 454.811V467.641C859.772 471.037 861.407 472.546 864.551 472.546H866.437V475.313H866.312ZM852.225 484.999C850.968 484.999 850.213 484.37 850.213 483.112C850.213 481.854 850.842 481.225 852.225 481.225C853.609 481.225 854.112 481.854 854.112 483.112C854.112 484.37 853.483 484.999 852.225 484.999ZM858.262 484.999C857.005 484.999 856.376 484.37 856.376 483.112C856.376 481.854 857.005 481.225 858.262 481.225C859.52 481.225 860.275 481.854 860.275 483.112C860.275 484.37 859.52 484.999 858.262 484.999Z" fill="#1A232D"/>
<path d="M882.41 475.313H880.398C877.757 475.313 875.493 474.056 874.487 472.169C873.103 474.181 870.84 475.313 868.073 475.313H865.935V472.42H867.821C871.091 472.42 872.726 470.659 872.726 467.138V455.817L875.87 454.811V467.641C875.87 471.037 877.505 472.546 880.65 472.546H882.536V475.313H882.41ZM874.11 484.999C872.852 484.999 872.223 484.37 872.223 482.986C872.223 481.728 872.852 481.099 874.11 481.099C875.367 481.099 875.996 481.728 875.996 482.986C876.122 484.37 875.367 484.999 874.11 484.999Z" fill="#1A232D"/>
<path d="M898.509 475.313H896.497C893.855 475.313 891.592 474.055 890.585 472.169C889.202 474.181 886.938 475.313 884.171 475.313H882.033V472.42H883.92C887.19 472.42 888.825 470.659 888.825 467.137V455.817L891.969 454.811V467.641C891.969 471.037 893.604 472.546 896.748 472.546H898.635V475.313H898.509ZM887.064 448.773C885.806 448.773 885.052 448.145 885.052 446.887C885.052 445.629 885.68 445 887.064 445C888.447 445 888.95 445.629 888.95 446.887C888.95 448.145 888.447 448.773 887.064 448.773ZM893.101 448.773C891.843 448.773 891.214 448.145 891.214 446.887C891.214 445.629 891.843 445 893.101 445C894.359 445 895.113 445.629 895.113 446.887C895.113 448.145 894.359 448.773 893.101 448.773Z" fill="#1A232D"/>
<path d="M932.97 467.389C932.97 472.169 930.077 475.313 925.172 475.313H898.006V472.42H904.043V459.968L907.187 458.962V472.546H916.745V457.955L919.89 456.949V472.546H924.92C928.19 472.546 929.825 470.785 929.825 467.263V455.943L932.97 454.937V467.389Z" fill="#1A232D"/>
<path d="M941.018 475.313H937.874V446.887L941.018 446.006V475.313Z" fill="#1A232D"/>
<path d="M973.215 475.313H952.212L954.979 472.42H958.375V470.408C958.249 465.251 961.393 461.352 966.675 461.352C968.813 461.352 970.574 462.106 972.083 463.741L969.82 466.005C968.688 464.873 967.43 464.245 966.172 464.245C963.28 464.245 961.393 466.76 961.393 469.653V472.42H973.09V475.313H973.215Z" fill="#1A232D"/>
<path d="M989.314 483.992C980.384 483.992 977.743 478.583 977.24 471.037L980.259 470.03V470.534C980.384 477.703 983.026 480.973 989.44 480.973C993.842 480.973 997.489 479.716 997.489 474.433V446.887L1000.63 445.88V472.294H1008.18V475.187H1000.63C1000.38 481.351 996.231 483.992 989.314 483.992Z" fill="#1A232D"/>
<path d="M1038.24 475.313H1035.97C1033.46 475.313 1031.57 474.684 1030.06 473.049C1029.06 476.445 1026.42 478.332 1022.64 478.332C1018.87 478.332 1016.61 476.571 1015.35 473.427C1014.09 474.684 1012.2 475.313 1009.94 475.313H1007.55V472.42H1009.69C1012.58 472.42 1014.22 470.785 1014.59 468.018C1014.72 462.609 1017.11 458.584 1022.77 458.584C1027.93 458.584 1030.31 461.729 1030.82 467.012C1030.82 470.659 1032.45 472.42 1035.85 472.42H1038.36V475.313H1038.24ZM1022.77 461.477C1019.37 461.477 1017.86 463.616 1017.86 468.395C1017.86 473.175 1019.25 475.313 1022.77 475.313C1026.29 475.313 1027.55 473.049 1027.55 468.395C1027.55 463.741 1026.29 461.477 1022.77 461.477Z" fill="#1A232D"/>
<path d="M1048.05 467.389C1048.05 472.043 1045.03 475.313 1040.25 475.313H1037.73V472.42H1040C1043.27 472.42 1044.9 470.659 1044.9 467.138V455.817L1048.05 454.811V467.389ZM1043.39 484.999C1042.14 484.999 1041.38 484.37 1041.38 483.112C1041.38 481.854 1042.01 481.225 1043.39 481.225C1044.65 481.225 1045.28 481.854 1045.28 483.112C1045.28 484.37 1044.65 484.999 1043.39 484.999Z" fill="#1A232D"/>
<path d="M1091.82 472.295H1094.08V475.188H1091.44C1088.42 475.188 1086.28 474.307 1085.02 471.917C1083.77 473.678 1081.63 474.559 1078.99 474.559C1073.7 474.559 1070.94 471.163 1070.94 464.496C1070.94 461.477 1071.57 459.213 1072.7 457.578H1068.3C1064.78 457.578 1062.64 458.333 1062.51 464.119V482.734L1059.37 483.866V463.49C1059.49 457.075 1062.13 454.434 1068.8 454.434H1078.86C1084.02 454.434 1086.78 457.955 1086.78 463.993C1086.78 469.024 1086.53 472.295 1091.82 472.295ZM1078.86 457.578C1075.59 457.578 1073.96 459.968 1073.96 464.622C1073.96 469.402 1075.59 471.666 1078.86 471.666C1082.13 471.666 1083.64 469.276 1083.64 464.622C1083.77 459.968 1081.88 457.578 1078.86 457.578Z" fill="#1A232D"/>
<path d="M1115.21 468.27C1115.08 474.055 1113.07 475.062 1107.66 475.313H1093.7V472.42H1107.03C1110.81 472.42 1112.06 471.791 1112.06 469.024V468.144H1105.9C1101.5 468.144 1098.86 466.257 1098.86 461.1C1098.86 456.949 1102.51 454.056 1107.29 454.056C1111.69 454.056 1115.33 456.572 1115.21 461.226V468.27ZM1112.06 465.377V461.226C1112.06 458.71 1110.18 456.949 1107.16 456.949C1104.02 456.949 1101.88 458.584 1101.88 461.226C1101.88 464.999 1103.51 465.377 1106.4 465.377H1112.06ZM1104.02 448.773C1102.76 448.773 1102 448.145 1102 446.887C1102 445.629 1102.63 445 1104.02 445C1105.27 445 1105.9 445.629 1105.9 446.887C1105.9 448.145 1105.27 448.773 1104.02 448.773ZM1110.05 448.773C1108.79 448.773 1108.17 448.145 1108.17 446.887C1108.17 445.629 1108.79 445 1110.05 445C1111.31 445 1112.06 445.629 1112.06 446.887C1111.94 448.145 1111.31 448.773 1110.05 448.773Z" fill="#1A232D"/>
</svg>
