<svg width="24" height="24" viewBox="0 0 24 24" fill="none" xmlns="http://www.w3.org/2000/svg">
<mask id="mask0_1055_10842" style="mask-type:alpha" maskUnits="userSpaceOnUse" x="0" y="0" width="24" height="24">
<rect width="24" height="24" fill="#D9D9D9"/>
</mask>
<g mask="url(#mask0_1055_10842)">
<path d="M5.05768 20.5C4.55254 20.5 4.12498 20.325 3.775 19.975C3.425 19.625 3.25 19.1974 3.25 18.6923V5.30773C3.25 4.80259 3.425 4.37502 3.775 4.02502C4.12498 3.67502 4.55254 3.50002 5.05768 3.50002H14.2115V5H5.05768C4.96792 5 4.8942 5.02885 4.8365 5.08655C4.7788 5.14425 4.74995 5.21798 4.74995 5.30773V18.6923C4.74995 18.782 4.7788 18.8557 4.8365 18.9134C4.8942 18.9711 4.96792 19 5.05768 19H18.4423C18.532 19 18.6057 18.9711 18.6634 18.9134C18.7211 18.8557 18.75 18.782 18.75 18.6923V9.53842H20.2499V18.6923C20.2499 19.1974 20.0749 19.625 19.7249 19.975C19.3749 20.325 18.9474 20.5 18.4423 20.5H5.05768ZM7.11538 16.75H8.61533V10.25H7.11538V16.75ZM11 16.75H12.5V7.25002H11V16.75ZM14.8846 16.75H16.3846V13.25H14.8846V16.75ZM17.25 8.49998V6.49998H15.25V5H17.25V3H18.75V5H20.75V6.49998H18.75V8.49998H17.25Z" fill="#A6A6A6"/>
</g>
</svg>
