<svg width="174" height="168" viewBox="0 0 174 168" fill="none" xmlns="http://www.w3.org/2000/svg">
<g clip-path="url(#clip0_627_363)">
<path d="M43.7294 125.17V43.6154H87.4357V30.7456H14.8438V137.277H87.4357V125.17H43.7294Z" fill="#E11332"/>
<path d="M54.3783 15.4346H47.9011V21.6576H54.3783V15.4346Z" fill="#1A232D"/>
<path d="M63.7087 146.343H38.563V152.566H63.7087V146.343Z" fill="#1A232D"/>
<path d="M87.613 168H14.6741C6.58524 168 0 161.43 0 153.351V14.6566C0 6.57736 6.58524 0 14.6741 0H87.613C95.7019 0 102.279 6.57736 102.279 14.6566V43.731H96.0489V14.6566C96.0489 10.0047 92.2628 6.22308 87.6053 6.22308H14.6741C10.0167 6.22308 6.23053 10.0047 6.23053 14.6566V153.359C6.23053 158.003 10.0167 161.785 14.6741 161.785H87.613C92.2628 161.785 96.0566 158.003 96.0566 153.359V125.386H102.287V153.359C102.287 161.438 95.7096 168.008 87.6207 168.008L87.613 168Z" fill="#1A232D"/>
<path d="M49.3199 49.3765V119.394H174V49.3765H49.3199ZM111.664 103.289C101.208 103.289 92.7409 94.825 92.7409 84.389C92.7409 73.953 101.215 65.4887 111.664 65.4887C122.112 65.4887 130.571 73.953 130.571 84.389C130.571 94.825 122.12 103.289 111.664 103.289Z" fill="#78A3D7"/>
<path d="M154.437 112.254H68.8752V109.659C68.8752 104.252 64.4799 99.8542 59.0667 99.8542H56.4681V68.9005H59.0667C64.4722 68.9005 68.8752 64.5028 68.8752 59.1038V56.5083H154.437V59.1038C154.437 64.5105 158.84 68.9005 164.261 68.9005H166.86V99.8542H164.261C158.848 99.8542 154.437 104.252 154.437 109.659V112.254V112.254ZM73.8488 107.063H149.471C150.558 100.871 155.463 95.9802 161.662 94.8942V73.8682C155.463 72.7823 150.558 67.8916 149.471 61.6993H73.8488C72.7615 67.8916 67.865 72.7823 61.6653 73.8682V94.8942C67.8573 95.9802 72.7615 100.871 73.8488 107.063Z" fill="white"/>
<path d="M113.214 96.2421H110.106C108.194 96.2421 106.389 95.5027 105.009 94.1549C103.621 92.7378 102.881 90.9279 102.881 89.0178H108.078C108.078 89.5646 108.294 90.0884 108.687 90.4889C109.042 90.8354 109.566 91.0511 110.106 91.0511H113.214C113.754 91.0511 114.286 90.8277 114.687 90.4426C115.141 89.9805 115.242 89.4106 115.242 89.0178C115.242 88.6943 115.165 88.0705 114.663 87.5776C114.286 87.2079 113.746 86.9845 113.214 86.9845H110.106C108.194 86.9845 106.374 86.2374 105.001 84.8819C103.621 83.4879 102.881 81.678 102.881 79.7525C102.881 77.827 103.621 76.0402 104.963 74.6616C106.389 73.2753 108.202 72.5359 110.106 72.5359H113.214C115.095 72.5359 116.954 73.2984 118.311 74.6154C119.691 76.0094 120.431 77.8193 120.431 79.7525H115.234C115.234 79.3597 115.134 78.7898 114.648 78.2969C114.286 77.9426 113.754 77.7192 113.214 77.7192H110.106C109.559 77.7192 109.042 77.9349 108.641 78.3277C108.294 78.6819 108.078 79.2057 108.078 79.7525C108.078 80.2993 108.286 80.8231 108.672 81.2158C109.042 81.5855 109.566 81.8012 110.106 81.8012H113.214C115.095 81.8012 116.961 82.5637 118.318 83.8961C119.691 85.2593 120.431 87.0769 120.431 89.0255C120.431 90.9741 119.691 92.7686 118.342 94.1318C116.954 95.4873 115.095 96.2421 113.214 96.2421Z" fill="#1A232D"/>
<path d="M114.262 70.3716H109.065V75.1236H114.262V70.3716Z" fill="#1A232D"/>
<path d="M114.262 93.6465H109.065V98.3908H114.262V93.6465Z" fill="#1A232D"/>
<path d="M153.412 81.7935H139.508V86.9845H153.412V81.7935Z" fill="#1A232D"/>
<path d="M83.8038 81.7935H69.9162V86.9845H83.8038V81.7935Z" fill="#1A232D"/>
</g>
<defs>
<clipPath id="clip0_627_363">
<rect width="174" height="168" fill="white"/>
</clipPath>
</defs>
</svg>
