<svg width="52" height="52" viewBox="0 0 52 52" fill="none" xmlns="http://www.w3.org/2000/svg">
<path d="M26.0037 46.5831C23.1123 46.5831 20.4142 46.0574 17.9093 45.0062C15.4043 43.9549 13.2219 42.4997 11.3619 40.6406C9.50198 38.7815 8.04614 36.6 6.99441 34.0961C5.94263 31.5923 5.41675 28.8947 5.41675 26.0034C5.41675 23.1343 5.94249 20.4473 6.99397 17.9423C8.04542 15.4374 9.50086 13.2549 11.3603 11.395C13.2197 9.53505 15.4016 8.07365 17.9059 7.01079C20.4102 5.94793 23.1082 5.4165 26 5.4165C28.5463 5.4165 30.9294 5.82553 33.1493 6.6436C35.3692 7.46166 37.3694 8.58735 39.15 10.0207L37.4042 11.8081C35.8431 10.5442 34.1029 9.57271 32.1839 8.89357C30.2647 8.21439 28.2035 7.8748 26 7.8748C20.8889 7.8748 16.5903 9.61785 13.1042 13.1039C9.6181 16.5901 7.87505 20.8887 7.87505 25.9998C7.87505 31.1109 9.6181 35.4095 13.1042 38.8956C16.5903 42.3817 20.8889 44.1248 26 44.1248C31.1111 44.1248 35.4097 42.3817 38.8959 38.8956C42.382 35.4095 44.125 31.1109 44.125 25.9998C44.125 24.9164 44.0403 23.8651 43.8709 22.8458C43.7014 21.8264 43.4542 20.8333 43.1292 19.8664L44.9958 17.979C45.518 19.2179 45.9131 20.5068 46.1812 21.8457C46.4493 23.1847 46.5833 24.5693 46.5833 25.9998C46.5833 28.8916 46.0521 31.5896 44.9897 34.0939C43.9273 36.5982 42.4666 38.7801 40.6075 40.6395C38.7484 42.499 36.5669 43.9544 34.0631 45.0058C31.5592 46.0573 28.8727 46.5831 26.0037 46.5831ZM22.8042 35.1289L14.5542 26.8456L16.3876 24.9915L22.8042 31.4082L44.7292 9.48317L46.6166 11.3165L22.8042 35.1289Z" fill="#E21331"/>
</svg>
