<?xml version="1.0" encoding="utf-8"?>
<!-- Generator: Adobe Illustrator 27.0.1, SVG Export Plug-In . SVG Version: 6.00 Build 0)  -->
<svg version="1.1" id="Layer_1" xmlns="http://www.w3.org/2000/svg" xmlns:xlink="http://www.w3.org/1999/xlink" x="0px" y="0px"
	 viewBox="0 0 200 200" style="enable-background:new 0 0 200 200;" xml:space="preserve">
<style type="text/css">
	.st0{fill:#EFE8E2;}
	.st1{fill:#7AA2D3;}
	.st2{fill:#FFFFFF;stroke:#1A242D;stroke-width:4.2349;stroke-miterlimit:10;}
	.st3{fill:none;stroke:#1A242D;stroke-width:5.0348;stroke-miterlimit:10;}
	.st4{fill:#E3152E;}
	.st5{fill:#1A242D;}
	.st6{fill:#1A232C;}
	.st7{fill:#E11E2F;}
	.st8{fill:#FFFFFF;}
	.st9{fill:none;stroke:#1A242D;stroke-width:4.2716;stroke-miterlimit:10;}
	.st10{fill:#FFFFFF;stroke:#1A242D;stroke-width:4.2716;stroke-miterlimit:10;}
	.st11{fill:#FFFFFF;stroke:#1A242D;stroke-miterlimit:10;}
	.st12{fill:none;stroke:#1A242D;stroke-width:1.1889;stroke-miterlimit:10;}
	.st13{fill:none;stroke:#1A242D;stroke-width:1.0087;stroke-miterlimit:10;}
	.st14{fill:#FFFFFF;stroke:#1A242D;stroke-width:1.0087;stroke-miterlimit:10;}
</style>
<g>
	<circle class="st0" cx="100" cy="100" r="73.77"/>
	<g>
		<path class="st4" d="M128.84,140.96h-60.2c-3.5,0-6.33-2.83-6.33-6.33V112.8h3.69c2.01,3.63,5.91,6.08,10.34,6.08
			c7.43,0,13.26-6.83,11.55-14.51c-0.94-4.21-4.29-7.66-8.46-8.72c-5.65-1.45-10.95,1.23-13.43,5.68h-3.69V77.44
			c0-3.5,2.83-6.33,6.33-6.33h20.82V69.4c-4.45-2.47-7.13-7.77-5.68-13.43c1.07-4.17,4.52-7.52,8.72-8.46
			c7.68-1.71,14.51,4.12,14.51,11.55c0,4.43-2.45,8.32-6.08,10.34v1.71h21.56c3.5,0,6.33,2.83,6.33,6.33v24.99"/>
		<g>
			<path class="st2" d="M109.33,132.36l17.31-29.98c1.7-2.95,5.95-2.95,7.65,0l17.31,29.98c1.7,2.95-0.43,6.63-3.83,6.63h-34.62
				C109.75,138.98,107.62,135.3,109.33,132.36z"/>
			<g>
				<rect x="128.16" y="110.46" class="st5" width="4.6" height="14.93"/>
				<rect x="128.16" y="129.43" class="st5" width="4.6" height="4.03"/>
			</g>
		</g>
	</g>
</g>
</svg>
