<svg width="52" height="47" viewBox="0 0 52 47" fill="none" xmlns="http://www.w3.org/2000/svg">
<path d="M23.633 47C23.244 46.996 22.8596 46.9151 22.5017 46.7618C22.1438 46.6085 21.8195 46.3858 21.5472 46.1065C21.275 45.8271 21.0601 45.4966 20.9149 45.1338C20.7698 44.771 20.6971 44.383 20.7011 43.992V3.008C20.6936 2.21842 20.9981 1.45812 21.5478 0.894123C22.0976 0.330122 22.8475 0.00853511 23.633 0L36.5349 0C37.0352 0.00352169 37.5298 0.107639 37.9894 0.306222C38.4491 0.504804 38.8646 0.793838 39.2114 1.1563L50.8747 13.1843C51.5981 13.9288 52.0018 14.9291 51.9988 15.9699V44.083C51.9843 44.8545 51.672 45.5901 51.1279 46.1344C50.5838 46.6787 49.8505 46.9891 49.083 47H23.633ZM22.9231 2.99183V44.0082C22.9223 44.104 22.9403 44.1991 22.976 44.2879C23.0118 44.3767 23.0646 44.4576 23.1315 44.526C23.1983 44.5943 23.2779 44.6487 23.3657 44.6861C23.4534 44.7235 23.5477 44.7432 23.643 44.744H49.083C49.2752 44.7419 49.4587 44.6632 49.5932 44.5253C49.7278 44.3873 49.8025 44.2014 49.8009 44.0082V15.8769C49.798 15.4368 49.6241 15.0153 49.3162 14.7024L37.5886 2.75127C37.4407 2.59627 37.2634 2.47246 37.0673 2.38707C36.8712 2.30169 36.6601 2.25645 36.4464 2.25398H23.633C23.4418 2.25822 23.2601 2.33809 23.1272 2.47624C22.9943 2.61438 22.9209 2.79966 22.9231 2.99183ZM11.8631 38.4895C11.8742 37.9234 12.0514 37.3732 12.3723 36.9079C12.6933 36.4427 13.1438 36.0831 13.6673 35.8742C14.1908 35.6654 14.764 35.6166 15.3149 35.7339C15.8659 35.8513 16.3702 36.1297 16.7644 36.5341C17.1586 36.9384 17.4252 37.4509 17.5309 38.007C17.6365 38.5631 17.5764 39.1383 17.3581 39.6602C17.1398 40.1821 16.773 40.6276 16.3038 40.9408C15.8346 41.254 15.2838 41.4209 14.7206 41.4206C14.3404 41.4188 13.9643 41.3415 13.6138 41.1931C13.2634 41.0448 12.9456 40.8283 12.6786 40.5561C12.4116 40.284 12.2007 39.9615 12.058 39.6072C11.9153 39.2529 11.8436 38.8737 11.847 38.4915L11.8631 38.4895ZM31.1095 40.5938C29.8083 40.581 28.5652 40.0502 27.6527 39.1177C26.7401 38.1852 26.2325 36.927 26.2411 35.6189V20.8983C26.232 19.5927 26.7371 18.3364 27.6463 17.4039C28.5554 16.4714 29.7947 15.9384 31.0934 15.9214H41.6245C42.9233 15.9384 44.1625 16.4714 45.0717 17.4039C45.9808 18.3364 46.486 19.5927 46.4768 20.8983V35.5421C46.4929 36.8701 45.9871 38.1508 45.0692 39.106C44.6218 39.5741 44.0855 39.9471 43.4921 40.203C42.8987 40.4589 42.2602 40.5925 41.6145 40.5959L31.1095 40.5938ZM37.4579 34.5778V38.2631H39.7021V34.5799C39.7485 34.3265 39.8817 34.0975 40.0786 33.9327C40.2755 33.7678 40.5237 33.6775 40.7799 33.6775C41.0362 33.6775 41.2844 33.7678 41.4813 33.9327C41.6782 34.0975 41.8114 34.3265 41.8578 34.5799V38.2529C42.526 38.1861 43.1455 37.8714 43.5954 37.3701C44.0453 36.8689 44.2933 36.2172 44.291 35.5421V20.8983C44.2925 20.2284 44.0475 19.5815 43.6031 19.0822C43.1588 18.5829 42.5464 18.2664 41.8839 18.1935V21.9818C41.8903 22.1309 41.8666 22.2797 41.8142 22.4193C41.7618 22.5589 41.6819 22.6864 41.5792 22.7941C41.4765 22.9018 41.3532 22.9876 41.2168 23.0461C41.0803 23.1047 40.9334 23.1349 40.785 23.1349C40.6366 23.1349 40.4897 23.1047 40.3532 23.0461C40.2167 22.9876 40.0934 22.9018 39.9907 22.7941C39.8881 22.6864 39.8081 22.5589 39.7558 22.4193C39.7034 22.2797 39.6797 22.1309 39.686 21.9818V18.1794H37.4559V21.9818C37.4597 22.2796 37.3462 22.5669 37.1401 22.7808C36.934 22.9948 36.6522 23.1182 36.356 23.124C36.21 23.1238 36.0656 23.0941 35.9312 23.0369C35.7969 22.9796 35.6753 22.8958 35.5737 22.7905C35.3661 22.5734 35.2519 22.2829 35.256 21.9818V18.1794H33.0299V21.9818C33.0332 22.2798 32.9192 22.567 32.7128 22.7809C32.5064 22.9949 32.2243 23.1182 31.9279 23.124C31.782 23.1238 31.6376 23.0941 31.5032 23.0369C31.3689 22.9796 31.2473 22.8958 31.1457 22.7905C30.9381 22.5734 30.8239 22.2829 30.828 21.9818V18.1935C30.1684 18.2701 29.56 18.5882 29.1189 19.0871C28.6779 19.5861 28.4351 20.2309 28.437 20.8983V35.5421C28.4319 36.2109 28.6734 36.8579 29.115 37.3581C29.5565 37.8584 30.1668 38.1765 30.828 38.2509V34.5799C30.8189 34.4282 30.8407 34.2763 30.8922 34.1335C30.9437 33.9906 31.0237 33.8599 31.1272 33.7493C31.2308 33.6387 31.3559 33.5505 31.4946 33.4903C31.6333 33.43 31.7828 33.3989 31.934 33.3989C32.0851 33.3989 32.2346 33.43 32.3734 33.4903C32.5121 33.5505 32.6371 33.6387 32.7407 33.7493C32.8443 33.8599 32.9243 33.9906 32.9757 34.1335C33.0272 34.2763 33.0491 34.4282 33.04 34.5799V38.2651H35.252V34.5799C35.2804 34.3086 35.4077 34.0576 35.6093 33.8751C35.8109 33.6926 36.0726 33.5917 36.3439 33.5917C36.6152 33.5917 36.8769 33.6926 37.0785 33.8751C37.2801 34.0576 37.4074 34.3086 37.4358 34.5799L37.4579 34.5778ZM14.6884 32.7484C13.7329 32.5953 12.7565 32.6369 11.8172 32.8706C10.878 33.1043 9.99501 33.5254 9.2208 34.1089C9.06513 34.2229 8.88828 34.3044 8.70072 34.3485C8.51316 34.3926 8.31871 34.3984 8.12887 34.3656C7.93682 34.334 7.753 34.264 7.58826 34.1599C7.42353 34.0557 7.2812 33.9195 7.16967 33.7591H7.18375C6.95258 33.4359 6.85679 33.0344 6.91695 32.6409C6.97711 32.2474 7.18843 31.8933 7.50549 31.6548C9.05561 30.4936 10.9046 29.804 12.833 29.6679C14.7614 29.5317 16.6881 29.9547 18.3845 30.8866V34.5071C17.3447 33.5783 16.0622 32.968 14.6884 32.7484ZM3.73706 28.9075C3.50813 28.5833 3.41389 28.1822 3.47434 27.7893C3.53478 27.3964 3.74516 27.0427 4.06081 26.8031C6.08494 25.2846 8.44086 24.2746 10.9321 23.8572C13.4234 23.4398 15.9779 23.6271 18.3825 24.4036V27.5612C16.3229 26.7326 14.0864 26.449 11.8866 26.7374C9.6869 27.0259 7.59755 27.8768 5.81834 29.2087L5.79019 29.2411C5.54044 29.4283 5.23703 29.529 4.9255 29.5281C4.69249 29.5277 4.46298 29.4711 4.2562 29.3631C4.04942 29.2551 3.8714 29.0989 3.73706 28.9075ZM1.2556 24.6502C1.0642 24.6201 0.880662 24.5521 0.715649 24.4501C0.550637 24.348 0.407442 24.2141 0.294387 24.0559C0.058372 23.733 -0.0416702 23.3297 0.0159104 22.9332C0.0734909 22.5367 0.284063 22.179 0.602055 21.9374C2.92492 20.1885 5.5738 18.9269 8.39127 18.2275C11.2088 17.5281 14.1373 17.4052 17.003 17.8661C17.4675 17.9429 17.928 18.0318 18.3845 18.1369V21.2642C15.6513 20.5298 12.7881 20.4278 10.01 20.9659C7.23199 21.5041 4.61147 22.6684 2.34551 24.3713C2.09465 24.5632 1.78801 24.6669 1.47278 24.6664C1.40009 24.6662 1.32752 24.6608 1.2556 24.6502Z" fill="#1A242D"/>
</svg>
