<svg id="Group_2230" data-name="Group 2230" xmlns="http://www.w3.org/2000/svg" xmlns:xlink="http://www.w3.org/1999/xlink" width="49.834" height="42.785" viewBox="0 0 49.834 42.785">
  <defs>
    <clipPath id="clip-path">
      <rect id="Rectangle_64548" data-name="Rectangle 64548" width="49.834" height="42.785" fill="none"/>
    </clipPath>
  </defs>
  <rect id="Rectangle_64538" data-name="Rectangle 64538" width="31.621" height="18.036" transform="translate(3.642 9.298)" fill="#5b94cf"/>
  <g id="Group_2229" data-name="Group 2229">
    <g id="Group_2228" data-name="Group 2228" clip-path="url(#clip-path)">
      <path id="Path_4406" data-name="Path 4406" d="M164.581,87.732v20.635H141.52a17.3,17.3,0,1,0,23.061-20.635" transform="translate(-126.348 -78.326)" fill="#ede3dc"/>
      <path id="Path_4407" data-name="Path 4407" d="M23.314,30.953H0V0H39.145V16.816H37.323V1.823H1.823V29.13H23.314Z" transform="translate(0 0)" fill="#131b22"/>
      <rect id="Rectangle_64539" data-name="Rectangle 64539" width="37.204" height="5.462" transform="translate(1.03 0.911)" fill="#fff"/>
      <path id="Path_4408" data-name="Path 4408" d="M40.133,7.285H1.107V0H40.133ZM2.93,5.463H38.311V1.824H2.93Z" transform="translate(-0.988 -0.001)" fill="#131b22"/>
      <rect id="Rectangle_64540" data-name="Rectangle 64540" width="1.821" height="1.821" transform="translate(3.642 2.732)" fill="#d70024"/>
      <rect id="Rectangle_64541" data-name="Rectangle 64541" width="1.821" height="1.821" transform="translate(7.283 2.732)" fill="#d70024"/>
      <rect id="Rectangle_64542" data-name="Rectangle 64542" width="1.821" height="1.821" transform="translate(10.925 2.732)" fill="#d70024"/>
      <rect id="Rectangle_64543" data-name="Rectangle 64543" width="1.821" height="7.876" transform="translate(38.191 32.185) rotate(-46.652)" fill="#131b22"/>
      <path id="Path_4409" data-name="Path 4409" d="M223.846,145.685a10.028,10.028,0,1,1-10.028-10.024,10.026,10.026,0,0,1,10.028,10.024" transform="translate(-181.942 -121.117)" fill="#fff"/>
      <path id="Path_4410" data-name="Path 4410" d="M206.237,149.039A10.934,10.934,0,1,1,217.176,138.1a10.949,10.949,0,0,1-10.939,10.935m0-20.048a9.114,9.114,0,1,0,9.118,9.114,9.126,9.126,0,0,0-9.118-9.114" transform="translate(-174.361 -113.536)" fill="#131b22"/>
      <path id="Path_4411" data-name="Path 4411" d="M380.308,308.77h0a2.467,2.467,0,0,1-3.488,0l-4.109-3.784a2.467,2.467,0,0,1,3.488-3.49l4.109,3.784a2.467,2.467,0,0,1,0,3.49" transform="translate(-332.107 -268.528)" fill="#d70024"/>
      <path id="Path_4412" data-name="Path 4412" d="M370.983,302.836a3.367,3.367,0,0,1-2.373-.972l-4.123-3.8a3.377,3.377,0,0,1,4.76-4.792l4.123,3.8a3.377,3.377,0,0,1,0,4.777h0a3.367,3.367,0,0,1-2.388.987m-5.221-6.071,4.121,3.8a1.559,1.559,0,0,0,2.2,0h0a1.557,1.557,0,0,0,.011-2.19l-4.121-3.8a1.557,1.557,0,0,0-2.212,2.191" transform="translate(-324.527 -260.963)" fill="#131b22"/>
      <rect id="Rectangle_64544" data-name="Rectangle 64544" width="1.821" height="7.282" transform="translate(26.4 20.938)" fill="#d70024"/>
      <rect id="Rectangle_64545" data-name="Rectangle 64545" width="1.821" height="7.282" transform="translate(29.434 20.938)" fill="#d70024"/>
      <rect id="Rectangle_64546" data-name="Rectangle 64546" width="1.821" height="7.282" transform="translate(32.468 20.938)" fill="#d70024"/>
      <rect id="Rectangle_64547" data-name="Rectangle 64547" width="1.821" height="7.282" transform="translate(35.503 20.938)" fill="#d70024"/>
    </g>
  </g>
</svg>
