<svg width="1679" height="589" viewBox="0 0 1679 589" fill="none" xmlns="http://www.w3.org/2000/svg">
<rect width="1679" height="589" rx="80" fill="#EFE8E2"/>
<path d="M253.627 197.628H195.85V337.515H253.627V197.628Z" fill="#E3152E"/>
<path d="M382.645 243.958H358.636V233.862H382.645C385.113 233.862 387.469 232.852 389.152 231.169C390.947 229.374 391.845 227.131 391.845 224.663C391.845 222.195 390.835 219.839 389.152 218.157C387.357 216.362 385.113 215.464 382.645 215.464H312.078L315.892 208.06C319.034 202.003 321.614 195.384 323.185 189.102C324.755 182.596 325.54 175.865 325.54 169.247V160.272C325.54 157.804 324.531 155.449 322.848 153.766C321.053 151.971 318.809 151.074 316.341 151.074C313.873 151.074 311.517 152.083 309.834 153.766C308.039 155.561 307.029 157.917 307.029 160.384C307.029 167.788 305.683 173.958 302.429 181.698C299.4 188.99 295.025 195.384 289.528 200.769C284.703 205.48 279.206 209.182 273.036 211.65C266.753 214.23 260.246 215.464 253.627 215.464V205.368C259.012 205.368 264.285 204.359 269.221 202.339C274.158 200.32 278.645 197.291 282.46 193.589C287.059 188.99 290.537 183.83 293.118 177.772C295.81 171.266 296.932 166.442 296.932 160.384C296.932 155.224 298.952 150.288 302.654 146.699C306.244 143.109 311.068 140.978 316.341 140.978C321.502 140.978 326.438 142.997 330.028 146.699C333.73 150.288 335.75 155.224 335.75 160.384V169.359C335.75 176.763 334.852 184.279 333.057 191.57C331.935 196.169 330.365 200.881 328.457 205.368H382.645C387.806 205.368 392.742 207.387 396.332 211.089C400.034 214.791 402.054 219.615 402.054 224.775C402.054 229.935 400.034 234.871 396.332 238.461C392.742 241.938 387.806 243.958 382.645 243.958Z" fill="#1A242C"/>
<path d="M374.568 272.563H358.637V262.467H374.568C377.036 262.467 379.392 261.458 381.075 259.775C382.87 257.98 383.767 255.737 383.767 253.269C383.767 250.801 382.757 248.445 381.075 246.65C379.28 244.855 377.036 243.958 374.568 243.958H358.637V233.862H374.568C379.728 233.862 384.665 235.881 388.255 239.583C391.957 243.285 393.976 248.109 393.976 253.269C393.976 258.429 391.957 263.365 388.255 266.955C384.553 270.544 379.728 272.563 374.568 272.563Z" fill="#1A242C"/>
<path d="M366.602 301.281H358.637V291.185H366.602C369.07 291.185 371.426 290.175 373.109 288.493C374.904 286.698 375.802 284.454 375.802 281.986C375.802 279.518 374.792 277.162 373.109 275.48C371.314 273.685 369.07 272.787 366.602 272.787H358.637V262.691H366.602C371.763 262.691 376.699 264.711 380.289 268.413C383.992 272.114 386.011 276.938 386.011 282.098C386.011 287.259 383.992 292.194 380.289 295.784C376.587 299.262 371.763 301.281 366.602 301.281Z" fill="#1A242C"/>
<path d="M358.636 329.999H253.627V319.903H358.636C361.105 319.903 363.461 318.893 365.143 317.21C366.938 315.415 367.836 313.172 367.836 310.704C367.836 308.236 366.826 305.88 365.143 304.198C363.348 302.403 361.105 301.505 358.636 301.505V291.409C363.797 291.409 368.734 293.428 372.324 297.13C376.026 300.832 378.045 305.656 378.045 310.816C378.045 315.976 376.026 320.912 372.324 324.502C368.734 327.979 363.797 329.999 358.636 329.999Z" fill="#1A242C"/>
<path d="M243.531 309.694H233.434V319.79H243.531V309.694Z" fill="white"/>
<path d="M241.623 104.183H138.296V163.974H241.623V104.183Z" fill="#7AA2D3"/>
<path d="M223.448 118.878H156.583V128.974H223.448V118.878Z" fill="#1A242C"/>
<path d="M190.016 139.182H156.583V149.278H190.016V139.182Z" fill="#1A242C"/>
<path d="M138.297 212.772V183.269H119V85H260.808V183.269H167.802L138.297 212.772ZM129.209 173.172H148.506V188.317L163.764 173.172H250.823V95.0961H129.209V173.172Z" fill="#1A242C"/>
<path d="M495.978 263.95H505.155V287.87H529.228V263.95H538.406V317.356H529.228V295.843H505.155V317.356H495.978V263.95Z" fill="#1A242D"/>
<path d="M548.186 299.002C548.186 288.171 555.859 280.047 567.444 280.047C579.029 280.047 586.702 287.719 586.702 299.002C586.702 310.286 578.728 317.958 567.444 317.958C556.16 317.958 548.186 309.834 548.186 299.002ZM578.126 299.002C578.126 292.233 573.462 287.569 567.444 287.569C560.974 287.569 556.761 292.533 556.761 299.002C556.761 305.471 561.125 310.286 567.444 310.286C573.312 310.286 578.126 305.622 578.126 299.002Z" fill="#1A242D"/>
<path d="M591.817 280.649H600.544L608.367 305.02H608.518L615.74 280.649H622.811L630.184 305.02H630.334L638.158 280.649H646.734L634.246 317.357H626.422L619.351 294.189L612.279 317.357H604.606L591.817 280.649Z" fill="#1A242D"/>
<path d="M672.913 269.516C672.913 266.507 675.471 263.95 678.63 263.95C681.79 263.95 684.348 266.507 684.348 269.516C684.348 272.525 681.79 275.233 678.63 275.233C675.471 275.233 672.913 272.675 672.913 269.516ZM674.267 280.649H682.693V317.356H674.267V280.649Z" fill="#1A242D"/>
<path d="M691.119 312.692L695.332 306.374C698.341 309.232 701.35 310.737 706.014 310.737C709.324 310.737 711.13 309.232 711.13 307.126C711.13 305.321 708.722 304.268 703.908 302.613C697.89 300.507 692.624 297.799 692.624 290.578C692.624 284.56 698.04 280.197 705.563 280.197C710.227 280.197 714.44 281.551 718.502 284.71L714.289 291.33C711.28 288.472 707.97 287.418 705.111 287.418C703.456 287.418 701.049 288.321 701.049 290.578C701.049 292.383 703.306 293.587 706.917 295.091C714.741 298.1 719.706 299.604 719.706 306.976C719.706 313.144 715.342 318.108 706.014 318.108C699.996 317.958 695.031 316.002 691.119 312.692Z" fill="#1A242D"/>
<path d="M759.275 315.401L744.229 280.649H753.257L763.337 305.321H763.488L772.966 280.649H781.693L761.532 332.25H752.805L759.275 315.401Z" fill="#1A242D"/>
<path d="M786.356 299.002C786.356 288.171 794.03 280.047 805.615 280.047C817.2 280.047 824.873 287.719 824.873 299.002C824.873 310.286 816.899 317.958 805.615 317.958C794.331 317.958 786.356 309.834 786.356 299.002ZM816.297 299.002C816.297 292.233 811.633 287.569 805.615 287.569C799.145 287.569 794.932 292.533 794.932 299.002C794.932 305.471 799.296 310.286 805.615 310.286C811.633 310.286 816.297 305.622 816.297 299.002Z" fill="#1A242D"/>
<path d="M832.998 302.914V280.498H841.424V300.657C841.424 308.029 843.68 310.285 848.796 310.285C853.911 310.285 858.275 306.073 858.275 298.25V280.648H866.7V317.356H858.275V312.843H858.124C855.115 316.453 851.053 318.108 846.84 318.108C838.715 317.958 832.998 313.896 832.998 302.914Z" fill="#1A242D"/>
<path d="M877.232 280.649H885.658V286.215H885.808C888.667 282.454 892.729 280.197 897.243 280.197H898.296V289.675C897.243 289.675 896.34 289.525 895.739 289.525C889.419 289.525 885.658 294.038 885.658 300.206V317.657H877.232V280.649Z" fill="#1A242D"/>
<path d="M958.929 301.71H932.148C933.201 306.976 937.113 310.286 942.981 310.286C947.344 310.286 950.353 308.33 952.309 305.923L958.177 311.038C955.168 314.949 950.504 317.958 942.53 317.958C931.396 317.958 923.422 310.436 923.422 299.002C923.422 287.569 931.095 280.047 941.928 280.047C952.761 280.047 959.23 287.87 959.23 298.551C959.08 299.905 958.929 301.109 958.929 301.71ZM932.148 295.091H950.504C949.451 290.578 946.442 287.569 941.627 287.569C936.963 287.719 933.352 290.277 932.148 295.091Z" fill="#1A242D"/>
<path d="M977.285 298.551L964.346 280.498H974.125L981.949 292.082H982.099L990.074 280.498H999.853L987.064 298.551L1000.15 317.206H990.675L982.25 305.622L973.824 317.206H964.346L977.285 298.551Z" fill="#1A242D"/>
<path d="M1007.53 280.649H1015.95V285.011H1016.1C1018.81 281.852 1022.87 280.197 1027.69 280.197C1037.92 280.197 1045.44 288.171 1045.44 299.303C1045.44 310.436 1037.77 318.108 1027.54 318.108C1022.57 318.108 1018.66 316.303 1015.95 312.993H1015.8V332.4H1007.38L1007.53 280.649ZM1036.87 299.153C1036.87 292.082 1032.05 287.569 1026.18 287.569C1019.86 287.569 1015.5 292.533 1015.5 299.153C1015.5 305.772 1020.32 310.285 1026.33 310.285C1032.5 310.285 1036.87 305.622 1036.87 299.153Z" fill="#1A242D"/>
<path d="M1087.72 301.71H1060.94C1061.99 306.976 1065.9 310.286 1071.77 310.286C1076.13 310.286 1079.14 308.33 1081.1 305.923L1086.97 311.038C1083.96 314.949 1079.29 317.958 1071.32 317.958C1060.19 317.958 1052.21 310.436 1052.21 299.002C1052.21 287.569 1059.89 280.047 1070.72 280.047C1081.55 280.047 1088.02 287.87 1088.02 298.551C1087.87 299.905 1087.72 301.109 1087.72 301.71ZM1060.94 295.091H1079.29C1078.24 290.578 1075.23 287.569 1070.42 287.569C1065.9 287.719 1062.14 290.277 1060.94 295.091Z" fill="#1A242D"/>
<path d="M1096.6 280.649H1105.02V286.215H1105.17C1108.03 282.454 1112.09 280.197 1116.61 280.197H1117.66V289.675C1116.61 289.675 1115.7 289.525 1115.1 289.525C1108.78 289.525 1105.02 294.038 1105.02 300.206V317.657H1096.6V280.649Z" fill="#1A242D"/>
<path d="M1123.83 269.516C1123.83 266.507 1126.39 263.95 1129.55 263.95C1132.71 263.95 1135.26 266.507 1135.26 269.516C1135.26 272.525 1132.71 275.233 1129.55 275.233C1126.39 275.233 1123.83 272.675 1123.83 269.516ZM1125.18 280.649H1133.61V317.356H1125.18V280.649Z" fill="#1A242D"/>
<path d="M1178.44 301.71H1151.66C1152.72 306.976 1156.63 310.286 1162.5 310.286C1166.86 310.286 1169.87 308.33 1171.82 305.923L1177.69 311.038C1174.68 314.949 1170.02 317.958 1162.04 317.958C1150.91 317.958 1142.94 310.436 1142.94 299.002C1142.94 287.569 1150.61 280.047 1161.44 280.047C1172.28 280.047 1178.74 287.87 1178.74 298.551C1178.74 299.905 1178.59 301.109 1178.44 301.71ZM1151.81 295.091H1170.17C1169.12 290.578 1166.11 287.569 1161.29 287.569C1156.63 287.719 1153.02 290.277 1151.81 295.091Z" fill="#1A242D"/>
<path d="M1187.47 280.649H1195.9V285.764H1196.05C1199.06 282.153 1203.57 280.197 1208.39 280.197C1216.51 280.197 1221.93 284.71 1221.93 295.843V317.507H1213.5V297.949C1213.5 290.126 1210.49 287.719 1205.53 287.719C1199.81 287.719 1196.05 291.631 1196.05 299.002V317.507H1187.62L1187.47 280.649Z" fill="#1A242D"/>
<path d="M1229.9 299.002C1229.9 287.719 1237.87 280.047 1249.01 280.047C1254.72 280.047 1260.74 282.303 1264.5 286.967L1258.79 291.932C1256.68 289.525 1253.52 287.719 1249.46 287.719C1242.84 287.719 1238.48 292.233 1238.48 299.002C1238.48 305.772 1242.84 310.286 1249.46 310.286C1253.52 310.286 1256.83 308.48 1258.79 305.923L1264.65 311.038C1261.5 314.949 1256.83 317.958 1248.86 317.958C1237.87 317.958 1229.9 310.286 1229.9 299.002Z" fill="#1A242D"/>
<path d="M1305.58 301.71H1278.8C1279.85 306.976 1283.76 310.286 1289.63 310.286C1293.99 310.286 1297 308.33 1298.96 305.923L1304.83 311.038C1301.67 314.949 1297.15 317.958 1289.18 317.958C1278.05 317.958 1270.07 310.436 1270.07 299.002C1270.07 287.569 1277.75 280.047 1288.58 280.047C1299.41 280.047 1305.88 287.87 1305.88 298.551C1305.88 299.905 1305.73 301.109 1305.58 301.71ZM1278.95 295.091H1297.3C1296.25 290.578 1293.24 287.569 1288.43 287.569C1283.76 287.719 1280.15 290.277 1278.95 295.091Z" fill="#1A242D"/>
<path d="M1331.61 312.692L1335.82 306.374C1338.83 309.232 1341.99 310.737 1346.5 310.737C1349.81 310.737 1351.62 309.232 1351.62 307.126C1351.62 305.321 1349.21 304.268 1344.4 302.613C1338.38 300.507 1333.11 297.799 1333.11 290.578C1333.11 284.56 1338.53 280.197 1346.05 280.197C1350.72 280.197 1354.93 281.551 1358.99 284.71L1354.78 291.33C1351.92 288.472 1348.46 287.418 1345.6 287.418C1343.94 287.418 1341.69 288.321 1341.69 290.578C1341.69 292.383 1343.94 293.587 1347.41 295.091C1355.23 298.1 1360.19 299.604 1360.19 306.976C1360.19 313.144 1355.83 318.108 1346.5 318.108C1340.48 317.958 1335.52 316.002 1331.61 312.692Z" fill="#1A242D"/>
<path d="M1366.36 299.002C1366.36 288.171 1374.04 280.047 1385.62 280.047C1397.21 280.047 1404.88 287.719 1404.88 299.002C1404.88 310.286 1396.91 317.958 1385.62 317.958C1374.34 317.958 1366.36 309.834 1366.36 299.002ZM1396.3 299.002C1396.3 292.233 1391.64 287.569 1385.62 287.569C1379.15 287.569 1374.94 292.533 1374.94 299.002C1374.94 305.471 1379.3 310.286 1385.62 310.286C1391.64 310.286 1396.3 305.622 1396.3 299.002Z" fill="#1A242D"/>
<path d="M1435.27 287.719H1431.21V280.498H1435.27V273.879C1435.27 265.604 1439.18 261.242 1446.41 261.242C1450.47 261.242 1453.63 262.596 1455.58 263.799L1453.78 270.87C1451.37 269.666 1449.26 269.065 1447.76 269.065C1445.2 269.065 1443.85 270.719 1443.85 274.781V280.649H1452.88V287.87H1443.85V317.507H1435.42V287.719H1435.27Z" fill="#1A242D"/>
<path d="M1457.54 299.153C1457.54 288.02 1465.21 280.047 1475.29 280.047C1479.96 280.047 1484.02 281.702 1486.73 285.162H1486.88V280.649H1495.3V317.356H1487.18V312.542H1487.03C1484.32 316.153 1480.41 317.958 1475.29 317.958C1465.06 317.958 1457.54 310.436 1457.54 299.153ZM1487.18 299.153C1487.18 292.533 1482.67 287.569 1476.65 287.569C1470.63 287.569 1466.11 292.082 1466.11 299.153C1466.11 305.622 1470.48 310.286 1476.65 310.286C1482.36 310.286 1487.18 305.772 1487.18 299.153Z" fill="#1A242D"/>
<path d="M1505.83 280.649H1514.26V286.215H1514.41C1517.27 282.454 1521.33 280.197 1525.85 280.197H1526.9V289.675C1526 289.675 1524.94 289.525 1524.34 289.525C1518.02 289.525 1514.26 294.038 1514.26 300.206V317.657H1505.83V280.649Z" fill="#1A242D"/>
<path d="M1539.24 296.746C1539.09 292.082 1542.55 288.923 1545.71 285.613C1548.26 282.905 1550.52 280.197 1550.52 276.286C1550.52 271.923 1547.66 269.666 1543.75 269.666C1540.89 269.666 1537.73 271.321 1535.78 274.18L1529.46 268.312C1532.92 263.95 1538.18 261.392 1544.35 261.392C1552.48 261.392 1560 266.206 1560 275.985C1560 281.852 1556.69 285.914 1553.38 289.224C1550.22 292.232 1547.06 294.489 1546.91 297.347L1546.61 300.657H1539.09L1539.24 296.746ZM1537.43 312.392C1537.43 309.383 1539.99 306.675 1543.15 306.675C1546.31 306.675 1548.87 309.232 1548.87 312.392C1548.87 315.551 1546.31 317.958 1543.15 317.958C1540.14 317.958 1537.43 315.551 1537.43 312.392Z" fill="#1A242D"/>
<path d="M576.191 218.386L566.674 209.651C560.025 214.214 551.811 216.691 542.554 216.691C518.174 216.691 501.355 199.872 501.355 175.753C501.355 151.633 518.174 134.684 542.554 134.684C566.413 134.684 583.492 151.242 583.492 175.753C583.492 184.618 581.276 192.441 577.365 198.829L585.839 206.261L576.191 218.386ZM542.424 199.481C546.726 199.481 550.507 198.308 553.767 196.222L546.857 189.964L554.81 180.577L561.72 186.704C563.023 183.445 563.806 179.794 563.806 175.883C563.806 162.845 555.201 152.415 542.424 152.415C529.908 152.415 520.912 162.585 520.912 175.883C520.912 189.442 530.038 199.481 542.424 199.481Z" fill="#1A242D"/>
<path d="M594.184 193.223V160.629H611.654V188.79C611.654 197.656 614.131 201.046 620.128 201.046C625.474 201.046 629.776 196.613 629.776 187.747V160.629H647.377V215.648H629.776V209.52L629.515 209.39C625.474 214.344 619.998 216.691 613.87 216.691C602.397 216.691 594.184 210.563 594.184 193.223Z" fill="#1A242D"/>
<path d="M657.938 143.68C657.938 138.335 662.37 133.771 668.368 133.771C674.495 133.771 678.928 138.204 678.928 143.68C678.928 149.417 674.495 153.849 668.368 153.849C662.37 153.849 657.938 149.417 657.938 143.68ZM659.632 160.629H677.103V215.648H659.632V160.629Z" fill="#1A242D"/>
<path d="M687.271 188.399C687.271 171.189 699.005 159.716 716.476 159.716C724.95 159.716 734.077 162.454 740.204 169.234L728.861 180.446C726.254 177.056 721.952 175.231 717.91 175.231C710.218 175.231 705.003 180.446 705.003 188.138C705.003 195.831 710.348 200.915 718.04 200.915C722.995 200.915 726.645 199.09 729.774 195.7L740.595 206.913C735.641 212.649 727.558 216.43 716.085 216.43C699.397 216.691 687.271 205.218 687.271 188.399Z" fill="#1A242D"/>
<path d="M748.549 132.989H765.889V180.577H766.15L782.186 160.759H802.525L784.011 182.663L803.176 215.648H783.75L771.495 194.136L766.019 200.264V215.778H748.679V132.989H748.549Z" fill="#1A242D"/>
<path d="M909.433 218.386L899.915 209.651C893.266 214.214 885.052 216.691 875.796 216.691C851.415 216.691 834.597 199.872 834.597 175.753C834.597 151.633 851.415 134.684 875.796 134.684C899.654 134.684 916.734 151.242 916.734 175.753C916.734 184.618 914.517 192.441 910.606 198.829L919.08 206.261L909.433 218.386ZM875.665 199.481C879.968 199.481 883.748 198.308 887.008 196.222L880.098 189.964L888.051 180.577L894.961 186.704C896.265 183.445 897.047 179.794 897.047 175.883C897.047 162.845 888.442 152.415 875.665 152.415C863.149 152.415 854.153 162.585 854.153 175.883C854.023 189.442 863.149 199.481 875.665 199.481Z" fill="#1A242D"/>
<path d="M927.294 193.223V160.629H944.764V188.79C944.764 197.656 947.241 201.046 953.239 201.046C958.584 201.046 962.887 196.613 962.887 187.747V160.629H980.487V215.648H962.887V209.52L962.626 209.39C958.584 214.344 953.108 216.691 946.981 216.691C935.508 216.691 927.294 210.563 927.294 193.223Z" fill="#1A242D"/>
<path d="M1044.5 192.832H1006.95C1008.13 199.09 1013.34 202.349 1020.12 202.349C1024.55 202.219 1029.25 200.524 1032.9 196.352L1043.07 206.652C1038.5 212.388 1030.81 216.56 1018.3 216.56C1001.61 216.56 989.483 205.087 989.483 188.008C989.483 171.32 1001.22 159.586 1017.78 159.586C1033.29 159.586 1044.63 171.189 1044.63 187.487C1044.76 189.181 1044.5 191.659 1044.5 192.832ZM1007.08 182.402H1027.68C1026.51 177.056 1022.99 173.667 1017.64 173.667C1012.3 173.667 1008.26 176.926 1007.08 182.402Z" fill="#1A242D"/>
<path d="M1049.85 208.608L1058.06 197.265C1062.62 201.437 1067.45 203.392 1072.4 203.392C1075.92 203.392 1077.75 202.219 1077.75 200.133C1077.75 198.308 1076.05 197.265 1069.14 195.048C1059.89 192.18 1051.8 187.747 1051.8 177.187C1051.8 166.105 1060.93 159.716 1072.4 159.716C1080.75 159.716 1086.74 161.802 1093.13 166.626L1084.79 178.882C1081.01 175.101 1076.18 173.145 1072.53 173.145C1070.45 173.145 1068.1 174.058 1068.1 176.144C1068.1 177.839 1070.19 179.012 1075.66 180.968C1087.79 185.14 1094.44 188.269 1094.44 199.09C1094.44 209.259 1087.14 216.691 1072.01 216.691C1063.54 216.691 1055.84 213.953 1049.85 208.608Z" fill="#1A242D"/>
<path d="M1104.91 198.458V174.99H1098.78V160.779H1104.91V143.178L1122.51 141.353V160.779H1135.81V174.99H1122.51V195.199C1122.51 198.849 1123.29 201.326 1126.68 201.326C1127.86 201.326 1130.2 200.935 1132.03 200.153L1136.46 213.06C1132.68 215.146 1128.77 216.711 1121.08 216.711C1111.69 216.841 1104.91 210.974 1104.91 198.458Z" fill="#1A242D"/>
<path d="M1142.99 143.495C1142.99 138.15 1147.43 133.586 1153.42 133.586C1159.55 133.586 1163.98 138.019 1163.98 143.495C1163.98 149.232 1159.55 153.664 1153.42 153.664C1147.3 153.664 1142.99 149.232 1142.99 143.495ZM1144.69 160.444H1162.16V215.463H1144.69V160.444Z" fill="#1A242D"/>
<path d="M1172.2 188.084C1172.2 171.396 1184.19 159.532 1201.92 159.532C1219.26 159.532 1231.65 171.135 1231.65 188.084C1231.65 204.903 1219.26 216.506 1201.92 216.506C1184.19 216.506 1172.2 204.642 1172.2 188.084ZM1213.92 188.084C1213.92 180.392 1208.83 175.177 1202.05 175.177C1195.01 175.177 1190.06 180.522 1190.06 188.084C1190.06 195.385 1195.14 200.992 1202.05 200.992C1208.57 200.992 1213.92 195.516 1213.92 188.084Z" fill="#1A242D"/>
<path d="M1241.04 160.444H1258.51V166.833H1258.77C1263.07 161.878 1268.94 159.401 1275.33 159.401C1286.67 159.401 1295.01 165.008 1295.01 182.478V215.463H1277.54V186.78C1277.54 177.654 1274.54 175.047 1268.81 175.047C1262.68 175.047 1258.64 179.219 1258.64 187.693V215.333H1241.17V160.444H1241.04Z" fill="#1A242D"/>
<path d="M193.683 496.488H1541.4" stroke="#1A242D" stroke-width="1.2" stroke-miterlimit="10"/>
<path d="M199.427 446.565H190V443.031H212.83V446.565H203.256V474.546H199.427V446.565Z" fill="#1A242D"/>
<path d="M212.094 463.943C212.094 457.61 216.512 452.75 222.551 452.75C225.792 452.75 228.59 454.223 230.063 456.874H230.211V453.045H233.746V474.693H230.358V470.717C228.738 473.22 226.086 474.84 222.699 474.84C216.66 474.84 212.094 470.57 212.094 463.943ZM230.358 463.943C230.358 459.525 227.412 455.99 223.141 455.99C219.016 455.99 215.776 459.083 215.776 463.943C215.776 468.361 218.722 471.601 223.141 471.601C227.117 471.601 230.358 468.508 230.358 463.943Z" fill="#1A242D"/>
<path d="M240.227 442H243.762V464.826L254.367 453.045H258.785L250.684 462.028L258.785 474.693H254.661L248.18 464.532L243.762 469.391V474.693H240.227V442Z" fill="#1A242D"/>
<path d="M281.321 464.826H264.53C264.972 468.803 267.917 471.453 271.894 471.453C274.84 471.453 276.755 470.275 278.081 468.508L280.585 470.57C278.67 472.926 276.019 474.546 271.6 474.546C265.266 474.546 260.7 470.128 260.7 463.501C260.7 457.021 265.119 452.456 271.305 452.456C277.197 452.456 281.174 457.021 281.174 463.206C281.321 463.943 281.321 464.679 281.321 464.826ZM264.53 461.881H277.786C277.197 458.347 274.987 455.99 271.452 455.99C267.917 455.99 265.119 458.347 264.53 461.881Z" fill="#1A242D"/>
<path d="M297.229 463.943C297.229 457.61 301.647 452.75 307.686 452.75C310.927 452.75 313.725 454.223 315.198 456.874H315.345V453.045H318.88V474.693H315.493V470.717C313.872 473.22 311.221 474.84 307.833 474.84C301.795 474.84 297.229 470.57 297.229 463.943ZM315.493 463.943C315.493 459.525 312.547 455.99 308.275 455.99C304.151 455.99 300.911 459.083 300.911 463.943C300.911 468.361 303.857 471.601 308.275 471.601C312.252 471.601 315.493 468.508 315.493 463.943Z" fill="#1A242D"/>
<path d="M354.377 470.864C352.757 473.368 349.959 474.84 346.571 474.84C340.679 474.84 336.113 470.422 336.113 463.943C336.113 457.61 340.532 452.75 346.571 452.75C349.811 452.75 352.61 454.223 354.23 456.874V453.045H357.765V483.382H354.23V470.864H354.377ZM354.525 463.943C354.525 459.525 351.579 455.99 347.16 455.99C343.036 455.99 339.796 459.083 339.796 463.943C339.796 468.361 342.741 471.601 347.16 471.601C351.284 471.601 354.525 468.508 354.525 463.943Z" fill="#1A242D"/>
<path d="M364.099 465.857V453.045H367.634V464.826C367.634 469.686 369.548 471.6 372.936 471.6C376.324 471.6 379.417 468.655 379.417 463.501V453.045H382.952V474.693H379.417V471.011C377.797 473.515 375.145 474.987 372.347 474.987C367.192 474.84 364.099 472.042 364.099 465.857Z" fill="#1A242D"/>
<path d="M388.991 446.418C388.991 444.945 390.17 443.915 391.642 443.915C393.115 443.915 394.294 445.093 394.294 446.418C394.294 447.891 393.115 448.922 391.642 448.922C390.17 449.069 388.991 447.891 388.991 446.418ZM389.728 453.045H393.263V474.693H389.728V453.045Z" fill="#1A242D"/>
<path d="M399.007 463.795C399.007 457.316 403.426 452.75 409.906 452.75C413.147 452.75 416.534 454.076 418.597 456.579L416.093 458.788C414.767 457.168 412.558 455.99 410.054 455.99C405.635 455.99 402.689 459.23 402.689 463.795C402.689 468.361 405.635 471.601 410.054 471.601C412.558 471.601 414.914 470.422 416.24 468.802L418.744 471.011C416.976 473.22 414.031 474.84 409.759 474.84C403.426 474.84 399.007 470.422 399.007 463.795Z" fill="#1A242D"/>
<path d="M423.457 442H426.992V464.826L437.597 453.045H442.016L433.915 462.028L442.016 474.693H437.892L431.411 464.532L426.992 469.391V474.693H423.457V442Z" fill="#1A242D"/>
<path d="M456.598 471.748L458.365 468.95C459.985 470.57 461.9 471.601 464.993 471.601C467.645 471.601 469.117 470.275 469.117 468.655C469.117 466.741 467.055 466.152 463.962 465.121C460.427 463.943 457.481 462.47 457.481 458.494C457.481 455.107 460.427 452.75 464.551 452.75C467.203 452.75 469.559 453.487 472.063 455.401L470.148 458.199C468.234 456.432 466.319 455.843 464.404 455.843C462.784 455.843 461.016 456.874 461.016 458.494C461.016 460.114 462.784 460.997 465.141 461.881C469.707 463.648 472.652 464.384 472.652 468.655C472.652 472.042 470.148 474.84 464.846 474.84C461.311 474.84 458.66 473.662 456.598 471.748Z" fill="#1A242D"/>
<path d="M477.366 465.857V453.045H480.901V464.826C480.901 469.686 482.816 471.6 486.204 471.6C489.591 471.6 492.685 468.655 492.685 463.501V453.045H496.22V474.693H492.685V471.011C491.064 473.515 488.413 474.987 485.615 474.987C480.459 474.84 477.366 472.042 477.366 465.857Z" fill="#1A242D"/>
<path d="M502.7 453.045H506.235V457.021H506.382C508.003 454.37 510.359 452.75 513.452 452.75C513.747 452.75 514.042 452.75 514.336 452.75V456.727C513.747 456.727 513.305 456.579 512.863 456.579C508.739 456.579 506.235 459.672 506.235 464.09V474.546H502.7V453.045Z" fill="#1A242D"/>
<path d="M516.104 453.045H519.933L526.561 470.128L533.189 453.045H537.019L528.181 474.693H524.794L516.104 453.045Z" fill="#1A242D"/>
<path d="M559.407 464.826H542.616C543.058 468.803 546.003 471.453 549.98 471.453C552.926 471.453 554.841 470.275 556.166 468.508L558.67 470.57C556.756 472.926 554.104 474.546 549.686 474.546C543.352 474.546 538.786 470.128 538.786 463.501C538.786 457.021 543.205 452.456 549.391 452.456C555.283 452.456 559.26 457.021 559.26 463.206C559.407 463.943 559.407 464.679 559.407 464.826ZM542.616 461.881H555.872C555.283 458.347 553.073 455.99 549.538 455.99C546.003 455.99 543.205 458.347 542.616 461.881Z" fill="#1A242D"/>
<path d="M570.453 473.809L561.321 453.045H565.151L572.221 469.391H572.368L578.849 453.045H582.679L570.453 483.382H566.624L570.453 473.809Z" fill="#1A242D"/>
<path d="M597.555 463.943C597.555 457.61 601.973 452.75 608.012 452.75C611.253 452.75 614.051 454.223 615.524 456.874H615.672V453.045H619.207V474.693H615.819V470.717C614.199 473.22 611.547 474.84 608.16 474.84C602.121 474.84 597.555 470.57 597.555 463.943ZM615.819 463.943C615.819 459.525 612.873 455.99 608.602 455.99C604.477 455.99 601.237 459.083 601.237 463.943C601.237 468.361 604.183 471.601 608.602 471.601C612.578 471.601 615.819 468.508 615.819 463.943Z" fill="#1A242D"/>
<path d="M625.835 453.045H629.37V456.874C630.99 454.223 633.936 452.75 637.176 452.75C641.89 452.75 644.983 455.696 644.983 461.734V474.546H641.448V462.765C641.448 457.758 639.238 455.99 636.145 455.99C632.021 455.99 629.37 458.936 629.37 463.795V474.546H625.835V453.045Z" fill="#1A242D"/>
<path d="M649.844 463.943C649.844 457.61 654.263 452.75 660.449 452.75C663.689 452.75 666.488 454.223 668.108 456.874V442H671.643V474.693H668.255V470.717C666.635 473.368 663.984 474.987 660.449 474.987C654.557 474.84 649.844 470.57 649.844 463.943ZM668.402 463.943C668.402 459.525 665.457 455.99 661.038 455.99C656.914 455.99 653.526 459.083 653.526 463.943C653.526 468.361 656.472 471.6 660.891 471.6C665.015 471.6 668.402 468.508 668.402 463.943Z" fill="#1A242D"/>
<path d="M709.643 464.826H692.852C693.294 468.803 696.24 471.453 700.217 471.453C703.162 471.453 705.077 470.275 706.403 468.508L708.907 470.57C706.992 472.926 704.341 474.546 699.922 474.546C693.589 474.546 689.022 470.128 689.022 463.501C689.022 457.021 693.441 452.456 699.627 452.456C705.519 452.456 709.496 457.021 709.496 463.206C709.791 463.943 709.643 464.679 709.643 464.826ZM692.852 461.881H706.108C705.519 458.347 703.31 455.99 699.775 455.99C696.387 455.99 693.589 458.347 692.852 461.881Z" fill="#1A242D"/>
<path d="M715.094 453.045H718.629V456.874C720.249 454.223 723.195 452.75 726.435 452.75C731.149 452.75 734.242 455.696 734.242 461.734V474.546H730.707V462.765C730.707 457.758 728.497 455.99 725.404 455.99C721.28 455.99 718.629 458.936 718.629 463.795V474.546H715.094V453.045Z" fill="#1A242D"/>
<path d="M741.017 468.213V456.137H738.219V453.045H741.017V445.682L744.552 445.24V453.045H751.622V456.137H744.552V467.624C744.552 470.275 745.141 471.453 747.203 471.453C748.529 471.453 749.855 470.864 750.886 470.275L751.77 473.367C750.591 474.104 749.118 474.693 746.467 474.693C742.785 474.84 741.017 472.484 741.017 468.213Z" fill="#1A242D"/>
<path d="M774.747 464.826H757.956C758.397 468.803 761.343 471.453 765.32 471.453C768.266 471.453 770.181 470.275 771.506 468.508L774.01 470.57C772.096 472.926 769.444 474.546 765.026 474.546C758.692 474.546 754.126 470.128 754.126 463.501C754.126 457.021 758.545 452.456 764.731 452.456C770.623 452.456 774.6 457.021 774.6 463.206C774.747 463.943 774.747 464.679 774.747 464.826ZM757.956 461.881H771.212C770.623 458.347 768.413 455.99 764.878 455.99C761.343 455.99 758.545 458.347 757.956 461.881Z" fill="#1A242D"/>
<path d="M780.049 453.045H783.584V457.021H783.731C785.351 454.37 787.708 452.75 790.801 452.75C791.096 452.75 791.39 452.75 791.685 452.75V456.727C791.096 456.727 790.654 456.579 790.212 456.579C786.088 456.579 783.584 459.672 783.584 464.09V474.546H780.049V453.045Z" fill="#1A242D"/>
<path d="M808.182 468.213V456.137H805.384V453.045H808.182V445.682L811.717 445.24V453.045H818.787V456.137H811.717V467.624C811.717 470.275 812.307 471.453 814.369 471.453C815.694 471.453 817.02 470.864 818.051 470.275L818.935 473.367C817.756 474.104 816.283 474.693 813.632 474.693C809.95 474.84 808.182 472.484 808.182 468.213Z" fill="#1A242D"/>
<path d="M823.795 442H827.33V456.874C828.95 454.37 831.896 452.898 835.284 452.898C839.997 452.898 843.09 455.696 843.09 461.881V474.84H839.555V462.912C839.555 458.052 837.346 456.285 834.253 456.285C829.981 456.285 827.33 459.083 827.33 463.943V474.84H823.795V442Z" fill="#1A242D"/>
<path d="M868.571 464.826H851.78C852.222 468.803 855.167 471.453 859.144 471.453C862.09 471.453 864.005 470.275 865.331 468.508L867.835 470.57C865.92 472.926 863.269 474.546 858.85 474.546C852.516 474.546 847.95 470.128 847.95 463.501C847.95 457.021 852.369 452.456 858.555 452.456C864.447 452.456 868.424 457.021 868.424 463.206C868.718 463.943 868.571 464.679 868.571 464.826ZM851.927 461.881H865.183C864.594 458.347 862.385 455.99 858.85 455.99C855.315 455.99 852.516 458.347 851.927 461.881Z" fill="#1A242D"/>
<path d="M884.626 463.795C884.626 457.316 889.045 452.75 895.525 452.75C898.766 452.75 902.154 454.076 904.216 456.579L901.712 458.788C900.386 457.168 898.177 455.99 895.673 455.99C891.254 455.99 888.308 459.23 888.308 463.795C888.308 468.361 891.254 471.601 895.673 471.601C898.177 471.601 900.533 470.422 901.859 468.802L904.363 471.011C902.595 473.22 899.65 474.84 895.378 474.84C889.192 474.84 884.626 470.422 884.626 463.795Z" fill="#1A242D"/>
<path d="M909.076 442H912.611V456.874C914.231 454.37 917.177 452.898 920.565 452.898C925.278 452.898 928.371 455.696 928.371 461.881V474.84H924.836V462.912C924.836 458.052 922.627 456.285 919.534 456.285C915.262 456.285 912.611 459.083 912.611 463.943V474.84H909.076V442Z" fill="#1A242D"/>
<path d="M933.526 463.943C933.526 457.61 937.945 452.75 943.984 452.75C947.225 452.75 950.023 454.223 951.496 456.874H951.643V453.045H955.178V474.693H951.791V470.717C950.17 473.22 947.519 474.84 944.131 474.84C938.092 474.84 933.526 470.57 933.526 463.943ZM951.791 463.943C951.791 459.525 948.845 455.99 944.573 455.99C940.449 455.99 937.209 459.083 937.209 463.943C937.209 468.361 940.154 471.601 944.573 471.601C948.55 471.601 951.791 468.508 951.791 463.943Z" fill="#1A242D"/>
<path d="M961.659 453.045H965.194V456.874C966.814 454.223 969.76 452.75 973.001 452.75C977.714 452.75 980.807 455.696 980.807 461.734V474.546H977.272V462.765C977.272 457.758 975.063 455.99 971.97 455.99C967.845 455.99 965.194 458.936 965.194 463.795V474.546H961.659V453.045Z" fill="#1A242D"/>
<path d="M985.815 463.795C985.815 457.316 990.234 452.75 996.715 452.75C999.955 452.75 1003.34 454.076 1005.41 456.579L1002.9 458.788C1001.58 457.168 999.366 455.99 996.862 455.99C992.444 455.99 989.498 459.23 989.498 463.795C989.498 468.361 992.444 471.601 996.862 471.601C999.366 471.601 1001.72 470.422 1003.05 468.802L1005.55 471.011C1003.79 473.22 1000.84 474.84 996.568 474.84C990.382 474.84 985.815 470.422 985.815 463.795Z" fill="#1A242D"/>
<path d="M1029.41 464.826H1012.62C1013.06 468.803 1016.01 471.453 1019.99 471.453C1022.93 471.453 1024.85 470.275 1026.17 468.508L1028.68 470.57C1026.76 472.926 1024.11 474.546 1019.69 474.546C1013.36 474.546 1008.79 470.128 1008.79 463.501C1008.79 457.021 1013.21 452.456 1019.4 452.456C1025.29 452.456 1029.27 457.021 1029.27 463.206C1029.56 463.943 1029.41 464.679 1029.41 464.826ZM1012.62 461.881H1025.88C1025.29 458.347 1023.08 455.99 1019.55 455.99C1016.01 455.99 1013.36 458.347 1012.62 461.881Z" fill="#1A242D"/>
<path d="M1047.38 468.213V456.137H1044.58V453.045H1047.38V445.682L1050.92 445.24V453.045H1057.99V456.137H1050.92V467.624C1050.92 470.275 1051.51 471.453 1053.57 471.453C1054.89 471.453 1056.22 470.864 1057.25 470.275L1058.13 473.367C1056.96 474.104 1055.48 474.693 1052.83 474.693C1049.15 474.84 1047.38 472.484 1047.38 468.213Z" fill="#1A242D"/>
<path d="M1060.49 463.795C1060.49 457.61 1064.91 452.75 1071.69 452.75C1078.02 452.75 1082.88 457.316 1082.88 463.795C1082.88 470.422 1078.17 474.84 1071.69 474.84C1064.91 474.84 1060.49 469.981 1060.49 463.795ZM1079.05 463.795C1079.05 459.23 1075.81 455.99 1071.54 455.99C1066.97 455.99 1064.03 459.525 1064.03 463.795C1064.03 468.066 1066.97 471.601 1071.54 471.601C1075.81 471.601 1079.05 468.361 1079.05 463.795Z" fill="#1A242D"/>
<path d="M1098.05 453.045H1101.73L1107.18 469.244H1107.33L1112.34 453.045H1115.43L1120.44 469.244H1120.59L1126.04 453.045H1129.72L1122.21 474.693H1118.82L1113.81 458.936L1108.8 474.693H1105.56L1098.05 453.045Z" fill="#1A242D"/>
<path d="M1133.55 446.418C1133.55 444.945 1134.73 443.915 1136.2 443.915C1137.67 443.915 1138.85 445.093 1138.85 446.418C1138.85 447.891 1137.67 448.922 1136.2 448.922C1134.73 449.069 1133.55 447.891 1133.55 446.418ZM1134.29 453.045H1137.82V474.693H1134.29V453.045Z" fill="#1A242D"/>
<path d="M1144.89 453.045H1148.42V456.874C1150.04 454.223 1152.99 452.75 1156.23 452.75C1160.94 452.75 1164.04 455.696 1164.04 461.734V474.546H1160.5V462.765C1160.5 457.758 1158.29 455.99 1155.2 455.99C1151.08 455.99 1148.42 458.936 1148.42 463.795V474.546H1144.89V453.045Z" fill="#1A242D"/>
<path d="M1181.12 463.943C1181.12 457.61 1185.54 452.75 1191.58 452.75C1194.82 452.75 1197.62 454.223 1199.09 456.874H1199.24V453.045H1202.78V474.693H1199.39V470.717C1197.77 473.22 1195.12 474.84 1191.73 474.84C1185.69 474.84 1181.12 470.57 1181.12 463.943ZM1199.39 463.943C1199.39 459.525 1196.44 455.99 1192.17 455.99C1188.05 455.99 1184.81 459.083 1184.81 463.943C1184.81 468.361 1187.75 471.601 1192.17 471.601C1196.15 471.601 1199.39 468.508 1199.39 463.943Z" fill="#1A242D"/>
<path d="M1221.92 443.178H1232.23C1238.42 443.178 1242.4 445.534 1242.4 450.836C1242.4 453.929 1240.78 456.874 1237.39 458.052V458.199C1241.07 458.936 1244.02 461.586 1244.02 466.152C1244.02 471.159 1240.63 474.693 1233.56 474.693H1222.07V443.178H1221.92ZM1232.23 456.727C1235.47 456.727 1238.42 455.401 1238.42 451.572C1238.42 448.627 1236.36 446.565 1231.79 446.565H1225.75V456.579H1232.23V456.727ZM1232.97 471.159C1237.09 471.159 1239.75 469.392 1239.75 465.857C1239.75 462.323 1237.24 460.114 1232.38 460.114H1225.75V471.159H1232.97Z" fill="#1A242D"/>
<path d="M1250.06 443.178H1259.48C1269.5 443.178 1275.83 449.658 1275.83 458.936C1275.83 468.213 1269.65 474.693 1259.63 474.693H1250.06V443.178ZM1259.34 471.159C1267 471.159 1271.86 466.004 1271.86 458.936C1271.86 451.72 1266.85 446.713 1259.48 446.713H1253.89V471.159H1259.34Z" fill="#1A242D"/>
<path d="M1292.03 472.042L1302.49 461.439C1305 458.788 1307.06 456.285 1307.06 453.34C1307.06 449.952 1304.7 447.449 1301.31 447.449C1298.37 447.449 1296.16 448.922 1294.83 451.572L1292.03 449.658C1293.65 446.271 1296.75 443.915 1301.46 443.915C1306.32 443.915 1310.74 447.302 1310.74 452.898C1310.74 456.285 1309.27 459.23 1305.44 463.059L1297.48 471.011V471.159H1311.03V474.546H1291.89L1292.03 472.042Z" fill="#1A242D"/>
<path d="M1315.6 459.377C1315.6 450.394 1319.87 443.915 1327.09 443.915C1333.72 443.915 1338.58 449.511 1338.58 459.377C1338.58 468.361 1334.45 474.84 1327.09 474.84C1320.46 474.84 1315.6 469.244 1315.6 459.377ZM1334.75 459.377C1334.75 451.572 1331.66 447.302 1327.09 447.302C1322.23 447.302 1319.43 452.014 1319.43 459.377C1319.43 467.035 1322.52 471.453 1327.09 471.453C1331.95 471.453 1334.75 466.593 1334.75 459.377Z" fill="#1A242D"/>
<path d="M1375.55 464.826H1358.76C1359.2 468.803 1362.14 471.453 1366.12 471.453C1369.07 471.453 1370.98 470.275 1372.31 468.508L1374.81 470.57C1372.9 472.926 1370.25 474.546 1365.83 474.546C1359.49 474.546 1354.93 470.128 1354.93 463.501C1354.93 457.021 1359.35 452.456 1365.53 452.456C1371.42 452.456 1375.4 457.021 1375.4 463.206C1375.55 463.943 1375.55 464.679 1375.55 464.826ZM1358.76 461.881H1372.01C1371.42 458.347 1369.21 455.99 1365.68 455.99C1362.14 455.99 1359.35 458.347 1358.76 461.881Z" fill="#1A242D"/>
<path d="M1376.58 443.178H1380.7L1390.13 469.097L1399.56 443.178H1403.68L1391.75 474.693H1388.36L1376.58 443.178Z" fill="#1A242D"/>
<path d="M1403.83 463.795C1403.83 457.61 1408.25 452.75 1415.02 452.75C1421.36 452.75 1426.22 457.316 1426.22 463.795C1426.22 470.422 1421.5 474.84 1415.02 474.84C1408.39 474.84 1403.83 469.981 1403.83 463.795ZM1422.53 463.795C1422.53 459.23 1419.29 455.99 1415.02 455.99C1410.46 455.99 1407.51 459.525 1407.51 463.795C1407.51 468.066 1410.46 471.601 1415.02 471.601C1419.15 471.601 1422.53 468.361 1422.53 463.795Z" fill="#1A242D"/>
<path d="M1431.08 465.857V453.045H1434.61V464.826C1434.61 469.686 1436.53 471.6 1439.91 471.6C1443.3 471.6 1446.4 468.655 1446.4 463.501V453.045H1449.93V474.693H1446.4V471.011C1444.78 473.515 1442.12 474.987 1439.33 474.987C1434.17 474.84 1431.08 472.042 1431.08 465.857Z" fill="#1A242D"/>
<path d="M1455.09 463.795C1455.09 457.316 1459.5 452.75 1465.99 452.75C1469.23 452.75 1472.61 454.076 1474.68 456.579L1472.17 458.788C1470.85 457.168 1468.64 455.99 1466.13 455.99C1461.71 455.99 1458.77 459.23 1458.77 463.795C1458.77 468.361 1461.71 471.601 1466.13 471.601C1468.64 471.601 1470.99 470.422 1472.32 468.802L1474.82 471.011C1473.06 473.22 1470.11 474.84 1465.84 474.84C1459.5 474.84 1455.09 470.422 1455.09 463.795Z" fill="#1A242D"/>
<path d="M1479.54 442H1483.07V456.874C1484.69 454.37 1487.64 452.898 1491.02 452.898C1495.74 452.898 1498.83 455.696 1498.83 461.881V474.84H1495.3V462.912C1495.3 458.052 1493.09 456.285 1489.99 456.285C1485.72 456.285 1483.07 459.083 1483.07 463.943V474.84H1479.54V442Z" fill="#1A242D"/>
<path d="M1524.46 464.826H1507.67C1508.11 468.803 1511.06 471.453 1515.03 471.453C1517.98 471.453 1519.89 470.275 1521.22 468.508L1523.72 470.57C1521.81 472.926 1519.16 474.546 1514.74 474.546C1508.4 474.546 1503.84 470.128 1503.84 463.501C1503.84 457.021 1508.26 452.456 1514.44 452.456C1520.34 452.456 1524.31 457.021 1524.31 463.206C1524.46 463.943 1524.46 464.679 1524.46 464.826ZM1507.67 461.881H1520.92C1520.34 458.347 1518.13 455.99 1514.59 455.99C1511.06 455.99 1508.26 458.347 1507.67 461.881Z" fill="#1A242D"/>
<path d="M1529.76 453.045H1533.3V457.021H1533.44C1535.07 454.37 1537.42 452.75 1540.51 452.75C1540.81 452.75 1541.1 452.75 1541.4 452.75V456.727C1540.81 456.727 1540.37 456.579 1539.93 456.579C1535.8 456.579 1533.3 459.672 1533.3 464.09V474.546H1529.76V453.045Z" fill="#1A242D"/>
</svg>
