<svg id="Group_1271" data-name="Group 1271" xmlns="http://www.w3.org/2000/svg" width="40.553" height="44.477" viewBox="0 0 40.553 44.477">
  <g id="Group_1267" data-name="Group 1267" transform="translate(21.736 10.626)">
    <path id="Path_4289" data-name="Path 4289" d="M75.494,44.464l-3.947-3.946H58.388V28.543H77.205V40.518H75.494ZM60.1,38.807H72.257l1.527,1.528V38.807h1.711V30.254H60.1Z" transform="translate(-58.388 -28.543)" fill="#131b22"/>
    <rect id="Rectangle_64203" data-name="Rectangle 64203" width="4.106" height="1.711" transform="translate(5.303 6.843)" fill="#131b22"/>
    <rect id="Rectangle_64204" data-name="Rectangle 64204" width="8.211" height="1.711" transform="translate(5.303 3.421)" fill="#131b22"/>
  </g>
  <g id="Group_1268" data-name="Group 1268" transform="translate(0 20.889)">
    <path id="Path_4290" data-name="Path 4290" d="M1.415,69.783V66.311H0v-10.2H15.854v10.2H4.887Zm.3-5.183H3.125v1.053L4.178,64.6h9.965V57.825H1.711Z" transform="translate(0 -56.114)" fill="#131b22"/>
    <rect id="Rectangle_64205" data-name="Rectangle 64205" width="6.843" height="1.711" transform="translate(4.506 4.243)" fill="#131b22"/>
  </g>
  <g id="Group_1270" data-name="Group 1270" transform="translate(6.665)">
    <path id="Path_4291" data-name="Path 4291" d="M45.951,18.334V12.542a1.625,1.625,0,0,0-1.625-1.625H30.148a1.625,1.625,0,0,0-1.625,1.625V28.6H32.9v8.486h-4.38V45.84A1.472,1.472,0,0,0,30,47.313H44.479a1.473,1.473,0,0,0,1.473-1.473V28.6H40.5V18.334Z" transform="translate(-24.57 -6.853)" fill="#d70024"/>
    <g id="Group_1269" data-name="Group 1269">
      <path id="Path_4292" data-name="Path 4292" d="M39.332,44.477H21.81a3.91,3.91,0,0,1-3.907-3.9v-11.2h7.478V22.6H17.9V3.908A3.912,3.912,0,0,1,21.81,0H39.332a3.912,3.912,0,0,1,3.905,3.908v8.428H34.685v8.553h8.553V40.572A3.909,3.909,0,0,1,39.332,44.477ZM19.614,31.086v9.486a2.2,2.2,0,0,0,2.2,2.194H39.332a2.2,2.2,0,0,0,2.195-2.194V22.6H32.974V10.626h8.553V3.908a2.2,2.2,0,0,0-2.195-2.2H21.81a2.2,2.2,0,0,0-2.2,2.2V20.889h7.478v10.2Z" transform="translate(-17.903)" fill="#131b22"/>
    </g>
  </g>
</svg>
