<svg width="52" height="52" viewBox="0 0 52 52" fill="none" xmlns="http://www.w3.org/2000/svg">
<path d="M10.1667 44.4166C9.31704 44.4166 8.58379 44.1082 7.96694 43.4913C7.35012 42.8745 7.04172 42.1412 7.04172 41.2916V10.7084C7.04172 9.85877 7.35012 9.12551 7.96694 8.50866C8.58379 7.89181 9.31704 7.58339 10.1667 7.58339H31.3959V10.0417H10.1667C9.97224 10.0417 9.8125 10.1042 9.68749 10.2292C9.56247 10.3542 9.49996 10.514 9.49996 10.7084V41.2916C9.49996 41.486 9.56247 41.6458 9.68749 41.7708C9.8125 41.8958 9.97224 41.9583 10.1667 41.9583H40.7499C40.9444 41.9583 41.1041 41.8958 41.2291 41.7708C41.3541 41.6458 41.4166 41.486 41.4166 41.2916V20.0625H43.8749V41.2916C43.8749 42.1412 43.5665 42.8745 42.9496 43.4913C42.3328 44.1082 41.5995 44.4166 40.7499 44.4166H10.1667ZM15.5709 36.4125H18.0291V22.5167H15.5709V36.4125ZM24.2291 36.4125H26.6874V15.5875H24.2291V36.4125ZM32.8875 36.4125H35.3458V29.2917H32.8875V36.4125ZM37.8917 18.2082V13.5999H33.25V11.1416H37.8917V6.5H40.3499V11.1416H44.9583V13.5999H40.3499V18.2082H37.8917Z" fill="#E21331"/>
</svg>
