<svg width="8" height="16" viewBox="0 0 8 16" fill="none" xmlns="http://www.w3.org/2000/svg">
    <path d="M3.47917 12.0586C3.47917 12.3123 3.68481 12.5179 3.93848 12.5179C4.19215 12.5179 4.39778 12.3123 4.39778 12.0586H3.47917ZM4.26326 3.07303C4.08389 2.89366 3.79307 2.89366 3.6137 3.07303L0.690683 5.99605C0.511312 6.17542 0.511312 6.46623 0.690683 6.6456C0.870054 6.82498 1.16087 6.82498 1.34024 6.6456L3.93848 4.04737L6.53671 6.6456C6.71608 6.82498 7.0069 6.82498 7.18627 6.6456C7.36564 6.46623 7.36564 6.17542 7.18627 5.99605L4.26326 3.07303ZM4.39778 12.0586V3.39781H3.47917V12.0586H4.39778Z" fill="#000"/>
</svg>