<svg xmlns="http://www.w3.org/2000/svg" xmlns:xlink="http://www.w3.org/1999/xlink" width="26.453" height="27.516" viewBox="0 0 26.453 27.516">
  <defs>
    <clipPath id="clip-path">
      <rect id="Rectangle_64703" data-name="Rectangle 64703" width="26.453" height="27.516" transform="translate(0 0)" fill="none"/>
    </clipPath>
  </defs>
  <g id="Group_2293" data-name="Group 2293" transform="translate(0 0)">
    <g id="Group_2292" data-name="Group 2292" clip-path="url(#clip-path)">
      <path id="Path_4577" data-name="Path 4577" d="M25.453,8.379a1,1,0,0,1-1-1A2.192,2.192,0,0,0,22.264,5.19H4.189A2.192,2.192,0,0,0,2,7.379a1,1,0,0,1-2,0A4.193,4.193,0,0,1,4.189,3.19H22.264a4.193,4.193,0,0,1,4.189,4.189,1,1,0,0,1-1,1" fill="#e21331"/>
      <path id="Path_4578" data-name="Path 4578" d="M18.543,5.189H7.911a1,1,0,0,1-1-1A4.193,4.193,0,0,1,11.1,0h4.253a4.193,4.193,0,0,1,4.19,4.189,1,1,0,0,1-1,1m-9.39-2H17.3A2.188,2.188,0,0,0,15.353,2H11.1A2.189,2.189,0,0,0,9.153,3.189" fill="#e21331"/>
      <path id="Path_4579" data-name="Path 4579" d="M18.432,27.516H8.022A4.837,4.837,0,0,1,3.19,22.685V7.379a1,1,0,0,1,2,0V22.685a2.834,2.834,0,0,0,2.832,2.831h10.41a2.834,2.834,0,0,0,2.832-2.831V7.379a1,1,0,0,1,2,0V22.685a4.837,4.837,0,0,1-4.832,4.831" fill="#e21331"/>
      <path id="Path_4580" data-name="Path 4580" d="M8.581,23.332a1,1,0,0,1-1-1V8.871a1,1,0,1,1,2,0V22.332a1,1,0,0,1-1,1" fill="#e21331"/>
      <path id="Path_4581" data-name="Path 4581" d="M13.227,23.332a1,1,0,0,1-1-1V8.871a1,1,0,1,1,2,0V22.332a1,1,0,0,1-1,1" fill="#e21331"/>
      <path id="Path_4582" data-name="Path 4582" d="M18.073,23.332a1,1,0,0,1-1-1V8.871a1,1,0,1,1,2,0V22.332a1,1,0,0,1-1,1" fill="#e21331"/>
    </g>
  </g>
</svg>
