<?xml version="1.0" encoding="utf-8"?>
<!-- Generator: Adobe Illustrator 26.3.1, SVG Export Plug-In . SVG Version: 6.00 Build 0)  -->
<svg version="1.1" id="Layer_1" xmlns="http://www.w3.org/2000/svg" xmlns:xlink="http://www.w3.org/1999/xlink" x="0px" y="0px"
	 viewBox="0 0 39.2 38.8" style="enable-background:new 0 0 39.2 38.8;" xml:space="preserve">
<style type="text/css">
	.st0{fill:#E21331;}
	.st1{fill:#1A242D;}
</style>
<g id="Layer_2_00000152951728518744330250000017492851048890512063_">
	<g id="Layer_1-2">
		<g id="Group_137">
			<path id="Path_36" class="st0" d="M18.8,17.7c-0.4-0.8-0.6-1.6-0.6-2.4V5.8c0-1.3-1.1-2.4-2.4-2.4l0,0H5.3C4,3.4,2.9,4.5,2.9,5.8
				l0,0v11.9H18.8z M2.9,33.5c0,1.3,1.1,2.4,2.4,2.4l0,0h12.9V20.6H2.9V33.5z M32.9,35.9c1.3,0,2.4-1.1,2.4-2.4l0,0V23
				c0-1.3-1.1-2.4-2.4-2.4l0,0h-9.5c-0.9,0-1.7-0.2-2.5-0.6v15.9H32.9z M5.3,38.8c-2.9,0-5.3-2.4-5.3-5.3V5.8c0-3,2.4-5.4,5.3-5.4
				h10.4c2.9,0,5.3,2.4,5.3,5.3v9.5c0,1.3,1.1,2.4,2.4,2.4l0,0h9.5c2.9,0,5.3,2.4,5.3,5.3l0,0v10.5c0,2.9-2.4,5.3-5.3,5.3L5.3,38.8
				L5.3,38.8z"/>
			<path id="Path_37" class="st1" d="M31.9,14.7c-1.2,0-2.1-0.9-2.1-2.1l0,0l0,0V2.1c0-1.2,0.9-2.1,2.1-2.1C33.1,0,34,0.9,34,2.1
				l0,0l0,0v10.5C34,13.7,33.1,14.7,31.9,14.7L31.9,14.7z"/>
			<path id="Path_38" class="st1" d="M37.1,9.4H26.7c-1.2,0-2.1-0.9-2.1-2.1s0.9-2.1,2.1-2.1h10.5c1.2,0,2.1,0.9,2.1,2.1
				S38.3,9.4,37.1,9.4z"/>
		</g>
	</g>
</g>
</svg>
