<svg width="197" height="271" viewBox="0 0 197 271" fill="none" xmlns="http://www.w3.org/2000/svg">
<g clip-path="url(#clip0_1868_4747)">
<path d="M40.3924 128.7C40.8924 130.7 44.8924 130.3 44.6924 128.2L36.2924 31.7C35.6924 22.3 41.1924 16.4 49.5924 16.4C58.0924 16.4 61.2924 22 62.8924 31.7L71.8924 118.5C71.9924 120.6 77.0924 120.6 77.2924 118.5L78.7924 16.3C78.7924 7.8 83.6924 1 92.0924 1C100.592 1 105.392 7.9 105.392 16.3L107.592 121.4C107.492 123.5 111.592 123.8 111.892 121.7L124.192 27C126.392 17 129.092 11.7 137.492 11.7C145.992 11.7 150.492 16 149.492 31.2L135.292 133.1C135.292 133.1 169.592 82.3 193.092 105.8C197.592 110.4 196.592 119.8 191.992 124.3C184.092 131.9 168.692 150.2 160.192 165.8C133.592 216 121.092 228.8 84.6924 228.8C52.0924 228.8 27.1924 222.1 19.1924 157.7L18.3924 149.8C18.3924 141.9 16.3924 134.3 15.2924 126.5L2.19243 72.8C-0.507571 62.8 2.59243 53.2 12.6924 53.2C17.9924 53.4 22.4924 57.3 24.8924 66.6L40.3924 128.7Z" stroke="#19232D" stroke-width="2" stroke-linecap="round" stroke-linejoin="round"/>
<path d="M47.1 257.1H50.6C52.8 257.1 53.8 258.4 53.8 260.2C53.8 261.6 53.1 262.6 51.9 263L54.2 266.4H52L49.9 263.2H48.8V266.4H47V257.1H47.1ZM50.2 261.5C51.3 261.5 51.9 260.9 51.9 260.1C51.9 259.2 51.3 258.7 50.3 258.7H48.9V261.5H50.2Z" fill="#1A242C"/>
<path d="M55.3008 258C55.3008 257.4 55.8008 257 56.4008 257C57.0008 257 57.5008 257.5 57.5008 258C57.5008 258.6 57.0008 259.1 56.4008 259.1C55.8008 259.1 55.3008 258.6 55.3008 258ZM55.5008 260H57.2008V266.4H55.5008V260Z" fill="#1A242C"/>
<path d="M59.3008 268.4L59.7008 267C60.3008 267.4 60.9008 267.6 61.8008 267.6C63.0008 267.6 63.6008 266.9 63.6008 266.2V265.6C63.1008 266.1 62.5008 266.3 61.8008 266.3C60.1008 266.3 58.8008 265 58.8008 263.2C58.8008 261.3 60.0008 260 61.7008 260C62.4008 260 63.1008 260.2 63.6008 260.8V260.1H65.3008V265.7C65.3008 267.7 64.4008 269.1 62.0008 269.1C60.9008 269 60.0008 268.8 59.3008 268.4ZM63.6008 263C63.6008 262 62.9008 261.4 62.0008 261.4C61.1008 261.4 60.4008 262.1 60.4008 263C60.4008 264 61.1008 264.6 62.0008 264.6C62.9008 264.7 63.6008 264 63.6008 263Z" fill="#1A242C"/>
<path d="M66.8008 256.7H68.5008V260.7C69.0008 260.1 69.7008 259.8 70.6008 259.8C72.0008 259.8 72.9008 260.5 72.9008 262.4V266.2H71.3008V262.8C71.3008 261.6 70.9008 261.3 70.1008 261.3C69.2008 261.3 68.6008 261.9 68.6008 263V266.2H66.9008V256.7H66.8008Z" fill="#1A242C"/>
<path d="M74.7004 264.3V261.4H73.9004V260H74.7004V257.9L76.4004 257.7V259.9H78.1004V261.3H76.4004V264C76.4004 264.6 76.5004 264.8 76.9004 264.8C77.1004 264.8 77.4004 264.7 77.7004 264.6L78.1004 266C77.7004 266.2 77.3004 266.4 76.4004 266.4C75.4004 266.4 74.7004 265.7 74.7004 264.3Z" fill="#1A242C"/>
<path d="M82.8008 257.1H84.6008V261.1H88.4008V257.1H90.2008V266.3H88.4008V262.7H84.6008V266.3H82.8008V257.1Z" fill="#1A242C"/>
<path d="M91.8008 263.2C91.8008 261.3 93.1008 259.9 94.8008 259.9C95.5008 259.9 96.2008 260.2 96.7008 260.7V260H98.4008V266.4H96.8008V265.6C96.4008 266.2 95.7008 266.5 94.9008 266.5C93.1008 266.4 91.8008 265.1 91.8008 263.2ZM96.7008 263.2C96.7008 262.2 96.0008 261.4 95.1008 261.4C94.2008 261.4 93.5008 262.1 93.5008 263.2C93.5008 264.2 94.2008 264.9 95.1008 264.9C96.0008 264.9 96.7008 264.2 96.7008 263.2Z" fill="#1A242C"/>
<path d="M100 260H101.7V260.8C102.2 260.2 102.9 259.9 103.7 259.9C105.1 259.9 106 260.6 106 262.6V266.4H104.3V263.1C104.3 261.9 103.9 261.5 103.1 261.5C102.2 261.5 101.7 262.1 101.7 263.2V266.4H100V260Z" fill="#1A242C"/>
<path d="M107.301 263.2C107.301 261.3 108.601 259.9 110.301 259.9C111.101 259.9 111.801 260.2 112.201 260.7V256.7H113.901V266.3H112.301V265.5C111.901 266.1 111.201 266.4 110.301 266.4C108.601 266.4 107.301 265.1 107.301 263.2ZM112.301 263.2C112.301 262.2 111.601 261.4 110.601 261.4C109.701 261.4 109.001 262.1 109.001 263.2C109.001 264.2 109.701 264.9 110.601 264.9C111.601 264.9 112.301 264.2 112.301 263.2Z" fill="#1A242C"/>
</g>
<defs>
<clipPath id="clip0_1868_4747">
<rect width="196.74" height="270.6" fill="white"/>
</clipPath>
</defs>
</svg>
