<svg width="24" height="24" viewBox="0 0 24 24" fill="none" xmlns="http://www.w3.org/2000/svg">
<g clip-path="url(#clip0_2350_17608)">
<path d="M21.2926 12.9292C21.6831 13.3197 21.6831 13.9529 21.2926 14.3434L14.3432 21.2928C13.9526 21.6833 13.3195 21.6833 12.9289 21.2928L3.4744 11.8383C3.28687 11.6507 3.18151 11.3964 3.18151 11.1312L3.18151 4.18175C3.18151 3.62946 3.62923 3.18175 4.18151 3.18175L11.1309 3.18175C11.3962 3.18175 11.6505 3.2871 11.838 3.47464L21.2926 12.9292Z" fill="#488D80"/>
<path fill-rule="evenodd" clip-rule="evenodd" d="M21.8229 12.3989C22.5063 13.0823 22.5063 14.1903 21.8229 14.8737L14.8735 21.8232C14.1901 22.5066 13.082 22.5066 12.3986 21.8231L2.94408 12.3686C2.61589 12.0404 2.43152 11.5953 2.43152 11.1312L2.43152 4.18175C2.43152 3.21525 3.21502 2.43175 4.18152 2.43175L11.1309 2.43175C11.5951 2.43175 12.0402 2.61612 12.3684 2.94431L21.8229 12.3989ZM20.7623 13.8131C20.8599 13.7154 20.8599 13.5571 20.7623 13.4595L11.3077 4.00497C11.2608 3.95809 11.1972 3.93175 11.1309 3.93175L4.18152 3.93175C4.04345 3.93175 3.93152 4.04368 3.93152 4.18175L3.93152 11.1312C3.93152 11.1975 3.95786 11.2611 4.00474 11.3079L13.4593 20.7625C13.5569 20.8601 13.7152 20.8601 13.8128 20.7625L20.7623 13.8131Z" fill="#488D80"/>
<path d="M7.36351 9.45555C6.78613 8.87816 6.78613 7.94203 7.36351 7.36464C7.9409 6.78725 8.87703 6.78725 9.45442 7.36464C10.0318 7.94203 10.0318 8.87816 9.45442 9.45555C8.87703 10.0329 7.9409 10.0329 7.36351 9.45555Z" fill="white"/>
</g>
<defs>
<clipPath id="clip0_2350_17608">
<rect width="24" height="24" fill="white"/>
</clipPath>
</defs>
</svg>
