<svg xmlns="http://www.w3.org/2000/svg" width="15.155" height="14.418" viewBox="0 0 15.155 14.418">
  <g id="Group_960" data-name="Group 960" transform="translate(-50.831 -307.421)">
    <circle id="Ellipse_18" data-name="Ellipse 18" cx="1.567" cy="1.567" r="1.567" transform="translate(60.417 311.682)" fill="none" stroke="#e40232" stroke-linecap="round" stroke-linejoin="round" stroke-width="1"/>
    <circle id="Ellipse_19" data-name="Ellipse 19" cx="1.567" cy="1.567" r="1.567" transform="translate(55.404 307.921)" fill="none" stroke="#e40232" stroke-linecap="round" stroke-linejoin="round" stroke-width="1"/>
    <path id="Path_2257" data-name="Path 2257" d="M179.049,239.681a29.132,29.132,0,0,1,3.581-1.253,1.842,1.842,0,0,1,1.579.468.626.626,0,0,1-.2,1.063l-7.394,2.663a2.179,2.179,0,0,1-1.664-.077l-4.314-2.02a.626.626,0,0,1-.361-.567V236.57a.629.629,0,0,1,.692-.624,6.507,6.507,0,0,1,3.068,1.229h2.739a2.265,2.265,0,0,1,2.274,2.507h-5.014" transform="translate(-118.944 78.581)" fill="none" stroke="#e40232" stroke-linecap="round" stroke-linejoin="round" stroke-width="1"/>
  </g>
</svg>
