<svg width="105" height="69" viewBox="0 0 105 69" fill="none" xmlns="http://www.w3.org/2000/svg">
<path d="M75.913 52H11.087C9.38296 52 8 50.6 8 48.875V5.125C8 3.4 9.38296 2 11.087 2H75.913C77.617 2 79 3.4 79 5.125V48.875C79 50.6 77.617 52 75.913 52Z" stroke="#DB1239" stroke-width="3" stroke-linecap="round" stroke-linejoin="round"/>
<path d="M53 67H34L37.1667 52H49.8333L53 67Z" stroke="#DB1239" stroke-width="3" stroke-miterlimit="10" stroke-linecap="round"/>
<path d="M30 67H56" stroke="#DB1239" stroke-width="3" stroke-miterlimit="10" stroke-linecap="round"/>
<path d="M98.4429 67H64.5571C62.0392 67 60 64.9386 60 62.3932V18.6099C60 16.0646 62.0392 14 64.5571 14H98.4429C100.961 14 103 16.0646 103 18.6099V62.3932C103 64.9386 100.961 67 98.4429 67Z" fill="white"/>
<path d="M98.4429 67H64.5571C62.0392 67 60 64.9386 60 62.3932V18.6099C60 16.0646 62.0392 14 64.5571 14H98.4429C100.961 14 103 16.0646 103 18.6099V62.3932C103 64.9386 100.961 67 98.4429 67Z" stroke="#D0202F" stroke-width="3" stroke-linecap="round" stroke-linejoin="round"/>
<path d="M79 63H84" stroke="#DB1239" stroke-width="3" stroke-linecap="round" stroke-linejoin="round"/>
<path d="M21.3066 67H4.69343C3.20686 67 2 65.8341 2 64.398V33.602C2 32.1659 3.20686 31 4.69343 31H21.3066C22.7931 31 24 32.1659 24 33.602V64.398C24 65.8341 22.7931 67 21.3066 67Z" fill="white"/>
<path d="M21.3066 67H4.69343C3.20686 67 2 65.8341 2 64.398V33.602C2 32.1659 3.20686 31 4.69343 31H21.3066C22.7931 31 24 32.1659 24 33.602V64.398C24 65.8341 22.7931 67 21.3066 67Z" stroke="#D0202F" stroke-width="3" stroke-linecap="round" stroke-linejoin="round"/>
<path d="M12 61H14" stroke="#D0202F" stroke-width="3" stroke-linecap="round" stroke-linejoin="round"/>
</svg>
