<svg id="Group_2247" data-name="Group 2247" xmlns="http://www.w3.org/2000/svg" xmlns:xlink="http://www.w3.org/1999/xlink" width="24.925" height="18.098" viewBox="0 0 24.925 18.098">
  <defs>
    <clipPath id="clip-path">
      <rect id="Rectangle_64606" data-name="Rectangle 64606" width="24.925" height="18.098" fill="none"/>
    </clipPath>
  </defs>
  <rect id="Rectangle_64603" data-name="Rectangle 64603" width="20.475" height="3.205" transform="translate(2.226 4.006)" fill="#d70024"/>
  <g id="Group_2246" data-name="Group 2246" transform="translate(0 0)">
    <g id="Group_2245" data-name="Group 2245" transform="translate(0 0)" clip-path="url(#clip-path)">
      <path id="Path_4483" data-name="Path 4483" d="M29.1,23.723H10.633A1.433,1.433,0,0,1,9.61,23.3a1.463,1.463,0,0,1-.424-1.025V10.634a1.447,1.447,0,0,1,1.445-1.449H29.1a1.449,1.449,0,0,1,1.449,1.449l0,11.642a1.444,1.444,0,0,1-.425,1.026,1.427,1.427,0,0,1-1.022.421m0-13.647H10.633a.557.557,0,0,0-.556.559V22.276a.567.567,0,0,0,.164.4.55.55,0,0,0,.392.16H29.1a.545.545,0,0,0,.392-.16.552.552,0,0,0,.165-.394l0-11.645a.56.56,0,0,0-.165-.4.553.553,0,0,0-.391-.162" transform="translate(-7.406 -7.405)" fill="#131b22"/>
      <rect id="Rectangle_64604" data-name="Rectangle 64604" width="8.28" height="0.89" transform="translate(12.64 9.984)" fill="#131b22"/>
      <rect id="Rectangle_64605" data-name="Rectangle 64605" width="4.585" height="0.89" transform="translate(12.64 11.764)" fill="#131b22"/>
      <path id="Path_4484" data-name="Path 4484" d="M25.774,51.472a2.184,2.184,0,0,1-1.456-.554,2.193,2.193,0,1,1,0-3.279,2.193,2.193,0,1,1,1.456,3.833M24.319,49.8h0a.445.445,0,0,1,.371.2,1.3,1.3,0,1,0,0-1.438.445.445,0,0,1-.742,0,1.3,1.3,0,1,0,0,1.438.445.445,0,0,1,.371-.2" transform="translate(-16.663 -37.959)" fill="#131b22"/>
      <path id="Path_4485" data-name="Path 4485" d="M.89,2.226H0V0H2.225V.89H.89Z" transform="translate(0 0)" fill="#131b22"/>
      <path id="Path_4486" data-name="Path 4486" d="M2.226,84.123H0V81.9H.89v1.335H2.226Z" transform="translate(0 -66.025)" fill="#131b22"/>
      <path id="Path_4487" data-name="Path 4487" d="M119.348,2.226h-.89V.89h-1.335V0h2.225Z" transform="translate(-94.423 0)" fill="#131b22"/>
      <path id="Path_4488" data-name="Path 4488" d="M119.348,84.123h-2.225v-.89h1.335V81.9h.89Z" transform="translate(-94.423 -66.025)" fill="#131b22"/>
    </g>
  </g>
</svg>
