<svg xmlns="http://www.w3.org/2000/svg" width="45.938" height="57.092" viewBox="0 0 45.938 57.092">
  <g id="Group_1000" data-name="Group 1000" transform="translate(-132.395 -26.79)">
    <g id="Group_999" data-name="Group 999" transform="translate(132.395 26.791)">
      <path id="Path_2323" data-name="Path 2323" d="M151.248,55.033a1.826,1.826,0,1,0,1.837,1.815A1.827,1.827,0,0,0,151.248,55.033Zm-10.331-7.126a1.123,1.123,0,0,0,1.569,0,12.362,12.362,0,0,1,17.5,0,1.114,1.114,0,0,0,.807.314,1.064,1.064,0,0,0,.784-.314,1.109,1.109,0,0,0,0-1.591,14.607,14.607,0,0,0-20.661,0A1.109,1.109,0,0,0,140.917,47.907Zm25.3-8.448v19.63c0,1.838-1.008,3.361-2.218,3.361h-25.9c-1.21,0-2.218-1.524-2.218-3.361V39.571l15.373-11.653ZM145.2,51a1.109,1.109,0,0,0,0,1.591,1.123,1.123,0,0,0,1.569,0,6.484,6.484,0,0,1,8.964,0,1.051,1.051,0,0,0,.784.336,1.087,1.087,0,0,0,.784-.336,1.109,1.109,0,0,0,0-1.591A8.773,8.773,0,0,0,145.2,51Z" transform="translate(-128.077 -25.391)" fill="#fff"/>
      <path id="Path_2324" data-name="Path 2324" d="M141.355,51.566a2.857,2.857,0,1,1,2.846,2.846A2.855,2.855,0,0,1,141.355,51.566Z" transform="translate(-121.277 0.394)" fill="#fff"/>
      <path id="Path_2325" data-name="Path 2325" d="M143.753,40.018a1.826,1.826,0,1,1-1.838,1.815A1.827,1.827,0,0,1,143.753,40.018Z" transform="translate(-120.582 -10.377)" fill="#1a242d"/>
      <path id="Path_2326" data-name="Path 2326" d="M140.221,41.149a1.109,1.109,0,0,1,0-1.591,8.773,8.773,0,0,1,12.1,0,1.109,1.109,0,0,1,0,1.591,1.087,1.087,0,0,1-.784.336,1.051,1.051,0,0,1-.784-.336,6.484,6.484,0,0,0-8.964,0A1.123,1.123,0,0,1,140.221,41.149Z" transform="translate(-123.101 -13.95)" fill="#1a242d"/>
      <path id="Path_2327" data-name="Path 2327" d="M148.642,34.218a14.528,14.528,0,0,1,10.33,4.28,1.109,1.109,0,0,1,0,1.591,1.064,1.064,0,0,1-.784.314,1.114,1.114,0,0,1-.807-.314,12.362,12.362,0,0,0-17.5,0,1.123,1.123,0,0,1-1.569,0,1.109,1.109,0,0,1,0-1.591A14.528,14.528,0,0,1,148.642,34.218Z" transform="translate(-125.471 -17.574)" fill="#1a242d"/>
      <path id="Path_2328" data-name="Path 2328" d="M158.188,78.751a2.857,2.857,0,1,0-2.868,2.846A2.86,2.86,0,0,0,158.188,78.751Zm18.174-33.389-3.585-2.756V60.488c0,3.092-1.994,5.6-4.459,5.6H156.485v7.641a5.182,5.182,0,0,1,3.137,2.129,5.354,5.354,0,0,1,.717,1.77h16.874a1.11,1.11,0,0,1,1.12,1.12,1.124,1.124,0,0,1-1.12,1.12H160.361a5.132,5.132,0,0,1-10.017,0H133.515a1.139,1.139,0,0,1-1.12-1.12,1.124,1.124,0,0,1,1.12-1.12h16.829a5.28,5.28,0,0,1,1.367-2.532,5.384,5.384,0,0,1,2.532-1.367V66.09H142.412c-2.465,0-4.459-2.51-4.459-5.6V42.673l-3.675,2.779a1.1,1.1,0,0,1-.672.224,1.135,1.135,0,0,1-.9-.448,1.115,1.115,0,0,1,.224-1.569l21.961-16.65a1.143,1.143,0,0,1,1.345,0l21.49,16.583a1.118,1.118,0,1,1-1.367,1.77Zm-5.826,15.126V40.858L155.566,29.317,140.193,40.97V60.488c0,1.838,1.008,3.361,2.218,3.361h25.9C169.527,63.849,170.535,62.325,170.535,60.488Z" transform="translate(-132.395 -26.79)" fill="#1a242d"/>
    </g>
  </g>
</svg>
