<svg width="15" height="15" viewBox="0 0 15 15" fill="none" xmlns="http://www.w3.org/2000/svg">
<path d="M7.47891 11.7572C7.72725 11.7572 7.93715 11.6715 8.10863 11.5C8.2801 11.3286 8.36584 11.1187 8.36584 10.8703C8.36584 10.622 8.2801 10.4121 8.10863 10.2406C7.93715 10.0691 7.72725 9.98338 7.47891 9.98338C7.23057 9.98338 7.02066 10.0691 6.84919 10.2406C6.67771 10.4121 6.59198 10.622 6.59198 10.8703C6.59198 11.1187 6.67771 11.3286 6.84919 11.5C7.02066 11.6715 7.23057 11.7572 7.47891 11.7572ZM6.84032 9.0255H8.15297C8.15297 8.63525 8.19732 8.32778 8.28601 8.10309C8.37471 7.8784 8.626 7.57093 9.0399 7.18068C9.34737 6.87322 9.5898 6.58053 9.76719 6.30262C9.94457 6.02472 10.0333 5.69064 10.0333 5.30039C10.0333 4.63815 9.79084 4.12965 9.30598 3.77487C8.82113 3.4201 8.24758 3.24272 7.58534 3.24272C6.91127 3.24272 6.36433 3.4201 5.94452 3.77487C5.5247 4.12965 5.23202 4.55537 5.06646 5.05205L6.2372 5.51326C6.29633 5.30039 6.42937 5.06979 6.63632 4.82145C6.84327 4.57311 7.15961 4.44894 7.58534 4.44894C7.96376 4.44894 8.24758 4.55242 8.43679 4.75937C8.626 4.96632 8.72061 5.19396 8.72061 5.4423C8.72061 5.67882 8.64965 5.90055 8.50775 6.1075C8.36584 6.31445 8.18845 6.50662 7.97559 6.684C7.45526 7.14521 7.13596 7.49407 7.0177 7.73058C6.89945 7.9671 6.84032 8.39874 6.84032 9.0255ZM7.51438 14.5954C6.53285 14.5954 5.61044 14.4092 4.74716 14.0367C3.88388 13.6641 3.13295 13.1586 2.49436 12.52C1.85577 11.8814 1.35022 11.1305 0.977711 10.2672C0.605201 9.40392 0.418945 8.48151 0.418945 7.49998C0.418945 6.51844 0.605201 5.59604 0.977711 4.73276C1.35022 3.86948 1.85577 3.11855 2.49436 2.47996C3.13295 1.84137 3.88388 1.33582 4.74716 0.963307C5.61044 0.590796 6.53285 0.404541 7.51438 0.404541C8.49592 0.404541 9.41833 0.590796 10.2816 0.963307C11.1449 1.33582 11.8958 1.84137 12.5344 2.47996C13.173 3.11855 13.6785 3.86948 14.0511 4.73276C14.4236 5.59604 14.6098 6.51844 14.6098 7.49998C14.6098 8.48151 14.4236 9.40392 14.0511 10.2672C13.6785 11.1305 13.173 11.8814 12.5344 12.52C11.8958 13.1586 11.1449 13.6641 10.2816 14.0367C9.41833 14.4092 8.49592 14.5954 7.51438 14.5954ZM7.51438 13.1763C9.09903 13.1763 10.4413 12.6264 11.541 11.5266C12.6408 10.4268 13.1907 9.08463 13.1907 7.49998C13.1907 5.91533 12.6408 4.57311 11.541 3.47332C10.4413 2.37353 9.09903 1.82363 7.51438 1.82363C5.92974 1.82363 4.58752 2.37353 3.48772 3.47332C2.38793 4.57311 1.83803 5.91533 1.83803 7.49998C1.83803 9.08463 2.38793 10.4268 3.48772 11.5266C4.58752 12.6264 5.92974 13.1763 7.51438 13.1763Z" fill="#E21331"/>
</svg>
