<svg xmlns="http://www.w3.org/2000/svg" width="34.206" height="19.477" viewBox="0 0 34.206 19.477">
  <g id="Group_2123" data-name="Group 2123" transform="translate(-317.278 -1338.488)">
    <g id="Group_2123-2" data-name="Group 2123" transform="translate(317.278 1338.488)">
      <path id="Path_4325" data-name="Path 4325" d="M354.3,1356.432v5.854a2.514,2.514,0,0,1-2.514,2.514h-24.5a2.514,2.514,0,0,1-2.514-2.514V1348.5a2.514,2.514,0,0,1,2.514-2.514h22.586" transform="translate(-324.445 -1345.656)" fill="none"/>
      <path id="Path_4326" data-name="Path 4326" d="M344.622,1357.965h-24.5a2.85,2.85,0,0,1-2.847-2.847v-13.783a2.85,2.85,0,0,1,2.847-2.847h22.586v.667H320.125a2.183,2.183,0,0,0-2.181,2.181v13.783a2.183,2.183,0,0,0,2.181,2.181h24.5a2.183,2.183,0,0,0,2.181-2.181v-5.854h.667v5.854A2.85,2.85,0,0,1,344.622,1357.965Z" transform="translate(-317.278 -1338.488)" fill="#1a242d"/>
    </g>
    <g id="Group_2121" data-name="Group 2121" transform="translate(330.486 1349.917)">
      <g id="Group_991" data-name="Group 991" transform="translate(0 0)">
        <rect id="Rectangle_25" data-name="Rectangle 25" width="1.934" height="3.476" transform="translate(2.61 0.473)" fill="#ff5f00"/>
        <path id="Path_2119" data-name="Path 2119" d="M617.254,1597.917a2.207,2.207,0,0,1,.844-1.738,2.211,2.211,0,1,0,0,3.476A2.207,2.207,0,0,1,617.254,1597.917Z" transform="translate(-614.521 -1595.706)" fill="#eb001b"/>
        <path id="Path_2120" data-name="Path 2120" d="M698.581,1597.928a2.211,2.211,0,0,1-3.577,1.738,2.211,2.211,0,0,0,0-3.476,2.211,2.211,0,0,1,3.577,1.738Z" transform="translate(-691.428 -1595.717)" fill="#f79e1b"/>
        <path id="Path_2121" data-name="Path 2121" d="M769.81,1674.454v-.07h.029v-.014h-.073v.014h.029v.07Zm.142,0v-.086h-.022l-.026.059-.026-.059h-.022v.086h.016v-.065l.024.056h.016l.024-.056v.065Z" transform="translate(-762.868 -1670.873)" fill="#f79e1b"/>
      </g>
    </g>
    <g id="Group_2120" data-name="Group 2120" transform="translate(339.174 1349.543)">
      <path id="Path_2123" data-name="Path 2123" d="M813.14,1590.752l-.117-.149v.149h-.35v-.21a.5.5,0,0,1-.153.022h-.056v.187h-.511l-.087-.123-.085.123h-.844v-.831h.844l.085.121.086-.121h2.962v-2.634h-4.878v1.926l.162-.38h.332l.1.214v-.214h.406l.062.184.062-.184h1.793v.083a.4.4,0,0,1,.256-.083h.545l.1.214v-.214h.321l.105.168v-.168h.366v.831h-.345l-.1-.162v.162h-.5l-.048-.123h-.114l-.047.123H813.2a.4.4,0,0,1-.245-.076v.076h-.49l-.117-.149v.149h-1.866l-.048-.123h-.114l-.047.123h-.232v2.5h4.88V1590.7a.35.35,0,0,1-.185.05Z" transform="translate(-810.036 -1587.286)" fill="#005aa6"/>
      <path id="Path_2124" data-name="Path 2124" d="M833.351,1650h.461v-.122h-.322v-.105h.315v-.12h-.315v-.105h.322v-.123h-.461Zm1.107,0-.231-.29.229-.285h-.17l-.14.182-.14-.182h-.175l.23.287-.229.288H834l.14-.185.14.185Zm.4-.382a.067.067,0,0,1-.063.07h-.175v-.14h.165a.067.067,0,0,1,.072.061.064.064,0,0,1,0,.009m.14,0a.184.184,0,0,0-.175-.193h-.342V1650h.14v-.19h.175a.188.188,0,0,0,.2-.193m.373.057h-.161v-.127h.161a.064.064,0,0,1,.068.061s0,0,0,0a.064.064,0,0,1-.063.064h-.009m.247.325-.191-.21a.184.184,0,0,0-.043-.364h-.313V1650h.14v-.206h.065l.171.206Zm.035,0h.461v-.122h-.32v-.1h.315v-.12h-.315v-.1h.322v-.123h-.462Zm.657-.4a.05.05,0,0,1,.049-.052h.253l.054-.123h-.3a.178.178,0,0,0-.2.157.192.192,0,0,0,0,.022.161.161,0,0,0,.151.17h.16a.052.052,0,1,1,0,.1h-.295V1650h.292a.179.179,0,0,0,.2-.158.164.164,0,0,0,0-.025.157.157,0,0,0-.179-.165h-.133a.051.051,0,0,1-.055-.047.04.04,0,0,1,0-.005m.884-.172v0h-.3a.178.178,0,0,0-.2.157.19.19,0,0,0,0,.022.161.161,0,0,0,.151.17h.16a.052.052,0,1,1,0,.1h-.295V1650h.291a.182.182,0,0,0,.186-.116.2.2,0,0,0,.012-.067.192.192,0,0,0-.012-.07.163.163,0,0,0-.167-.095h-.133a.051.051,0,0,1-.055-.047s0,0,0-.005a.051.051,0,0,1,.049-.052h.253Z" transform="translate(-832.315 -1646.665)" fill="#005aa6"/>
      <path id="Path_2125" data-name="Path 2125" d="M810.522,1625.35h-.182l.054-.135.035-.09h0l.035.09Zm.094.231h.157l-.245-.575h-.183l-.245.575h.148l.048-.121h.271Zm.761,0h.135v-.575h-.225l-.112.333-.018.063h0l-.019-.063-.113-.333H810.8v.575h.135v-.377l0-.088h0l.028.088.131.377h.126l.131-.377.028-.088h0l0,.088Zm.242,0h.459v-.122h-.322v-.105h.315v-.12h-.315v-.1h.322v-.123h-.459Zm.854-.325h-.161v-.127h.161a.065.065,0,0,1,.072.057.063.063,0,0,1,0,.008.064.064,0,0,1-.064.064h-.009m.247.325-.191-.21a.184.184,0,0,0-.043-.364h-.313v.575h.14v-.206h.065l.171.206Zm.035,0h.14v-.575h-.14Zm.506-.45h.148v-.125h-.161a.26.26,0,0,0-.276.243.271.271,0,0,0,0,.04v.01a.255.255,0,0,0,.266.283h.008l.057-.123h-.043a.14.14,0,0,1-.151-.129.138.138,0,0,1,0-.032v-.008a.142.142,0,0,1,.125-.158h.023m.482.219h-.182l.054-.135.035-.09h0l.035.09Zm.093.231h.157l-.245-.575h-.182l-.245.575h.148l.049-.121h.271Zm.731,0v-.575h-.135v.376h0l-.04-.064-.2-.311h-.169v.575h.135v-.388h0l.039.063.212.324Z" transform="translate(-810.096 -1623.33)" fill="#005aa6"/>
    </g>
    <path id="SVGID" d="M378.6,1618.472l-.773,1.955-.313-1.662a.346.346,0,0,0-.343-.293h-1.264l-.018.083a3.112,3.112,0,0,1,.733.245.316.316,0,0,1,.175.252l.592,2.292h.786l1.2-2.872Zm1.1,0-.615,2.872h.743l.614-2.872Zm4.26.776.225,1.078h-.617Zm-.109-.776a.338.338,0,0,0-.315.21l-1.115,2.662h.78l.155-.429h.953l.09.429h.687l-.6-2.872Zm-3.206.9c0,.414.369.644.65.782s.385.231.385.357c0,.193-.231.278-.445.28a1.553,1.553,0,0,1-.763-.181l-.135.63a2.247,2.247,0,0,0,.826.153c.781,0,1.291-.385,1.293-.983,0-.758-1.048-.8-1.041-1.139,0-.1.1-.213.315-.241a1.4,1.4,0,0,1,.732.129l.131-.609a2,2,0,0,0-.7-.127c-.735,0-1.251.391-1.255.949" transform="translate(-56.007 -267.493)" fill="#034ea2"/>
    <circle id="Ellipse_143" data-name="Ellipse 143" cx="4.394" cy="4.394" r="4.394" transform="translate(342.695 1339.098)" fill="#1a242d"/>
    <path id="Path_4327" data-name="Path 4327" d="M978.628,1405.895a.444.444,0,0,1-.444-.444v-3.522a.444.444,0,0,1,.889,0v3.522A.444.444,0,0,1,978.628,1405.895Z" transform="translate(-631.539 -60.197)" fill="#fff"/>
    <path id="Path_4328" data-name="Path 4328" d="M942.52,1442H939a.444.444,0,0,1,0-.889h3.522a.444.444,0,0,1,0,.889Z" transform="translate(-593.67 -98.066)" fill="#fff"/>
    <rect id="Rectangle_64327" data-name="Rectangle 64327" width="22.071" height="0.667" transform="translate(317.759 1343.214)" fill="#1a242d"/>
  </g>
</svg>
